<?xml version="1.0" encoding="utf-8"?>
<!-- Generator: Adobe Illustrator 16.0.0, SVG Export Plug-In . SVG Version: 6.00 Build 0)  -->
<!DOCTYPE svg PUBLIC "-//W3C//DTD SVG 1.1//EN" "http://www.w3.org/Graphics/SVG/1.1/DTD/svg11.dtd">
<svg version="1.1" id="Layer_1" xmlns="http://www.w3.org/2000/svg" xmlns:xlink="http://www.w3.org/1999/xlink" x="0px" y="0px"
	 width="534.668px" height="75.137px" viewBox="0 0 534.668 75.137" enable-background="new 0 0 534.668 75.137"
	 xml:space="preserve">
<g>
	<g>
		<path fill="#FFFFFF" d="M195.903,23.045v-0.492c0.053-0.032,0.148-0.088,0.283-0.164c0.258-0.143,0.494-0.293,0.711-0.45
			c0.074-0.916,0.113-2.402,0.113-4.461v-1.683c0-0.902-0.018-2.225-0.053-3.967c-0.02-0.965-0.064-1.58-0.131-1.846
			c-0.021-0.062-0.049-0.109-0.082-0.146c-0.055-0.055-0.141-0.096-0.256-0.123c-0.115-0.026-0.543-0.088-1.283-0.184V8.698
			l3.719,0.072c0.438,0,1.26-0.021,2.471-0.058c0.873-0.022,1.574-0.035,2.1-0.035c1.209,0,2.178,0.074,2.904,0.222
			c0.729,0.146,1.361,0.383,1.902,0.707c0.539,0.323,0.996,0.709,1.367,1.153c0.373,0.443,0.654,0.922,0.846,1.437
			c0.32,0.86,0.482,1.805,0.482,2.83c0,1.305-0.24,2.471-0.719,3.496c-0.477,1.024-1.135,1.883-1.973,2.573
			c-0.836,0.689-1.742,1.188-2.719,1.492c-0.979,0.303-2.156,0.455-3.537,0.455l-3.043-0.072L195.903,23.045z M199.992,21.783
			c0.637,0.104,1.244,0.154,1.826,0.154c0.908,0,1.715-0.097,2.42-0.287c0.52-0.144,0.975-0.353,1.363-0.625
			c0.391-0.273,0.764-0.679,1.123-1.211c0.359-0.533,0.637-1.168,0.836-1.906c0.197-0.738,0.297-1.535,0.297-2.389
			c0-0.779-0.1-1.533-0.297-2.263c-0.199-0.729-0.523-1.365-0.975-1.912c-0.452-0.547-1.021-0.942-1.713-1.188
			c-0.689-0.246-1.736-0.369-3.137-0.369c-0.527,0-1.107,0.045-1.744,0.133c-0.068,0.971-0.102,2.797-0.102,5.482v2.354
			C199.891,19.793,199.924,21.135,199.992,21.783z"/>
		<path fill="#FFFFFF" d="M223.11,22.277v0.77c-0.787-0.033-1.484-0.051-2.092-0.051c-0.574,0-1.131,0.018-1.672,0.051l-0.092-0.113
			l0.092-1.342c-0.246,0.156-0.971,0.697-2.174,1.619c-0.307,0.068-0.602,0.104-0.881,0.104c-0.746,0-1.328-0.22-1.748-0.656
			c-0.422-0.438-0.631-1.066-0.631-1.887c0-0.556,0.094-1.009,0.281-1.365c0.188-0.354,0.391-0.615,0.605-0.783s0.549-0.33,1-0.488
			c1.08-0.381,2.262-0.682,3.547-0.901c0.014-0.812-0.154-1.433-0.502-1.855c-0.355-0.424-0.896-0.635-1.621-0.635
			c-0.293,0-0.574,0.037-0.84,0.111c-0.117,0.034-0.254,0.104-0.41,0.204l-0.432,1.037l-0.697-0.153l0.062-1.322
			c0.506-0.342,0.988-0.639,1.445-0.893c0.459-0.253,0.779-0.406,0.965-0.462c0.252-0.075,0.607-0.112,1.066-0.112
			c0.744,0,1.357,0.106,1.84,0.321c0.482,0.218,0.838,0.472,1.066,0.765c0.229,0.295,0.387,0.608,0.473,0.942
			c0.084,0.336,0.127,0.761,0.127,1.271c0,0.221-0.018,0.791-0.051,1.713c-0.021,0.615-0.031,1.117-0.031,1.508
			c0,1.217,0.035,1.955,0.104,2.215c0.027,0.123,0.082,0.205,0.164,0.246C222.184,22.189,222.528,22.236,223.11,22.277z
			 M219.346,18.092c-0.58,0.123-1.111,0.273-1.594,0.447c-0.483,0.174-0.816,0.389-1,0.646c-0.186,0.256-0.277,0.577-0.277,0.969
			c0,0.438,0.111,0.774,0.334,1.014c0.221,0.24,0.514,0.359,0.877,0.359c0.307,0,0.615-0.088,0.928-0.267
			c0.311-0.178,0.555-0.403,0.732-0.678V18.092z"/>
		<path fill="#FFFFFF" d="M225.186,14.832v-0.779c0.588-0.035,1.182-0.112,1.777-0.237c0.595-0.125,1.361-0.347,2.293-0.664
			l0.143,0.112c-0.102,1.354-0.152,2.604-0.152,3.752v1.148c0,0.979,0.023,1.631,0.07,1.959c0.068,0.43,0.232,0.756,0.492,0.975
			c0.26,0.22,0.604,0.328,1.033,0.328c0.492,0,0.904-0.129,1.238-0.389c0.336-0.258,0.568-0.523,0.701-0.797
			c0.082-0.176,0.125-0.545,0.125-1.104v-1.748l-0.021-1.453c0-0.469-0.029-0.752-0.092-0.848c-0.033-0.061-0.102-0.108-0.205-0.143
			c-0.102-0.035-0.52-0.072-1.25-0.113v-0.779c1.059-0.139,1.779-0.248,2.162-0.332c0.383-0.082,1.033-0.272,1.949-0.569
			l0.195,0.112l-0.113,1.888c-0.055,1.34-0.082,2.088-0.082,2.244v2.104c0,1.25,0.031,2.023,0.092,2.316
			c0.027,0.123,0.078,0.209,0.154,0.256c0.129,0.069,0.551,0.121,1.262,0.153v0.82l-2.113-0.051l-1.938,0.051l-0.072-0.082
			l0.062-0.791c0.006-0.131,0.01-0.395,0.01-0.791c-0.268,0.213-0.5,0.408-0.699,0.586l-1.16,1.101
			c-0.473,0.17-0.947,0.256-1.428,0.256c-0.924,0-1.65-0.252-2.178-0.758c-0.528-0.507-0.791-1.179-0.791-2.019
			c0-0.102,0.014-0.479,0.039-1.137c0.008-0.348,0.014-0.799,0.014-1.353l-0.021-2.161c0-0.396-0.025-0.642-0.076-0.736
			c-0.053-0.096-0.135-0.168-0.252-0.215C226.239,14.898,225.848,14.861,225.186,14.832z"/>
		<path fill="#FFFFFF" d="M238.889,9.582V8.844c1.551-0.164,2.867-0.465,3.947-0.901c0.102,0.026,0.195,0.075,0.277,0.143
			c-0.068,2.838-0.104,4.482-0.104,4.935v1.928l1.239-1.025c0.363-0.295,0.693-0.496,0.99-0.604
			c0.297-0.109,0.676-0.164,1.133-0.164c1.171,0,2.109,0.362,2.82,1.086c0.711,0.727,1.066,1.699,1.066,2.924
			c0,0.738-0.131,1.453-0.391,2.148c-0.26,0.692-0.607,1.262-1.045,1.706c-0.062,0.062-0.56,0.416-1.492,1.066
			c-0.935,0.648-1.457,1-1.574,1.055c-0.396,0.179-0.906,0.269-1.527,0.269c-0.418,0-0.824-0.062-1.221-0.189
			s-0.844-0.34-1.344-0.641l-0.902,0.758l-0.471-0.174c0.137-2.084,0.205-4.58,0.205-7.486c0-2.871-0.041-4.688-0.123-5.455
			c-0.035-0.252-0.092-0.41-0.174-0.471C240.092,9.672,239.655,9.617,238.889,9.582z M243.01,16.041
			c-0.014,0.527-0.02,1.225-0.02,2.092c0,1.164,0.006,2.06,0.02,2.688c0.254,0.362,0.527,0.625,0.82,0.789
			c0.404,0.219,0.838,0.328,1.303,0.328c0.498,0,0.934-0.132,1.307-0.396s0.664-0.69,0.873-1.287
			c0.207-0.594,0.312-1.25,0.312-1.969c0-1.066-0.244-1.879-0.729-2.439s-1.094-0.842-1.825-0.842c-0.457,0-0.869,0.107-1.234,0.318
			C243.469,15.537,243.196,15.777,243.01,16.041z"/>
		<path fill="#FFFFFF" d="M253.063,28.277c0.117-0.5,0.191-0.849,0.227-1.047l0.154-1.035l0.267-0.052
			c0.172,0.179,0.364,0.335,0.584,0.472c0.268,0.117,0.555,0.174,0.86,0.174c0.355,0,0.685-0.121,0.986-0.363
			c0.301-0.244,0.635-0.774,1.004-1.598l0.41-0.984l-3.322-8.526c-0.199-0.506-0.387-0.818-0.563-0.939
			c-0.179-0.119-0.517-0.176-1.017-0.168v-0.801c0.67,0.027,1.49,0.041,2.461,0.041c1.148,0,2.172-0.014,3.066-0.041v0.801h-0.236
			c-0.424-0.008-0.717,0.041-0.881,0.144c-0.104,0.067-0.154,0.157-0.154,0.268c0,0.123,0.035,0.272,0.104,0.451l0.502,1.385
			l1.498,3.902l0.906-2.127c0.879-2.105,1.317-3.324,1.317-3.652c0-0.068-0.018-0.123-0.053-0.164
			c-0.047-0.055-0.133-0.096-0.256-0.123c-0.246-0.049-0.574-0.076-0.984-0.082v-0.801c0.438,0.027,0.988,0.041,1.65,0.041
			c0.807,0,1.559-0.014,2.256-0.041v0.801h-0.164c-0.184-0.008-0.357,0.027-0.521,0.103c-0.104,0.041-0.192,0.108-0.271,0.204
			c-0.079,0.097-0.272,0.474-0.579,1.13c-0.404,0.862-0.729,1.573-0.976,2.135c-0.767,1.738-1.25,2.854-1.455,3.346l-1.651,4.033
			c-0.507,1.223-1.041,2.096-1.609,2.615c-0.566,0.526-1.258,0.791-2.07,0.791c-0.268,0-0.512-0.021-0.734-0.062
			C253.597,28.463,253.344,28.385,253.063,28.277z"/>
		<path fill="#FFFFFF" d="M272.533,16.041c0-1.25,0.188-2.34,0.566-3.27c0.379-0.931,0.924-1.72,1.625-2.369
			c0.705-0.648,1.473-1.117,2.299-1.404c1.061-0.363,2.213-0.545,3.467-0.545c1.242,0,2.369,0.176,3.383,0.522
			c0.752,0.269,1.418,0.652,1.994,1.154s1.018,1.019,1.316,1.543c0.301,0.527,0.527,1.104,0.684,1.732
			c0.154,0.628,0.229,1.322,0.229,2.082c0,1.285-0.221,2.479-0.666,3.578c-0.328,0.819-0.809,1.549-1.439,2.184
			c-0.633,0.637-1.354,1.125-2.158,1.467c-1.107,0.459-2.371,0.688-3.793,0.688c-1.539,0-2.859-0.279-3.963-0.836
			c-1.105-0.558-1.973-1.379-2.602-2.468C272.848,19.016,272.533,17.662,272.533,16.041z M275.691,15.432
			c0,1.595,0.219,2.912,0.656,3.955c0.438,1.045,0.998,1.781,1.682,2.213c0.686,0.431,1.49,0.646,2.422,0.646
			c0.859,0,1.631-0.205,2.312-0.615c0.68-0.412,1.213-1.104,1.6-2.084c0.387-0.979,0.578-2.166,0.578-3.561
			c0-0.959-0.104-1.834-0.312-2.627c-0.209-0.795-0.508-1.472-0.896-2.027c-0.391-0.559-0.85-0.984-1.379-1.277
			c-0.529-0.295-1.23-0.44-2.105-0.44c-0.998,0-1.85,0.233-2.549,0.703c-0.701,0.469-1.209,1.16-1.527,2.078
			C275.85,13.312,275.691,14.323,275.691,15.432z"/>
		<path fill="#FFFFFF" d="M290.543,14.217c0.025-0.082,0.121-0.293,0.281-0.637c0.156-0.34,0.244-0.535,0.26-0.584
			c0.188-0.525,0.359-1.037,0.514-1.533c0.152-0.494,0.264-0.916,0.336-1.26c0.07-0.346,0.123-0.707,0.158-1.082
			c0.096-0.021,0.352-0.072,0.77-0.154c0.539-0.108,0.877-0.182,1.016-0.215c0.268-0.068,0.596-0.168,0.982-0.299l0.301,0.277
			c-0.082,0.213-0.225,0.502-0.422,0.87c-0.742,1.375-1.225,2.25-1.441,2.625c-0.367,0.656-0.729,1.234-1.074,1.734l-1.381,0.562
			L290.543,14.217z"/>
		<path fill="#FFFFFF" d="M311.486,21.191l-0.473,1.034c-0.854,0.451-1.621,0.763-2.303,0.929c-0.68,0.168-1.529,0.252-2.547,0.252
			c-1.449,0-2.73-0.229-3.848-0.688c-0.875-0.369-1.615-0.856-2.225-1.467c-0.609-0.607-1.076-1.268-1.404-1.979
			c-0.5-1.072-0.75-2.238-0.75-3.496c0-2.154,0.736-3.912,2.211-5.275s3.555-2.047,6.238-2.047c0.924,0,1.752,0.07,2.486,0.205
			c0.734,0.139,1.588,0.381,2.559,0.729l0.053,0.134c-0.107,0.321-0.193,0.727-0.258,1.211c-0.102,0.772-0.166,1.485-0.191,2.143
			h-0.803c-0.014-0.752-0.047-1.354-0.102-1.805c-0.459-0.479-0.973-0.836-1.545-1.07c-0.57-0.236-1.299-0.354-2.188-0.354
			c-1.605,0-2.893,0.508-3.854,1.522c-0.965,1.016-1.447,2.432-1.447,4.25c0,1.103,0.162,2.062,0.488,2.881
			c0.324,0.82,0.756,1.5,1.297,2.037c0.539,0.535,1.084,0.928,1.631,1.174c0.744,0.328,1.646,0.492,2.707,0.492
			c0.697,0,1.355-0.078,1.979-0.236c0.619-0.155,1.299-0.428,2.027-0.811L311.486,21.191z"/>
		<path fill="#FFFFFF" d="M313.951,18.205c0-1.162,0.195-2.123,0.594-2.887c0.396-0.763,0.992-1.336,1.785-1.724
			c0.793-0.385,1.715-0.578,2.768-0.578c1.58,0,2.781,0.414,3.605,1.24c0.82,0.828,1.232,2.041,1.232,3.642
			c0,0.922-0.119,1.723-0.355,2.397c-0.24,0.678-0.562,1.224-0.965,1.637c-0.402,0.412-0.826,0.728-1.271,0.938
			c-0.758,0.354-1.613,0.533-2.561,0.533c-1.547,0-2.736-0.439-3.574-1.318C314.369,21.209,313.951,19.914,313.951,18.205z
			 M316.791,17.713c0,1.818,0.268,3.115,0.801,3.887c0.354,0.513,0.861,0.771,1.518,0.771c0.562,0,1.004-0.195,1.332-0.586
			c0.439-0.519,0.656-1.523,0.656-3.014c0-1.048-0.088-1.943-0.262-2.691s-0.43-1.271-0.771-1.564
			c-0.338-0.293-0.746-0.44-1.225-0.44c-0.41,0-0.771,0.108-1.076,0.324c-0.309,0.215-0.547,0.577-0.719,1.086
			C316.877,15.992,316.791,16.738,316.791,17.713z"/>
		<path fill="#FFFFFF" d="M338.205,22.285v0.76c-0.934-0.047-1.691-0.072-2.281-0.072c-0.68,0-1.27,0.025-1.77,0.072l-0.186-0.184
			c0.014-0.146,0.059-0.734,0.133-1.775l0.051-1.682v-0.81c0-1.196-0.045-1.981-0.137-2.358c-0.094-0.375-0.283-0.679-0.57-0.906
			c-0.285-0.23-0.67-0.344-1.146-0.344c-0.479,0-0.875,0.112-1.189,0.344c-0.312,0.229-0.512,0.459-0.594,0.691
			c-0.049,0.137-0.068,0.682-0.061,1.639v1.719c0,0.498,0.018,1.109,0.051,1.832c0.008,0.322,0.035,0.533,0.082,0.635
			c0.035,0.076,0.078,0.132,0.133,0.164c0.082,0.056,0.24,0.105,0.479,0.154c0.082,0.014,0.367,0.041,0.855,0.082v0.799
			c-0.744-0.026-1.658-0.041-2.738-0.041c-1.25,0-2.221,0.015-2.912,0.041v-0.799c0.533,0,0.902-0.037,1.107-0.113
			c0.096-0.033,0.168-0.092,0.217-0.174c0.068-0.129,0.105-0.375,0.111-0.736l0.041-0.909c0.008-0.189,0.012-0.5,0.012-0.931v-1.34
			c0-0.606-0.018-1.344-0.053-2.209c-0.021-0.436-0.049-0.684-0.088-0.74c-0.037-0.059-0.1-0.102-0.182-0.129
			c-0.131-0.047-0.52-0.082-1.168-0.102v-0.801c1.244-0.212,2.062-0.369,2.451-0.472c0.393-0.104,0.83-0.268,1.322-0.492
			l0.275,0.123v1.652l1.867-1.5c0.227-0.088,0.414-0.148,0.568-0.178c0.154-0.031,0.367-0.047,0.641-0.047
			c0.732,0,1.279,0.082,1.646,0.246c0.365,0.166,0.674,0.396,0.928,0.694c0.252,0.299,0.43,0.611,0.533,0.937
			c0.102,0.326,0.154,0.836,0.154,1.528c0,0.781-0.01,1.279-0.021,1.49c-0.006,0.084-0.01,0.185-0.01,0.299l0.01,1.062
			c0.008,1.158,0.025,1.875,0.057,2.149c0.031,0.273,0.096,0.451,0.188,0.529c0.094,0.078,0.299,0.129,0.615,0.148
			C337.744,22.242,337.938,22.26,338.205,22.285z"/>
		<path fill="#FFFFFF" d="M352.082,22.285v0.76c-0.934-0.047-1.691-0.072-2.281-0.072c-0.678,0-1.268,0.025-1.768,0.072
			l-0.188-0.184c0.014-0.146,0.059-0.734,0.133-1.775l0.055-1.682v-0.81c0-1.196-0.049-1.981-0.141-2.358
			c-0.094-0.375-0.283-0.679-0.568-0.906c-0.287-0.23-0.672-0.344-1.148-0.344c-0.479,0-0.875,0.112-1.189,0.344
			c-0.312,0.229-0.512,0.459-0.594,0.691c-0.049,0.137-0.066,0.682-0.061,1.639v1.719c0,0.498,0.018,1.109,0.053,1.832
			c0.006,0.322,0.033,0.533,0.08,0.635c0.035,0.076,0.078,0.132,0.133,0.164c0.082,0.056,0.242,0.105,0.479,0.154
			c0.082,0.014,0.365,0.041,0.854,0.082v0.799c-0.744-0.026-1.656-0.041-2.736-0.041c-1.252,0-2.223,0.015-2.91,0.041v-0.799
			c0.531,0,0.9-0.037,1.105-0.113c0.096-0.033,0.166-0.092,0.215-0.174c0.068-0.129,0.105-0.375,0.113-0.736l0.041-0.909
			c0.006-0.189,0.01-0.5,0.01-0.931v-1.34c0-0.606-0.018-1.344-0.051-2.209c-0.021-0.436-0.051-0.684-0.088-0.74
			c-0.039-0.059-0.102-0.102-0.184-0.129c-0.131-0.047-0.52-0.082-1.166-0.102v-0.801c1.244-0.212,2.062-0.369,2.449-0.472
			c0.393-0.104,0.832-0.268,1.324-0.492l0.275,0.123v1.652l1.865-1.5c0.227-0.088,0.414-0.148,0.568-0.178
			c0.154-0.031,0.367-0.047,0.641-0.047c0.732,0,1.281,0.082,1.646,0.246c0.365,0.166,0.676,0.396,0.928,0.694
			c0.254,0.299,0.434,0.611,0.533,0.937c0.104,0.326,0.154,0.836,0.154,1.528c0,0.781-0.008,1.279-0.021,1.49
			c-0.006,0.084-0.01,0.185-0.01,0.299l0.01,1.062c0.008,1.158,0.025,1.875,0.059,2.149c0.029,0.273,0.094,0.451,0.188,0.529
			c0.092,0.078,0.297,0.129,0.613,0.148C351.621,22.242,351.814,22.26,352.082,22.285z"/>
		<path fill="#FFFFFF" d="M354.436,18.205c0-1.162,0.197-2.123,0.594-2.887c0.396-0.763,0.992-1.336,1.785-1.724
			c0.793-0.385,1.715-0.578,2.77-0.578c1.58,0,2.779,0.414,3.604,1.24c0.822,0.828,1.234,2.041,1.234,3.642
			c0,0.922-0.119,1.723-0.357,2.397c-0.238,0.678-0.561,1.224-0.965,1.637c-0.4,0.412-0.826,0.728-1.27,0.938
			c-0.76,0.354-1.613,0.533-2.562,0.533c-1.545,0-2.734-0.439-3.574-1.318C354.854,21.209,354.436,19.914,354.436,18.205z
			 M357.275,17.713c0,1.818,0.27,3.115,0.803,3.887c0.354,0.513,0.859,0.771,1.518,0.771c0.562,0,1.004-0.195,1.332-0.586
			c0.439-0.519,0.656-1.523,0.656-3.014c0-1.048-0.088-1.943-0.264-2.691c-0.174-0.748-0.43-1.271-0.77-1.564
			c-0.338-0.293-0.746-0.44-1.225-0.44c-0.41,0-0.771,0.108-1.076,0.324c-0.311,0.215-0.547,0.577-0.719,1.086
			C357.361,15.992,357.275,16.738,357.275,17.713z"/>
		<path fill="#FFFFFF" d="M372.805,22.246v0.799c-0.773-0.033-1.635-0.051-2.584-0.051c-1.061,0-2.16,0.018-3.303,0.051v-0.799
			c0.533,0,0.9-0.037,1.105-0.113c0.098-0.033,0.168-0.092,0.215-0.174c0.068-0.129,0.107-0.375,0.113-0.736l0.041-0.909
			c0.008-0.189,0.01-0.5,0.01-0.931v-1.34c0-0.606-0.016-1.344-0.051-2.209c-0.02-0.436-0.049-0.684-0.088-0.74
			c-0.037-0.059-0.098-0.102-0.18-0.129c-0.131-0.047-0.521-0.082-1.168-0.102v-0.801c1.25-0.212,2.07-0.369,2.463-0.472
			c0.393-0.104,0.836-0.268,1.33-0.492l0.275,0.123l-0.02,2.07c0.441-0.457,0.781-0.836,1.02-1.139
			c0.355-0.422,0.617-0.693,0.795-0.81c0.244-0.164,0.566-0.246,0.971-0.246c0.25,0,0.479,0.041,0.682,0.123l-0.07,1.455
			c-0.018,0.793-0.029,1.248-0.041,1.363l-0.432,0.135c-0.17-0.227-0.334-0.383-0.492-0.473c-0.252-0.144-0.527-0.215-0.83-0.215
			c-0.402,0-0.75,0.125-1.041,0.375c-0.291,0.248-0.463,0.504-0.518,0.764c-0.027,0.15-0.041,0.729-0.041,1.729v1.022l0.02,1.394
			c0.01,0.524,0.027,0.848,0.059,0.967c0.031,0.121,0.102,0.215,0.211,0.28c0.109,0.068,0.346,0.117,0.707,0.146L372.805,22.246z"/>
		<path fill="#FFFFFF" d="M398.684,20.443l0.297,0.666c-0.219,0.198-0.553,0.541-1,1.024c-0.445,0.486-0.768,0.853-0.959,1.099
			c-0.492,0.108-0.895,0.164-1.209,0.164c-0.588,0-1.133-0.091-1.631-0.269c-0.719-0.246-1.463-0.652-2.236-1.221
			c-0.629,0.5-1.293,0.875-1.992,1.123c-0.701,0.25-1.492,0.375-2.373,0.375c-1.572,0-2.768-0.426-3.578-1.277
			c-0.814-0.85-1.223-1.812-1.223-2.887c0-0.785,0.197-1.474,0.596-2.062c0.547-0.807,1.447-1.508,2.707-2.102
			c-0.262-0.58-0.439-1.084-0.543-1.508s-0.154-0.854-0.154-1.291c0-0.597,0.117-1.025,0.35-1.293l0.984-1.14
			c0.457-0.532,0.77-0.844,0.934-0.932c0.574-0.309,1.178-0.463,1.807-0.463c0.465,0,0.881,0.094,1.25,0.277
			c0.369,0.186,0.648,0.454,0.842,0.811s0.287,0.748,0.287,1.18c0,0.615-0.217,1.238-0.646,1.871
			c-0.432,0.633-1.33,1.375-2.695,2.23c0.629,0.949,1.334,1.856,2.115,2.723c0.783,0.863,1.537,1.57,2.264,2.117
			c0.23-0.383,0.398-0.73,0.502-1.041c0.104-0.312,0.152-0.623,0.152-0.939c0-0.246-0.033-0.51-0.104-0.793
			c-0.068-0.284-0.166-0.53-0.297-0.744h-1.846l-0.094-0.122c0.145-0.228,0.25-0.402,0.318-0.533l0.348-0.76
			c1.326,0.034,2.104,0.053,2.328,0.053c1.859,0,3.287-0.056,4.285-0.164l0.094,0.082c-0.148,0.416-0.246,0.711-0.283,0.881
			c-0.035,0.172-0.064,0.377-0.086,0.615l-0.094,0.112c-0.854-0.077-1.336-0.116-1.445-0.116c-0.271-0.017-0.793-0.031-1.559-0.048
			c0.068,0.33,0.105,0.619,0.105,0.865c0,0.517-0.104,1.015-0.305,1.494c-0.203,0.482-0.568,1.053-1.104,1.711
			c0.465,0.328,0.992,0.582,1.58,0.76c0.588,0.179,1.145,0.267,1.672,0.267c0.154,0,0.287-0.017,0.389-0.045
			c0.104-0.031,0.223-0.088,0.359-0.17L398.684,20.443z M386.49,15.949c-0.361,0.219-0.65,0.502-0.865,0.846
			c-0.215,0.346-0.324,0.744-0.324,1.195c0,0.67,0.184,1.32,0.549,1.953s0.834,1.121,1.406,1.467
			c0.57,0.346,1.156,0.518,1.758,0.518c0.689,0,1.373-0.219,2.051-0.655c-0.998-0.843-1.84-1.662-2.525-2.461
			C387.85,18.01,387.168,17.057,386.49,15.949z M388.049,13.961c0.664-0.465,1.15-0.918,1.463-1.358
			c0.311-0.441,0.465-0.908,0.465-1.4c0-0.437-0.123-0.787-0.369-1.051c-0.246-0.263-0.553-0.396-0.922-0.396
			c-0.391,0-0.717,0.142-0.979,0.42c-0.266,0.281-0.396,0.656-0.396,1.129C387.311,12.051,387.557,12.937,388.049,13.961z"/>
		<path fill="#FFFFFF" d="M407.182,23.045v-0.82c0.328-0.401,0.82-1.053,1.479-1.946c1.105-1.531,1.887-2.625,2.338-3.281
			l1.918-2.779c0.613-0.895,1.092-1.604,1.436-2.123c0.848-1.276,1.318-1.983,1.414-2.123h-2.379
			c-0.875,0.011-1.75,0.033-2.625,0.072c-0.639,0.027-1.033,0.08-1.182,0.154c-0.057,0.026-0.094,0.063-0.113,0.113
			c-0.074,0.155-0.156,0.547-0.244,1.168c-0.041,0.245-0.074,0.448-0.102,0.604h-0.842c0.049-0.967,0.07-1.674,0.07-2.119
			c0-0.24-0.006-0.662-0.018-1.266c1.246,0.041,1.941,0.061,2.094,0.061c1.711,0.008,3.225,0.013,4.545,0.013
			c0.5,0,1.027-0.002,1.58-0.011l3.172-0.051v0.707c-1.279,1.701-2.322,3.141-3.129,4.316l-3.035,4.389
			c-0.197,0.287-0.455,0.674-0.771,1.158c-0.318,0.485-0.709,1.084-1.176,1.795c-0.172,0.254-0.316,0.479-0.439,0.678l1.908,0.021
			c1.934,0,3.336-0.031,4.203-0.093c0.637-0.047,0.996-0.112,1.088-0.194c0.129-0.123,0.266-0.547,0.408-1.271
			c0.082-0.401,0.145-0.688,0.186-0.86h0.83c-0.129,1.159-0.242,2.377-0.338,3.649h-0.391l-1.959,0.041l-1.32-0.031l-2.646-0.02
			l-2.697-0.031L407.182,23.045z"/>
		<path fill="#FFFFFF" d="M431.723,22.277v0.77c-0.785-0.033-1.48-0.051-2.092-0.051c-0.574,0-1.131,0.018-1.672,0.051l-0.092-0.113
			l0.092-1.342c-0.246,0.156-0.973,0.697-2.174,1.619c-0.309,0.068-0.604,0.104-0.883,0.104c-0.744,0-1.326-0.22-1.748-0.656
			c-0.422-0.438-0.631-1.066-0.631-1.887c0-0.556,0.096-1.009,0.281-1.365c0.189-0.354,0.391-0.615,0.605-0.783s0.549-0.33,1-0.488
			c1.078-0.381,2.262-0.682,3.547-0.901c0.014-0.812-0.152-1.433-0.502-1.855c-0.355-0.424-0.896-0.635-1.619-0.635
			c-0.295,0-0.574,0.037-0.842,0.111c-0.115,0.034-0.252,0.104-0.41,0.204l-0.432,1.037l-0.695-0.153l0.061-1.322
			c0.506-0.342,0.988-0.639,1.445-0.893c0.459-0.253,0.779-0.406,0.965-0.462c0.252-0.075,0.607-0.112,1.066-0.112
			c0.742,0,1.355,0.106,1.84,0.321c0.48,0.218,0.838,0.472,1.064,0.765c0.23,0.295,0.389,0.608,0.475,0.942
			c0.084,0.336,0.127,0.761,0.127,1.271c0,0.221-0.018,0.791-0.051,1.713c-0.021,0.615-0.031,1.117-0.031,1.508
			c0,1.217,0.035,1.955,0.104,2.215c0.027,0.123,0.082,0.205,0.164,0.246C430.797,22.189,431.143,22.236,431.723,22.277z
			 M427.959,18.092c-0.58,0.123-1.111,0.273-1.594,0.447s-0.814,0.389-1,0.646c-0.186,0.256-0.277,0.577-0.277,0.969
			c0,0.438,0.111,0.774,0.334,1.014c0.223,0.24,0.514,0.359,0.877,0.359c0.307,0,0.617-0.088,0.928-0.267
			c0.312-0.178,0.557-0.403,0.732-0.678V18.092L427.959,18.092z"/>
		<path fill="#FFFFFF" d="M439.633,22.246v0.799c-0.854-0.047-1.746-0.072-2.676-0.072c-0.932,0-1.979,0.025-3.141,0.072v-0.799
			c0.654-0.021,1.053-0.049,1.189-0.082c0.104-0.027,0.182-0.066,0.23-0.119c0.053-0.051,0.088-0.131,0.107-0.24
			c0.049-0.205,0.082-0.852,0.1-1.938c0.018-1.088,0.025-2.053,0.025-2.896v-3.387c0-1.074-0.025-2.057-0.072-2.945
			c-0.025-0.479-0.062-0.762-0.104-0.852c-0.027-0.047-0.064-0.086-0.111-0.113c-0.082-0.055-0.213-0.096-0.391-0.123
			c-0.104-0.014-0.41-0.03-0.922-0.051V8.74c0.85-0.088,1.525-0.187,2.033-0.291c0.508-0.105,1.188-0.293,2.045-0.56l0.217,0.123
			l-0.09,2.074c-0.033,1.164-0.059,2.59-0.062,4.281v2.629c0,0.992,0.004,1.736,0.016,2.229c0.023,1.226,0.041,1.968,0.057,2.224
			c0.016,0.258,0.039,0.42,0.07,0.488c0.021,0.049,0.059,0.09,0.104,0.123c0.062,0.049,0.17,0.086,0.32,0.112
			C438.643,22.189,438.992,22.211,439.633,22.246z"/>
		<path fill="#FFFFFF" d="M450.814,21.467l-0.451,1.004c-0.561,0.343-1.139,0.597-1.732,0.761c-0.443,0.114-0.949,0.174-1.52,0.174
			c-0.676,0-1.271-0.078-1.789-0.236c-0.516-0.156-0.955-0.371-1.32-0.646c-0.365-0.271-0.688-0.607-0.963-1.004
			c-0.277-0.396-0.479-0.854-0.604-1.375c-0.123-0.519-0.184-1.087-0.184-1.701c0-0.896,0.119-1.695,0.357-2.4
			c0.164-0.492,0.355-0.846,0.574-1.065c0.139-0.136,0.492-0.394,1.066-0.769c0.574-0.377,0.99-0.623,1.25-0.738
			c0.479-0.213,1.043-0.317,1.689-0.317c0.916,0,1.668,0.19,2.258,0.574c0.588,0.383,1.004,0.87,1.244,1.467
			c0.242,0.594,0.365,1.315,0.365,2.162c0,0.192-0.008,0.377-0.02,0.555c-0.172,0.055-0.432,0.117-0.779,0.184
			c-0.465,0.09-0.779,0.14-0.943,0.146c-0.512,0.041-1.188,0.063-2.027,0.072c-0.844,0.006-1.309,0.014-1.396,0.02
			c-0.09,0.008-0.188,0.01-0.299,0.01h-0.676c0.055,1.082,0.389,1.935,1.004,2.56c0.615,0.627,1.375,0.938,2.275,0.938
			c0.391,0,0.748-0.043,1.076-0.129s0.76-0.262,1.293-0.527L450.814,21.467z M448.373,17.211c0.025-1.082-0.119-1.842-0.441-2.279
			c-0.328-0.428-0.752-0.643-1.27-0.643c-0.533,0-0.975,0.225-1.322,0.674c-0.355,0.457-0.521,1.205-0.492,2.248
			c0.404,0.062,1.076,0.092,2.021,0.092C447.467,17.303,447.971,17.275,448.373,17.211z"/>
		<path fill="#FFFFFF" d="M453.945,19.816h0.82c0.033,0.768,0.068,1.248,0.104,1.446c0.309,0.375,0.646,0.654,1.016,0.836
			c0.369,0.181,0.793,0.271,1.271,0.271c0.645,0,1.137-0.154,1.479-0.463c0.342-0.308,0.514-0.681,0.514-1.119
			c0-0.287-0.057-0.525-0.17-0.713c-0.113-0.188-0.34-0.361-0.682-0.521c-0.27-0.096-0.777-0.225-1.533-0.389
			s-1.328-0.346-1.717-0.545c-0.393-0.197-0.695-0.492-0.914-0.885c-0.219-0.394-0.328-0.854-0.328-1.379
			c0-0.943,0.354-1.728,1.066-2.353c0.711-0.625,1.732-0.938,3.064-0.938c0.555,0,1.062,0.049,1.527,0.143
			c0.465,0.098,0.887,0.24,1.262,0.432l0.031,0.103c-0.041,0.24-0.072,0.481-0.092,0.729c-0.021,0.246-0.055,0.828-0.096,1.744
			l-0.799-0.012c-0.008-0.074-0.018-0.201-0.031-0.381c-0.02-0.31-0.061-0.607-0.123-0.896c-0.211-0.272-0.471-0.479-0.779-0.617
			c-0.312-0.139-0.674-0.206-1.09-0.206c-0.58,0-1.027,0.131-1.346,0.391c-0.316,0.26-0.477,0.572-0.477,0.934
			c0,0.371,0.072,0.646,0.215,0.822c0.146,0.178,0.355,0.312,0.637,0.4c0.279,0.088,0.797,0.203,1.555,0.344
			c0.756,0.141,1.264,0.258,1.521,0.354c0.375,0.146,0.676,0.326,0.902,0.545c0.225,0.22,0.396,0.49,0.518,0.816
			c0.119,0.324,0.182,0.682,0.182,1.072c0,1.02-0.396,1.879-1.186,2.576c-0.791,0.696-1.898,1.047-3.328,1.047
			c-0.479,0-0.941-0.043-1.395-0.129c-0.451-0.084-1.002-0.24-1.65-0.468l-0.113-0.151c0.057-0.527,0.09-0.898,0.104-1.119
			L453.945,19.816z"/>
		<path fill="#FFFFFF" d="M475.832,22.225v0.82c-0.287-0.02-0.887-0.031-1.793-0.031c-0.951,0-1.545,0.013-1.783,0.031
			c-0.357-0.602-1.08-1.521-2.17-2.764c-1.092-1.24-1.709-1.914-1.854-2.025c-0.047-0.041-0.123-0.063-0.225-0.069v1.004
			c0,0.5,0.018,1.174,0.051,2.02c0.021,0.385,0.049,0.615,0.082,0.697c0.021,0.057,0.061,0.1,0.115,0.135
			c0.074,0.055,0.205,0.096,0.391,0.123c0.084,0.014,0.406,0.033,0.973,0.061v0.82c-0.836-0.047-1.746-0.072-2.738-0.072
			c-1.061,0-2.043,0.025-2.953,0.072v-0.82c0.604-0.026,0.963-0.053,1.068-0.075c0.105-0.023,0.188-0.062,0.242-0.113
			c0.057-0.051,0.094-0.117,0.113-0.199c0.055-0.205,0.088-0.762,0.102-1.672c0.021-1.236,0.031-2.303,0.031-3.199v-3.321
			c0-1.101-0.025-2.099-0.082-2.994c-0.02-0.457-0.051-0.729-0.092-0.812c-0.027-0.047-0.062-0.084-0.113-0.112
			c-0.082-0.048-0.207-0.085-0.379-0.111c-0.113-0.021-0.414-0.041-0.893-0.062V8.796c0.965-0.117,1.664-0.223,2.098-0.317
			c0.436-0.096,1.061-0.273,1.871-0.533l0.229,0.123l-0.072,2.225c-0.027,1.23-0.041,2.469-0.041,3.713v3.732
			c0.219-0.164,0.473-0.377,0.76-0.638c0.604-0.547,1.104-1.012,1.498-1.395c0.146-0.15,0.396-0.402,0.76-0.758
			c0.363-0.356,0.668-0.678,0.914-0.965v-0.574c0.613,0.014,1.236,0.018,1.863,0.01c0.273,0,0.73-0.002,1.373-0.01v0.801
			l-1.078,0.07c-0.115,0.016-0.229,0.049-0.338,0.104c-0.205,0.103-0.523,0.324-0.953,0.666c-0.6,0.479-0.961,0.773-1.084,0.892
			c-0.123,0.114-0.219,0.205-0.287,0.266l-0.869,0.756c0.602,0.713,1.617,1.883,3.051,3.512c0.809,0.925,1.338,1.457,1.59,1.601
			C475.35,22.154,475.559,22.205,475.832,22.225z"/>
		<path fill="#FFFFFF" d="M477.805,23.045v-0.758c0.766-0.055,1.203-0.115,1.312-0.18c0.107-0.066,0.178-0.188,0.203-0.365
			c0.068-0.377,0.104-1.344,0.104-2.906c0-2.143-0.031-3.358-0.092-3.654c-0.027-0.137-0.072-0.227-0.133-0.268
			c-0.139-0.088-0.604-0.137-1.396-0.145V13.99c1.031-0.107,1.812-0.224,2.338-0.344c0.525-0.121,1.102-0.308,1.725-0.56
			l0.244,0.135c-0.082,1.066-0.123,2.068-0.123,3.004v3.486c0,1.189,0.027,1.896,0.082,2.111c0.027,0.123,0.082,0.205,0.164,0.246
			c0.186,0.09,0.633,0.147,1.344,0.176v0.799c-0.973-0.027-2.025-0.041-3.168-0.041C479.424,23.004,478.557,23.018,477.805,23.045z
			 M480.619,8.198c0.436,0,0.805,0.153,1.105,0.461c0.305,0.309,0.455,0.678,0.455,1.106c0,0.439-0.15,0.812-0.455,1.119
			c-0.303,0.308-0.672,0.461-1.105,0.461c-0.432,0-0.799-0.153-1.104-0.461c-0.307-0.309-0.461-0.68-0.461-1.119
			c0-0.43,0.152-0.799,0.455-1.106C479.812,8.353,480.182,8.198,480.619,8.198z"/>
		<path fill="#FFFFFF" d="M485.141,25.816c0.416-0.798,0.738-1.564,0.971-2.3c0.23-0.733,0.4-1.524,0.508-2.368
			c0.891-0.183,1.365-0.281,1.432-0.3c0.258-0.069,0.572-0.182,0.941-0.334l0.314,0.3c-0.234,0.557-0.623,1.317-1.166,2.284
			c-0.541,0.968-1.035,1.765-1.479,2.392l-1.258,0.545L485.141,25.816z"/>
		<path fill="#FFFFFF" d="M497.145,23.045v-0.451c0.152-0.063,0.365-0.178,0.643-0.342c0.123-0.07,0.203-0.129,0.236-0.176
			c0.023-0.029,0.037-0.062,0.043-0.098c0.029-0.146,0.059-0.671,0.08-1.568c0.023-0.898,0.035-1.979,0.035-3.238
			c0-1.85-0.006-2.992-0.016-3.426c-0.021-1.102-0.057-1.73-0.109-1.889c-0.021-0.07-0.064-0.123-0.133-0.158
			c-0.135-0.088-0.586-0.146-1.352-0.176V10.75c0.742,0.041,1.594,0.062,2.549,0.062c1.064,0,2.078-0.021,3.033-0.062v0.773
			c-0.662,0.028-1.066,0.082-1.215,0.157c-0.062,0.035-0.109,0.093-0.141,0.17c-0.029,0.08-0.059,0.441-0.084,1.087
			c-0.027,0.643-0.039,1.457-0.039,2.44c0,0.105,0.002,0.951,0.008,2.537c0.006,0.838,0.012,1.668,0.016,2.49
			c0.002,0.822,0.008,1.319,0.014,1.496c0.809,0.041,1.359,0.062,1.652,0.062c0.891,0,1.666-0.053,2.326-0.158
			c0.24-0.034,0.387-0.073,0.434-0.114s0.096-0.148,0.146-0.324c0.117-0.445,0.232-0.955,0.346-1.529h0.729
			c-0.018,0.164-0.025,0.26-0.025,0.289l-0.221,1.775c-0.047,0.557-0.072,0.891-0.078,1.002c-0.17,0.047-0.34,0.08-0.51,0.098
			c-0.357,0.029-0.912,0.043-1.662,0.043c-0.104,0-0.793-0.014-2.062-0.043c-0.969-0.022-1.643-0.035-2.021-0.035
			C499.189,22.967,498.316,22.992,497.145,23.045z"/>
		<path fill="#FFFFFF" d="M509.039,23.045v-0.451c0.15-0.063,0.363-0.178,0.641-0.342c0.123-0.07,0.203-0.129,0.238-0.176
			c0.021-0.029,0.037-0.062,0.043-0.098c0.029-0.146,0.057-0.671,0.08-1.568c0.021-0.898,0.035-1.979,0.035-3.238
			c0-1.85-0.008-2.992-0.018-3.426c-0.02-1.102-0.055-1.73-0.105-1.889c-0.023-0.07-0.068-0.123-0.135-0.158
			c-0.137-0.088-0.586-0.146-1.354-0.176V10.75c0.744,0.041,1.594,0.062,2.549,0.062c1.066,0,2.078-0.021,3.033-0.062v0.773
			c-0.662,0.028-1.066,0.082-1.213,0.157c-0.064,0.035-0.111,0.093-0.143,0.17c-0.027,0.08-0.057,0.441-0.084,1.087
			c-0.023,0.643-0.039,1.457-0.039,2.44c0,0.105,0.004,0.951,0.01,2.537c0.006,0.838,0.012,1.668,0.014,2.49
			c0.004,0.822,0.008,1.319,0.014,1.496c0.811,0.041,1.359,0.062,1.652,0.062c0.891,0,1.666-0.053,2.328-0.158
			c0.24-0.034,0.385-0.073,0.432-0.114s0.098-0.148,0.148-0.324c0.117-0.445,0.23-0.955,0.344-1.529h0.729
			c-0.018,0.164-0.023,0.26-0.023,0.289l-0.223,1.775c-0.047,0.557-0.07,0.891-0.076,1.002c-0.172,0.047-0.342,0.08-0.512,0.098
			c-0.355,0.029-0.912,0.043-1.662,0.043c-0.104,0-0.793-0.014-2.062-0.043c-0.967-0.022-1.643-0.035-2.021-0.035
			C511.084,22.967,510.211,22.992,509.039,23.045z"/>
		<path fill="#FFFFFF" d="M532.271,21.455l-0.402,0.887c-0.732,0.388-1.393,0.652-1.975,0.795c-0.584,0.146-1.311,0.218-2.184,0.218
			c-1.242,0-2.342-0.197-3.297-0.591c-0.75-0.315-1.387-0.733-1.906-1.256c-0.521-0.521-0.924-1.088-1.205-1.696
			c-0.428-0.921-0.641-1.919-0.641-2.996c0-1.847,0.631-3.354,1.893-4.523c1.264-1.168,3.047-1.752,5.35-1.752
			c0.791,0,1.5,0.059,2.131,0.176s1.361,0.324,2.193,0.623l0.043,0.115c-0.094,0.275-0.166,0.621-0.219,1.037
			c-0.088,0.662-0.146,1.272-0.168,1.836h-0.688c-0.012-0.646-0.041-1.16-0.088-1.547c-0.393-0.41-0.834-0.717-1.32-0.918
			c-0.49-0.203-1.115-0.304-1.877-0.304c-1.379,0-2.479,0.435-3.307,1.306c-0.826,0.869-1.236,2.084-1.236,3.643
			c0,0.943,0.139,1.769,0.416,2.472c0.277,0.702,0.648,1.284,1.111,1.743c0.463,0.461,0.928,0.795,1.396,1.007
			c0.639,0.28,1.412,0.422,2.318,0.422c0.6,0,1.164-0.066,1.697-0.201s1.113-0.367,1.74-0.695L532.271,21.455z"/>
		<path fill="#FFFFFF" d="M194.815,48.045v-0.531c0.412-0.004,0.668-0.021,0.77-0.051c0.102-0.026,0.195-0.082,0.281-0.164
			c0.086-0.08,0.211-0.289,0.373-0.629c0.094-0.19,0.432-0.924,1.016-2.195l1.957-4.405c0.213-0.483,0.67-1.562,1.369-3.233h0.5
			l3.34,7.836c0.543,1.271,0.902,2.067,1.08,2.393c0.1,0.184,0.207,0.303,0.324,0.357c0.117,0.061,0.383,0.09,0.795,0.094v0.531
			c-0.814-0.052-1.383-0.078-1.707-0.078l-2.518,0.078v-0.531c0.584-0.01,0.938-0.025,1.062-0.055
			c0.125-0.023,0.211-0.062,0.254-0.113c0.045-0.049,0.066-0.107,0.066-0.185c0-0.112-0.035-0.262-0.109-0.444l-0.959-2.392h-4.525
			l-0.848,2.009c-0.152,0.358-0.227,0.622-0.227,0.788c0,0.074,0.02,0.134,0.062,0.181c0.057,0.067,0.146,0.115,0.266,0.143
			c0.193,0.043,0.531,0.064,1.016,0.068v0.531c-0.881-0.048-1.541-0.069-1.979-0.069C195.967,47.975,195.414,47.998,194.815,48.045z
			 M198.453,43.662h3.939l-1.945-4.701L198.453,43.662z"/>
		<path fill="#FFFFFF" d="M212.711,48.045v-0.406c0.32-0.149,0.523-0.27,0.611-0.358c0.051-0.047,0.088-0.104,0.107-0.181
			c0.047-0.145,0.078-0.457,0.094-0.936c0.025-0.713,0.039-1.137,0.039-1.273v-4.198c0-0.707-0.008-1.399-0.023-2.076
			c-0.016-0.494-0.055-0.787-0.113-0.879c-0.061-0.092-0.156-0.158-0.289-0.203c-0.133-0.043-0.51-0.07-1.129-0.082v-0.5
			c1.27,0.037,2.057,0.055,2.359,0.055c0.332,0,1.08-0.018,2.242-0.055v0.5c-0.621,0.012-0.996,0.039-1.129,0.082
			c-0.133,0.045-0.227,0.104-0.277,0.184c-0.062,0.104-0.102,0.357-0.117,0.758c-0.008,0.104-0.02,0.843-0.039,2.219v5.246
			c0,0.547,0.012,0.988,0.039,1.334c0.594,0.037,1.182,0.055,1.766,0.055c1.469,0,2.496-0.094,3.086-0.281
			c0.066-0.156,0.127-0.336,0.18-0.539l0.312-1.297h0.523c-0.115,0.777-0.227,1.688-0.336,2.734
			c-0.215,0.043-0.383,0.066-0.508,0.078c-0.271,0.016-0.688,0.021-1.25,0.021l-4.625-0.056
			C213.735,47.99,213.227,48.01,212.711,48.045z"/>
		<path fill="#FFFFFF" d="M222.643,41.615V41.17c1.012-0.113,1.859-0.332,2.547-0.656l0.172,0.125
			c-0.041,1.109-0.062,1.959-0.062,2.548v1.422c0.027,1.354,0.043,2.086,0.047,2.194c0.006,0.263,0.035,0.451,0.086,0.57
			c0.027,0.047,0.061,0.088,0.102,0.121c0.043,0.035,0.105,0.062,0.188,0.082c0.031,0.006,0.32,0.014,0.867,0.021v0.445
			c-0.791-0.035-1.424-0.056-1.898-0.056c-0.416,0-1.098,0.021-2.047,0.056V47.6l0.748-0.008c0.109-0.004,0.195-0.022,0.256-0.059
			c0.059-0.033,0.105-0.076,0.137-0.129c0.057-0.104,0.094-0.289,0.109-0.557c0-0.064,0.014-0.812,0.039-2.24v-1.375
			c0-0.775-0.025-1.236-0.078-1.385c-0.031-0.076-0.086-0.137-0.168-0.176C223.606,41.635,223.258,41.615,222.643,41.615z
			 M224.549,37.045c0.246,0,0.453,0.086,0.621,0.258c0.17,0.172,0.254,0.381,0.254,0.625c0,0.24-0.086,0.445-0.258,0.617
			c-0.172,0.172-0.377,0.258-0.617,0.258c-0.244,0-0.453-0.086-0.625-0.258s-0.258-0.377-0.258-0.617
			c0-0.244,0.086-0.453,0.258-0.625S224.305,37.045,224.549,37.045z"/>
		<path fill="#FFFFFF" d="M228.076,48.045V47.6l0.748-0.008c0.109-0.004,0.193-0.022,0.254-0.059
			c0.061-0.033,0.107-0.076,0.139-0.129c0.057-0.104,0.094-0.289,0.109-0.557c0-0.064,0.014-0.812,0.039-2.24v-0.932
			c0-0.416-0.008-0.861-0.023-1.345c-0.016-0.307-0.041-0.487-0.074-0.547c-0.033-0.057-0.092-0.101-0.176-0.129
			c-0.084-0.026-0.422-0.039-1.016-0.035v-0.444c1.053-0.146,1.82-0.336,2.305-0.568c0.104-0.053,0.174-0.078,0.211-0.078
			s0.064,0.014,0.086,0.039c0.021,0.025,0.031,0.064,0.031,0.117c0,0.035-0.002,0.076-0.008,0.125
			c-0.021,0.25-0.037,0.621-0.047,1.115l1.021-0.938c0.129-0.112,0.211-0.181,0.242-0.194c0.119-0.064,0.289-0.13,0.514-0.188
			c0.223-0.058,0.455-0.086,0.699-0.086c0.498,0,0.943,0.123,1.332,0.366c0.389,0.246,0.688,0.607,0.895,1.086l0.863-0.797
			c0.193-0.176,0.326-0.285,0.398-0.328c0.137-0.077,0.328-0.149,0.58-0.219c0.25-0.065,0.496-0.102,0.742-0.102
			c0.594,0,1.092,0.158,1.494,0.473c0.4,0.316,0.658,0.674,0.773,1.074c0.072,0.266,0.109,0.84,0.109,1.719v0.812l0.02,1.086
			c0.014,0.631,0.02,1,0.02,1.107c0.012,0.264,0.043,0.451,0.094,0.569c0.021,0.048,0.056,0.088,0.101,0.121
			c0.045,0.035,0.106,0.062,0.19,0.082c0.031,0.006,0.32,0.015,0.865,0.022v0.445c-0.654-0.035-1.102-0.055-1.34-0.055
			c-0.229,0-0.688,0.02-1.379,0.055l0.064-2.156l0.021-0.844v-0.672c0-0.875-0.045-1.473-0.133-1.793
			c-0.09-0.32-0.275-0.578-0.561-0.777c-0.285-0.197-0.615-0.297-0.99-0.297c-0.434,0-0.826,0.125-1.176,0.375
			c-0.258,0.193-0.428,0.42-0.51,0.68c-0.082,0.263-0.123,0.771-0.123,1.523v0.523l0.02,1.086c0.01,0.631,0.016,1,0.02,1.107
			c0.012,0.263,0.043,0.45,0.094,0.569c0.021,0.047,0.053,0.088,0.096,0.121c0.041,0.035,0.104,0.062,0.188,0.082
			c0.037,0.006,0.328,0.015,0.873,0.022v0.445c-0.766-0.035-1.381-0.055-1.844-0.055c-0.375,0-1.057,0.02-2.047,0.055V47.6
			l0.748-0.008c0.115-0.004,0.201-0.022,0.262-0.059c0.061-0.033,0.107-0.076,0.139-0.129c0.057-0.104,0.092-0.289,0.102-0.557
			c0.004-0.064,0.018-0.812,0.039-2.24v-0.609c0-0.672-0.051-1.162-0.156-1.473c-0.104-0.311-0.285-0.559-0.545-0.742
			c-0.26-0.186-0.57-0.277-0.934-0.277c-0.312,0-0.605,0.066-0.885,0.199c-0.277,0.133-0.492,0.299-0.643,0.496
			c-0.152,0.199-0.244,0.41-0.275,0.633c-0.053,0.359-0.078,0.793-0.078,1.297v0.478c0.025,1.354,0.039,2.086,0.039,2.194
			c0.012,0.263,0.043,0.451,0.094,0.57c0.021,0.047,0.053,0.088,0.096,0.121c0.041,0.035,0.107,0.062,0.195,0.082
			c0.031,0.006,0.32,0.014,0.865,0.021v0.445c-0.719-0.035-1.33-0.056-1.836-0.056C229.66,47.99,228.983,48.01,228.076,48.045z"/>
		<path fill="#FFFFFF" d="M243.026,41.615V41.17c1.01-0.113,1.859-0.332,2.547-0.656l0.172,0.125
			c-0.043,1.109-0.062,1.959-0.062,2.548v1.422c0.024,1.354,0.041,2.086,0.047,2.194c0.005,0.263,0.033,0.451,0.087,0.57
			c0.024,0.047,0.059,0.088,0.102,0.121c0.041,0.035,0.104,0.062,0.188,0.082c0.031,0.006,0.32,0.014,0.867,0.021v0.445
			c-0.793-0.035-1.426-0.056-1.898-0.056c-0.418,0-1.1,0.021-2.047,0.056V47.6l0.746-0.008c0.109-0.004,0.195-0.022,0.256-0.059
			c0.062-0.033,0.105-0.076,0.137-0.129c0.06-0.104,0.097-0.289,0.111-0.557c0-0.064,0.012-0.812,0.039-2.24v-1.375
			c0-0.775-0.027-1.236-0.078-1.385c-0.031-0.076-0.088-0.137-0.168-0.176C243.987,41.635,243.639,41.615,243.026,41.615z
			 M244.932,37.045c0.244,0,0.451,0.086,0.621,0.258c0.168,0.172,0.254,0.381,0.254,0.625c0,0.24-0.086,0.445-0.258,0.617
			s-0.379,0.258-0.617,0.258c-0.246,0-0.453-0.086-0.625-0.258s-0.258-0.377-0.258-0.617c0-0.244,0.086-0.453,0.258-0.625
			S244.686,37.045,244.932,37.045z"/>
		<path fill="#FFFFFF" d="M248.489,41.92v-0.328c0.502-0.196,0.9-0.375,1.195-0.53c0-1.238,0-2.031,0-2.375
			c0.541-0.188,0.982-0.388,1.32-0.603l0.188,0.156c-0.057,0.434-0.119,1.387-0.188,2.858c0.416,0.008,0.666,0.01,0.75,0.01
			c0.047,0,0.314-0.004,0.805-0.018c0.271-0.004,0.475-0.017,0.609-0.029l0.055,0.055l-0.164,0.727
			c-0.328-0.004-0.631-0.008-0.906-0.008c-0.274,0-0.658,0.004-1.147,0.008l-0.039,3.181c-0.017,0.776-0.011,1.239,0.017,1.391
			c0.024,0.152,0.075,0.283,0.147,0.396c0.071,0.112,0.168,0.202,0.282,0.271c0.117,0.068,0.316,0.121,0.597,0.156
			c0.213,0,0.387-0.009,0.519-0.027c0.133-0.018,0.301-0.062,0.502-0.137l0.094,0.305c-0.244,0.193-0.48,0.396-0.709,0.603
			c-0.199,0.073-0.383,0.12-0.555,0.145c-0.173,0.025-0.369,0.035-0.595,0.035c-0.274,0-0.494-0.03-0.657-0.094
			c-0.164-0.062-0.314-0.148-0.449-0.263c-0.135-0.11-0.248-0.254-0.338-0.426c-0.091-0.172-0.146-0.44-0.175-0.812
			c0.007-0.354,0.017-0.742,0.031-1.164c0.006-0.082,0.008-0.174,0.008-0.273v-3.241h-0.319
			C249.104,41.881,248.811,41.896,248.489,41.92z"/>
		<path fill="#FFFFFF" d="M261.055,46.832l-0.25,0.562c-0.359,0.225-0.623,0.371-0.789,0.445c-0.246,0.108-0.525,0.2-0.84,0.276
			c-0.316,0.076-0.648,0.113-0.996,0.113c-0.688,0-1.311-0.144-1.867-0.431c-0.559-0.285-0.992-0.715-1.301-1.285
			c-0.311-0.569-0.465-1.237-0.465-2.004c0-0.598,0.082-1.139,0.246-1.621c0.164-0.479,0.35-0.836,0.559-1.065
			c0.15-0.166,0.385-0.356,0.703-0.573c0.316-0.216,0.633-0.388,0.945-0.513c0.41-0.172,0.855-0.258,1.336-0.258
			c0.582,0,1.109,0.133,1.582,0.397c0.471,0.266,0.816,0.629,1.035,1.086c0.219,0.459,0.328,0.978,0.328,1.555
			c0,0.146-0.015,0.324-0.039,0.531c-0.375,0.074-0.711,0.121-1.006,0.142c-0.562,0.043-1.125,0.062-1.687,0.062h-2.504
			c0.01,0.748,0.139,1.353,0.387,1.814c0.246,0.461,0.588,0.803,1.022,1.021c0.435,0.219,0.888,0.327,1.355,0.327
			c0.316,0,0.633-0.051,0.949-0.153c0.314-0.104,0.703-0.291,1.168-0.564L261.055,46.832z M256.047,43.639
			c0.145,0.017,0.422,0.031,0.828,0.048c0.775,0.026,1.309,0.038,1.602,0.038c0.691,0,1.148-0.012,1.367-0.038
			c0.004-0.125,0.008-0.222,0.008-0.289c0-0.822-0.168-1.427-0.5-1.812c-0.334-0.386-0.779-0.578-1.336-0.578
			c-0.59,0-1.062,0.211-1.422,0.633C256.235,42.064,256.051,42.73,256.047,43.639z"/>
		<path fill="#FFFFFF" d="M267.916,37.437V36.99c0.578-0.062,1.066-0.137,1.465-0.224c0.398-0.086,0.789-0.19,1.168-0.315
			l0.102,0.07c-0.02,0.442-0.043,1.297-0.07,2.562l-0.029,1.25v4.892c0,0.531,0.01,0.992,0.025,1.381
			c0.021,0.389,0.053,0.619,0.1,0.693c0.047,0.075,0.125,0.139,0.232,0.186c0.109,0.047,0.438,0.094,0.979,0.141v0.422
			c-0.635-0.035-1.082-0.055-1.346-0.055c-0.223,0-0.682,0.02-1.375,0.055c0.018-0.358,0.029-0.844,0.039-1.453
			c-0.207,0.152-0.486,0.379-0.84,0.681c-0.352,0.303-0.625,0.551-0.824,0.741c-0.414,0.105-0.781,0.156-1.1,0.156
			c-0.589,0-1.13-0.145-1.625-0.438c-0.494-0.291-0.875-0.717-1.146-1.271c-0.269-0.556-0.402-1.179-0.402-1.871
			c0-0.521,0.082-1.015,0.246-1.479s0.371-0.826,0.621-1.082c0.142-0.146,0.461-0.367,0.961-0.664s0.906-0.512,1.215-0.646
			c0.312-0.133,0.648-0.197,1.013-0.197c0.328,0,0.65,0.041,0.964,0.119c0.316,0.082,0.621,0.205,0.918,0.371v-2.055
			c0-0.723-0.029-1.164-0.094-1.32c-0.02-0.057-0.059-0.098-0.117-0.125C268.891,37.467,268.531,37.443,267.916,37.437z
			 M269.205,42.348c-0.354-0.389-0.727-0.674-1.113-0.854c-0.386-0.18-0.769-0.271-1.144-0.271c-0.428,0-0.82,0.108-1.182,0.328
			c-0.359,0.221-0.633,0.55-0.824,0.99c-0.188,0.442-0.285,0.973-0.285,1.592c0,0.953,0.238,1.694,0.711,2.231
			c0.476,0.535,1.045,0.804,1.711,0.804c0.349,0,0.66-0.072,0.939-0.22c0.273-0.146,0.518-0.356,0.727-0.64
			c0.209-0.28,0.344-0.594,0.398-0.938c0.043-0.229,0.061-0.793,0.061-1.691v-1.332H269.205z"/>
		<path fill="#FFFFFF" d="M278.979,48.045v-0.406c0.318-0.149,0.523-0.27,0.611-0.358c0.051-0.047,0.088-0.104,0.105-0.181
			c0.049-0.145,0.078-0.457,0.096-0.936c0.023-0.713,0.039-1.137,0.039-1.273v-4.198c0-0.707-0.01-1.399-0.023-2.076
			c-0.016-0.494-0.055-0.787-0.113-0.879c-0.061-0.092-0.154-0.158-0.289-0.203c-0.133-0.043-0.51-0.07-1.129-0.082v-0.5
			c1.271,0.037,2.059,0.055,2.359,0.055c0.332,0,1.08-0.018,2.242-0.055v0.5c-0.621,0.012-0.996,0.039-1.129,0.082
			c-0.133,0.045-0.229,0.104-0.277,0.184c-0.061,0.104-0.102,0.357-0.117,0.758c-0.008,0.104-0.02,0.843-0.039,2.219v5.246
			c0,0.547,0.014,0.988,0.039,1.334c0.594,0.037,1.184,0.055,1.768,0.055c1.469,0,2.494-0.094,3.086-0.281
			c0.064-0.156,0.127-0.336,0.18-0.539l0.312-1.297h0.523c-0.115,0.777-0.227,1.688-0.336,2.734
			c-0.215,0.043-0.383,0.066-0.508,0.078c-0.271,0.016-0.689,0.021-1.25,0.021l-4.625-0.056
			C280.002,47.99,279.494,48.01,278.979,48.045z"/>
		<path fill="#FFFFFF" d="M288.91,41.615V41.17c1.01-0.113,1.857-0.332,2.547-0.656l0.172,0.125
			c-0.041,1.109-0.062,1.959-0.062,2.548v1.422c0.025,1.354,0.041,2.086,0.047,2.194c0.008,0.263,0.033,0.451,0.088,0.57
			c0.023,0.047,0.061,0.088,0.102,0.121c0.041,0.035,0.104,0.062,0.188,0.082c0.031,0.006,0.32,0.014,0.867,0.021v0.445
			c-0.791-0.035-1.424-0.056-1.896-0.056c-0.416,0-1.102,0.021-2.047,0.056V47.6l0.748-0.008c0.107-0.004,0.191-0.022,0.254-0.059
			c0.061-0.033,0.105-0.076,0.139-0.129c0.057-0.104,0.094-0.289,0.109-0.557c0-0.064,0.014-0.812,0.039-2.24v-1.375
			c0-0.775-0.025-1.236-0.078-1.385c-0.031-0.076-0.088-0.137-0.168-0.176S289.525,41.615,288.91,41.615z M290.816,37.045
			c0.244,0,0.451,0.086,0.621,0.258s0.254,0.381,0.254,0.625c0,0.24-0.086,0.445-0.258,0.617s-0.377,0.258-0.617,0.258
			c-0.244,0-0.453-0.086-0.625-0.258s-0.258-0.377-0.258-0.617c0-0.244,0.086-0.453,0.258-0.625S290.572,37.045,290.816,37.045z"/>
		<path fill="#FFFFFF" d="M295.711,42.695l-0.414-0.108c0.004-0.119,0.008-0.283,0.008-0.492c0-0.22-0.004-0.394-0.008-0.521
			c0.662-0.434,1.205-0.725,1.627-0.875c0.324-0.109,0.686-0.164,1.088-0.164c0.594,0,1.096,0.113,1.502,0.336
			c0.406,0.225,0.709,0.545,0.908,0.961c0.135,0.293,0.203,0.691,0.203,1.195l-0.039,1.43v2.328c0,0.25,0.02,0.43,0.062,0.539
			c0.031,0.078,0.08,0.137,0.148,0.172c0.051,0.031,0.16,0.053,0.328,0.062l0.508,0.048v0.444c-0.428-0.035-0.803-0.056-1.125-0.056
			c-0.312,0-0.73,0.021-1.25,0.056l0.039-1.375c-1.062,0.803-1.693,1.254-1.891,1.354c-0.199,0.103-0.449,0.151-0.75,0.151
			c-0.633,0-1.121-0.168-1.475-0.504c-0.352-0.336-0.525-0.78-0.525-1.34c0-0.359,0.061-0.688,0.184-0.984
			c0.121-0.297,0.27-0.53,0.441-0.706c0.172-0.175,0.346-0.304,0.521-0.388c0.301-0.141,0.793-0.291,1.473-0.453
			c0.682-0.159,1.354-0.28,2.021-0.358c0.004-0.494-0.055-0.879-0.18-1.156c-0.125-0.274-0.336-0.502-0.635-0.68
			c-0.297-0.177-0.658-0.267-1.086-0.267c-0.309,0-0.578,0.043-0.809,0.125c-0.232,0.084-0.375,0.154-0.426,0.211l-0.143,0.281
			C295.883,42.273,295.777,42.518,295.711,42.695z M299.297,43.92c-0.678,0.115-1.256,0.242-1.734,0.383
			c-0.479,0.142-0.816,0.287-1.016,0.438c-0.121,0.09-0.227,0.224-0.312,0.397c-0.137,0.263-0.203,0.552-0.203,0.867
			c0,0.388,0.105,0.688,0.32,0.902c0.213,0.217,0.51,0.324,0.893,0.324c0.348,0,0.691-0.102,1.033-0.303
			c0.342-0.197,0.682-0.5,1.021-0.9L299.297,43.92L299.297,43.92z"/>
		<path fill="#FFFFFF" d="M303.83,48.076c0.062-0.656,0.098-1.068,0.102-1.24c0.031-1.131,0.047-1.793,0.047-1.992v-3.473
			c0-0.869-0.012-1.768-0.039-2.693c-0.02-0.625-0.049-0.975-0.086-1.047c-0.023-0.051-0.066-0.088-0.125-0.108
			c-0.08-0.035-0.439-0.056-1.086-0.056v-0.461c1.178-0.145,1.996-0.328,2.453-0.547c0.068-0.031,0.121-0.047,0.156-0.047
			c0.037,0,0.064,0.012,0.086,0.035c0.021,0.022,0.031,0.057,0.031,0.098c0,0.037-0.004,0.088-0.018,0.156l-0.008,0.258
			c-0.025,0.932-0.041,1.725-0.047,2.379l-0.016,1.217V42.1l1.076-1.055c0.143-0.119,0.373-0.236,0.695-0.352
			c0.324-0.113,0.668-0.172,1.031-0.172c0.574,0,1.082,0.135,1.521,0.4c0.443,0.271,0.783,0.647,1.021,1.139
			c0.238,0.488,0.354,1.029,0.354,1.625c0,0.459-0.064,0.895-0.201,1.305c-0.137,0.412-0.311,0.779-0.523,1.102
			c-0.156,0.246-0.289,0.412-0.398,0.5l-1.139,0.82c-0.463,0.344-0.824,0.562-1.086,0.66c-0.26,0.098-0.594,0.145-1,0.145
			c-0.348,0-0.672-0.047-0.969-0.141s-0.611-0.258-0.945-0.492l-0.633,0.594L303.83,48.076z M305.283,43.037v2.93
			c0,0.263,0.016,0.429,0.043,0.5c0.027,0.074,0.115,0.17,0.262,0.289c0.219,0.185,0.473,0.328,0.762,0.438
			c0.289,0.109,0.596,0.164,0.918,0.164c0.756,0,1.336-0.291,1.742-0.875c0.406-0.582,0.609-1.306,0.609-2.164
			c0-0.608-0.098-1.119-0.289-1.531c-0.191-0.409-0.457-0.719-0.797-0.926c-0.34-0.205-0.721-0.31-1.143-0.31
			c-0.494,0-0.938,0.144-1.328,0.427C305.674,42.264,305.414,42.615,305.283,43.037z"/>
		<path fill="#FFFFFF" d="M312.818,41.615V41.17c1.012-0.113,1.859-0.332,2.549-0.656l0.172,0.125
			c-0.041,1.109-0.062,1.959-0.062,2.548v1.422c0.025,1.354,0.041,2.086,0.047,2.194c0.006,0.263,0.033,0.451,0.086,0.57
			c0.025,0.047,0.062,0.088,0.104,0.121c0.041,0.035,0.104,0.062,0.188,0.082c0.031,0.006,0.32,0.014,0.867,0.021v0.445
			c-0.791-0.035-1.424-0.056-1.896-0.056c-0.416,0-1.102,0.021-2.049,0.056V47.6l0.748-0.008c0.109-0.004,0.193-0.022,0.254-0.059
			c0.062-0.033,0.107-0.076,0.141-0.129c0.057-0.104,0.094-0.289,0.107-0.557c0-0.064,0.016-0.812,0.039-2.24v-1.375
			c0-0.775-0.023-1.236-0.076-1.385c-0.031-0.076-0.09-0.137-0.17-0.176C313.785,41.634,313.434,41.615,312.818,41.615z
			 M314.725,37.045c0.244,0,0.451,0.086,0.621,0.258s0.254,0.381,0.254,0.625c0,0.24-0.086,0.445-0.258,0.617
			s-0.377,0.258-0.617,0.258c-0.244,0-0.453-0.086-0.625-0.258s-0.258-0.377-0.258-0.617c0-0.244,0.086-0.453,0.258-0.625
			S314.48,37.045,314.725,37.045z"/>
		<path fill="#FFFFFF" d="M318.322,48.045V47.6l0.734-0.008c0.113-0.004,0.201-0.022,0.262-0.059
			c0.061-0.033,0.105-0.076,0.139-0.129c0.057-0.104,0.09-0.289,0.102-0.555c0.004-0.066,0.023-0.812,0.055-2.24v-3.238
			c0-0.869-0.014-1.768-0.037-2.693c-0.021-0.625-0.053-0.975-0.09-1.047c-0.023-0.051-0.064-0.088-0.125-0.108
			c-0.076-0.035-0.438-0.056-1.084-0.056v-0.461c1.178-0.145,1.994-0.328,2.453-0.547c0.066-0.031,0.119-0.047,0.156-0.047
			c0.035,0,0.064,0.012,0.086,0.035c0.021,0.022,0.031,0.057,0.031,0.098c0,0.037-0.006,0.088-0.018,0.156l-0.008,0.258
			c-0.025,0.932-0.043,1.725-0.047,2.381l-0.016,1.219v4.052c0.021,1.354,0.033,2.086,0.039,2.194
			c0.004,0.261,0.035,0.449,0.094,0.568c0.021,0.047,0.053,0.088,0.094,0.121c0.043,0.035,0.105,0.062,0.189,0.082
			c0.037,0.006,0.328,0.014,0.873,0.021v0.445c-0.709-0.035-1.332-0.056-1.867-0.056C319.826,47.99,319.154,48.01,318.322,48.045z"
			/>
		<path fill="#FFFFFF" d="M323.73,41.615V41.17c1.012-0.113,1.859-0.332,2.547-0.656l0.174,0.125
			c-0.041,1.109-0.062,1.959-0.062,2.548v1.422c0.025,1.354,0.041,2.086,0.047,2.194c0.006,0.263,0.033,0.451,0.086,0.57
			c0.025,0.047,0.062,0.088,0.104,0.121c0.041,0.035,0.104,0.062,0.188,0.082c0.031,0.006,0.32,0.014,0.867,0.021v0.445
			c-0.791-0.035-1.424-0.056-1.898-0.056c-0.416,0-1.1,0.021-2.047,0.056V47.6l0.748-0.008c0.109-0.004,0.193-0.022,0.254-0.059
			c0.062-0.033,0.107-0.076,0.141-0.129c0.057-0.104,0.094-0.289,0.107-0.557c0-0.064,0.016-0.812,0.039-2.24v-1.375
			c0-0.775-0.023-1.236-0.078-1.385c-0.029-0.076-0.088-0.137-0.168-0.176S324.346,41.615,323.73,41.615z M325.637,37.045
			c0.244,0,0.451,0.086,0.621,0.258s0.254,0.381,0.254,0.625c0,0.24-0.086,0.445-0.258,0.617s-0.377,0.258-0.617,0.258
			c-0.244,0-0.453-0.086-0.625-0.258s-0.258-0.377-0.258-0.617c0-0.244,0.086-0.453,0.258-0.625S325.393,37.045,325.637,37.045z"/>
		<path fill="#FFFFFF" d="M329.195,41.92v-0.328c0.5-0.196,0.898-0.375,1.195-0.53c0-1.238,0-2.031,0-2.375
			c0.541-0.188,0.98-0.388,1.32-0.603l0.188,0.156c-0.059,0.434-0.121,1.387-0.188,2.858c0.416,0.008,0.666,0.01,0.75,0.01
			c0.047,0,0.312-0.004,0.805-0.018c0.271-0.004,0.473-0.017,0.609-0.029l0.055,0.055l-0.164,0.727
			c-0.328-0.004-0.631-0.008-0.906-0.008s-0.658,0.004-1.146,0.008l-0.039,3.181c-0.018,0.776-0.012,1.239,0.016,1.391
			c0.025,0.152,0.074,0.283,0.148,0.396c0.072,0.112,0.166,0.202,0.283,0.271c0.115,0.068,0.312,0.121,0.596,0.156
			c0.213,0,0.385-0.009,0.518-0.027c0.135-0.018,0.301-0.062,0.502-0.137l0.096,0.305c-0.244,0.193-0.482,0.396-0.711,0.603
			c-0.197,0.073-0.385,0.12-0.555,0.145c-0.172,0.023-0.367,0.035-0.594,0.035c-0.273,0-0.496-0.03-0.66-0.094
			c-0.162-0.062-0.311-0.148-0.445-0.263c-0.139-0.11-0.248-0.254-0.34-0.426c-0.09-0.172-0.146-0.44-0.174-0.812
			c0.004-0.354,0.018-0.742,0.031-1.164c0.004-0.082,0.008-0.174,0.008-0.273v-3.241h-0.32
			C329.809,41.881,329.518,41.896,329.195,41.92z"/>
		<path fill="#FFFFFF" d="M335.205,52.225l0.396-1.202h0.189c0.1,0.084,0.184,0.149,0.254,0.198
			c0.068,0.052,0.145,0.088,0.227,0.113c0.082,0.027,0.199,0.039,0.355,0.039c0.162,0,0.318-0.035,0.473-0.105
			c0.154-0.069,0.297-0.18,0.43-0.331c0.135-0.15,0.291-0.41,0.475-0.781c0.275-0.558,0.521-1.125,0.742-1.705
			c-0.166-0.467-0.367-0.994-0.604-1.576l-1.244-3.075c-0.371-0.916-0.674-1.619-0.908-2.104c-0.094-0.191-0.191-0.32-0.301-0.387
			c-0.107-0.064-0.346-0.117-0.715-0.158v-0.445c0.646,0.037,1.285,0.055,1.916,0.055c0.615,0,1.207-0.018,1.775-0.055v0.445
			c-0.535,0.036-0.846,0.068-0.922,0.102c-0.137,0.051-0.203,0.146-0.203,0.279c0,0.082,0.045,0.252,0.133,0.51
			c0.203,0.643,0.395,1.189,0.58,1.643l0.492,1.222c0.297,0.729,0.549,1.322,0.752,1.776l0.41-0.924
			c0.162-0.365,0.445-1.059,0.854-2.082c0.404-1.021,0.643-1.651,0.709-1.893c0.02-0.082,0.031-0.156,0.031-0.219
			c0-0.1-0.039-0.178-0.121-0.23c-0.08-0.055-0.396-0.107-0.941-0.16v-0.469c0.605,0.037,1.141,0.055,1.604,0.055
			c0.469,0,0.934-0.018,1.391-0.055l-0.078,0.469c-0.266,0.013-0.471,0.068-0.617,0.172c-0.145,0.105-0.363,0.455-0.658,1.052
			c-0.293,0.598-0.842,1.77-1.639,3.52l-1.805,4.22c-0.291,0.684-0.545,1.17-0.758,1.461s-0.471,0.516-0.768,0.664
			c-0.297,0.151-0.621,0.229-0.977,0.229c-0.172,0-0.326-0.021-0.465-0.061C335.533,52.385,335.377,52.32,335.205,52.225z"/>
		<path fill="#FFFFFF" d="M360.252,46.67l-0.307,0.728c-0.607,0.309-1.205,0.53-1.787,0.668c-0.584,0.139-1.221,0.207-1.906,0.207
			c-0.811,0-1.561-0.103-2.25-0.306c-0.693-0.203-1.299-0.494-1.816-0.871c-0.52-0.379-0.939-0.801-1.27-1.271
			c-0.328-0.469-0.578-0.979-0.75-1.526c-0.172-0.552-0.258-1.152-0.258-1.812c0-1.662,0.576-3.039,1.736-4.13
			c1.158-1.093,2.74-1.64,4.746-1.64c0.475,0,0.912,0.027,1.316,0.082c0.4,0.056,0.895,0.16,1.477,0.312
			c0.58,0.153,0.938,0.244,1.066,0.27c-0.115,0.287-0.201,0.568-0.258,0.844c-0.084,0.443-0.143,0.957-0.174,1.539h-0.49
			l-0.01-0.922c-0.053-0.51-0.336-0.891-0.848-1.141c-0.514-0.25-1.266-0.375-2.254-0.375c-0.74,0.012-1.367,0.104-1.883,0.285
			c-0.518,0.18-0.971,0.465-1.363,0.852c-0.395,0.39-0.715,0.881-0.965,1.478s-0.379,1.345-0.383,2.246
			c0,1.577,0.479,2.848,1.443,3.809s2.236,1.441,3.82,1.441c0.713,0,1.375-0.099,1.984-0.296c0.416-0.133,0.83-0.346,1.242-0.635
			L360.252,46.67z"/>
		<path fill="#FFFFFF" d="M362.027,44.448c0-1.168,0.371-2.119,1.113-2.857c0.742-0.737,1.693-1.106,2.855-1.106
			c1.094,0,1.982,0.344,2.672,1.032c0.688,0.688,1.031,1.576,1.031,2.666c0,0.763-0.18,1.457-0.531,2.089
			c-0.354,0.631-0.854,1.125-1.5,1.481c-0.646,0.357-1.357,0.535-2.133,0.535c-0.604,0-1.115-0.102-1.535-0.305
			s-0.76-0.459-1.021-0.768c-0.26-0.31-0.459-0.623-0.594-0.945C362.146,45.701,362.027,45.094,362.027,44.448z M363.504,43.869
			c0,0.641,0.105,1.293,0.32,1.955c0.213,0.662,0.521,1.146,0.926,1.451c0.404,0.305,0.842,0.457,1.314,0.457
			c0.605,0,1.109-0.24,1.518-0.721c0.404-0.479,0.607-1.219,0.607-2.215c0-0.828-0.121-1.543-0.361-2.146
			c-0.242-0.604-0.553-1.027-0.928-1.275c-0.375-0.246-0.789-0.371-1.24-0.371c-0.643,0-1.16,0.232-1.561,0.697
			C363.703,42.166,363.504,42.889,363.504,43.869z"/>
		<path fill="#FFFFFF" d="M371.359,48.045V47.6l0.746-0.008c0.111-0.004,0.195-0.022,0.256-0.059
			c0.062-0.033,0.105-0.076,0.139-0.129c0.059-0.104,0.096-0.289,0.109-0.557c0-0.064,0.014-0.812,0.039-2.24v-0.932
			c0-0.416-0.008-0.861-0.021-1.345c-0.018-0.307-0.041-0.487-0.074-0.547c-0.035-0.057-0.094-0.101-0.176-0.129
			c-0.084-0.026-0.422-0.039-1.018-0.035v-0.444c1.053-0.146,1.82-0.336,2.307-0.568c0.104-0.053,0.174-0.078,0.211-0.078
			c0.035,0,0.062,0.014,0.086,0.039c0.02,0.025,0.031,0.064,0.031,0.117c0,0.035-0.006,0.076-0.01,0.125
			c-0.02,0.25-0.037,0.621-0.047,1.115l1.021-0.938c0.129-0.112,0.209-0.181,0.24-0.194c0.117-0.064,0.289-0.13,0.514-0.188
			s0.457-0.086,0.701-0.086c0.498,0,0.939,0.123,1.33,0.366c0.391,0.246,0.688,0.607,0.896,1.086l0.863-0.797
			c0.189-0.176,0.326-0.285,0.396-0.328c0.137-0.077,0.328-0.149,0.578-0.219c0.25-0.065,0.498-0.102,0.744-0.102
			c0.594,0,1.092,0.158,1.492,0.473c0.4,0.316,0.66,0.674,0.773,1.074c0.072,0.266,0.109,0.84,0.109,1.719v0.812l0.021,1.086
			c0.012,0.631,0.02,1,0.02,1.107c0.01,0.264,0.041,0.451,0.094,0.569c0.021,0.048,0.057,0.088,0.1,0.121
			c0.045,0.035,0.107,0.062,0.191,0.082c0.031,0.006,0.32,0.015,0.865,0.022v0.445c-0.654-0.035-1.102-0.055-1.34-0.055
			c-0.23,0-0.689,0.02-1.379,0.055l0.062-2.156l0.021-0.844v-0.672c0-0.875-0.045-1.473-0.133-1.793
			c-0.092-0.32-0.275-0.578-0.562-0.777c-0.285-0.197-0.615-0.297-0.99-0.297c-0.434,0-0.826,0.125-1.176,0.375
			c-0.258,0.193-0.428,0.42-0.51,0.68c-0.082,0.263-0.123,0.771-0.123,1.523v0.523l0.02,1.086c0.01,0.631,0.018,1,0.021,1.107
			c0.01,0.263,0.041,0.45,0.094,0.569c0.021,0.047,0.053,0.088,0.094,0.121c0.043,0.035,0.105,0.062,0.189,0.082
			c0.037,0.006,0.328,0.015,0.873,0.022v0.445c-0.768-0.035-1.381-0.055-1.844-0.055c-0.375,0-1.061,0.02-2.049,0.055V47.6
			l0.746-0.008c0.115-0.004,0.203-0.022,0.266-0.059c0.061-0.033,0.104-0.076,0.139-0.129c0.057-0.104,0.09-0.289,0.102-0.557
			c0.006-0.064,0.02-0.812,0.039-2.24v-0.609c0-0.672-0.053-1.162-0.154-1.473c-0.105-0.311-0.285-0.559-0.545-0.742
			c-0.262-0.186-0.57-0.277-0.936-0.277c-0.312,0-0.605,0.066-0.885,0.199s-0.492,0.299-0.646,0.496
			c-0.148,0.199-0.24,0.41-0.271,0.633c-0.053,0.359-0.078,0.793-0.078,1.297v0.478c0.025,1.354,0.039,2.086,0.039,2.194
			c0.01,0.263,0.041,0.451,0.094,0.57c0.021,0.047,0.053,0.088,0.094,0.121c0.043,0.035,0.107,0.062,0.197,0.082
			c0.031,0.006,0.32,0.014,0.865,0.021v0.445c-0.719-0.035-1.332-0.056-1.836-0.056C372.941,47.99,372.266,48.01,371.359,48.045z"/>
		<path fill="#FFFFFF" d="M386.236,41.609v-0.445c0.096,0,0.293-0.021,0.596-0.065c0.303-0.043,0.639-0.117,1.008-0.228
			c0.371-0.104,0.646-0.209,0.836-0.309c0.059-0.031,0.104-0.048,0.141-0.048s0.066,0.015,0.09,0.039
			c0.023,0.027,0.035,0.07,0.035,0.134c0,0.026-0.002,0.09-0.008,0.188c-0.01,0.152-0.016,0.289-0.016,0.414v0.828
			c0.881-0.815,1.43-1.276,1.646-1.383c0.287-0.142,0.715-0.211,1.281-0.211c0.662,0,1.232,0.149,1.711,0.448
			c0.48,0.302,0.828,0.688,1.043,1.164c0.217,0.478,0.324,0.986,0.324,1.527c0,0.328-0.037,0.639-0.113,0.93
			c-0.074,0.293-0.172,0.566-0.289,0.824s-0.246,0.496-0.391,0.711c-0.145,0.217-0.277,0.379-0.402,0.488
			c-0.07,0.066-0.262,0.225-0.564,0.469c-0.307,0.246-0.629,0.457-0.979,0.637c-0.346,0.181-0.586,0.291-0.723,0.332
			c-0.297,0.095-0.611,0.142-0.945,0.142c-0.26,0-0.514-0.031-0.762-0.095c-0.246-0.062-0.527-0.168-0.84-0.319v1.242
			c0.021,1.317,0.035,2.045,0.039,2.18c0.006,0.256,0.037,0.443,0.096,0.562c0.02,0.06,0.053,0.104,0.098,0.138
			c0.045,0.035,0.109,0.06,0.193,0.073c0.047,0.013,0.357,0.021,0.934,0.031v0.445c-0.648-0.025-1.512-0.039-2.586-0.039
			c-0.594,0-1.049,0.014-1.367,0.039v-0.445l0.748-0.008c0.109-0.004,0.195-0.023,0.258-0.059c0.059-0.033,0.104-0.076,0.137-0.129
			c0.057-0.105,0.094-0.289,0.107-0.557c0.008-0.066,0.02-0.812,0.039-2.234v-2.775c0-0.902-0.01-1.826-0.029-2.775
			c-0.02-0.948-0.043-1.467-0.066-1.553c-0.021-0.086-0.061-0.15-0.113-0.195c-0.051-0.043-0.117-0.073-0.201-0.09L386.236,41.609z
			 M388.916,46.437c0.275,0.28,0.592,0.504,0.943,0.663c0.355,0.162,0.729,0.242,1.117,0.242c0.477,0,0.906-0.117,1.293-0.354
			c0.391-0.235,0.695-0.604,0.922-1.104c0.229-0.5,0.342-1.043,0.342-1.634c0-0.565-0.107-1.061-0.324-1.479
			c-0.215-0.42-0.521-0.734-0.918-0.945s-0.793-0.316-1.195-0.316c-0.297,0-0.59,0.06-0.879,0.177
			c-0.289,0.116-0.551,0.288-0.785,0.512c-0.234,0.226-0.391,0.438-0.469,0.642c-0.031,0.102-0.047,0.289-0.047,0.569V46.437z"/>
		<path fill="#FFFFFF" d="M398.068,42.695l-0.414-0.108c0.008-0.119,0.01-0.283,0.01-0.492c0-0.22-0.002-0.394-0.01-0.521
			c0.662-0.434,1.205-0.725,1.629-0.875c0.322-0.109,0.688-0.164,1.088-0.164c0.596,0,1.096,0.113,1.502,0.336
			c0.406,0.225,0.711,0.545,0.906,0.961c0.137,0.293,0.203,0.691,0.203,1.195l-0.039,1.43v2.328c0,0.25,0.021,0.43,0.062,0.539
			c0.031,0.078,0.08,0.137,0.148,0.172c0.053,0.031,0.16,0.053,0.326,0.062l0.51,0.048v0.444c-0.43-0.035-0.805-0.056-1.125-0.056
			c-0.312,0-0.729,0.021-1.25,0.056l0.039-1.375c-1.062,0.803-1.693,1.254-1.893,1.354c-0.197,0.102-0.447,0.151-0.75,0.151
			c-0.631,0-1.121-0.168-1.473-0.504c-0.354-0.336-0.527-0.78-0.527-1.34c0-0.359,0.062-0.688,0.186-0.984
			c0.121-0.296,0.27-0.53,0.439-0.706c0.172-0.175,0.346-0.304,0.523-0.388c0.303-0.141,0.793-0.291,1.473-0.453
			c0.68-0.159,1.354-0.28,2.021-0.358c0.006-0.494-0.057-0.879-0.182-1.156c-0.125-0.274-0.336-0.502-0.633-0.68
			c-0.297-0.177-0.658-0.267-1.086-0.267c-0.307,0-0.576,0.043-0.809,0.125c-0.232,0.084-0.373,0.154-0.428,0.211l-0.141,0.281
			C398.24,42.273,398.137,42.518,398.068,42.695z M401.654,43.92c-0.678,0.115-1.256,0.242-1.732,0.383
			c-0.479,0.142-0.818,0.287-1.018,0.438c-0.117,0.09-0.225,0.224-0.311,0.397c-0.135,0.263-0.203,0.552-0.203,0.867
			c0,0.388,0.107,0.688,0.32,0.902c0.213,0.217,0.51,0.324,0.891,0.324c0.352,0,0.693-0.102,1.035-0.303
			c0.342-0.197,0.682-0.5,1.02-0.9L401.654,43.92L401.654,43.92z"/>
		<path fill="#FFFFFF" d="M405.393,48.045V47.6l0.746-0.008c0.109-0.004,0.195-0.022,0.256-0.059
			c0.062-0.033,0.105-0.076,0.139-0.129c0.059-0.104,0.096-0.289,0.109-0.557c0-0.064,0.012-0.812,0.039-2.24v-0.932
			c0-0.416-0.008-0.861-0.021-1.345c-0.018-0.307-0.041-0.487-0.074-0.547c-0.035-0.057-0.094-0.101-0.176-0.129
			c-0.084-0.026-0.424-0.039-1.018-0.035v-0.444c1.051-0.146,1.82-0.336,2.305-0.568c0.105-0.053,0.176-0.078,0.213-0.078
			c0.033,0,0.062,0.014,0.086,0.039c0.02,0.025,0.029,0.064,0.029,0.117c0,0.035-0.004,0.076-0.008,0.125
			c-0.016,0.188-0.031,0.584-0.047,1.188l1.453-1.242c0.426-0.156,0.83-0.233,1.211-0.233c0.422,0,0.82,0.086,1.199,0.258
			c0.377,0.172,0.66,0.39,0.852,0.647c0.189,0.263,0.316,0.591,0.379,0.984c0.035,0.234,0.057,0.889,0.057,1.961v1.383
			c0,0.678,0.018,1.14,0.055,1.383c0.025,0.156,0.066,0.267,0.121,0.324c0.055,0.062,0.139,0.099,0.254,0.113l0.836,0.021v0.445
			c-0.512-0.035-0.936-0.056-1.273-0.056c-0.293,0-0.775,0.021-1.451,0.056c0.07-1.285,0.107-2.099,0.107-2.438v-1.312
			c0-0.814-0.031-1.354-0.094-1.607c-0.09-0.35-0.289-0.631-0.604-0.846c-0.311-0.213-0.689-0.318-1.133-0.318
			c-0.391,0-0.748,0.094-1.068,0.275c-0.324,0.188-0.557,0.397-0.691,0.643c-0.139,0.24-0.207,0.648-0.207,1.223v0.945
			c0.025,1.354,0.039,2.086,0.039,2.193c0.01,0.264,0.041,0.451,0.094,0.569c0.021,0.048,0.055,0.089,0.096,0.121
			c0.043,0.035,0.105,0.062,0.195,0.082c0.031,0.006,0.32,0.015,0.865,0.022v0.445c-0.637-0.035-1.211-0.055-1.727-0.055
			C407.096,47.99,406.381,48.01,405.393,48.045z"/>
		<path fill="#FFFFFF" d="M415.637,52.225l0.398-1.202h0.188c0.1,0.084,0.184,0.149,0.254,0.198c0.07,0.052,0.146,0.088,0.229,0.113
			c0.08,0.027,0.197,0.039,0.354,0.039c0.162,0,0.318-0.035,0.473-0.105c0.156-0.069,0.299-0.18,0.432-0.331
			c0.133-0.15,0.291-0.41,0.473-0.781c0.275-0.558,0.523-1.125,0.742-1.705c-0.168-0.467-0.367-0.994-0.604-1.576l-1.242-3.075
			c-0.369-0.916-0.674-1.619-0.906-2.104c-0.094-0.191-0.193-0.32-0.301-0.387c-0.109-0.064-0.348-0.117-0.717-0.158v-0.445
			c0.646,0.037,1.285,0.055,1.916,0.055c0.615,0,1.207-0.018,1.775-0.055v0.445c-0.537,0.036-0.844,0.068-0.922,0.102
			c-0.135,0.051-0.203,0.146-0.203,0.279c0,0.082,0.045,0.252,0.133,0.51c0.203,0.643,0.396,1.189,0.58,1.643l0.492,1.222
			c0.297,0.729,0.547,1.322,0.752,1.776l0.412-0.924c0.162-0.365,0.445-1.059,0.852-2.082c0.404-1.021,0.643-1.651,0.709-1.893
			c0.021-0.082,0.031-0.156,0.031-0.219c0-0.1-0.041-0.178-0.121-0.23c-0.08-0.055-0.395-0.107-0.939-0.16v-0.469
			c0.604,0.037,1.139,0.055,1.602,0.055c0.469,0,0.932-0.018,1.391-0.055l-0.076,0.469c-0.268,0.013-0.473,0.068-0.617,0.172
			c-0.146,0.105-0.365,0.455-0.66,1.052c-0.295,0.598-0.84,1.77-1.637,3.52l-1.809,4.22c-0.291,0.684-0.543,1.17-0.756,1.461
			s-0.469,0.516-0.766,0.664c-0.297,0.151-0.623,0.229-0.979,0.229c-0.172,0-0.326-0.021-0.465-0.061S415.809,52.32,415.637,52.225z
			"/>
		<path fill="#FFFFFF" d="M204.084,68.842l-0.266,0.638c-0.533,0.268-1.057,0.463-1.566,0.584c-0.509,0.12-1.066,0.182-1.668,0.182
			c-0.707,0-1.363-0.09-1.969-0.268c-0.606-0.179-1.135-0.433-1.59-0.763c-0.453-0.332-0.822-0.701-1.109-1.11
			c-0.287-0.412-0.506-0.857-0.656-1.339s-0.227-1.01-0.227-1.584c0-1.454,0.508-2.659,1.521-3.614s2.398-1.435,4.152-1.435
			c0.414,0,0.799,0.023,1.152,0.072c0.354,0.047,0.783,0.139,1.291,0.273c0.51,0.135,0.82,0.213,0.934,0.234
			c-0.1,0.25-0.176,0.496-0.225,0.737c-0.074,0.388-0.123,0.836-0.15,1.347h-0.432l-0.006-0.808
			c-0.047-0.444-0.293-0.778-0.742-0.998c-0.449-0.219-1.107-0.328-1.973-0.328c-0.646,0.011-1.195,0.093-1.646,0.25
			c-0.451,0.156-0.85,0.406-1.193,0.744c-0.344,0.34-0.625,0.771-0.844,1.293c-0.219,0.521-0.332,1.179-0.336,1.966
			c0,1.381,0.422,2.491,1.266,3.331c0.842,0.843,1.957,1.263,3.342,1.263c0.625,0,1.203-0.086,1.736-0.258
			c0.365-0.117,0.727-0.304,1.088-0.556L204.084,68.842z"/>
		<path fill="#FFFFFF" d="M211.217,68.986l-0.219,0.492c-0.314,0.194-0.545,0.325-0.689,0.391c-0.215,0.097-0.459,0.177-0.736,0.242
			c-0.275,0.065-0.566,0.101-0.871,0.101c-0.602,0-1.146-0.125-1.633-0.375c-0.488-0.253-0.867-0.628-1.139-1.125
			c-0.271-0.5-0.406-1.084-0.406-1.755c0-0.522,0.07-0.995,0.215-1.418c0.143-0.422,0.307-0.731,0.488-0.934
			c0.133-0.146,0.338-0.312,0.615-0.502s0.555-0.339,0.828-0.447c0.359-0.149,0.748-0.228,1.168-0.228
			c0.51,0,0.973,0.117,1.385,0.351c0.412,0.232,0.715,0.549,0.906,0.949c0.191,0.401,0.287,0.854,0.287,1.36
			c0,0.127-0.012,0.281-0.035,0.465c-0.328,0.062-0.621,0.104-0.881,0.123c-0.49,0.035-0.982,0.056-1.475,0.056h-2.189
			c0.008,0.651,0.121,1.182,0.338,1.586c0.217,0.403,0.516,0.703,0.895,0.896c0.381,0.19,0.777,0.286,1.188,0.286
			c0.277,0,0.555-0.045,0.83-0.135c0.275-0.09,0.615-0.256,1.021-0.496L211.217,68.986z M206.836,66.191
			c0.127,0.014,0.369,0.026,0.725,0.041c0.678,0.022,1.145,0.034,1.4,0.034c0.605,0,1.006-0.012,1.197-0.034
			c0.004-0.109,0.006-0.193,0.006-0.252c0-0.722-0.146-1.25-0.438-1.586c-0.291-0.339-0.682-0.507-1.168-0.507
			c-0.516,0-0.93,0.185-1.244,0.554C207,64.809,206.84,65.393,206.836,66.191z"/>
		<path fill="#FFFFFF" d="M212.901,70.045v-0.389c0.52-0.01,0.799-0.021,0.84-0.027c0.078-0.014,0.137-0.035,0.176-0.065
			c0.039-0.029,0.068-0.07,0.092-0.125c0.047-0.105,0.074-0.271,0.082-0.492c0.023-1.217,0.035-1.854,0.035-1.908v-0.812
			c0-0.363-0.008-0.758-0.021-1.176c-0.008-0.271-0.027-0.431-0.057-0.479c-0.031-0.051-0.082-0.088-0.158-0.113
			c-0.074-0.024-0.373-0.034-0.893-0.03v-0.39c0.922-0.129,1.594-0.295,2.018-0.5c0.092-0.045,0.152-0.067,0.184-0.067
			c0.033,0,0.059,0.014,0.076,0.035c0.018,0.021,0.027,0.059,0.027,0.104c0,0.031-0.002,0.066-0.008,0.107
			c-0.021,0.278-0.035,0.709-0.041,1.293c0.205-0.236,0.395-0.474,0.568-0.705c0.173-0.23,0.299-0.383,0.375-0.449
			c0.137-0.117,0.295-0.215,0.473-0.283c0.178-0.07,0.361-0.105,0.553-0.105s0.381,0.041,0.568,0.123l0.041,0.097
			c-0.068,0.604-0.107,1.139-0.117,1.6h-0.307c-0.105-0.219-0.227-0.379-0.365-0.479c-0.141-0.102-0.314-0.149-0.523-0.149
			c-0.352,0-0.65,0.146-0.896,0.435c-0.246,0.289-0.369,0.725-0.369,1.304v0.702c0,0.303,0.012,0.852,0.035,1.647
			c0.004,0.281,0.016,0.463,0.033,0.539c0.02,0.078,0.043,0.133,0.072,0.168c0.029,0.033,0.078,0.062,0.146,0.086
			c0.137,0.041,0.506,0.082,1.107,0.123v0.39c-0.801-0.03-1.484-0.047-2.051-0.047C214.014,69.998,213.448,70.014,212.901,70.045z"
			/>
		<path fill="#FFFFFF" d="M219.125,64.687V64.4c0.438-0.172,0.787-0.328,1.045-0.466c0-1.084,0-1.776,0-2.077
			c0.475-0.164,0.859-0.341,1.156-0.525l0.164,0.138c-0.051,0.377-0.105,1.211-0.164,2.502c0.365,0.004,0.584,0.007,0.656,0.007
			c0.041,0,0.275-0.005,0.703-0.015c0.238-0.005,0.416-0.015,0.533-0.026l0.049,0.05l-0.145,0.635
			c-0.287-0.004-0.551-0.006-0.793-0.006c-0.24,0-0.576,0.002-1.004,0.006l-0.035,2.783c-0.014,0.678-0.008,1.084,0.014,1.217
			c0.023,0.131,0.066,0.246,0.131,0.344c0.062,0.101,0.146,0.178,0.248,0.236c0.102,0.061,0.275,0.104,0.521,0.137
			c0.186,0,0.336-0.008,0.453-0.022c0.115-0.017,0.262-0.058,0.439-0.119l0.08,0.267c-0.213,0.17-0.42,0.344-0.621,0.526
			c-0.172,0.062-0.334,0.104-0.484,0.125s-0.322,0.031-0.52,0.031c-0.24,0-0.434-0.027-0.576-0.082
			c-0.142-0.056-0.273-0.132-0.393-0.229c-0.12-0.098-0.217-0.223-0.295-0.373c-0.078-0.149-0.129-0.387-0.152-0.711
			c0.004-0.309,0.014-0.647,0.027-1.018c0.004-0.074,0.006-0.152,0.006-0.24v-2.836h-0.279
			C219.662,64.654,219.408,64.664,219.125,64.687z"/>
		<path fill="#FFFFFF" d="M224.385,64.42v-0.39c0.883-0.101,1.627-0.291,2.229-0.574l0.15,0.109
			c-0.037,0.971-0.055,1.715-0.055,2.229v1.243c0.021,1.187,0.035,1.826,0.041,1.923c0.004,0.229,0.029,0.396,0.074,0.497
			c0.023,0.041,0.053,0.076,0.09,0.105c0.035,0.03,0.09,0.055,0.164,0.071c0.027,0.006,0.279,0.013,0.758,0.021v0.389
			c-0.693-0.031-1.246-0.047-1.66-0.047c-0.365,0-0.963,0.016-1.791,0.047v-0.389l0.652-0.008c0.098-0.004,0.172-0.021,0.225-0.053
			c0.053-0.029,0.092-0.064,0.119-0.111c0.051-0.09,0.084-0.252,0.098-0.484c0-0.061,0.01-0.713,0.033-1.963v-1.203
			c0-0.678-0.023-1.082-0.068-1.209c-0.027-0.068-0.076-0.121-0.146-0.154C225.227,64.437,224.922,64.42,224.385,64.42z
			 M226.053,60.42c0.213,0,0.395,0.076,0.543,0.228c0.148,0.15,0.223,0.332,0.223,0.547c0,0.209-0.076,0.389-0.227,0.539
			c-0.151,0.149-0.33,0.228-0.539,0.228c-0.215,0-0.396-0.076-0.547-0.228c-0.151-0.15-0.227-0.33-0.227-0.539
			c0-0.215,0.076-0.396,0.227-0.547C225.657,60.496,225.838,60.42,226.053,60.42z"/>
		<path fill="#FFFFFF" d="M229.371,64.699v-0.277c0.355-0.147,0.67-0.307,0.943-0.475v-0.41c0-0.592,0.037-1.01,0.111-1.254
			c0.076-0.244,0.182-0.461,0.318-0.652c0.205-0.283,0.529-0.643,0.971-1.08c0.297-0.287,0.516-0.467,0.656-0.541
			c0.188-0.096,0.406-0.143,0.656-0.143c0.178,0,0.359,0.029,0.547,0.088l0.027,1.135l-0.156,0.062
			c-0.143-0.119-0.281-0.205-0.422-0.262c-0.139-0.055-0.301-0.082-0.488-0.082c-0.246,0-0.447,0.051-0.602,0.15
			c-0.154,0.1-0.268,0.243-0.338,0.43c-0.07,0.188-0.105,0.567-0.105,1.145v1.414h0.725c0.363,0,0.721-0.018,1.072-0.047
			l0.068,0.041l-0.137,0.711c-0.396-0.021-0.688-0.027-0.875-0.027c-0.191,0-0.477,0.008-0.854,0.027v2.441
			c0,0.303,0.01,0.852,0.033,1.646c0.004,0.283,0.016,0.463,0.035,0.541c0.018,0.076,0.041,0.133,0.07,0.166
			c0.031,0.035,0.08,0.062,0.148,0.086c0.137,0.041,0.506,0.082,1.107,0.123v0.389c-1.062-0.031-1.709-0.047-1.941-0.047
			c-0.211,0-0.797,0.016-1.758,0.047v-0.389l0.654-0.008c0.096-0.004,0.17-0.021,0.223-0.053c0.053-0.029,0.094-0.064,0.121-0.111
			c0.051-0.09,0.082-0.252,0.096-0.484c0-0.059,0.012-0.711,0.035-1.959v-2.389L229.371,64.699z"/>
		<path fill="#FFFFFF" d="M234.522,64.42v-0.39c0.883-0.101,1.627-0.291,2.229-0.574l0.15,0.109
			c-0.037,0.971-0.055,1.715-0.055,2.229v1.243c0.021,1.187,0.035,1.826,0.041,1.923c0.004,0.229,0.029,0.396,0.074,0.497
			c0.023,0.041,0.053,0.076,0.09,0.105c0.035,0.03,0.09,0.055,0.164,0.071c0.027,0.006,0.279,0.013,0.758,0.021v0.389
			c-0.693-0.031-1.246-0.047-1.66-0.047c-0.365,0-0.963,0.016-1.791,0.047v-0.389l0.652-0.008c0.098-0.004,0.172-0.021,0.225-0.053
			c0.053-0.029,0.092-0.064,0.119-0.111c0.051-0.09,0.084-0.252,0.098-0.484c0-0.061,0.01-0.713,0.033-1.963v-1.203
			c0-0.678-0.023-1.082-0.068-1.209c-0.027-0.068-0.076-0.121-0.146-0.154C235.364,64.437,235.059,64.42,234.522,64.42z
			 M236.19,60.42c0.213,0,0.395,0.076,0.543,0.228c0.148,0.15,0.223,0.332,0.223,0.547c0,0.209-0.076,0.389-0.227,0.539
			c-0.151,0.149-0.33,0.228-0.539,0.228c-0.215,0-0.396-0.076-0.547-0.228c-0.151-0.15-0.227-0.33-0.227-0.539
			c0-0.215,0.076-0.396,0.227-0.547C235.794,60.496,235.975,60.42,236.19,60.42z"/>
		<path fill="#FFFFFF" d="M245.03,68.986l-0.219,0.492c-0.314,0.194-0.543,0.325-0.689,0.391c-0.215,0.097-0.459,0.177-0.733,0.242
			c-0.276,0.065-0.565,0.101-0.873,0.101c-0.603,0-1.146-0.125-1.633-0.375c-0.488-0.253-0.867-0.628-1.14-1.125
			c-0.271-0.5-0.405-1.084-0.405-1.755c0-0.522,0.072-0.995,0.215-1.418c0.146-0.422,0.308-0.731,0.487-0.934
			c0.134-0.146,0.339-0.312,0.615-0.502c0.279-0.189,0.556-0.339,0.828-0.447c0.359-0.149,0.75-0.228,1.168-0.228
			c0.512,0,0.973,0.117,1.385,0.351c0.412,0.232,0.716,0.549,0.906,0.949c0.191,0.401,0.287,0.854,0.287,1.36
			c0,0.127-0.012,0.281-0.035,0.465c-0.326,0.062-0.621,0.104-0.879,0.123c-0.492,0.035-0.984,0.056-1.475,0.056h-2.191
			c0.01,0.651,0.121,1.182,0.338,1.586c0.217,0.403,0.517,0.703,0.896,0.896c0.379,0.19,0.775,0.286,1.186,0.286
			c0.277,0,0.555-0.045,0.83-0.135s0.617-0.256,1.021-0.496L245.03,68.986z M240.649,66.191c0.127,0.014,0.369,0.026,0.725,0.041
			c0.681,0.022,1.146,0.034,1.4,0.034c0.607,0,1.006-0.012,1.197-0.034c0.004-0.109,0.006-0.193,0.006-0.252
			c0-0.722-0.145-1.25-0.438-1.586c-0.291-0.339-0.68-0.507-1.168-0.507c-0.516,0-0.93,0.185-1.244,0.554
			C240.813,64.809,240.653,65.393,240.649,66.191z"/>
		<path fill="#FFFFFF" d="M251.036,60.762v-0.389c0.506-0.055,0.934-0.121,1.281-0.195c0.35-0.075,0.688-0.168,1.021-0.276
			l0.09,0.062c-0.019,0.387-0.039,1.135-0.062,2.242l-0.027,1.094v4.279c0,0.465,0.008,0.867,0.025,1.205
			c0.016,0.34,0.043,0.543,0.084,0.607c0.041,0.065,0.108,0.119,0.205,0.16c0.096,0.041,0.381,0.082,0.854,0.123v0.369
			c-0.558-0.031-0.947-0.048-1.177-0.048c-0.194,0-0.598,0.017-1.202,0.048c0.014-0.312,0.024-0.738,0.032-1.271
			c-0.182,0.133-0.426,0.33-0.733,0.596c-0.308,0.264-0.547,0.479-0.722,0.646c-0.364,0.094-0.686,0.139-0.965,0.139
			c-0.514,0-0.987-0.127-1.422-0.383c-0.432-0.256-0.766-0.625-1-1.111c-0.236-0.484-0.354-1.029-0.354-1.637
			c0-0.455,0.072-0.889,0.217-1.295c0.143-0.408,0.324-0.725,0.543-0.947c0.123-0.127,0.402-0.32,0.84-0.58
			c0.438-0.26,0.793-0.449,1.064-0.564c0.27-0.116,0.566-0.174,0.885-0.174c0.287,0,0.568,0.035,0.844,0.105
			c0.276,0.068,0.543,0.18,0.803,0.322v-1.797c0-0.635-0.026-1.021-0.082-1.154c-0.018-0.051-0.051-0.086-0.102-0.109
			C251.887,60.789,251.573,60.768,251.036,60.762z M252.163,65.062c-0.31-0.343-0.635-0.591-0.973-0.748
			c-0.341-0.156-0.675-0.234-1.003-0.234c-0.372,0-0.719,0.097-1.032,0.287c-0.314,0.188-0.556,0.479-0.722,0.865
			c-0.166,0.389-0.25,0.852-0.25,1.396c0,0.831,0.207,1.481,0.623,1.95c0.414,0.47,0.912,0.703,1.496,0.703
			c0.306,0,0.578-0.062,0.819-0.19c0.24-0.127,0.453-0.312,0.636-0.56c0.185-0.246,0.301-0.521,0.351-0.819
			c0.036-0.199,0.055-0.693,0.055-1.479V65.062z"/>
		<path fill="#FFFFFF" d="M260.215,60.777v-0.438c0.916,0.033,1.641,0.049,2.174,0.049c0.355,0,0.732-0.006,1.135-0.016l1.072-0.039
			c0.119-0.004,0.229-0.008,0.328-0.008c0.725,0,1.295,0.08,1.709,0.24c0.414,0.156,0.738,0.41,0.971,0.762
			c0.232,0.348,0.349,0.746,0.349,1.193c0,0.398-0.098,0.799-0.291,1.193c-0.191,0.396-0.475,0.731-0.844,1.008
			s-0.754,0.477-1.156,0.594c-0.272,0.082-0.584,0.123-0.93,0.123c-0.291,0-0.604-0.031-0.942-0.098l-0.144-0.506
			c0.404,0.096,0.726,0.146,0.957,0.146c0.342,0,0.666-0.084,0.973-0.25c0.31-0.168,0.548-0.418,0.72-0.756
			c0.17-0.336,0.256-0.705,0.256-1.111c0-0.395-0.082-0.746-0.25-1.064c-0.166-0.315-0.418-0.557-0.758-0.723
			c-0.341-0.164-0.752-0.246-1.234-0.246c-0.434,0-0.897,0.078-1.395,0.232c-0.041,0.48-0.062,1.236-0.062,2.268v3.443
			c0,0.617,0.006,1.223,0.021,1.811c0.014,0.432,0.047,0.689,0.1,0.771c0.054,0.082,0.138,0.143,0.252,0.182
			c0.117,0.037,0.445,0.062,0.988,0.07v0.438c-0.845-0.031-1.463-0.047-1.858-0.047c-0.154,0-0.867,0.016-2.14,0.047v-0.438
			c0.535-0.01,0.86-0.033,0.979-0.07c0.117-0.039,0.199-0.094,0.244-0.162c0.055-0.09,0.09-0.311,0.104-0.662
			c0.006-0.096,0.016-0.742,0.033-1.938v-3.162c0-0.619-0.006-1.228-0.021-1.817c-0.014-0.433-0.047-0.688-0.1-0.769
			c-0.054-0.08-0.138-0.14-0.255-0.179C261.086,60.809,260.756,60.785,260.215,60.777z"/>
		<path fill="#FFFFFF" d="M277.088,69.656v0.389c-0.598-0.031-1.049-0.047-1.354-0.047c-0.34,0-0.682,0.016-1.025,0.047
			c0.027-0.369,0.049-0.783,0.062-1.244c-0.273,0.22-0.6,0.519-0.979,0.896c-0.088,0.086-0.172,0.148-0.254,0.189
			c-0.195,0.108-0.393,0.188-0.588,0.233c-0.193,0.05-0.43,0.072-0.703,0.072c-0.367,0-0.678-0.05-0.926-0.149
			s-0.461-0.252-0.639-0.457c-0.133-0.148-0.234-0.347-0.307-0.586c-0.07-0.238-0.105-0.527-0.105-0.863
			c0-0.158,0.006-0.312,0.016-0.449c0.014-0.145,0.02-0.281,0.02-0.418V66.1c0-0.117-0.006-0.418-0.021-0.896
			c-0.01-0.301-0.029-0.496-0.062-0.588c-0.02-0.045-0.047-0.082-0.088-0.109c-0.066-0.045-0.188-0.067-0.363-0.067
			c-0.25,0-0.447-0.002-0.594-0.007v-0.391c0.979-0.109,1.688-0.285,2.133-0.525c0.072-0.041,0.129-0.062,0.17-0.062
			c0.031,0,0.061,0.013,0.078,0.035c0.021,0.021,0.031,0.058,0.031,0.103c0,0.037-0.002,0.082-0.008,0.139
			c-0.02,0.146-0.033,0.426-0.049,0.842c-0.025,0.76-0.041,1.271-0.041,1.531v1.332c0,0.557,0.037,0.945,0.113,1.172
			c0.074,0.227,0.221,0.404,0.439,0.541c0.217,0.135,0.482,0.199,0.803,0.199c0.219,0,0.436-0.035,0.65-0.111
			c0.219-0.074,0.41-0.186,0.584-0.324c0.129-0.105,0.26-0.246,0.393-0.424c0.1-0.133,0.166-0.234,0.199-0.307
			c0.029-0.068,0.051-0.174,0.061-0.312c0.023-0.399,0.035-0.799,0.035-1.194v-0.572c0-0.119-0.008-0.418-0.021-0.896
			c-0.01-0.301-0.029-0.496-0.062-0.588c-0.02-0.045-0.049-0.082-0.09-0.109c-0.066-0.045-0.188-0.067-0.359-0.067
			c-0.252,0-0.449-0.002-0.598-0.006v-0.392c0.979-0.108,1.688-0.285,2.127-0.524c0.072-0.041,0.131-0.062,0.172-0.062
			c0.031,0,0.059,0.012,0.076,0.034c0.021,0.021,0.031,0.058,0.031,0.103c0,0.037-0.002,0.082-0.006,0.139
			c-0.016,0.146-0.027,0.436-0.047,0.869c-0.023,0.74-0.035,1.242-0.035,1.504v0.936l0.014,0.951
			c0.018,0.551,0.027,0.875,0.033,0.971c0.004,0.228,0.027,0.396,0.072,0.498c0.023,0.041,0.055,0.076,0.092,0.105
			c0.033,0.029,0.09,0.055,0.16,0.07C276.361,69.641,276.613,69.648,277.088,69.656z"/>
		<path fill="#FFFFFF" d="M279.031,70.073c0.055-0.574,0.086-0.938,0.09-1.086c0.025-0.988,0.041-1.568,0.041-1.742v-3.039
			c0-0.76-0.014-1.547-0.035-2.357c-0.02-0.545-0.043-0.852-0.074-0.914c-0.023-0.047-0.061-0.077-0.111-0.096
			c-0.066-0.033-0.385-0.049-0.947-0.049v-0.402c1.029-0.129,1.744-0.287,2.146-0.479c0.062-0.027,0.105-0.041,0.137-0.041
			c0.033,0,0.061,0.01,0.076,0.029c0.02,0.021,0.027,0.051,0.027,0.086c0,0.029-0.004,0.078-0.016,0.137l-0.008,0.225
			c-0.021,0.816-0.035,1.511-0.041,2.082l-0.014,1.066v1.352l0.943-0.924c0.123-0.104,0.324-0.207,0.607-0.307
			c0.283-0.104,0.584-0.15,0.902-0.15c0.502,0,0.945,0.117,1.332,0.353c0.389,0.233,0.686,0.565,0.893,0.993
			c0.207,0.431,0.312,0.902,0.312,1.423c0,0.401-0.061,0.78-0.18,1.143c-0.115,0.359-0.27,0.683-0.457,0.964
			c-0.137,0.215-0.254,0.36-0.35,0.438l-0.998,0.719c-0.404,0.301-0.721,0.492-0.949,0.576c-0.229,0.086-0.52,0.127-0.875,0.127
			c-0.305,0-0.588-0.041-0.848-0.123s-0.535-0.227-0.828-0.43l-0.553,0.52L279.031,70.073z M280.303,65.664v2.562
			c0,0.229,0.014,0.375,0.039,0.438c0.023,0.064,0.102,0.148,0.229,0.254c0.191,0.158,0.414,0.287,0.666,0.383
			c0.256,0.097,0.521,0.144,0.805,0.144c0.662,0,1.17-0.254,1.523-0.767c0.355-0.51,0.533-1.141,0.533-1.893
			c0-0.533-0.084-0.98-0.254-1.34c-0.168-0.361-0.4-0.631-0.697-0.812c-0.295-0.181-0.629-0.271-0.998-0.271
			c-0.432,0-0.818,0.123-1.162,0.371C280.645,64.988,280.418,65.295,280.303,65.664z"/>
		<path fill="#FFFFFF" d="M286.938,70.045v-0.389l0.645-0.008c0.1-0.004,0.176-0.021,0.229-0.053
			c0.053-0.03,0.092-0.064,0.119-0.111c0.051-0.09,0.08-0.252,0.09-0.484c0.004-0.059,0.021-0.713,0.047-1.961v-2.834
			c0-0.76-0.01-1.547-0.031-2.357c-0.021-0.545-0.043-0.852-0.076-0.914c-0.023-0.047-0.061-0.077-0.109-0.096
			c-0.068-0.033-0.385-0.049-0.949-0.049v-0.402c1.029-0.129,1.746-0.287,2.146-0.479c0.059-0.027,0.104-0.041,0.137-0.041
			s0.057,0.01,0.074,0.029c0.02,0.02,0.027,0.051,0.027,0.086c0,0.031-0.006,0.076-0.016,0.137l-0.006,0.227
			c-0.023,0.814-0.037,1.511-0.041,2.082l-0.014,1.066v3.545c0.02,1.184,0.027,1.824,0.031,1.92
			c0.008,0.229,0.033,0.396,0.086,0.498c0.018,0.041,0.045,0.076,0.08,0.107c0.037,0.027,0.094,0.053,0.164,0.068
			c0.033,0.006,0.287,0.014,0.766,0.021v0.39c-0.619-0.031-1.164-0.048-1.633-0.048C288.254,69.998,287.666,70.014,286.938,70.045z"
			/>
		<path fill="#FFFFFF" d="M291.67,64.42v-0.39c0.885-0.101,1.627-0.291,2.229-0.574l0.15,0.109
			c-0.037,0.971-0.055,1.715-0.055,2.229v1.243c0.021,1.187,0.035,1.826,0.041,1.923c0.004,0.229,0.027,0.396,0.074,0.497
			c0.021,0.041,0.053,0.076,0.09,0.105c0.035,0.03,0.092,0.055,0.162,0.071c0.027,0.006,0.281,0.013,0.762,0.021v0.389
			c-0.693-0.031-1.248-0.047-1.662-0.047c-0.365,0-0.961,0.016-1.791,0.047v-0.389l0.654-0.008c0.096-0.004,0.17-0.021,0.223-0.053
			c0.053-0.03,0.094-0.064,0.121-0.111c0.051-0.09,0.082-0.252,0.096-0.484c0-0.061,0.012-0.713,0.035-1.963v-1.203
			c0-0.678-0.023-1.082-0.068-1.209c-0.025-0.068-0.076-0.121-0.146-0.154C292.512,64.437,292.207,64.42,291.67,64.42z
			 M293.338,60.42c0.215,0,0.396,0.076,0.543,0.228c0.146,0.15,0.223,0.332,0.223,0.547c0,0.209-0.074,0.389-0.225,0.539
			c-0.15,0.149-0.332,0.228-0.541,0.228c-0.215,0-0.396-0.076-0.547-0.228c-0.15-0.15-0.227-0.33-0.227-0.539
			c0-0.215,0.074-0.396,0.227-0.547C292.941,60.496,293.123,60.42,293.338,60.42z"/>
		<path fill="#FFFFFF" d="M302.07,69.266l-0.271,0.459c-0.314,0.168-0.625,0.291-0.936,0.369c-0.307,0.076-0.652,0.115-1.041,0.115
			c-0.955,0-1.721-0.287-2.285-0.865c-0.568-0.575-0.854-1.369-0.854-2.377c0-0.535,0.076-0.998,0.23-1.393
			c0.152-0.396,0.342-0.699,0.562-0.914c0.15-0.15,0.438-0.346,0.857-0.586c0.422-0.238,0.717-0.395,0.887-0.461
			c0.309-0.133,0.68-0.199,1.113-0.199c0.41,0,0.777,0.043,1.105,0.131c0.209,0.055,0.42,0.146,0.629,0.273
			c-0.053,0.35-0.09,0.613-0.109,0.795c-0.023,0.182-0.053,0.508-0.086,0.98h-0.393c-0.025-0.441-0.055-0.719-0.082-0.828
			c-0.018-0.066-0.059-0.129-0.123-0.185c-0.164-0.129-0.375-0.237-0.633-0.331c-0.26-0.095-0.541-0.142-0.848-0.142
			c-0.383,0-0.715,0.08-0.996,0.235c-0.281,0.158-0.498,0.408-0.654,0.75c-0.152,0.343-0.23,0.767-0.23,1.273
			c0,0.619,0.107,1.182,0.328,1.684c0.219,0.502,0.516,0.867,0.893,1.099c0.375,0.229,0.797,0.346,1.262,0.346
			c0.232,0,0.459-0.026,0.682-0.086c0.221-0.057,0.504-0.164,0.852-0.323L302.07,69.266z"/>
		<path fill="#FFFFFF" d="M306.971,70.045V69.58c0.359-0.004,0.586-0.02,0.674-0.045c0.09-0.023,0.172-0.072,0.246-0.145
			c0.076-0.068,0.186-0.254,0.326-0.551c0.082-0.168,0.379-0.81,0.889-1.92l1.713-3.854c0.188-0.426,0.586-1.367,1.197-2.83h0.439
			l2.924,6.854c0.473,1.112,0.789,1.812,0.941,2.092c0.09,0.16,0.184,0.268,0.285,0.313c0.104,0.052,0.334,0.078,0.693,0.082v0.466
			c-0.711-0.046-1.209-0.068-1.492-0.068l-2.203,0.068V69.58c0.514-0.008,0.82-0.025,0.932-0.047
			c0.107-0.023,0.184-0.059,0.223-0.102s0.059-0.098,0.059-0.158c0-0.104-0.031-0.23-0.096-0.393l-0.84-2.093h-3.959l-0.742,1.759
			c-0.133,0.313-0.199,0.545-0.199,0.688c0,0.063,0.02,0.117,0.057,0.158c0.051,0.059,0.129,0.1,0.23,0.122
			c0.17,0.035,0.465,0.058,0.889,0.062v0.466c-0.77-0.041-1.348-0.062-1.729-0.062C307.98,69.986,307.496,70.004,306.971,70.045z
			 M310.154,66.211h3.447l-1.703-4.115L310.154,66.211z"/>
		<path fill="#FFFFFF" d="M324.262,69.266l-0.273,0.459c-0.312,0.168-0.625,0.291-0.934,0.369c-0.307,0.076-0.654,0.115-1.043,0.115
			c-0.957,0-1.719-0.287-2.285-0.865c-0.566-0.575-0.852-1.369-0.852-2.377c0-0.535,0.076-0.998,0.229-1.393
			c0.154-0.396,0.342-0.699,0.564-0.914c0.148-0.15,0.436-0.346,0.855-0.586c0.422-0.238,0.719-0.395,0.887-0.461
			c0.311-0.133,0.682-0.199,1.113-0.199c0.41,0,0.779,0.043,1.107,0.131c0.209,0.055,0.42,0.146,0.629,0.273
			c-0.053,0.35-0.09,0.613-0.113,0.795c-0.02,0.182-0.051,0.508-0.086,0.98h-0.389c-0.027-0.441-0.055-0.719-0.082-0.828
			c-0.021-0.066-0.062-0.129-0.123-0.185c-0.166-0.129-0.377-0.237-0.635-0.331c-0.258-0.095-0.539-0.142-0.848-0.142
			c-0.383,0-0.715,0.08-0.996,0.235c-0.279,0.158-0.496,0.408-0.652,0.75c-0.154,0.343-0.232,0.767-0.232,1.273
			c0,0.619,0.109,1.182,0.328,1.684s0.518,0.867,0.895,1.099c0.375,0.229,0.795,0.346,1.26,0.346c0.23,0,0.459-0.026,0.682-0.086
			c0.221-0.057,0.504-0.164,0.852-0.323L324.262,69.266z"/>
		<path fill="#FFFFFF" d="M331.176,69.266l-0.273,0.459c-0.312,0.168-0.627,0.291-0.934,0.369c-0.309,0.076-0.656,0.115-1.043,0.115
			c-0.957,0-1.719-0.287-2.287-0.865c-0.566-0.575-0.85-1.369-0.85-2.377c0-0.535,0.076-0.998,0.229-1.393
			c0.154-0.396,0.34-0.699,0.564-0.914c0.148-0.15,0.436-0.346,0.855-0.586c0.422-0.238,0.719-0.395,0.887-0.461
			c0.311-0.133,0.682-0.199,1.113-0.199c0.41,0,0.779,0.043,1.107,0.131c0.209,0.055,0.418,0.146,0.629,0.273
			c-0.053,0.35-0.092,0.613-0.113,0.795c-0.02,0.182-0.051,0.508-0.086,0.98h-0.389c-0.027-0.441-0.057-0.719-0.082-0.828
			c-0.021-0.066-0.062-0.129-0.125-0.185c-0.164-0.129-0.375-0.237-0.633-0.331c-0.26-0.095-0.539-0.142-0.848-0.142
			c-0.383,0-0.717,0.08-0.996,0.235c-0.279,0.158-0.5,0.408-0.652,0.75c-0.156,0.343-0.232,0.767-0.232,1.273
			c0,0.619,0.109,1.182,0.328,1.684s0.516,0.867,0.891,1.099c0.379,0.229,0.799,0.346,1.264,0.346c0.23,0,0.459-0.026,0.68-0.086
			c0.223-0.057,0.506-0.164,0.852-0.323L331.176,69.266z"/>
		<path fill="#FFFFFF" d="M332.621,66.9c0-1.022,0.322-1.854,0.973-2.502c0.65-0.646,1.482-0.97,2.5-0.97
			c0.957,0,1.736,0.302,2.338,0.904c0.604,0.602,0.902,1.379,0.902,2.332c0,0.666-0.156,1.275-0.465,1.828
			c-0.312,0.551-0.748,0.982-1.312,1.297c-0.564,0.312-1.188,0.469-1.867,0.469c-0.527,0-0.977-0.09-1.344-0.268
			c-0.365-0.178-0.664-0.4-0.891-0.67c-0.229-0.271-0.402-0.545-0.521-0.828C332.725,67.994,332.621,67.463,332.621,66.9z
			 M333.912,66.391c0,0.562,0.094,1.134,0.279,1.712c0.188,0.579,0.457,1.004,0.811,1.27c0.354,0.269,0.738,0.4,1.15,0.4
			c0.529,0,0.973-0.209,1.326-0.63c0.355-0.42,0.533-1.065,0.533-1.938c0-0.725-0.104-1.352-0.318-1.879
			c-0.211-0.525-0.479-0.898-0.809-1.115s-0.691-0.324-1.088-0.324c-0.562,0-1.018,0.203-1.363,0.609
			C334.086,64.904,333.912,65.533,333.912,66.391z"/>
		<path fill="#FFFFFF" d="M348.586,69.656v0.389c-0.6-0.031-1.049-0.047-1.354-0.047c-0.338,0-0.68,0.016-1.023,0.047
			c0.025-0.369,0.047-0.783,0.061-1.244c-0.271,0.22-0.6,0.519-0.977,0.896c-0.088,0.086-0.172,0.148-0.254,0.189
			c-0.195,0.108-0.393,0.188-0.588,0.233c-0.195,0.05-0.432,0.072-0.703,0.072c-0.369,0-0.68-0.05-0.928-0.149
			c-0.248-0.101-0.461-0.252-0.639-0.457c-0.133-0.148-0.234-0.347-0.305-0.586c-0.072-0.238-0.107-0.527-0.107-0.863
			c0-0.158,0.006-0.312,0.02-0.449c0.012-0.145,0.018-0.281,0.018-0.418V66.1c0-0.117-0.008-0.418-0.021-0.896
			c-0.012-0.301-0.029-0.496-0.062-0.588c-0.02-0.045-0.049-0.082-0.09-0.109c-0.068-0.045-0.189-0.067-0.361-0.067
			c-0.252,0-0.447-0.002-0.596-0.007v-0.391c0.98-0.109,1.691-0.285,2.133-0.525c0.072-0.041,0.131-0.062,0.172-0.062
			c0.031,0,0.059,0.013,0.078,0.035c0.021,0.021,0.031,0.058,0.031,0.103c0,0.037-0.004,0.082-0.008,0.139
			c-0.02,0.146-0.033,0.426-0.047,0.842c-0.027,0.76-0.041,1.271-0.041,1.531v1.332c0,0.557,0.037,0.945,0.109,1.172
			c0.076,0.227,0.223,0.404,0.439,0.541c0.217,0.135,0.482,0.199,0.803,0.199c0.219,0,0.438-0.035,0.652-0.111
			c0.217-0.074,0.412-0.186,0.586-0.324c0.127-0.105,0.258-0.246,0.389-0.424c0.104-0.133,0.168-0.234,0.199-0.307
			c0.031-0.071,0.053-0.174,0.061-0.312c0.021-0.399,0.033-0.799,0.033-1.194v-0.572c0-0.119-0.006-0.418-0.02-0.896
			c-0.012-0.301-0.031-0.496-0.062-0.588c-0.018-0.045-0.047-0.082-0.088-0.109c-0.066-0.045-0.188-0.067-0.363-0.067
			c-0.25,0-0.447-0.002-0.594-0.006v-0.392c0.979-0.108,1.688-0.285,2.127-0.524c0.072-0.041,0.129-0.062,0.17-0.062
			c0.031,0,0.059,0.012,0.078,0.034c0.021,0.021,0.031,0.058,0.031,0.103c0,0.037-0.002,0.082-0.008,0.139
			c-0.014,0.146-0.025,0.436-0.043,0.869c-0.025,0.74-0.039,1.242-0.039,1.504v0.936l0.014,0.951
			c0.02,0.551,0.029,0.875,0.035,0.971c0.004,0.228,0.029,0.396,0.074,0.498c0.021,0.041,0.053,0.076,0.088,0.105
			c0.037,0.029,0.09,0.055,0.164,0.07C347.857,69.641,348.109,69.648,348.586,69.656z"/>
		<path fill="#FFFFFF" d="M349.832,70.045v-0.389l0.65-0.008c0.1-0.004,0.174-0.021,0.227-0.053c0.053-0.03,0.092-0.064,0.121-0.111
			c0.049-0.09,0.082-0.252,0.096-0.484c0-0.061,0.012-0.713,0.033-1.963v-0.812c0-0.364-0.006-0.758-0.021-1.176
			c-0.014-0.27-0.035-0.43-0.062-0.479c-0.031-0.051-0.082-0.088-0.154-0.113s-0.369-0.035-0.889-0.031v-0.389
			c0.92-0.129,1.592-0.295,2.016-0.5c0.092-0.045,0.154-0.068,0.188-0.068c0.031,0,0.057,0.013,0.072,0.035
			c0.021,0.021,0.027,0.058,0.027,0.103c0,0.032-0.002,0.067-0.006,0.108c-0.014,0.164-0.027,0.513-0.041,1.039l1.271-1.086
			c0.373-0.137,0.729-0.205,1.061-0.205c0.369,0,0.719,0.074,1.051,0.226c0.33,0.149,0.578,0.34,0.744,0.567
			s0.277,0.515,0.332,0.861c0.031,0.205,0.047,0.777,0.047,1.715v1.211c0,0.592,0.018,0.996,0.049,1.209
			c0.023,0.137,0.061,0.232,0.105,0.283c0.049,0.053,0.123,0.086,0.223,0.1l0.73,0.021v0.389c-0.445-0.031-0.816-0.047-1.113-0.047
			c-0.256,0-0.68,0.016-1.271,0.047c0.064-1.125,0.098-1.836,0.098-2.133v-1.148c0-0.715-0.027-1.184-0.082-1.407
			c-0.078-0.306-0.254-0.552-0.527-0.738s-0.604-0.278-0.99-0.278c-0.342,0-0.652,0.08-0.938,0.241
			c-0.281,0.162-0.484,0.349-0.605,0.562s-0.182,0.568-0.182,1.07v0.825c0.021,1.187,0.033,1.826,0.033,1.923
			c0.01,0.229,0.037,0.396,0.084,0.497c0.018,0.041,0.045,0.076,0.082,0.105c0.037,0.03,0.094,0.055,0.172,0.071
			c0.025,0.006,0.279,0.013,0.756,0.021v0.389c-0.555-0.031-1.059-0.047-1.51-0.047C351.322,69.998,350.697,70.014,349.832,70.045z"
			/>
		<path fill="#FFFFFF" d="M358.803,64.687V64.4c0.439-0.172,0.787-0.328,1.047-0.466c0-1.084,0-1.776,0-2.077
			c0.477-0.164,0.859-0.341,1.154-0.525l0.164,0.138c-0.049,0.377-0.104,1.211-0.164,2.502c0.365,0.004,0.584,0.007,0.656,0.007
			c0.041,0,0.275-0.005,0.705-0.015c0.234-0.005,0.412-0.015,0.531-0.026l0.047,0.05l-0.143,0.635
			c-0.287-0.004-0.551-0.006-0.793-0.006s-0.576,0.002-1.006,0.006l-0.033,2.783c-0.014,0.678-0.01,1.084,0.014,1.217
			c0.021,0.131,0.066,0.246,0.129,0.344c0.064,0.101,0.146,0.178,0.248,0.236c0.105,0.061,0.277,0.104,0.521,0.137
			c0.186,0,0.338-0.008,0.453-0.022c0.113-0.016,0.262-0.058,0.438-0.119l0.082,0.267c-0.215,0.17-0.422,0.344-0.621,0.526
			c-0.174,0.062-0.336,0.104-0.482,0.125c-0.15,0.021-0.324,0.031-0.521,0.031c-0.242,0-0.434-0.027-0.578-0.082
			c-0.143-0.056-0.271-0.132-0.391-0.229s-0.219-0.223-0.297-0.373c-0.078-0.149-0.129-0.387-0.152-0.711
			c0.006-0.309,0.016-0.647,0.027-1.018c0.006-0.074,0.008-0.152,0.008-0.24v-2.836h-0.281
			C359.342,64.654,359.086,64.664,358.803,64.687z"/>
		<path fill="#FFFFFF" d="M365.238,65.364l-0.359-0.098c0.004-0.104,0.006-0.246,0.006-0.432c0-0.189-0.002-0.345-0.006-0.457
			c0.578-0.38,1.053-0.636,1.424-0.767c0.283-0.097,0.6-0.146,0.951-0.146c0.52,0,0.959,0.099,1.312,0.295
			c0.355,0.195,0.621,0.478,0.795,0.84c0.117,0.257,0.18,0.604,0.18,1.048l-0.035,1.25v2.036c0,0.22,0.018,0.378,0.055,0.474
			c0.027,0.067,0.07,0.117,0.131,0.149c0.045,0.027,0.143,0.046,0.287,0.056l0.443,0.041v0.39c-0.373-0.031-0.701-0.048-0.984-0.048
			c-0.271,0-0.639,0.017-1.094,0.048l0.035-1.203c-0.932,0.703-1.482,1.1-1.654,1.188c-0.174,0.09-0.393,0.135-0.656,0.135
			c-0.553,0-0.98-0.148-1.289-0.441c-0.309-0.295-0.461-0.686-0.461-1.172c0-0.313,0.055-0.602,0.16-0.86
			c0.107-0.26,0.236-0.468,0.389-0.619c0.15-0.152,0.303-0.267,0.455-0.338c0.266-0.123,0.693-0.257,1.289-0.396
			c0.596-0.144,1.186-0.246,1.77-0.312c0.004-0.436-0.049-0.771-0.158-1.014s-0.293-0.438-0.553-0.597
			c-0.26-0.153-0.578-0.231-0.951-0.231c-0.27,0-0.504,0.037-0.707,0.108c-0.203,0.074-0.328,0.136-0.373,0.187l-0.123,0.246
			C365.389,64.994,365.297,65.207,365.238,65.364z M368.377,66.437c-0.594,0.102-1.102,0.213-1.52,0.336
			c-0.42,0.123-0.717,0.25-0.889,0.383c-0.105,0.076-0.197,0.192-0.273,0.349c-0.117,0.229-0.178,0.479-0.178,0.76
			c0,0.336,0.092,0.602,0.279,0.789c0.188,0.188,0.447,0.283,0.779,0.283c0.305,0,0.605-0.089,0.904-0.265
			c0.299-0.174,0.598-0.438,0.895-0.789L368.377,66.437L368.377,66.437z"/>
		<path fill="#FFFFFF" d="M371.646,70.045v-0.389l0.654-0.008c0.096-0.004,0.17-0.021,0.223-0.053
			c0.055-0.029,0.096-0.064,0.121-0.111c0.051-0.09,0.082-0.252,0.098-0.484c0-0.061,0.012-0.713,0.033-1.963v-0.812
			c0-0.364-0.008-0.758-0.02-1.176c-0.016-0.27-0.035-0.43-0.064-0.479c-0.027-0.051-0.082-0.088-0.152-0.113
			c-0.072-0.025-0.369-0.035-0.891-0.031v-0.389c0.92-0.129,1.596-0.295,2.02-0.5c0.09-0.045,0.15-0.068,0.184-0.068
			s0.059,0.013,0.076,0.035c0.018,0.021,0.027,0.058,0.027,0.103c0,0.032-0.006,0.067-0.01,0.108
			c-0.014,0.164-0.025,0.513-0.041,1.039l1.271-1.086c0.373-0.137,0.727-0.205,1.061-0.205c0.369,0,0.721,0.074,1.051,0.226
			c0.328,0.15,0.576,0.34,0.742,0.567c0.168,0.228,0.277,0.515,0.332,0.861c0.031,0.205,0.051,0.777,0.051,1.715v1.211
			c0,0.592,0.016,0.996,0.047,1.209c0.021,0.137,0.059,0.232,0.104,0.283c0.049,0.053,0.123,0.086,0.225,0.1l0.73,0.021v0.389
			c-0.447-0.031-0.818-0.047-1.115-0.047c-0.256,0-0.68,0.016-1.271,0.047c0.062-1.125,0.096-1.836,0.096-2.133v-1.148
			c0-0.715-0.025-1.184-0.082-1.407c-0.078-0.306-0.252-0.552-0.523-0.738c-0.273-0.187-0.605-0.278-0.992-0.278
			c-0.342,0-0.654,0.08-0.938,0.241c-0.281,0.162-0.482,0.349-0.604,0.562s-0.184,0.568-0.184,1.07v0.825
			c0.023,1.187,0.035,1.826,0.035,1.923c0.01,0.229,0.035,0.396,0.082,0.497c0.02,0.041,0.045,0.076,0.082,0.105
			c0.037,0.03,0.096,0.055,0.172,0.071c0.027,0.006,0.279,0.013,0.76,0.021v0.389c-0.559-0.031-1.062-0.047-1.514-0.047
			C373.137,69.998,372.512,70.014,371.646,70.045z"/>
		<path fill="#FFFFFF" d="M380.619,64.687V64.4c0.438-0.172,0.785-0.328,1.045-0.466c0-1.084,0-1.776,0-2.077
			c0.475-0.164,0.857-0.341,1.154-0.525l0.164,0.138c-0.051,0.377-0.104,1.211-0.164,2.502c0.363,0.004,0.582,0.007,0.656,0.007
			c0.041,0,0.275-0.005,0.703-0.015c0.236-0.005,0.414-0.015,0.533-0.026l0.049,0.05l-0.145,0.635
			c-0.287-0.004-0.553-0.006-0.793-0.006c-0.242,0-0.576,0.002-1.006,0.006l-0.033,2.783c-0.016,0.678-0.012,1.084,0.014,1.217
			c0.021,0.131,0.066,0.246,0.129,0.344c0.064,0.101,0.146,0.178,0.25,0.236c0.102,0.061,0.275,0.104,0.521,0.137
			c0.188,0,0.338-0.008,0.451-0.022c0.117-0.017,0.266-0.058,0.439-0.119l0.082,0.267c-0.213,0.17-0.42,0.344-0.621,0.526
			c-0.174,0.062-0.334,0.104-0.484,0.125c-0.148,0.021-0.322,0.031-0.52,0.031c-0.24,0-0.436-0.027-0.576-0.082
			c-0.145-0.056-0.275-0.132-0.393-0.229c-0.119-0.098-0.219-0.223-0.295-0.373c-0.08-0.149-0.133-0.387-0.152-0.711
			c0.004-0.309,0.014-0.647,0.027-1.018c0.004-0.074,0.006-0.152,0.006-0.24v-2.836h-0.279
			C381.156,64.654,380.9,64.664,380.619,64.687z"/>
		<path fill="#FFFFFF" d="M386.199,67.982h0.408c0.004,0.266,0.02,0.475,0.041,0.629c0.023,0.155,0.062,0.307,0.115,0.455
			c0.057,0.147,0.141,0.272,0.254,0.375c0.115,0.104,0.238,0.184,0.373,0.239c0.135,0.057,0.273,0.095,0.412,0.113
			s0.35,0.027,0.633,0.027c0.467,0,0.852-0.123,1.148-0.369s0.445-0.584,0.445-1.012c0-0.191-0.047-0.361-0.141-0.508
			c-0.092-0.146-0.227-0.26-0.402-0.342c-0.174-0.082-0.555-0.188-1.135-0.32s-0.953-0.229-1.123-0.287
			c-0.256-0.098-0.459-0.211-0.607-0.35c-0.15-0.138-0.271-0.312-0.359-0.521c-0.088-0.211-0.133-0.438-0.133-0.685
			c0-0.36,0.094-0.69,0.283-0.996c0.188-0.303,0.486-0.549,0.895-0.737c0.406-0.188,0.848-0.283,1.328-0.283
			c0.287,0,0.621,0.041,1,0.119c0.379,0.08,0.686,0.181,0.924,0.299c-0.031,0.507-0.055,1.021-0.066,1.546H390.1
			c-0.02-0.334-0.049-0.554-0.078-0.656c-0.027-0.104-0.068-0.197-0.119-0.279s-0.139-0.17-0.262-0.266
			c-0.123-0.093-0.281-0.177-0.475-0.248c-0.195-0.072-0.436-0.107-0.719-0.107c-0.4,0-0.725,0.116-0.969,0.354
			c-0.246,0.235-0.367,0.516-0.367,0.834c0,0.179,0.035,0.33,0.105,0.457c0.07,0.129,0.166,0.231,0.285,0.312
			c0.117,0.08,0.285,0.15,0.5,0.217l1.137,0.279c0.574,0.146,0.971,0.271,1.189,0.377c0.217,0.104,0.391,0.268,0.521,0.486
			c0.131,0.22,0.199,0.485,0.199,0.797c0,0.615-0.254,1.149-0.764,1.609c-0.51,0.456-1.189,0.688-2.043,0.688
			c-0.395,0-0.916-0.062-1.568-0.18c-0.359-0.066-0.555-0.116-0.582-0.146c-0.02-0.015-0.027-0.035-0.027-0.067
			c0-0.031,0.006-0.069,0.016-0.115c0.041-0.195,0.066-0.389,0.082-0.572C386.178,68.963,386.189,68.574,386.199,67.982z"/>
	</g>
	<rect x="180.342" y="2" fill="#FFFFFF" width="0.5" height="75.137"/>
	<g>
		<rect x="115.823" y="14.855" fill="#FFFFFF" width="49.629" height="49.565"/>
		<rect x="59.41" y="14.855" fill="#FFFFFF" width="49.631" height="49.565"/>
		<rect x="3" y="14.855" fill="#FFFFFF" width="49.631" height="49.565"/>
		<path fill="#FFFFFF" d="M154.971,49.219l-0.35,3.343v-0.003c-0.086,0.804-0.199,1.449-0.332,1.937
			c-0.129,0.484-0.289,0.806-0.416,0.943c-0.148,0.168-0.35,0.307-0.617,0.42c-0.266,0.11-0.596,0.188-0.99,0.231
			c-1.463,0.123-4.602,0.185-9.383,0.185h-10.828l12.779-16.919l8.453-11.152l0,0c1.039-1.314,2.449-2.982,4.232-4.994l0.088-0.1
			v-2.134l-0.383,0.031c-1.471,0.121-3.328,0.183-5.564,0.183l-20.768-0.209l-3.66,0.028l0.021,0.371
			c0.104,1.863,0.156,3.314,0.156,4.34c0,1.05-0.053,2.533-0.158,4.451l-0.02,0.373h2.42l0.297-3.453v-0.002
			c0.051-0.651,0.125-1.168,0.215-1.537c0.045-0.184,0.094-0.332,0.141-0.436c0.047-0.105,0.094-0.166,0.115-0.187
			c0.014-0.016,0.09-0.063,0.217-0.11c0.193-0.072,0.496-0.146,0.895-0.211c0.398-0.062,0.895-0.119,1.484-0.164l0,0
			c3.633-0.248,7.039-0.369,10.209-0.369c1.705,0,3.707,0.051,5.99,0.152c-1.402,1.959-3.592,4.903-6.562,8.842l-12.016,15.9l0,0
			c-2.596,3.455-4.832,6.231-6.717,8.319l-0.09,0.103v2.072l0.369-0.019c2.697-0.123,6.52-0.185,11.469-0.185
			c3.021,0,6.27,0.031,9.754,0.093c3.27,0.061,5.391,0.094,6.369,0.094c1.166,0,2.811,0,4.934,0h0.354v-1.813
			c0-2.582,0.176-5.254,0.527-8.017l0.051-0.399L154.971,49.219L154.971,49.219z"/>
		<path fill="#FFFFFF" d="M99.567,25.518c-3.555-3.375-8.461-5.047-14.641-5.045c-6.311-0.002-11.414,1.806-15.236,5.429
			c-3.826,3.621-5.742,8.422-5.738,14.313c0,3.9,0.818,7.385,2.459,10.428c1.637,3.039,3.881,5.367,6.717,6.957
			c2.842,1.591,6.213,2.38,10.098,2.38c6.217,0.002,11.412-2.015,15.508-6.041c4.1-4.021,6.162-9.06,6.158-15.027
			C104.895,33.377,103.117,28.881,99.567,25.518z M92.147,55.16c-1.992,1.219-4.318,1.83-7.01,1.83c-2.895,0-5.449-0.721-7.689-2.16
			c-2.236-1.434-4.027-3.592-5.381-6.506c-1.344-2.906-2.023-6.33-2.023-10.288c0-2.959,0.574-5.547,1.715-7.779
			c1.141-2.235,2.699-3.916,4.691-5.067c1.992-1.148,4.365-1.728,7.15-1.729c3.047,0.002,5.656,0.66,7.861,1.969
			c2.203,1.306,3.936,3.246,5.211,5.857c1.27,2.598,1.914,5.748,1.914,9.456c0,3.533-0.584,6.512-1.73,8.947
			C95.701,52.131,94.135,53.945,92.147,55.16z"/>
		<path fill="#FFFFFF" d="M45.033,30.48c-1.066-2.308-2.629-4.23-4.672-5.761c-2.039-1.522-4.318-2.541-6.826-3.047
			c-2.314-0.465-4.578-0.697-6.787-0.697c-0.158,0-0.316,0-0.475,0.005l-5.805,0.104l-7.131,0.051c-1,0-2.963-0.043-5.877-0.129
			l-0.365-0.012v2.34l2.426,0.363h0.002c0.619,0.088,1.104,0.18,1.445,0.271c0.172,0.045,0.307,0.09,0.398,0.131
			c0.047,0.021,0.082,0.039,0.105,0.056l0.025,0.016l0.008,0.006c0.006,0.006,0.043,0.068,0.078,0.172
			c0.055,0.154,0.113,0.4,0.168,0.724c0.053,0.321,0.104,0.723,0.148,1.199v0.002c0.209,2.268,0.314,4.969,0.314,8.106v7.689
			c0,6.693-0.137,11.42-0.404,14.162l-2.486,1.471v1.863l0.389-0.037c2.201-0.211,4.014-0.316,5.43-0.316
			c0.834,0,2.859,0.062,6.059,0.187h0.002l3.27,0.077h0.004c6.557,0.003,11.92-1.981,16.012-5.961
			c4.092-3.967,6.145-9.022,6.143-15.077C46.631,35.445,46.1,32.787,45.033,30.48z M35.481,52.76l-0.002,0.002
			c-2.66,2.47-6.4,3.724-11.291,3.726c-1.729,0-3.725-0.162-5.98-0.485c-0.197-2.703-0.299-5.595-0.299-8.681V29.975
			c0-2.028,0.096-3.854,0.285-5.467c2.418-0.344,4.516-0.518,6.283-0.518c2.621,0,4.916,0.336,6.885,0.996
			c1.969,0.662,3.611,1.647,4.945,2.961c1.336,1.312,2.336,2.922,3.008,4.844c0.672,1.92,1.012,4.156,1.012,6.705
			c0,2.93-0.41,5.495-1.219,7.702c-0.811,2.207-2.018,4.057-3.629,5.562L35.481,52.76z"/>
		<path fill="#155677" d="M12.145,56.455c0.283-2.742,0.424-7.531,0.424-14.373v-7.691c0-3.146-0.105-5.858-0.316-8.143
			c-0.125-1.324-0.287-2.092-0.492-2.305c-0.203-0.213-0.932-0.406-2.188-0.586L7.45,23.041v-1.67
			c2.918,0.088,4.881,0.131,5.889,0.131l7.135-0.053l5.807-0.105c2.334-0.035,4.73,0.195,7.186,0.689
			c2.459,0.494,4.686,1.488,6.684,2.981c1.998,1.494,3.52,3.369,4.562,5.623c1.041,2.254,1.564,4.859,1.564,7.812
			c0,5.975-2.012,10.918-6.033,14.825c-4.023,3.904-9.279,5.857-15.766,5.857l-3.262-0.078c-3.201-0.125-5.225-0.187-6.072-0.187
			c-1.434,0-3.254,0.104-5.465,0.315v-1.271L12.145,56.455z M17.873,56.323c2.387,0.354,4.49,0.527,6.314,0.527
			c4.947,0,8.793-1.271,11.533-3.816c3.305-3.094,4.959-7.604,4.959-13.525c0-5.16-1.373-9.096-4.125-11.801
			c-2.748-2.705-6.775-4.059-12.078-4.059c-1.855,0-4.057,0.188-6.604,0.559c-0.213,1.697-0.318,3.627-0.318,5.781v17.344
			C17.555,50.533,17.66,53.531,17.873,56.323z"/>
		<path fill="#155677" d="M64.307,40.228c0-5.818,1.875-10.503,5.625-14.058c3.75-3.553,8.748-5.33,14.994-5.33
			c6.119,0,10.92,1.648,14.396,4.947c3.475,3.295,5.215,7.674,5.215,13.137c0,5.89-2.02,10.812-6.051,14.773
			c-4.035,3.961-9.121,5.938-15.262,5.938c-3.838,0-7.145-0.775-9.924-2.334c-2.775-1.558-4.969-3.828-6.58-6.812
			C65.112,47.5,64.307,44.08,64.307,40.228z M69.69,38.049c0,3.996,0.686,7.476,2.057,10.438c1.373,2.961,3.209,5.181,5.51,6.653
			c2.299,1.479,4.928,2.218,7.881,2.218c2.744,0,5.141-0.627,7.195-1.884c2.051-1.256,3.666-3.129,4.844-5.62
			c1.176-2.496,1.764-5.527,1.764-9.099c0-3.75-0.65-6.953-1.949-9.61c-1.301-2.662-3.082-4.666-5.348-6.009
			c-2.268-1.344-4.947-2.018-8.043-2.018c-2.834,0-5.271,0.592-7.326,1.777c-2.055,1.184-3.666,2.924-4.832,5.213
			C70.274,32.4,69.69,35.045,69.69,38.049z"/>
		<path fill="#155677" d="M131.344,56.639h11.539c4.787,0,7.926-0.061,9.412-0.184c0.848-0.09,1.463-0.344,1.842-0.77
			c0.381-0.428,0.658-1.449,0.838-3.076l0.316-3.023h1.963c-0.354,2.777-0.529,5.463-0.529,8.062v1.461c-2.123,0-3.768,0-4.934,0
			c-0.973,0-3.094-0.033-6.363-0.095c-3.486-0.061-6.736-0.094-9.76-0.094c-4.951,0-8.777,0.062-11.484,0.188v-1.565
			c1.895-2.101,4.137-4.886,6.736-8.345l12.014-15.901c3.252-4.311,5.57-7.434,6.947-9.379c-2.562-0.123-4.783-0.186-6.656-0.186
			c-3.182,0-6.594,0.123-10.236,0.371c-1.59,0.125-2.527,0.317-2.811,0.582c-0.283,0.266-0.479,1.061-0.582,2.389l-0.268,3.129
			h-1.721c0.104-1.92,0.156-3.41,0.156-4.469c0-1.039-0.053-2.494-0.156-4.361l3.283-0.027l20.768,0.211
			c2.244,0,4.109-0.061,5.596-0.184v1.615c-1.785,2.014-3.201,3.686-4.244,5.008l-8.457,11.158L131.344,56.639z"/>
	</g>
</g>
</svg>
