<?xml version="1.0" encoding="utf-8"?>
<!-- Generator: Adobe Illustrator 16.0.0, SVG Export Plug-In . SVG Version: 6.00 Build 0)  -->
<!DOCTYPE svg PUBLIC "-//W3C//DTD SVG 1.1//EN" "http://www.w3.org/Graphics/SVG/1.1/DTD/svg11.dtd">
<svg version="1.1" id="Layer_1" xmlns="http://www.w3.org/2000/svg" xmlns:xlink="http://www.w3.org/1999/xlink" x="0px" y="0px"
	 width="476.86px" height="67.696px" viewBox="31.281 24.97 476.86 67.696" enable-background="new 31.281 24.97 476.86 67.696"
	 xml:space="preserve">
<g>
	<g>
		<path fill="#004B72" d="M205.082,43.931v-0.443c0.047-0.029,0.133-0.079,0.255-0.147c0.232-0.129,0.445-0.265,0.641-0.406
			c0.066-0.825,0.102-2.164,0.102-4.019v-1.517c0-0.813-0.016-2.004-0.048-3.574c-0.018-0.87-0.058-1.424-0.118-1.663
			c-0.019-0.056-0.044-0.099-0.074-0.131c-0.049-0.049-0.127-0.086-0.23-0.111c-0.104-0.024-0.489-0.08-1.156-0.166v-0.75
			l3.351,0.065c0.395,0,1.135-0.02,2.226-0.052c0.787-0.021,1.418-0.032,1.892-0.032c1.089,0,1.962,0.067,2.617,0.2
			c0.657,0.131,1.226,0.345,1.714,0.637c0.485,0.292,0.897,0.639,1.231,1.04c0.336,0.399,0.589,0.83,0.762,1.294
			c0.289,0.775,0.434,1.626,0.434,2.55c0,1.176-0.216,2.227-0.647,3.15c-0.43,0.923-1.023,1.696-1.778,2.318
			c-0.753,0.621-1.57,1.07-2.45,1.344c-0.882,0.273-1.942,0.41-3.187,0.41l-2.742-0.065L205.082,43.931z M208.766,42.794
			c0.574,0.093,1.121,0.139,1.645,0.139c0.818,0,1.545-0.087,2.18-0.259c0.469-0.129,0.879-0.317,1.228-0.562
			c0.353-0.246,0.688-0.611,1.012-1.091c0.324-0.48,0.574-1.053,0.753-1.718c0.178-0.665,0.268-1.383,0.268-2.152
			c0-0.702-0.09-1.381-0.268-2.039c-0.179-0.656-0.471-1.23-0.878-1.723s-0.919-0.849-1.543-1.071
			c-0.621-0.222-1.564-0.333-2.826-0.333c-0.475,0-0.997,0.041-1.571,0.12c-0.061,0.875-0.092,2.52-0.092,4.939v2.121
			C208.674,41.001,208.704,42.21,208.766,42.794z"/>
		<path fill="#004B72" d="M229.594,43.239v0.693c-0.709-0.03-1.337-0.046-1.885-0.046c-0.517,0-1.019,0.016-1.506,0.046
			l-0.083-0.103l0.083-1.209c-0.222,0.142-0.875,0.629-1.959,1.459c-0.276,0.062-0.542,0.095-0.793,0.095
			c-0.672,0-1.197-0.198-1.575-0.592c-0.381-0.395-0.569-0.961-0.569-1.699c0-0.501,0.084-0.909,0.253-1.23
			c0.169-0.319,0.352-0.555,0.545-0.706c0.192-0.151,0.494-0.297,0.901-0.439c0.973-0.343,2.038-0.614,3.196-0.812
			c0.013-0.732-0.139-1.291-0.452-1.671c-0.32-0.382-0.808-0.572-1.461-0.572c-0.264,0-0.517,0.033-0.756,0.1
			c-0.106,0.031-0.229,0.093-0.37,0.184l-0.39,0.934l-0.627-0.138l0.056-1.191c0.456-0.308,0.89-0.576,1.302-0.804
			c0.414-0.228,0.702-0.366,0.87-0.417c0.227-0.068,0.547-0.101,0.96-0.101c0.67,0,1.223,0.096,1.658,0.29
			c0.434,0.196,0.755,0.425,0.96,0.689c0.206,0.266,0.349,0.548,0.426,0.849c0.076,0.303,0.114,0.685,0.114,1.146
			c0,0.199-0.016,0.712-0.046,1.543c-0.019,0.554-0.028,1.006-0.028,1.358c0,1.096,0.032,1.762,0.094,1.995
			c0.024,0.111,0.074,0.185,0.147,0.222C228.76,43.159,229.07,43.201,229.594,43.239z M226.203,39.468
			c-0.523,0.111-1.001,0.247-1.436,0.403c-0.436,0.156-0.736,0.35-0.901,0.582c-0.168,0.23-0.25,0.521-0.25,0.873
			c0,0.395,0.1,0.698,0.301,0.913c0.199,0.217,0.463,0.324,0.79,0.324c0.277,0,0.554-0.079,0.836-0.24
			c0.28-0.16,0.5-0.363,0.66-0.61V39.468z"/>
		<path fill="#004B72" d="M231.464,36.531v-0.702c0.53-0.032,1.065-0.102,1.602-0.214c0.536-0.113,1.226-0.312,2.066-0.599
			l0.129,0.102c-0.092,1.22-0.138,2.346-0.138,3.38v1.035c0,0.882,0.021,1.47,0.063,1.765c0.062,0.388,0.209,0.682,0.443,0.878
			c0.234,0.198,0.544,0.296,0.931,0.296c0.443,0,0.814-0.116,1.115-0.35c0.303-0.232,0.512-0.472,0.632-0.719
			c0.074-0.158,0.112-0.49,0.112-0.995v-1.574l-0.019-1.31c0-0.422-0.026-0.678-0.083-0.764c-0.03-0.055-0.092-0.098-0.185-0.128
			c-0.092-0.032-0.469-0.065-1.126-0.102v-0.702c0.954-0.125,1.603-0.224,1.948-0.299c0.345-0.074,0.931-0.246,1.756-0.513
			l0.175,0.101l-0.102,1.701c-0.05,1.207-0.074,1.881-0.074,2.022v1.896c0,1.126,0.028,1.822,0.083,2.087
			c0.024,0.11,0.07,0.188,0.139,0.23c0.116,0.062,0.496,0.109,1.137,0.138v0.739l-1.904-0.046l-1.746,0.046l-0.064-0.074
			l0.056-0.712c0.005-0.118,0.009-0.355,0.009-0.713c-0.241,0.191-0.45,0.367-0.63,0.527l-1.045,0.992
			c-0.426,0.153-0.854,0.23-1.287,0.23c-0.833,0-1.486-0.228-1.962-0.683c-0.476-0.457-0.713-1.062-0.713-1.819
			c0-0.091,0.012-0.432,0.035-1.023c0.007-0.313,0.012-0.72,0.012-1.219l-0.019-1.947c0-0.357-0.022-0.578-0.068-0.664
			c-0.048-0.086-0.122-0.151-0.228-0.193C232.413,36.59,232.061,36.557,231.464,36.531z"/>
		<path fill="#004B72" d="M243.811,31.801v-0.665c1.397-0.148,2.583-0.419,3.557-0.812c0.091,0.024,0.176,0.068,0.25,0.128
			c-0.062,2.557-0.094,4.039-0.094,4.446v1.737l1.117-0.924c0.328-0.266,0.625-0.447,0.892-0.544
			c0.268-0.099,0.609-0.148,1.021-0.148c1.055,0,1.9,0.327,2.541,0.979c0.64,0.654,0.96,1.531,0.96,2.634
			c0,0.666-0.118,1.31-0.352,1.937c-0.234,0.623-0.547,1.137-0.941,1.537c-0.057,0.055-0.504,0.374-1.345,0.96
			c-0.842,0.585-1.312,0.901-1.418,0.95c-0.357,0.161-0.816,0.242-1.376,0.242c-0.376,0-0.743-0.056-1.1-0.171
			c-0.357-0.114-0.76-0.306-1.211-0.577l-0.813,0.684l-0.424-0.157c0.123-1.877,0.185-4.126,0.185-6.745
			c0-2.587-0.037-4.224-0.111-4.915c-0.032-0.227-0.083-0.37-0.157-0.424C244.895,31.882,244.5,31.833,243.811,31.801z
			 M247.523,37.62c-0.012,0.476-0.018,1.104-0.018,1.885c0,1.049,0.005,1.855,0.018,2.422c0.229,0.327,0.475,0.563,0.739,0.711
			c0.364,0.197,0.755,0.296,1.174,0.296c0.449,0,0.841-0.118,1.177-0.356c0.336-0.237,0.598-0.622,0.787-1.159
			c0.187-0.535,0.281-1.126,0.281-1.774c0-0.96-0.22-1.692-0.657-2.197c-0.437-0.505-0.985-0.759-1.645-0.759
			c-0.412,0-0.783,0.097-1.112,0.287C247.937,37.167,247.691,37.382,247.523,37.62z"/>
		<path fill="#004B72" d="M256.581,48.645c0.105-0.451,0.172-0.765,0.204-0.943l0.139-0.933l0.24-0.047
			c0.155,0.161,0.328,0.302,0.526,0.425c0.241,0.105,0.5,0.156,0.775,0.156c0.32,0,0.617-0.108,0.889-0.327
			c0.271-0.22,0.572-0.697,0.905-1.439l0.369-0.887l-2.993-7.682c-0.179-0.456-0.348-0.737-0.508-0.846
			c-0.161-0.107-0.465-0.158-0.916-0.151v-0.722c0.604,0.025,1.342,0.037,2.217,0.037c1.035,0,1.957-0.012,2.763-0.037v0.722h-0.213
			c-0.382-0.007-0.646,0.037-0.794,0.129c-0.093,0.061-0.139,0.142-0.139,0.241c0,0.111,0.031,0.245,0.094,0.406l0.453,1.248
			l1.35,3.516l0.816-1.916c0.792-1.897,1.187-2.995,1.187-3.291c0-0.062-0.016-0.111-0.048-0.148
			c-0.042-0.049-0.12-0.086-0.23-0.111c-0.222-0.044-0.517-0.068-0.887-0.074v-0.722c0.395,0.025,0.891,0.037,1.487,0.037
			c0.727,0,1.404-0.012,2.033-0.037v0.722h-0.148c-0.166-0.007-0.322,0.024-0.47,0.092c-0.093,0.037-0.173,0.098-0.244,0.184
			c-0.071,0.087-0.246,0.427-0.522,1.018c-0.364,0.777-0.657,1.418-0.879,1.924c-0.691,1.565-1.126,2.57-1.311,3.014l-1.488,3.634
			c-0.457,1.102-0.938,1.889-1.45,2.356c-0.51,0.475-1.133,0.713-1.865,0.713c-0.241,0-0.461-0.02-0.662-0.057
			C257.062,48.813,256.834,48.742,256.581,48.645z"/>
		<path fill="#004B72" d="M274.123,37.62c0-1.126,0.169-2.108,0.511-2.945c0.341-0.839,0.832-1.55,1.464-2.135
			c0.636-0.584,1.327-1.006,2.071-1.265c0.956-0.328,1.994-0.491,3.124-0.491c1.119,0,2.134,0.159,3.047,0.471
			c0.678,0.242,1.278,0.588,1.797,1.04c0.52,0.452,0.917,0.918,1.187,1.39c0.271,0.475,0.475,0.995,0.615,1.561
			c0.139,0.566,0.206,1.191,0.206,1.876c0,1.158-0.198,2.233-0.6,3.224c-0.296,0.737-0.729,1.395-1.297,1.967
			c-0.57,0.574-1.22,1.014-1.944,1.321c-0.998,0.414-2.137,0.621-3.418,0.621c-1.387,0-2.576-0.252-3.57-0.754
			c-0.996-0.502-1.777-1.242-2.344-2.223C274.406,40.301,274.123,39.081,274.123,37.62z M276.969,37.072
			c0,1.437,0.197,2.624,0.592,3.563c0.394,0.941,0.898,1.604,1.515,1.994c0.618,0.388,1.343,0.582,2.182,0.582
			c0.774,0,1.47-0.185,2.083-0.555c0.612-0.371,1.093-0.995,1.441-1.877s0.521-1.952,0.521-3.208c0-0.864-0.093-1.653-0.28-2.367
			c-0.188-0.716-0.458-1.326-0.808-1.827c-0.353-0.503-0.766-0.887-1.242-1.151c-0.478-0.266-1.109-0.396-1.897-0.396
			c-0.899,0-1.666,0.21-2.297,0.633c-0.631,0.422-1.089,1.045-1.376,1.873C277.111,35.161,276.969,36.072,276.969,37.072z"/>
		<path fill="#004B72" d="M290.35,35.977c0.023-0.074,0.109-0.264,0.254-0.573c0.141-0.307,0.22-0.482,0.233-0.526
			c0.169-0.474,0.324-0.935,0.463-1.381c0.138-0.445,0.237-0.825,0.303-1.135c0.063-0.312,0.111-0.637,0.143-0.975
			c0.086-0.02,0.316-0.065,0.693-0.139c0.485-0.098,0.79-0.164,0.915-0.193c0.241-0.062,0.537-0.151,0.885-0.27l0.271,0.25
			c-0.074,0.192-0.202,0.452-0.38,0.784c-0.669,1.239-1.104,2.027-1.299,2.365c-0.331,0.591-0.656,1.112-0.968,1.562l-1.244,0.507
			L290.35,35.977z"/>
		<path fill="#004B72" d="M309.219,42.26l-0.426,0.932c-0.769,0.406-1.46,0.688-2.074,0.837c-0.612,0.151-1.378,0.227-2.295,0.227
			c-1.306,0-2.46-0.206-3.467-0.62c-0.788-0.332-1.455-0.771-2.004-1.321c-0.549-0.547-0.97-1.142-1.266-1.782
			c-0.45-0.967-0.676-2.017-0.676-3.15c0-1.941,0.664-3.524,1.992-4.753c1.329-1.228,3.203-1.844,5.621-1.844
			c0.832,0,1.578,0.063,2.239,0.185c0.662,0.125,1.431,0.343,2.306,0.656l0.048,0.121c-0.098,0.29-0.175,0.654-0.232,1.091
			c-0.092,0.696-0.149,1.338-0.173,1.931h-0.723c-0.013-0.678-0.043-1.22-0.092-1.626c-0.414-0.432-0.877-0.753-1.393-0.964
			c-0.514-0.213-1.17-0.319-1.972-0.319c-1.446,0-2.605,0.458-3.472,1.372c-0.869,0.915-1.304,2.191-1.304,3.829
			c0,0.993,0.146,1.857,0.439,2.595c0.292,0.739,0.682,1.352,1.169,1.836c0.485,0.481,0.977,0.836,1.469,1.058
			c0.671,0.295,1.484,0.443,2.439,0.443c0.628,0,1.222-0.07,1.783-0.213c0.559-0.141,1.171-0.386,1.827-0.73L309.219,42.26z"/>
		<path fill="#004B72" d="M311.439,39.571c0-1.047,0.177-1.913,0.535-2.601c0.356-0.687,0.895-1.204,1.608-1.553
			c0.715-0.346,1.545-0.521,2.494-0.521c1.423,0,2.505,0.373,3.248,1.117c0.739,0.746,1.11,1.839,1.11,3.281
			c0,0.83-0.107,1.552-0.32,2.16c-0.217,0.61-0.507,1.103-0.869,1.475c-0.362,0.371-0.744,0.655-1.146,0.846
			c-0.683,0.319-1.454,0.48-2.308,0.48c-1.395,0-2.466-0.396-3.221-1.188C311.816,42.277,311.439,41.11,311.439,39.571z
			 M313.998,39.127c0,1.638,0.241,2.807,0.722,3.502c0.318,0.462,0.776,0.693,1.367,0.693c0.507,0,0.905-0.176,1.2-0.527
			c0.396-0.468,0.592-1.373,0.592-2.716c0-0.943-0.079-1.751-0.236-2.424c-0.156-0.674-0.387-1.145-0.695-1.41
			c-0.304-0.264-0.672-0.397-1.103-0.397c-0.37,0-0.695,0.098-0.97,0.292c-0.278,0.193-0.493,0.52-0.647,0.978
			C314.076,37.576,313.998,38.248,313.998,39.127z"/>
		<path fill="#004B72" d="M333.292,43.246v0.685c-0.841-0.042-1.524-0.065-2.056-0.065c-0.612,0-1.144,0.023-1.594,0.065
			l-0.167-0.165c0.012-0.132,0.053-0.662,0.119-1.6l0.046-1.516v-0.729c0-1.077-0.041-1.785-0.123-2.125
			c-0.085-0.338-0.255-0.612-0.514-0.816c-0.257-0.208-0.604-0.31-1.033-0.31c-0.432,0-0.788,0.102-1.072,0.31
			c-0.281,0.206-0.461,0.414-0.534,0.623c-0.044,0.124-0.062,0.614-0.056,1.477v1.549c0,0.448,0.016,0.999,0.046,1.65
			c0.007,0.29,0.031,0.48,0.073,0.572c0.032,0.068,0.071,0.118,0.12,0.147c0.074,0.05,0.217,0.095,0.431,0.139
			c0.074,0.013,0.331,0.037,0.771,0.074v0.72c-0.671-0.023-1.494-0.037-2.468-0.037c-1.126,0-2,0.014-2.623,0.037v-0.72
			c0.48,0,0.812-0.033,0.997-0.103c0.087-0.029,0.151-0.082,0.195-0.156c0.062-0.116,0.096-0.338,0.101-0.663l0.037-0.819
			c0.007-0.171,0.011-0.45,0.011-0.839v-1.207c0-0.546-0.016-1.211-0.048-1.99c-0.02-0.392-0.044-0.616-0.079-0.667
			c-0.033-0.053-0.09-0.091-0.164-0.116c-0.117-0.042-0.468-0.074-1.052-0.092v-0.721c1.121-0.191,1.858-0.333,2.208-0.425
			c0.354-0.093,0.748-0.241,1.191-0.443l0.249,0.111v1.489l1.682-1.352c0.204-0.079,0.373-0.134,0.512-0.16
			c0.14-0.028,0.331-0.042,0.577-0.042c0.66,0,1.153,0.074,1.484,0.222c0.328,0.149,0.606,0.356,0.835,0.625
			c0.228,0.27,0.388,0.551,0.48,0.844c0.092,0.294,0.14,0.753,0.14,1.377c0,0.704-0.009,1.152-0.02,1.343
			c-0.006,0.075-0.009,0.166-0.009,0.27l0.009,0.956c0.007,1.044,0.022,1.689,0.051,1.937c0.028,0.246,0.086,0.406,0.169,0.477
			c0.085,0.07,0.27,0.116,0.555,0.134C332.877,43.207,333.051,43.224,333.292,43.246z"/>
		<path fill="#004B72" d="M345.795,43.246v0.685c-0.842-0.042-1.524-0.065-2.056-0.065c-0.61,0-1.142,0.023-1.593,0.065
			l-0.169-0.165c0.013-0.132,0.053-0.662,0.12-1.6l0.049-1.516v-0.729c0-1.077-0.044-1.785-0.126-2.125
			c-0.085-0.338-0.256-0.612-0.514-0.816c-0.258-0.208-0.604-0.31-1.033-0.31c-0.433,0-0.788,0.102-1.072,0.31
			c-0.281,0.206-0.461,0.414-0.534,0.623c-0.045,0.124-0.061,0.614-0.056,1.477v1.549c0,0.448,0.016,0.999,0.047,1.65
			c0.006,0.29,0.03,0.48,0.072,0.572c0.032,0.068,0.07,0.118,0.12,0.147c0.074,0.05,0.218,0.095,0.432,0.139
			c0.073,0.013,0.329,0.037,0.77,0.074v0.72c-0.671-0.023-1.492-0.037-2.466-0.037c-1.128,0-2.002,0.014-2.623,0.037v-0.72
			c0.479,0,0.812-0.033,0.997-0.103c0.086-0.029,0.149-0.082,0.193-0.156c0.062-0.116,0.096-0.338,0.103-0.663l0.037-0.819
			c0.005-0.171,0.009-0.45,0.009-0.839v-1.207c0-0.546-0.016-1.211-0.046-1.99c-0.02-0.392-0.046-0.616-0.079-0.667
			c-0.035-0.053-0.092-0.091-0.166-0.116c-0.117-0.042-0.468-0.074-1.05-0.092v-0.721c1.12-0.191,1.858-0.333,2.206-0.425
			c0.354-0.093,0.75-0.241,1.193-0.443l0.248,0.111v1.489l1.681-1.352c0.204-0.079,0.373-0.134,0.512-0.16
			c0.14-0.028,0.331-0.042,0.577-0.042c0.66,0,1.154,0.074,1.483,0.222c0.329,0.149,0.609,0.356,0.836,0.625
			c0.229,0.27,0.391,0.551,0.48,0.844c0.094,0.294,0.14,0.753,0.14,1.377c0,0.704-0.008,1.152-0.02,1.343
			c-0.006,0.075-0.009,0.166-0.009,0.27l0.009,0.956c0.007,1.044,0.022,1.689,0.052,1.937c0.027,0.246,0.085,0.406,0.17,0.477
			c0.083,0.07,0.268,0.116,0.553,0.134C345.38,43.207,345.554,43.224,345.795,43.246z"/>
		<path fill="#004B72" d="M347.915,39.571c0-1.047,0.178-1.913,0.535-2.601c0.357-0.687,0.894-1.204,1.608-1.553
			c0.715-0.346,1.545-0.521,2.495-0.521c1.424,0,2.504,0.373,3.247,1.117c0.74,0.746,1.111,1.839,1.111,3.281
			c0,0.83-0.106,1.552-0.321,2.16c-0.215,0.61-0.505,1.103-0.869,1.475c-0.361,0.371-0.745,0.655-1.146,0.846
			c-0.684,0.319-1.453,0.48-2.309,0.48c-1.392,0-2.463-0.396-3.22-1.188C348.292,42.277,347.915,41.11,347.915,39.571z
			 M350.474,39.127c0,1.638,0.243,2.807,0.724,3.502c0.318,0.462,0.774,0.693,1.367,0.693c0.507,0,0.904-0.176,1.2-0.527
			c0.395-0.468,0.591-1.373,0.591-2.716c0-0.943-0.079-1.751-0.237-2.424c-0.156-0.674-0.387-1.145-0.693-1.41
			c-0.305-0.264-0.672-0.397-1.104-0.397c-0.369,0-0.694,0.098-0.97,0.292c-0.279,0.193-0.492,0.52-0.647,0.978
			C350.551,37.576,350.474,38.248,350.474,39.127z"/>
		<path fill="#004B72" d="M364.465,43.211v0.72c-0.696-0.03-1.473-0.046-2.328-0.046c-0.955,0-1.945,0.016-2.976,0.046v-0.72
			c0.48,0,0.812-0.033,0.996-0.103c0.088-0.029,0.151-0.082,0.194-0.156c0.062-0.116,0.097-0.338,0.102-0.663l0.037-0.819
			c0.007-0.171,0.009-0.45,0.009-0.839v-1.207c0-0.546-0.015-1.211-0.046-1.99c-0.018-0.392-0.044-0.616-0.079-0.667
			c-0.033-0.053-0.088-0.091-0.162-0.116c-0.118-0.042-0.47-0.074-1.052-0.092v-0.721c1.126-0.191,1.865-0.333,2.219-0.425
			c0.354-0.093,0.753-0.241,1.198-0.443l0.248,0.111l-0.018,1.865c0.396-0.412,0.704-0.753,0.919-1.026
			c0.319-0.38,0.556-0.625,0.716-0.729c0.22-0.147,0.511-0.222,0.875-0.222c0.225,0,0.431,0.037,0.614,0.111l-0.063,1.311
			c-0.017,0.714-0.026,1.125-0.037,1.229l-0.389,0.122c-0.153-0.205-0.302-0.345-0.444-0.426c-0.227-0.129-0.475-0.193-0.747-0.193
			c-0.363,0-0.676,0.113-0.938,0.338c-0.262,0.224-0.417,0.454-0.466,0.688c-0.025,0.136-0.037,0.656-0.037,1.559v0.921l0.018,1.256
			c0.009,0.472,0.024,0.764,0.053,0.871c0.028,0.108,0.092,0.193,0.19,0.252c0.098,0.062,0.311,0.105,0.637,0.131L364.465,43.211z"
			/>
		<path fill="#004B72" d="M387.781,41.586l0.268,0.6c-0.197,0.179-0.498,0.488-0.9,0.923c-0.401,0.438-0.692,0.769-0.864,0.99
			c-0.443,0.098-0.806,0.147-1.09,0.147c-0.529,0-1.021-0.081-1.469-0.241c-0.647-0.222-1.318-0.588-2.015-1.101
			c-0.567,0.451-1.165,0.789-1.795,1.013c-0.632,0.225-1.345,0.338-2.139,0.338c-1.416,0-2.493-0.384-3.224-1.151
			c-0.733-0.766-1.102-1.632-1.102-2.601c0-0.708,0.178-1.328,0.537-1.857c0.492-0.727,1.304-1.359,2.438-1.894
			c-0.235-0.522-0.396-0.977-0.489-1.358c-0.093-0.382-0.139-0.77-0.139-1.163c0-0.538,0.105-0.924,0.314-1.165l0.888-1.027
			c0.411-0.479,0.693-0.76,0.841-0.839c0.518-0.278,1.061-0.417,1.628-0.417c0.419,0,0.793,0.084,1.126,0.25
			c0.333,0.167,0.584,0.409,0.759,0.73c0.173,0.321,0.258,0.674,0.258,1.063c0,0.554-0.195,1.116-0.582,1.686
			c-0.389,0.57-1.198,1.239-2.429,2.01c0.567,0.855,1.202,1.673,1.906,2.453c0.705,0.777,1.385,1.415,2.039,1.907
			c0.208-0.345,0.359-0.658,0.452-0.938c0.094-0.281,0.138-0.562,0.138-0.847c0-0.222-0.03-0.459-0.094-0.715
			c-0.062-0.256-0.149-0.478-0.267-0.67h-1.664l-0.084-0.11c0.131-0.205,0.226-0.363,0.287-0.48l0.313-0.685
			c1.194,0.031,1.895,0.047,2.098,0.047c1.675,0,2.961-0.05,3.86-0.148l0.085,0.074c-0.134,0.375-0.222,0.641-0.256,0.793
			c-0.031,0.155-0.058,0.34-0.077,0.554l-0.084,0.102c-0.77-0.07-1.204-0.105-1.303-0.105c-0.244-0.015-0.715-0.028-1.404-0.043
			c0.062,0.297,0.094,0.558,0.094,0.779c0,0.466-0.093,0.914-0.274,1.347c-0.183,0.435-0.512,0.948-0.994,1.541
			c0.419,0.296,0.895,0.524,1.424,0.685c0.529,0.161,1.031,0.24,1.507,0.24c0.14,0,0.258-0.015,0.35-0.04
			c0.094-0.028,0.201-0.079,0.324-0.153L387.781,41.586z M376.796,37.538c-0.326,0.197-0.586,0.452-0.78,0.762
			c-0.193,0.312-0.292,0.67-0.292,1.077c0,0.604,0.166,1.189,0.495,1.76c0.329,0.569,0.751,1.01,1.267,1.321
			c0.514,0.312,1.042,0.466,1.584,0.466c0.621,0,1.237-0.197,1.848-0.59c-0.899-0.76-1.658-1.498-2.275-2.218
			C378.021,39.395,377.406,38.535,376.796,37.538z M378.2,35.746c0.598-0.418,1.036-0.827,1.317-1.224
			c0.28-0.398,0.419-0.818,0.419-1.262c0-0.394-0.11-0.709-0.332-0.947c-0.222-0.237-0.498-0.356-0.831-0.356
			c-0.352,0-0.646,0.127-0.882,0.378c-0.239,0.253-0.356,0.591-0.356,1.017C377.535,34.026,377.757,34.823,378.2,35.746z"/>
		<path fill="#004B72" d="M395.438,43.931v-0.739c0.295-0.361,0.738-0.948,1.332-1.753c0.995-1.38,1.699-2.365,2.106-2.957
			l1.728-2.504c0.553-0.806,0.983-1.445,1.294-1.913c0.764-1.15,1.188-1.787,1.273-1.913h-2.144c-0.788,0.01-1.576,0.03-2.364,0.065
			c-0.576,0.024-0.932,0.072-1.065,0.139c-0.051,0.024-0.084,0.057-0.102,0.102c-0.067,0.14-0.141,0.493-0.22,1.053
			c-0.037,0.221-0.067,0.404-0.092,0.544h-0.759c0.044-0.871,0.063-1.508,0.063-1.909c0-0.217-0.005-0.597-0.016-1.141
			c1.123,0.037,1.749,0.055,1.887,0.055c1.541,0.007,2.905,0.011,4.095,0.011c0.45,0,0.925-0.001,1.423-0.009l2.858-0.046v0.637
			c-1.152,1.533-2.093,2.83-2.819,3.889l-2.734,3.954c-0.178,0.259-0.41,0.607-0.695,1.044c-0.287,0.437-0.639,0.977-1.06,1.617
			c-0.154,0.229-0.285,0.431-0.396,0.61l1.719,0.019c1.742,0,3.006-0.028,3.786-0.084c0.575-0.042,0.898-0.101,0.981-0.175
			c0.116-0.111,0.239-0.493,0.367-1.146c0.074-0.361,0.131-0.62,0.168-0.775h0.748c-0.116,1.045-0.219,2.142-0.305,3.288h-0.353
			l-1.765,0.037l-1.189-0.028l-2.385-0.018l-2.43-0.028L395.438,43.931z"/>
		<path fill="#004B72" d="M417.549,43.239v0.693c-0.707-0.03-1.334-0.046-1.885-0.046c-0.518,0-1.019,0.016-1.506,0.046
			l-0.083-0.103l0.083-1.209c-0.222,0.142-0.877,0.629-1.959,1.459c-0.278,0.062-0.544,0.095-0.795,0.095
			c-0.671,0-1.195-0.198-1.575-0.592c-0.38-0.395-0.568-0.961-0.568-1.699c0-0.501,0.086-0.909,0.253-1.23
			c0.17-0.319,0.353-0.555,0.546-0.706c0.192-0.151,0.494-0.297,0.901-0.439c0.971-0.343,2.037-0.614,3.195-0.812
			c0.012-0.732-0.138-1.291-0.452-1.671c-0.32-0.382-0.808-0.572-1.459-0.572c-0.266,0-0.518,0.033-0.759,0.1
			c-0.104,0.031-0.227,0.093-0.369,0.184l-0.389,0.934l-0.627-0.138l0.055-1.191c0.456-0.308,0.891-0.576,1.302-0.804
			c0.414-0.228,0.702-0.366,0.87-0.417c0.227-0.068,0.547-0.101,0.961-0.101c0.668,0,1.221,0.096,1.657,0.29
			c0.433,0.196,0.755,0.425,0.959,0.689c0.207,0.266,0.351,0.548,0.428,0.849c0.075,0.303,0.114,0.685,0.114,1.146
			c0,0.199-0.016,0.712-0.046,1.543c-0.02,0.554-0.028,1.006-0.028,1.358c0,1.096,0.032,1.762,0.094,1.995
			c0.024,0.111,0.074,0.185,0.147,0.222C416.715,43.159,417.026,43.201,417.549,43.239z M414.158,39.468
			c-0.523,0.111-1.002,0.247-1.437,0.403c-0.436,0.156-0.733,0.35-0.9,0.582c-0.167,0.23-0.25,0.521-0.25,0.873
			c0,0.395,0.101,0.698,0.301,0.913c0.2,0.217,0.463,0.324,0.79,0.324c0.276,0,0.556-0.079,0.836-0.24
			c0.281-0.16,0.502-0.363,0.66-0.61V39.468L414.158,39.468z"/>
		<path fill="#004B72" d="M424.676,43.211v0.72c-0.77-0.042-1.573-0.065-2.411-0.065c-0.839,0-1.782,0.023-2.829,0.065v-0.72
			c0.589-0.02,0.948-0.044,1.07-0.074c0.094-0.024,0.164-0.06,0.208-0.107c0.047-0.045,0.08-0.117,0.097-0.216
			c0.044-0.185,0.074-0.768,0.09-1.747s0.022-1.85,0.022-2.608v-3.051c0-0.968-0.022-1.853-0.064-2.654
			c-0.023-0.431-0.056-0.687-0.094-0.767c-0.024-0.042-0.058-0.078-0.101-0.102c-0.073-0.049-0.191-0.086-0.352-0.111
			c-0.094-0.013-0.369-0.027-0.831-0.046v-0.685c0.766-0.079,1.375-0.168,1.832-0.262c0.458-0.095,1.071-0.264,1.844-0.504
			l0.194,0.111l-0.08,1.869c-0.031,1.049-0.054,2.333-0.058,3.857v2.368c0,0.895,0.004,1.564,0.015,2.008
			c0.021,1.104,0.037,1.773,0.051,2.004c0.014,0.232,0.035,0.378,0.063,0.439c0.02,0.044,0.053,0.081,0.094,0.111
			c0.056,0.044,0.153,0.077,0.289,0.101C423.783,43.159,424.099,43.18,424.676,43.211z"/>
		<path fill="#004B72" d="M434.75,42.509l-0.406,0.904c-0.505,0.309-1.026,0.538-1.562,0.686c-0.399,0.103-0.854,0.156-1.368,0.156
			c-0.609,0-1.146-0.07-1.612-0.213c-0.465-0.141-0.86-0.334-1.189-0.581c-0.329-0.245-0.62-0.548-0.868-0.904
			c-0.249-0.357-0.432-0.771-0.543-1.239c-0.111-0.467-0.166-0.979-0.166-1.532c0-0.808,0.107-1.527,0.322-2.163
			c0.147-0.443,0.32-0.762,0.518-0.96c0.124-0.122,0.443-0.354,0.961-0.692c0.517-0.34,0.892-0.562,1.126-0.665
			c0.431-0.192,0.939-0.286,1.522-0.286c0.825,0,1.502,0.171,2.033,0.518c0.53,0.345,0.905,0.784,1.121,1.321
			c0.219,0.535,0.329,1.185,0.329,1.948c0,0.173-0.007,0.34-0.018,0.5c-0.154,0.049-0.39,0.105-0.702,0.165
			c-0.419,0.081-0.702,0.126-0.851,0.131c-0.461,0.037-1.069,0.058-1.826,0.065c-0.76,0.005-1.179,0.012-1.259,0.018
			c-0.08,0.007-0.169,0.009-0.269,0.009h-0.609c0.05,0.975,0.351,1.743,0.904,2.306c0.555,0.565,1.239,0.846,2.052,0.846
			c0.351,0,0.674-0.038,0.969-0.116c0.295-0.077,0.685-0.235,1.164-0.475L434.75,42.509z M432.551,38.675
			c0.022-0.975-0.107-1.66-0.398-2.054c-0.295-0.385-0.677-0.579-1.145-0.579c-0.48,0-0.878,0.202-1.191,0.607
			c-0.32,0.412-0.47,1.086-0.443,2.026c0.364,0.056,0.97,0.082,1.821,0.082C431.734,38.757,432.188,38.732,432.551,38.675z"/>
		<path fill="#004B72" d="M437.571,41.021h0.738c0.03,0.692,0.062,1.125,0.094,1.304c0.278,0.338,0.581,0.589,0.915,0.753
			c0.332,0.163,0.714,0.245,1.145,0.245c0.581,0,1.024-0.14,1.332-0.418c0.308-0.276,0.463-0.613,0.463-1.008
			c0-0.259-0.051-0.474-0.153-0.643c-0.102-0.17-0.306-0.325-0.614-0.469c-0.242-0.086-0.7-0.202-1.381-0.351
			c-0.682-0.147-1.197-0.312-1.547-0.49c-0.354-0.178-0.627-0.443-0.823-0.798c-0.197-0.354-0.296-0.77-0.296-1.242
			c0-0.85,0.319-1.556,0.961-2.119c0.641-0.563,1.561-0.845,2.761-0.845c0.5,0,0.957,0.044,1.376,0.128
			c0.419,0.088,0.799,0.216,1.137,0.389l0.028,0.092c-0.037,0.217-0.065,0.434-0.083,0.657c-0.02,0.222-0.049,0.746-0.086,1.571
			l-0.72-0.011c-0.007-0.067-0.016-0.181-0.028-0.343c-0.018-0.279-0.055-0.547-0.11-0.808c-0.19-0.245-0.425-0.432-0.702-0.556
			c-0.282-0.125-0.607-0.186-0.982-0.186c-0.522,0-0.926,0.118-1.212,0.352c-0.285,0.234-0.43,0.516-0.43,0.841
			c0,0.334,0.065,0.582,0.193,0.741c0.132,0.16,0.32,0.281,0.574,0.36c0.251,0.079,0.718,0.184,1.4,0.311
			c0.681,0.126,1.139,0.231,1.371,0.318c0.338,0.131,0.608,0.294,0.812,0.49c0.202,0.198,0.357,0.442,0.467,0.736
			c0.107,0.292,0.163,0.614,0.163,0.966c0,0.919-0.357,1.692-1.067,2.321c-0.713,0.627-1.711,0.943-2.999,0.943
			c-0.431,0-0.848-0.039-1.257-0.116c-0.406-0.076-0.902-0.217-1.486-0.422l-0.102-0.137c0.051-0.475,0.08-0.809,0.093-1.008
			L437.571,41.021z"/>
		<path fill="#004B72" d="M457.29,43.192v0.739c-0.259-0.018-0.799-0.028-1.615-0.028c-0.857,0-1.392,0.012-1.606,0.028
			c-0.322-0.542-0.974-1.37-1.955-2.49c-0.983-1.117-1.54-1.725-1.671-1.824c-0.042-0.037-0.111-0.058-0.202-0.062v0.904
			c0,0.45,0.016,1.058,0.045,1.819c0.02,0.347,0.045,0.555,0.074,0.628c0.02,0.052,0.055,0.09,0.104,0.122
			c0.067,0.049,0.186,0.086,0.353,0.11c0.075,0.013,0.366,0.03,0.876,0.055v0.739c-0.752-0.042-1.573-0.065-2.467-0.065
			c-0.955,0-1.841,0.023-2.661,0.065v-0.739c0.544-0.023,0.868-0.048,0.963-0.067c0.095-0.021,0.169-0.057,0.218-0.103
			c0.052-0.046,0.085-0.105,0.103-0.18c0.049-0.185,0.079-0.686,0.092-1.506c0.019-1.114,0.028-2.075,0.028-2.883v-2.992
			c0-0.992-0.023-1.891-0.074-2.698c-0.018-0.412-0.046-0.657-0.083-0.731c-0.023-0.042-0.056-0.076-0.102-0.101
			c-0.074-0.043-0.187-0.077-0.342-0.101c-0.102-0.019-0.373-0.037-0.804-0.056v-0.683c0.869-0.105,1.499-0.201,1.89-0.286
			c0.393-0.086,0.955-0.246,1.686-0.48l0.206,0.111l-0.065,2.004c-0.024,1.109-0.037,2.224-0.037,3.345v3.363
			c0.197-0.147,0.427-0.34,0.685-0.574c0.544-0.493,0.994-0.912,1.35-1.257c0.133-0.135,0.357-0.362,0.685-0.683
			c0.329-0.321,0.603-0.61,0.824-0.869v-0.518c0.553,0.012,1.113,0.016,1.679,0.009c0.246,0,0.658-0.001,1.237-0.009v0.722
			l-0.972,0.063c-0.104,0.014-0.206,0.044-0.305,0.093c-0.185,0.093-0.472,0.292-0.858,0.6c-0.54,0.432-0.866,0.697-0.977,0.804
			c-0.111,0.103-0.197,0.185-0.259,0.239l-0.783,0.681c0.542,0.642,1.457,1.696,2.75,3.164c0.728,0.833,1.204,1.312,1.431,1.441
			C456.855,43.127,457.044,43.174,457.29,43.192z"/>
		<path fill="#004B72" d="M459.067,43.931v-0.683c0.69-0.05,1.084-0.104,1.183-0.162c0.097-0.06,0.16-0.17,0.183-0.329
			c0.062-0.34,0.094-1.211,0.094-2.618c0-1.931-0.028-3.026-0.083-3.292c-0.024-0.124-0.064-0.204-0.119-0.241
			c-0.125-0.079-0.544-0.123-1.259-0.13v-0.702c0.93-0.097,1.634-0.201,2.106-0.31c0.474-0.109,0.993-0.277,1.554-0.504l0.221,0.121
			c-0.074,0.961-0.111,1.864-0.111,2.707v3.141c0,1.071,0.024,1.708,0.074,1.902c0.024,0.11,0.073,0.185,0.147,0.222
			c0.167,0.081,0.57,0.133,1.211,0.158v0.72c-0.877-0.024-1.825-0.037-2.854-0.037C460.526,43.894,459.745,43.906,459.067,43.931z
			 M461.604,30.553c0.393,0,0.725,0.138,0.996,0.416c0.274,0.278,0.41,0.61,0.41,0.997c0,0.396-0.136,0.731-0.41,1.008
			c-0.273,0.277-0.605,0.416-0.996,0.416c-0.389,0-0.72-0.138-0.995-0.416c-0.276-0.278-0.416-0.612-0.416-1.008
			c0-0.387,0.138-0.72,0.41-0.997C460.877,30.694,461.209,30.553,461.604,30.553z"/>
		<path fill="#004B72" d="M465.677,46.427c0.375-0.719,0.665-1.409,0.875-2.072c0.207-0.66,0.36-1.373,0.457-2.134
			c0.803-0.164,1.23-0.253,1.29-0.27c0.232-0.062,0.516-0.164,0.848-0.301l0.284,0.27c-0.211,0.502-0.562,1.188-1.051,2.059
			c-0.487,0.871-0.933,1.59-1.332,2.154l-1.134,0.491L465.677,46.427z"/>
		<path fill="#004B72" d="M476.492,43.931v-0.406c0.138-0.058,0.329-0.16,0.579-0.309c0.11-0.062,0.182-0.116,0.213-0.158
			c0.021-0.026,0.033-0.056,0.038-0.088c0.027-0.132,0.054-0.604,0.072-1.413c0.021-0.81,0.032-1.783,0.032-2.917
			c0-1.667-0.006-2.696-0.015-3.087c-0.019-0.993-0.051-1.559-0.098-1.702c-0.02-0.063-0.059-0.111-0.12-0.143
			c-0.121-0.079-0.528-0.132-1.218-0.158v-0.697c0.669,0.037,1.436,0.057,2.297,0.057c0.959,0,1.872-0.02,2.732-0.057v0.697
			c-0.597,0.025-0.961,0.074-1.095,0.142c-0.056,0.032-0.099,0.083-0.127,0.153c-0.026,0.072-0.053,0.398-0.075,0.979
			c-0.024,0.579-0.035,1.312-0.035,2.199c0,0.095,0.002,0.857,0.007,2.286c0.005,0.755,0.011,1.503,0.015,2.244
			c0.001,0.74,0.007,1.188,0.012,1.348c0.729,0.037,1.225,0.056,1.489,0.056c0.802,0,1.501-0.048,2.096-0.143
			c0.216-0.031,0.349-0.066,0.391-0.104c0.042-0.036,0.086-0.134,0.132-0.292c0.105-0.401,0.209-0.86,0.312-1.378h0.656
			c-0.016,0.148-0.022,0.234-0.022,0.261l-0.199,1.6c-0.042,0.502-0.065,0.803-0.07,0.902c-0.153,0.043-0.307,0.072-0.459,0.088
			c-0.322,0.026-0.822,0.039-1.498,0.039c-0.093,0-0.715-0.013-1.858-0.039c-0.873-0.02-1.479-0.031-1.821-0.031
			C478.335,43.861,477.548,43.883,476.492,43.931z"/>
		<path fill="#004B72" d="M487.209,43.931v-0.406c0.136-0.058,0.327-0.16,0.577-0.309c0.11-0.062,0.183-0.116,0.215-0.158
			c0.019-0.026,0.033-0.056,0.038-0.088c0.026-0.132,0.052-0.604,0.072-1.413c0.02-0.81,0.032-1.783,0.032-2.917
			c0-1.667-0.008-2.696-0.017-3.087c-0.018-0.993-0.049-1.559-0.095-1.702c-0.021-0.063-0.062-0.111-0.121-0.143
			c-0.123-0.079-0.528-0.132-1.22-0.158v-0.697c0.671,0.037,1.436,0.057,2.297,0.057c0.96,0,1.872-0.02,2.732-0.057v0.697
			c-0.597,0.025-0.961,0.074-1.093,0.142c-0.058,0.032-0.101,0.083-0.128,0.153c-0.025,0.072-0.052,0.398-0.076,0.979
			c-0.021,0.579-0.035,1.312-0.035,2.199c0,0.095,0.003,0.857,0.009,2.286c0.005,0.755,0.011,1.503,0.013,2.244
			c0.003,0.74,0.007,1.188,0.012,1.348c0.73,0.037,1.225,0.056,1.489,0.056c0.802,0,1.501-0.048,2.098-0.143
			c0.215-0.031,0.347-0.066,0.389-0.104c0.042-0.036,0.087-0.134,0.134-0.292c0.104-0.401,0.207-0.86,0.31-1.378h0.656
			c-0.017,0.148-0.022,0.234-0.022,0.261l-0.199,1.6c-0.043,0.502-0.064,0.803-0.069,0.902c-0.154,0.043-0.308,0.072-0.461,0.088
			c-0.32,0.026-0.821,0.039-1.497,0.039c-0.094,0-0.715-0.013-1.859-0.039c-0.871-0.02-1.479-0.031-1.821-0.031
			C489.051,43.861,488.265,43.883,487.209,43.931z"/>
		<path fill="#004B72" d="M508.141,42.498l-0.362,0.799c-0.66,0.35-1.255,0.588-1.779,0.717c-0.526,0.131-1.181,0.196-1.968,0.196
			c-1.119,0-2.109-0.178-2.97-0.532c-0.676-0.285-1.25-0.661-1.718-1.132c-0.47-0.47-0.832-0.98-1.086-1.528
			c-0.385-0.83-0.577-1.729-0.577-2.699c0-1.664,0.568-3.022,1.705-4.076c1.139-1.052,2.745-1.579,4.82-1.579
			c0.713,0,1.352,0.053,1.92,0.158c0.568,0.106,1.227,0.292,1.976,0.562l0.039,0.104c-0.084,0.248-0.149,0.56-0.197,0.934
			c-0.079,0.597-0.132,1.146-0.151,1.654h-0.619c-0.011-0.582-0.037-1.045-0.079-1.394c-0.354-0.37-0.752-0.646-1.189-0.827
			c-0.442-0.183-1.005-0.273-1.691-0.273c-1.242,0-2.234,0.391-2.979,1.176c-0.744,0.783-1.114,1.877-1.114,3.282
			c0,0.85,0.126,1.594,0.375,2.227c0.25,0.633,0.585,1.157,1.002,1.571c0.417,0.415,0.836,0.716,1.258,0.906
			c0.575,0.253,1.272,0.381,2.089,0.381c0.54,0,1.049-0.061,1.529-0.182s1.003-0.331,1.568-0.626L508.141,42.498z"/>
		<path fill="#004B72" d="M204.102,66.455v-0.479c0.371-0.004,0.602-0.019,0.693-0.046c0.092-0.023,0.176-0.074,0.253-0.147
			c0.078-0.072,0.19-0.261,0.336-0.567c0.084-0.171,0.389-0.832,0.916-1.978l1.763-3.969c0.192-0.436,0.604-1.408,1.233-2.913h0.451
			l3.009,7.06c0.489,1.146,0.812,1.862,0.973,2.155c0.09,0.166,0.187,0.273,0.292,0.322c0.105,0.055,0.345,0.081,0.716,0.085v0.479
			c-0.733-0.047-1.246-0.07-1.538-0.07l-2.269,0.07v-0.479c0.526-0.009,0.846-0.023,0.957-0.05c0.113-0.021,0.19-0.056,0.229-0.102
			c0.041-0.044,0.06-0.097,0.06-0.167c0-0.101-0.032-0.235-0.098-0.4l-0.864-2.154h-4.078l-0.764,1.81
			c-0.137,0.323-0.205,0.561-0.205,0.71c0,0.067,0.018,0.121,0.056,0.163c0.051,0.061,0.131,0.104,0.239,0.128
			c0.174,0.039,0.479,0.059,0.916,0.062v0.479c-0.794-0.043-1.389-0.062-1.783-0.062C205.139,66.392,204.641,66.413,204.102,66.455z
			 M207.379,62.506h3.549l-1.752-4.235L207.379,62.506z"/>
		<path fill="#004B72" d="M220.225,66.455v-0.366c0.288-0.135,0.471-0.243,0.55-0.323c0.046-0.042,0.079-0.094,0.097-0.162
			c0.042-0.131,0.07-0.412,0.084-0.843c0.022-0.643,0.035-1.024,0.035-1.147V59.83c0-0.637-0.007-1.261-0.021-1.87
			c-0.014-0.445-0.049-0.709-0.102-0.792c-0.055-0.083-0.141-0.143-0.26-0.183c-0.12-0.039-0.459-0.063-1.017-0.074v-0.45
			c1.144,0.033,1.854,0.049,2.125,0.049c0.299,0,0.973-0.016,2.021-0.049v0.45c-0.56,0.011-0.897,0.035-1.018,0.074
			c-0.12,0.04-0.204,0.094-0.25,0.165c-0.056,0.094-0.092,0.322-0.105,0.683c-0.007,0.095-0.018,0.76-0.035,1.999v4.727
			c0,0.493,0.011,0.891,0.035,1.202c0.535,0.033,1.065,0.049,1.591,0.049c1.324,0,2.249-0.084,2.781-0.253
			c0.06-0.141,0.115-0.303,0.162-0.485l0.281-1.169h0.471c-0.104,0.7-0.205,1.521-0.303,2.464c-0.194,0.039-0.345,0.06-0.458,0.07
			c-0.244,0.014-0.62,0.02-1.126,0.02l-4.167-0.051C221.147,66.406,220.689,66.423,220.225,66.455z"/>
		<path fill="#004B72" d="M229.173,60.662v-0.401c0.912-0.102,1.675-0.299,2.295-0.591l0.155,0.112
			c-0.037,0.999-0.056,1.765-0.056,2.296v1.28c0.024,1.221,0.039,1.88,0.042,1.978c0.005,0.236,0.032,0.406,0.078,0.514
			c0.025,0.042,0.055,0.079,0.092,0.109c0.039,0.031,0.095,0.055,0.169,0.073c0.028,0.006,0.289,0.013,0.781,0.02v0.401
			c-0.712-0.031-1.283-0.05-1.71-0.05c-0.375,0-0.989,0.019-1.845,0.05v-0.399l0.674-0.007c0.099-0.004,0.176-0.021,0.231-0.053
			c0.053-0.03,0.095-0.068,0.123-0.116c0.052-0.095,0.085-0.261,0.098-0.502c0-0.058,0.013-0.731,0.035-2.019v-1.238
			c0-0.698-0.022-1.114-0.07-1.248c-0.028-0.068-0.078-0.123-0.152-0.158C230.041,60.68,229.728,60.662,229.173,60.662z
			 M230.891,56.544c0.222,0,0.408,0.078,0.56,0.232c0.153,0.155,0.229,0.344,0.229,0.563c0,0.216-0.078,0.401-0.233,0.556
			c-0.155,0.155-0.339,0.232-0.556,0.232c-0.22,0-0.408-0.077-0.563-0.232c-0.155-0.154-0.233-0.34-0.233-0.556
			c0-0.22,0.078-0.408,0.233-0.563C230.482,56.622,230.671,56.544,230.891,56.544z"/>
		<path fill="#004B72" d="M234.068,66.455v-0.401l0.674-0.007c0.098-0.004,0.174-0.021,0.229-0.053
			c0.055-0.03,0.096-0.068,0.125-0.116c0.051-0.095,0.084-0.261,0.098-0.502c0-0.058,0.013-0.731,0.036-2.019v-0.839
			c0-0.375-0.007-0.776-0.021-1.212c-0.015-0.276-0.037-0.438-0.067-0.492c-0.029-0.051-0.083-0.091-0.158-0.116
			c-0.076-0.024-0.38-0.035-0.916-0.032v-0.4c0.949-0.131,1.64-0.302,2.077-0.512c0.093-0.048,0.156-0.07,0.19-0.07
			c0.033,0,0.058,0.013,0.077,0.035c0.019,0.022,0.028,0.059,0.028,0.105c0,0.032-0.002,0.068-0.007,0.113
			c-0.019,0.225-0.034,0.559-0.042,1.004l0.92-0.845c0.116-0.101,0.19-0.162,0.218-0.175c0.107-0.058,0.26-0.117,0.463-0.169
			c0.201-0.052,0.41-0.077,0.63-0.077c0.449,0,0.85,0.11,1.2,0.33c0.35,0.222,0.62,0.547,0.806,0.979l0.777-0.719
			c0.174-0.158,0.294-0.257,0.359-0.295c0.124-0.069,0.295-0.135,0.522-0.197c0.225-0.059,0.447-0.092,0.669-0.092
			c0.535,0,0.983,0.143,1.346,0.426c0.36,0.285,0.593,0.607,0.697,0.968c0.065,0.239,0.098,0.757,0.098,1.549v0.732l0.018,0.979
			c0.013,0.568,0.018,0.9,0.018,0.997c0.01,0.238,0.039,0.406,0.084,0.514c0.019,0.043,0.05,0.079,0.09,0.108
			c0.041,0.032,0.096,0.056,0.171,0.074c0.028,0.005,0.289,0.013,0.78,0.021v0.4c-0.589-0.031-0.993-0.049-1.207-0.049
			c-0.206,0-0.62,0.018-1.243,0.049l0.058-1.942l0.019-0.76v-0.605c0-0.788-0.041-1.327-0.12-1.615
			c-0.081-0.289-0.248-0.521-0.505-0.701c-0.257-0.178-0.554-0.267-0.892-0.267c-0.391,0-0.744,0.112-1.06,0.338
			c-0.232,0.174-0.386,0.378-0.459,0.612c-0.074,0.236-0.111,0.694-0.111,1.372v0.472l0.018,0.979
			c0.009,0.568,0.014,0.901,0.018,0.998c0.011,0.236,0.039,0.405,0.084,0.513c0.019,0.042,0.048,0.079,0.087,0.109
			c0.037,0.031,0.093,0.055,0.169,0.073c0.033,0.006,0.295,0.014,0.787,0.021v0.401c-0.69-0.032-1.244-0.05-1.661-0.05
			c-0.338,0-0.953,0.018-1.844,0.05v-0.393l0.674-0.007c0.104-0.004,0.181-0.021,0.236-0.053c0.055-0.03,0.096-0.068,0.125-0.116
			c0.051-0.095,0.083-0.261,0.092-0.502c0.003-0.058,0.016-0.731,0.035-2.019v-0.549c0-0.605-0.046-1.047-0.141-1.326
			c-0.094-0.28-0.257-0.504-0.491-0.669c-0.235-0.167-0.514-0.25-0.842-0.25c-0.281,0-0.545,0.06-0.798,0.18
			c-0.249,0.119-0.443,0.269-0.579,0.446c-0.137,0.18-0.22,0.37-0.248,0.57c-0.048,0.324-0.07,0.715-0.07,1.169v0.43
			c0.022,1.221,0.035,1.88,0.035,1.978c0.011,0.236,0.039,0.406,0.084,0.514c0.019,0.042,0.048,0.079,0.087,0.109
			c0.037,0.031,0.096,0.055,0.175,0.073c0.028,0.006,0.289,0.013,0.78,0.02v0.401c-0.648-0.031-1.198-0.05-1.655-0.05
			C235.496,66.406,234.886,66.423,234.068,66.455z"/>
		<path fill="#004B72" d="M247.538,60.662v-0.401c0.91-0.102,1.675-0.299,2.295-0.591l0.155,0.112
			c-0.039,0.999-0.056,1.765-0.056,2.296v1.28c0.022,1.221,0.037,1.88,0.042,1.978c0.004,0.236,0.03,0.406,0.078,0.514
			c0.022,0.042,0.053,0.079,0.091,0.109c0.037,0.031,0.094,0.055,0.169,0.073c0.028,0.006,0.289,0.013,0.782,0.02v0.401
			c-0.715-0.031-1.285-0.05-1.71-0.05c-0.377,0-0.991,0.019-1.844,0.05v-0.399l0.672-0.007c0.099-0.004,0.176-0.021,0.231-0.053
			c0.055-0.03,0.095-0.068,0.123-0.116c0.054-0.095,0.087-0.261,0.1-0.502c0-0.058,0.011-0.731,0.035-2.019v-1.238
			c0-0.698-0.024-1.114-0.07-1.248c-0.028-0.068-0.079-0.123-0.151-0.158C248.403,60.68,248.09,60.662,247.538,60.662z
			 M249.255,56.544c0.22,0,0.407,0.078,0.56,0.232c0.151,0.155,0.229,0.344,0.229,0.563c0,0.216-0.078,0.401-0.232,0.556
			c-0.155,0.155-0.341,0.232-0.556,0.232c-0.222,0-0.408-0.077-0.563-0.232c-0.155-0.154-0.232-0.34-0.232-0.556
			c0-0.22,0.077-0.408,0.232-0.563C248.847,56.622,249.033,56.544,249.255,56.544z"/>
		<path fill="#004B72" d="M252.459,60.937v-0.296c0.452-0.177,0.812-0.338,1.077-0.478c0-1.115,0-1.83,0-2.14
			c0.487-0.17,0.885-0.35,1.189-0.543l0.169,0.141c-0.051,0.391-0.107,1.25-0.169,2.575c0.375,0.007,0.6,0.009,0.676,0.009
			c0.042,0,0.283-0.003,0.725-0.016c0.245-0.004,0.428-0.015,0.549-0.026l0.049,0.05l-0.148,0.654
			c-0.295-0.004-0.568-0.007-0.816-0.007c-0.247,0-0.593,0.003-1.034,0.007l-0.035,2.865c-0.015,0.7-0.01,1.117,0.015,1.253
			c0.022,0.138,0.068,0.256,0.133,0.357c0.064,0.102,0.151,0.183,0.254,0.244c0.105,0.062,0.285,0.108,0.538,0.141
			c0.192,0,0.349-0.008,0.467-0.024c0.12-0.017,0.271-0.056,0.452-0.124l0.084,0.275c-0.22,0.174-0.433,0.355-0.639,0.542
			c-0.18,0.066-0.345,0.108-0.5,0.131c-0.156,0.022-0.333,0.031-0.536,0.031c-0.247,0-0.445-0.027-0.592-0.084
			c-0.147-0.057-0.283-0.134-0.405-0.237c-0.121-0.099-0.223-0.229-0.304-0.383c-0.082-0.155-0.132-0.397-0.158-0.731
			c0.006-0.319,0.015-0.669,0.028-1.049c0.005-0.074,0.007-0.156,0.007-0.246v-2.921h-0.288
			C253.014,60.902,252.75,60.914,252.459,60.937z"/>
		<path fill="#004B72" d="M263.782,65.363l-0.226,0.507c-0.324,0.202-0.561,0.334-0.711,0.401c-0.222,0.098-0.473,0.18-0.756,0.249
			c-0.285,0.068-0.584,0.102-0.897,0.102c-0.62,0-1.181-0.129-1.683-0.388c-0.503-0.257-0.894-0.645-1.172-1.158
			c-0.28-0.513-0.419-1.114-0.419-1.806c0-0.538,0.074-1.025,0.222-1.46c0.148-0.433,0.315-0.753,0.503-0.96
			c0.136-0.149,0.347-0.321,0.634-0.517c0.285-0.194,0.57-0.35,0.852-0.462c0.37-0.155,0.771-0.232,1.204-0.232
			c0.524,0,1,0.12,1.425,0.358c0.424,0.239,0.736,0.566,0.933,0.979c0.197,0.413,0.296,0.88,0.296,1.4
			c0,0.132-0.013,0.292-0.035,0.479c-0.338,0.067-0.641,0.109-0.906,0.128c-0.507,0.038-1.014,0.056-1.52,0.056h-2.256
			c0.009,0.674,0.125,1.218,0.349,1.635c0.222,0.415,0.53,0.723,0.921,0.919c0.391,0.197,0.8,0.295,1.221,0.295
			c0.285,0,0.57-0.046,0.855-0.139c0.284-0.093,0.634-0.262,1.052-0.508L263.782,65.363z M259.27,62.486
			c0.13,0.015,0.38,0.028,0.746,0.043c0.699,0.023,1.179,0.034,1.443,0.034c0.623,0,1.035-0.011,1.231-0.034
			c0.003-0.112,0.007-0.2,0.007-0.261c0-0.74-0.151-1.285-0.451-1.633c-0.301-0.348-0.702-0.521-1.204-0.521
			c-0.531,0-0.958,0.189-1.281,0.569C259.438,61.066,259.273,61.666,259.27,62.486z"/>
		<path fill="#004B72" d="M269.964,56.898v-0.402c0.521-0.057,0.96-0.123,1.319-0.201s0.711-0.172,1.053-0.284l0.091,0.062
			c-0.018,0.399-0.038,1.169-0.063,2.309l-0.026,1.126v4.407c0,0.479,0.009,0.894,0.023,1.244c0.02,0.35,0.047,0.558,0.09,0.625
			c0.042,0.067,0.112,0.125,0.209,0.167c0.099,0.042,0.395,0.084,0.882,0.126v0.381c-0.573-0.032-0.975-0.05-1.213-0.05
			c-0.2,0-0.613,0.018-1.238,0.05c0.016-0.323,0.026-0.761,0.035-1.31c-0.187,0.138-0.438,0.342-0.757,0.613
			c-0.316,0.272-0.563,0.496-0.742,0.668c-0.373,0.095-0.704,0.141-0.991,0.141c-0.53,0-1.018-0.13-1.464-0.395
			c-0.445-0.262-0.789-0.646-1.032-1.146c-0.242-0.5-0.362-1.062-0.362-1.686c0-0.469,0.074-0.914,0.222-1.332
			c0.147-0.418,0.334-0.744,0.56-0.975c0.127-0.132,0.415-0.331,0.866-0.599s0.817-0.461,1.094-0.582
			c0.281-0.12,0.584-0.178,0.913-0.178c0.295,0,0.585,0.036,0.869,0.107c0.284,0.073,0.56,0.185,0.827,0.334v-1.852
			c0-0.65-0.027-1.049-0.085-1.189c-0.019-0.051-0.054-0.088-0.105-0.112C270.842,56.925,270.518,56.903,269.964,56.898z
			 M271.125,61.323c-0.319-0.351-0.654-0.607-1.003-0.77s-0.693-0.244-1.031-0.244c-0.386,0-0.739,0.098-1.064,0.295
			c-0.324,0.199-0.57,0.496-0.743,0.893c-0.169,0.398-0.257,0.876-0.257,1.435c0,0.858,0.215,1.526,0.641,2.01
			c0.429,0.482,0.941,0.725,1.542,0.725c0.313,0,0.595-0.065,0.845-0.198c0.247-0.131,0.468-0.321,0.656-0.576
			c0.188-0.253,0.309-0.535,0.357-0.845c0.039-0.207,0.056-0.715,0.056-1.523v-1.2H271.125z"/>
		<path fill="#004B72" d="M279.931,66.455v-0.366c0.286-0.135,0.472-0.243,0.551-0.323c0.046-0.042,0.079-0.094,0.095-0.162
			c0.044-0.131,0.07-0.412,0.086-0.843c0.021-0.643,0.035-1.024,0.035-1.147V59.83c0-0.637-0.009-1.261-0.021-1.87
			c-0.015-0.445-0.05-0.709-0.103-0.792c-0.055-0.083-0.139-0.143-0.26-0.183c-0.12-0.039-0.46-0.063-1.018-0.074v-0.45
			c1.146,0.033,1.854,0.049,2.126,0.049c0.299,0,0.973-0.016,2.02-0.049v0.45c-0.56,0.011-0.897,0.035-1.017,0.074
			c-0.12,0.04-0.206,0.094-0.25,0.165c-0.056,0.094-0.092,0.322-0.105,0.683c-0.007,0.095-0.018,0.76-0.035,1.999v4.727
			c0,0.493,0.012,0.891,0.035,1.202c0.535,0.033,1.066,0.049,1.593,0.049c1.323,0,2.247-0.084,2.78-0.253
			c0.058-0.141,0.114-0.303,0.162-0.485l0.281-1.169h0.471c-0.104,0.7-0.204,1.521-0.303,2.464c-0.193,0.039-0.345,0.06-0.458,0.07
			c-0.244,0.014-0.62,0.02-1.126,0.02l-4.167-0.051C280.853,66.406,280.395,66.423,279.931,66.455z"/>
		<path fill="#004B72" d="M288.879,60.662v-0.401c0.909-0.102,1.673-0.299,2.294-0.591l0.155,0.112
			c-0.037,0.999-0.057,1.765-0.057,2.296v1.28c0.023,1.221,0.037,1.88,0.043,1.978c0.007,0.236,0.029,0.406,0.079,0.514
			c0.021,0.042,0.054,0.079,0.091,0.109c0.037,0.031,0.094,0.055,0.169,0.073c0.028,0.006,0.289,0.013,0.781,0.02v0.401
			c-0.712-0.031-1.282-0.05-1.708-0.05c-0.375,0-0.993,0.019-1.845,0.05v-0.399l0.674-0.007c0.097-0.004,0.173-0.021,0.229-0.053
			c0.055-0.03,0.095-0.068,0.125-0.116c0.051-0.095,0.084-0.261,0.098-0.502c0-0.058,0.013-0.731,0.036-2.019v-1.238
			c0-0.698-0.023-1.114-0.071-1.248c-0.027-0.068-0.079-0.123-0.15-0.158C289.75,60.678,289.433,60.662,288.879,60.662z
			 M290.596,56.544c0.221,0,0.407,0.078,0.56,0.232c0.153,0.155,0.229,0.344,0.229,0.563c0,0.216-0.078,0.401-0.232,0.556
			c-0.155,0.155-0.34,0.232-0.557,0.232c-0.22,0-0.408-0.077-0.562-0.232c-0.155-0.154-0.232-0.34-0.232-0.556
			c0-0.22,0.077-0.408,0.232-0.563C290.188,56.622,290.376,56.544,290.596,56.544z"/>
		<path fill="#004B72" d="M295.006,61.634l-0.373-0.098c0.004-0.106,0.007-0.255,0.007-0.443c0-0.197-0.003-0.354-0.007-0.47
			c0.597-0.391,1.086-0.652,1.466-0.788c0.292-0.099,0.618-0.147,0.98-0.147c0.535,0,0.987,0.102,1.353,0.303
			c0.366,0.202,0.64,0.49,0.818,0.865c0.122,0.264,0.184,0.623,0.184,1.077l-0.035,1.288v2.098c0,0.225,0.018,0.387,0.055,0.485
			c0.028,0.07,0.072,0.123,0.134,0.155c0.046,0.028,0.145,0.047,0.296,0.055l0.458,0.044v0.4c-0.386-0.032-0.724-0.051-1.014-0.051
			c-0.282,0-0.658,0.019-1.126,0.051l0.035-1.239c-0.958,0.724-1.526,1.13-1.704,1.221c-0.18,0.092-0.404,0.136-0.676,0.136
			c-0.57,0-1.01-0.151-1.328-0.454c-0.317-0.303-0.474-0.702-0.474-1.207c0-0.323,0.055-0.619,0.166-0.887
			c0.108-0.268,0.242-0.478,0.397-0.636c0.154-0.158,0.312-0.274,0.47-0.35c0.271-0.127,0.714-0.262,1.326-0.408
			c0.614-0.144,1.22-0.253,1.822-0.323c0.003-0.445-0.05-0.792-0.162-1.041c-0.113-0.248-0.303-0.453-0.572-0.613
			c-0.268-0.159-0.593-0.239-0.979-0.239c-0.277,0-0.521,0.038-0.729,0.112c-0.209,0.075-0.338,0.139-0.384,0.189l-0.128,0.254
			C295.161,61.254,295.065,61.475,295.006,61.634z M298.236,62.739c-0.61,0.104-1.131,0.219-1.562,0.345
			c-0.431,0.128-0.735,0.259-0.915,0.396c-0.108,0.081-0.204,0.201-0.281,0.358c-0.123,0.236-0.183,0.497-0.183,0.781
			c0,0.349,0.095,0.62,0.288,0.812c0.192,0.195,0.459,0.292,0.805,0.292c0.312,0,0.622-0.091,0.931-0.272
			c0.308-0.178,0.614-0.45,0.92-0.812L298.236,62.739L298.236,62.739z"/>
		<path fill="#004B72" d="M302.321,66.484c0.056-0.592,0.088-0.963,0.091-1.118c0.028-1.019,0.043-1.615,0.043-1.795v-3.128
			c0-0.783-0.011-1.593-0.035-2.427c-0.018-0.563-0.044-0.878-0.078-0.943c-0.021-0.046-0.06-0.079-0.112-0.098
			c-0.072-0.032-0.396-0.05-0.979-0.05v-0.416c1.062-0.13,1.799-0.295,2.21-0.492c0.062-0.028,0.109-0.042,0.142-0.042
			c0.033,0,0.058,0.01,0.077,0.031c0.019,0.021,0.028,0.051,0.028,0.088c0,0.033-0.004,0.079-0.017,0.141l-0.007,0.232
			c-0.022,0.84-0.037,1.554-0.042,2.144l-0.014,1.096v1.393l0.969-0.95c0.129-0.107,0.337-0.213,0.627-0.317
			c0.292-0.102,0.602-0.154,0.929-0.154c0.518,0,0.976,0.121,1.371,0.36c0.399,0.245,0.706,0.584,0.921,1.026
			c0.214,0.439,0.318,0.927,0.318,1.464c0,0.413-0.059,0.806-0.183,1.176c-0.122,0.371-0.278,0.702-0.471,0.992
			c-0.141,0.222-0.261,0.371-0.358,0.45l-1.026,0.739c-0.417,0.31-0.742,0.507-0.979,0.595c-0.233,0.088-0.535,0.13-0.9,0.13
			c-0.313,0-0.605-0.042-0.873-0.126c-0.268-0.085-0.551-0.232-0.852-0.443l-0.57,0.534L302.321,66.484z M303.63,61.944v2.64
			c0,0.236,0.015,0.386,0.039,0.45c0.024,0.066,0.104,0.153,0.235,0.261c0.197,0.166,0.427,0.295,0.687,0.395
			c0.261,0.099,0.537,0.147,0.827,0.147c0.682,0,1.204-0.262,1.57-0.788c0.365-0.524,0.549-1.176,0.549-1.949
			c0-0.549-0.088-1.009-0.261-1.38c-0.173-0.369-0.412-0.647-0.718-0.834c-0.307-0.185-0.649-0.279-1.029-0.279
			c-0.445,0-0.845,0.13-1.197,0.385C303.982,61.246,303.748,61.563,303.63,61.944z"/>
		<path fill="#004B72" d="M310.419,60.662v-0.401c0.912-0.102,1.676-0.299,2.297-0.591l0.154,0.112
			c-0.036,0.999-0.056,1.765-0.056,2.296v1.28c0.022,1.221,0.037,1.88,0.042,1.978c0.005,0.236,0.03,0.406,0.077,0.514
			c0.023,0.042,0.057,0.079,0.094,0.109c0.037,0.031,0.093,0.055,0.169,0.073c0.028,0.006,0.288,0.013,0.781,0.02v0.401
			c-0.713-0.031-1.283-0.05-1.709-0.05c-0.375,0-0.992,0.019-1.846,0.05v-0.399l0.674-0.007c0.099-0.004,0.174-0.021,0.229-0.053
			c0.057-0.03,0.097-0.068,0.127-0.116c0.051-0.095,0.085-0.261,0.097-0.502c0-0.058,0.015-0.731,0.035-2.019v-1.238
			c0-0.698-0.021-1.114-0.069-1.248c-0.027-0.068-0.08-0.123-0.152-0.158C311.289,60.679,310.974,60.662,310.419,60.662z
			 M312.137,56.544c0.22,0,0.406,0.078,0.56,0.232c0.153,0.155,0.229,0.344,0.229,0.563c0,0.216-0.077,0.401-0.232,0.556
			c-0.154,0.155-0.339,0.232-0.556,0.232c-0.22,0-0.408-0.077-0.563-0.232c-0.154-0.154-0.231-0.34-0.231-0.556
			c0-0.22,0.077-0.408,0.231-0.563C311.729,56.622,311.917,56.544,312.137,56.544z"/>
		<path fill="#004B72" d="M315.378,66.455v-0.401l0.662-0.007c0.102-0.004,0.181-0.021,0.235-0.053
			c0.055-0.03,0.096-0.068,0.125-0.116c0.051-0.095,0.081-0.261,0.092-0.5c0.003-0.06,0.021-0.731,0.049-2.019v-2.917
			c0-0.783-0.012-1.593-0.033-2.427c-0.02-0.563-0.048-0.878-0.081-0.943c-0.021-0.046-0.058-0.079-0.112-0.098
			c-0.068-0.032-0.395-0.05-0.977-0.05v-0.416c1.061-0.13,1.797-0.295,2.21-0.492c0.06-0.028,0.107-0.042,0.141-0.042
			c0.032,0,0.058,0.01,0.077,0.031c0.02,0.021,0.028,0.051,0.028,0.088c0,0.033-0.005,0.079-0.016,0.141l-0.007,0.232
			c-0.023,0.84-0.039,1.554-0.042,2.146l-0.015,1.098v3.65c0.019,1.22,0.03,1.88,0.035,1.978c0.004,0.234,0.032,0.404,0.085,0.512
			c0.019,0.042,0.047,0.079,0.084,0.109c0.039,0.031,0.095,0.055,0.171,0.073c0.033,0.006,0.296,0.013,0.786,0.02v0.401
			c-0.639-0.031-1.2-0.05-1.682-0.05C316.733,66.406,316.128,66.423,315.378,66.455z"/>
		<path fill="#004B72" d="M320.251,60.662v-0.401c0.911-0.102,1.675-0.299,2.294-0.591l0.157,0.112
			c-0.037,0.999-0.057,1.765-0.057,2.296v1.28c0.023,1.221,0.037,1.88,0.042,1.978c0.006,0.236,0.03,0.406,0.078,0.514
			c0.022,0.042,0.056,0.079,0.093,0.109c0.037,0.031,0.094,0.055,0.169,0.073c0.028,0.006,0.289,0.013,0.781,0.02v0.401
			c-0.713-0.031-1.282-0.05-1.71-0.05c-0.375,0-0.991,0.019-1.845,0.05v-0.399l0.674-0.007c0.099-0.004,0.175-0.021,0.229-0.053
			c0.056-0.03,0.097-0.068,0.126-0.116c0.052-0.095,0.085-0.261,0.098-0.502c0-0.058,0.014-0.731,0.035-2.019v-1.238
			c0-0.698-0.021-1.114-0.07-1.248c-0.026-0.068-0.08-0.123-0.151-0.158C321.122,60.678,320.805,60.662,320.251,60.662z
			 M321.969,56.544c0.22,0,0.406,0.078,0.559,0.232c0.153,0.155,0.229,0.344,0.229,0.563c0,0.216-0.078,0.401-0.232,0.556
			c-0.155,0.155-0.34,0.232-0.556,0.232c-0.221,0-0.409-0.077-0.563-0.232c-0.155-0.154-0.232-0.34-0.232-0.556
			c0-0.22,0.077-0.408,0.232-0.563C321.56,56.622,321.748,56.544,321.969,56.544z"/>
		<path fill="#004B72" d="M325.175,60.937v-0.296c0.45-0.177,0.81-0.338,1.076-0.478c0-1.115,0-1.83,0-2.14
			c0.488-0.17,0.884-0.35,1.19-0.543l0.168,0.141c-0.053,0.391-0.108,1.25-0.168,2.575c0.374,0.007,0.6,0.009,0.676,0.009
			c0.042,0,0.281-0.003,0.725-0.016c0.244-0.004,0.426-0.015,0.549-0.026l0.05,0.05l-0.148,0.654
			c-0.296-0.004-0.568-0.007-0.816-0.007s-0.593,0.003-1.033,0.007l-0.035,2.865c-0.016,0.7-0.011,1.117,0.015,1.253
			c0.022,0.138,0.066,0.256,0.134,0.357c0.064,0.102,0.149,0.183,0.255,0.244c0.104,0.062,0.281,0.108,0.537,0.141
			c0.191,0,0.346-0.008,0.466-0.024c0.121-0.017,0.271-0.056,0.452-0.124l0.086,0.275c-0.22,0.174-0.435,0.355-0.64,0.542
			c-0.178,0.066-0.347,0.108-0.5,0.131c-0.155,0.021-0.332,0.031-0.535,0.031c-0.247,0-0.447-0.027-0.595-0.084
			c-0.146-0.057-0.281-0.134-0.401-0.237c-0.125-0.099-0.224-0.229-0.306-0.383c-0.081-0.155-0.133-0.397-0.157-0.731
			c0.004-0.319,0.016-0.669,0.028-1.049c0.004-0.074,0.007-0.156,0.007-0.246v-2.921h-0.288
			C325.727,60.902,325.465,60.914,325.175,60.937z"/>
		<path fill="#004B72" d="M330.589,70.221l0.357-1.083h0.17c0.09,0.075,0.165,0.135,0.229,0.179
			c0.062,0.047,0.131,0.079,0.204,0.102c0.074,0.025,0.18,0.035,0.32,0.035c0.146,0,0.287-0.031,0.426-0.095
			c0.14-0.062,0.268-0.162,0.388-0.298c0.121-0.136,0.262-0.37,0.427-0.704c0.249-0.503,0.471-1.014,0.669-1.536
			c-0.149-0.421-0.331-0.896-0.544-1.42l-1.12-2.771c-0.335-0.825-0.607-1.458-0.817-1.895c-0.086-0.173-0.174-0.289-0.272-0.349
			c-0.096-0.058-0.312-0.105-0.644-0.143v-0.401c0.582,0.033,1.157,0.05,1.726,0.05c0.555,0,1.088-0.017,1.6-0.05v0.401
			c-0.481,0.032-0.762,0.062-0.83,0.092c-0.123,0.046-0.184,0.131-0.184,0.251c0,0.074,0.041,0.228,0.12,0.46
			c0.183,0.579,0.356,1.071,0.522,1.479l0.443,1.101c0.268,0.657,0.495,1.191,0.678,1.601l0.37-0.832
			c0.146-0.329,0.4-0.954,0.769-1.876c0.364-0.92,0.579-1.488,0.639-1.705c0.019-0.074,0.028-0.141,0.028-0.197
			c0-0.09-0.035-0.16-0.109-0.208c-0.072-0.049-0.357-0.097-0.848-0.144v-0.423c0.545,0.033,1.027,0.05,1.444,0.05
			c0.422,0,0.841-0.017,1.253-0.05l-0.07,0.423c-0.239,0.011-0.424,0.062-0.557,0.154c-0.13,0.096-0.327,0.41-0.593,0.948
			c-0.264,0.538-0.759,1.594-1.477,3.171l-1.626,3.802c-0.262,0.615-0.49,1.054-0.683,1.316c-0.191,0.262-0.423,0.464-0.691,0.598
			c-0.268,0.137-0.56,0.206-0.88,0.206c-0.155,0-0.294-0.02-0.419-0.055C330.885,70.365,330.744,70.306,330.589,70.221z"/>
		<path fill="#004B72" d="M353.155,65.216l-0.276,0.656c-0.547,0.277-1.085,0.478-1.609,0.602c-0.526,0.125-1.101,0.187-1.718,0.187
			c-0.73,0-1.406-0.093-2.027-0.275c-0.625-0.184-1.17-0.445-1.637-0.785c-0.468-0.341-0.846-0.722-1.144-1.145
			c-0.296-0.422-0.521-0.883-0.676-1.375c-0.154-0.497-0.232-1.038-0.232-1.633c0-1.497,0.52-2.737,1.564-3.721
			c1.044-0.984,2.469-1.477,4.276-1.477c0.428,0,0.821,0.024,1.186,0.073c0.361,0.051,0.807,0.145,1.331,0.282
			c0.522,0.138,0.845,0.22,0.961,0.242c-0.104,0.259-0.182,0.513-0.232,0.761c-0.076,0.399-0.129,0.862-0.157,1.387h-0.441
			l-0.009-0.831c-0.048-0.459-0.303-0.803-0.764-1.027c-0.463-0.226-1.141-0.338-2.03-0.338c-0.667,0.011-1.232,0.094-1.696,0.257
			c-0.467,0.162-0.876,0.419-1.229,0.767c-0.355,0.352-0.645,0.794-0.869,1.332c-0.226,0.537-0.342,1.211-0.346,2.023
			c0,1.421,0.432,2.565,1.301,3.432c0.869,0.865,2.015,1.299,3.442,1.299c0.642,0,1.238-0.09,1.787-0.268
			c0.375-0.119,0.748-0.311,1.119-0.571L353.155,65.216z"/>
		<path fill="#004B72" d="M354.755,63.214c0-1.053,0.335-1.909,1.003-2.575c0.669-0.664,1.526-0.996,2.573-0.996
			c0.985,0,1.786,0.31,2.407,0.93c0.619,0.62,0.929,1.42,0.929,2.402c0,0.687-0.161,1.312-0.479,1.882
			c-0.319,0.568-0.77,1.014-1.352,1.335s-1.223,0.481-1.921,0.481c-0.545,0-1.005-0.091-1.384-0.274
			c-0.378-0.183-0.685-0.413-0.92-0.691c-0.234-0.279-0.414-0.562-0.535-0.852C354.862,64.344,354.755,63.796,354.755,63.214z
			 M356.086,62.693c0,0.577,0.095,1.165,0.288,1.762c0.192,0.597,0.469,1.032,0.834,1.308c0.363,0.274,0.759,0.412,1.185,0.412
			c0.545,0,1-0.217,1.367-0.649c0.364-0.432,0.547-1.099,0.547-1.996c0-0.746-0.108-1.39-0.325-1.933
			c-0.218-0.544-0.498-0.926-0.836-1.149c-0.338-0.222-0.711-0.334-1.117-0.334c-0.579,0-1.045,0.209-1.406,0.628
			C356.265,61.158,356.086,61.81,356.086,62.693z"/>
		<path fill="#004B72" d="M363.163,66.455v-0.401l0.672-0.007c0.101-0.004,0.177-0.021,0.23-0.053
			c0.057-0.03,0.096-0.068,0.125-0.116c0.053-0.095,0.087-0.261,0.099-0.502c0-0.058,0.013-0.731,0.035-2.019v-0.839
			c0-0.375-0.007-0.776-0.02-1.212c-0.016-0.276-0.036-0.438-0.066-0.492c-0.031-0.051-0.084-0.091-0.158-0.116
			c-0.076-0.024-0.38-0.035-0.917-0.032v-0.4c0.948-0.131,1.64-0.302,2.078-0.512c0.094-0.048,0.157-0.07,0.19-0.07
			c0.031,0,0.056,0.013,0.077,0.035c0.018,0.022,0.028,0.059,0.028,0.105c0,0.032-0.006,0.068-0.009,0.113
			c-0.019,0.225-0.033,0.559-0.042,1.004l0.92-0.845c0.116-0.101,0.188-0.162,0.217-0.175c0.105-0.058,0.26-0.117,0.463-0.169
			c0.202-0.052,0.411-0.077,0.631-0.077c0.449,0,0.847,0.11,1.199,0.33c0.352,0.222,0.619,0.547,0.807,0.979l0.777-0.719
			c0.171-0.158,0.294-0.257,0.357-0.295c0.123-0.069,0.296-0.135,0.521-0.197c0.226-0.059,0.449-0.092,0.671-0.092
			c0.535,0,0.983,0.143,1.345,0.426c0.361,0.285,0.595,0.607,0.696,0.968c0.065,0.239,0.099,0.757,0.099,1.549v0.732l0.02,0.979
			c0.011,0.568,0.018,0.9,0.018,0.997c0.009,0.238,0.037,0.406,0.085,0.514c0.019,0.043,0.051,0.079,0.089,0.108
			c0.041,0.032,0.097,0.056,0.173,0.074c0.028,0.005,0.289,0.013,0.779,0.021v0.4c-0.589-0.031-0.992-0.049-1.207-0.049
			c-0.207,0-0.621,0.018-1.242,0.049l0.057-1.942l0.019-0.76v-0.605c0-0.788-0.04-1.327-0.119-1.615
			c-0.083-0.289-0.248-0.521-0.507-0.701c-0.257-0.178-0.555-0.267-0.893-0.267c-0.391,0-0.743,0.112-1.059,0.338
			c-0.232,0.174-0.386,0.378-0.46,0.612c-0.073,0.236-0.11,0.694-0.11,1.372v0.472l0.018,0.979c0.009,0.568,0.016,0.901,0.02,0.998
			c0.009,0.236,0.036,0.405,0.084,0.513c0.02,0.042,0.048,0.079,0.085,0.109c0.038,0.031,0.095,0.055,0.17,0.073
			c0.034,0.006,0.296,0.014,0.787,0.021v0.401c-0.691-0.032-1.244-0.05-1.661-0.05c-0.338,0-0.956,0.018-1.846,0.05v-0.393
			l0.672-0.007c0.104-0.004,0.183-0.021,0.239-0.053c0.055-0.03,0.093-0.068,0.125-0.116c0.051-0.095,0.081-0.261,0.093-0.502
			c0.004-0.058,0.017-0.731,0.034-2.019v-0.549c0-0.605-0.048-1.047-0.14-1.326c-0.094-0.28-0.257-0.504-0.49-0.669
			c-0.236-0.167-0.515-0.25-0.844-0.25c-0.28,0-0.545,0.06-0.797,0.18c-0.252,0.119-0.443,0.269-0.582,0.446
			c-0.134,0.18-0.217,0.37-0.245,0.57c-0.048,0.324-0.07,0.715-0.07,1.169v0.43c0.022,1.221,0.035,1.88,0.035,1.978
			c0.009,0.236,0.037,0.406,0.085,0.514c0.019,0.042,0.048,0.079,0.085,0.109c0.039,0.031,0.096,0.055,0.177,0.073
			c0.028,0.006,0.289,0.013,0.779,0.02v0.401c-0.647-0.031-1.2-0.05-1.653-0.05C364.589,66.406,363.979,66.423,363.163,66.455z"/>
		<path fill="#004B72" d="M376.566,60.656v-0.401c0.087,0,0.265-0.02,0.537-0.06c0.272-0.038,0.575-0.105,0.908-0.205
			c0.334-0.094,0.582-0.188,0.753-0.277c0.053-0.028,0.094-0.043,0.127-0.043s0.06,0.013,0.081,0.035
			c0.021,0.024,0.031,0.062,0.031,0.12c0,0.023-0.002,0.081-0.007,0.169c-0.009,0.138-0.014,0.261-0.014,0.373v0.746
			c0.793-0.734,1.288-1.149,1.483-1.246c0.258-0.127,0.644-0.189,1.154-0.189c0.596,0,1.11,0.135,1.541,0.403
			c0.433,0.272,0.746,0.62,0.939,1.049c0.195,0.431,0.293,0.889,0.293,1.376c0,0.296-0.034,0.576-0.103,0.838
			c-0.066,0.264-0.155,0.511-0.261,0.742c-0.105,0.232-0.222,0.447-0.352,0.641c-0.13,0.195-0.25,0.342-0.362,0.44
			c-0.063,0.06-0.236,0.202-0.509,0.422c-0.276,0.222-0.566,0.412-0.882,0.574c-0.312,0.162-0.527,0.262-0.651,0.299
			c-0.267,0.085-0.551,0.128-0.852,0.128c-0.233,0-0.463-0.028-0.686-0.086c-0.223-0.055-0.476-0.151-0.757-0.287v1.119
			c0.019,1.187,0.031,1.842,0.035,1.964c0.005,0.23,0.033,0.399,0.086,0.506c0.018,0.054,0.048,0.094,0.088,0.124
			c0.041,0.031,0.099,0.054,0.175,0.065c0.042,0.012,0.321,0.02,0.841,0.028v0.401c-0.584-0.022-1.362-0.035-2.33-0.035
			c-0.535,0-0.944,0.013-1.231,0.035v-0.401l0.674-0.007c0.099-0.004,0.176-0.021,0.232-0.053c0.053-0.03,0.093-0.068,0.123-0.116
			c0.051-0.095,0.084-0.261,0.097-0.502c0.007-0.06,0.018-0.73,0.035-2.013v-2.501c0-0.812-0.009-1.645-0.026-2.5
			c-0.019-0.854-0.039-1.321-0.06-1.399c-0.02-0.077-0.055-0.135-0.103-0.176c-0.046-0.038-0.105-0.065-0.181-0.081L376.566,60.656z
			 M378.981,65.006c0.248,0.253,0.533,0.454,0.85,0.598c0.32,0.146,0.656,0.218,1.007,0.218c0.429,0,0.816-0.105,1.165-0.319
			c0.352-0.212,0.626-0.545,0.83-0.995c0.206-0.45,0.309-0.939,0.309-1.472c0-0.51-0.098-0.956-0.293-1.332
			c-0.193-0.379-0.47-0.662-0.827-0.852c-0.356-0.19-0.714-0.285-1.076-0.285c-0.268,0-0.531,0.054-0.792,0.159
			c-0.261,0.104-0.496,0.26-0.708,0.461c-0.211,0.203-0.352,0.394-0.422,0.578c-0.028,0.091-0.042,0.261-0.042,0.513V65.006z"/>
		<path fill="#004B72" d="M387.228,61.634l-0.373-0.098c0.007-0.106,0.009-0.255,0.009-0.443c0-0.197-0.002-0.354-0.009-0.47
			c0.597-0.391,1.085-0.652,1.467-0.788c0.291-0.099,0.62-0.147,0.98-0.147c0.537,0,0.987,0.102,1.354,0.303
			c0.366,0.202,0.641,0.49,0.816,0.865c0.123,0.264,0.183,0.623,0.183,1.077l-0.035,1.288v2.098c0,0.225,0.02,0.387,0.057,0.485
			c0.028,0.07,0.072,0.123,0.134,0.155c0.048,0.028,0.145,0.047,0.294,0.055l0.459,0.044v0.4c-0.387-0.032-0.725-0.051-1.014-0.051
			c-0.281,0-0.657,0.019-1.126,0.051l0.035-1.239c-0.957,0.724-1.525,1.13-1.705,1.221c-0.179,0.091-0.403,0.136-0.676,0.136
			c-0.568,0-1.01-0.151-1.327-0.454c-0.318-0.303-0.475-0.702-0.475-1.207c0-0.323,0.056-0.619,0.167-0.887
			c0.109-0.267,0.243-0.478,0.396-0.636c0.155-0.158,0.312-0.274,0.472-0.35c0.273-0.127,0.715-0.262,1.327-0.408
			c0.612-0.144,1.22-0.253,1.821-0.323c0.005-0.445-0.051-0.792-0.164-1.041c-0.112-0.248-0.302-0.453-0.569-0.613
			c-0.268-0.159-0.594-0.239-0.979-0.239c-0.276,0-0.52,0.038-0.729,0.112c-0.21,0.075-0.336,0.139-0.386,0.189l-0.127,0.254
			C387.382,61.254,387.289,61.475,387.228,61.634z M390.458,62.739c-0.61,0.104-1.132,0.219-1.561,0.345
			c-0.433,0.128-0.737,0.259-0.917,0.396c-0.105,0.081-0.202,0.201-0.281,0.358c-0.121,0.236-0.183,0.497-0.183,0.781
			c0,0.349,0.097,0.62,0.289,0.812c0.191,0.195,0.459,0.292,0.802,0.292c0.317,0,0.625-0.091,0.933-0.272
			c0.309-0.178,0.614-0.45,0.919-0.812L390.458,62.739L390.458,62.739z"/>
		<path fill="#004B72" d="M393.826,66.455v-0.401l0.672-0.007c0.099-0.004,0.176-0.021,0.23-0.053
			c0.057-0.03,0.096-0.068,0.125-0.116c0.053-0.095,0.087-0.261,0.099-0.502c0-0.058,0.011-0.731,0.035-2.019v-0.839
			c0-0.375-0.007-0.776-0.02-1.212c-0.016-0.276-0.036-0.438-0.066-0.492c-0.032-0.051-0.085-0.091-0.158-0.116
			c-0.076-0.024-0.382-0.035-0.917-0.032v-0.4c0.946-0.131,1.64-0.302,2.076-0.512c0.095-0.048,0.158-0.07,0.192-0.07
			c0.029,0,0.056,0.013,0.077,0.035c0.018,0.022,0.026,0.059,0.026,0.105c0,0.032-0.004,0.068-0.007,0.113
			c-0.015,0.168-0.028,0.525-0.043,1.069l1.31-1.119c0.384-0.141,0.748-0.21,1.091-0.21c0.381,0,0.739,0.077,1.081,0.232
			c0.34,0.154,0.595,0.351,0.767,0.583c0.171,0.236,0.285,0.532,0.342,0.887c0.031,0.211,0.051,0.801,0.051,1.767v1.246
			c0,0.61,0.016,1.026,0.05,1.246c0.022,0.141,0.06,0.24,0.108,0.292c0.05,0.056,0.125,0.089,0.229,0.102l0.753,0.02v0.401
			c-0.461-0.031-0.843-0.05-1.147-0.05c-0.264,0-0.698,0.019-1.308,0.05c0.063-1.158,0.097-1.891,0.097-2.196v-1.183
			c0-0.733-0.028-1.219-0.084-1.448c-0.081-0.314-0.261-0.568-0.544-0.762c-0.28-0.191-0.621-0.287-1.021-0.287
			c-0.353,0-0.674,0.085-0.963,0.248c-0.292,0.169-0.501,0.358-0.623,0.579c-0.125,0.217-0.187,0.585-0.187,1.102v0.852
			c0.023,1.22,0.035,1.88,0.035,1.977c0.009,0.237,0.037,0.406,0.085,0.513c0.02,0.043,0.049,0.08,0.086,0.109
			c0.039,0.031,0.095,0.056,0.176,0.074c0.028,0.005,0.289,0.013,0.78,0.02v0.401c-0.574-0.031-1.092-0.049-1.556-0.049
			C395.36,66.406,394.717,66.423,393.826,66.455z"/>
		<path fill="#004B72" d="M403.056,70.221l0.359-1.083h0.169c0.09,0.075,0.165,0.135,0.229,0.179
			c0.063,0.047,0.132,0.079,0.206,0.102c0.072,0.025,0.178,0.035,0.318,0.035c0.146,0,0.287-0.031,0.426-0.095
			c0.14-0.062,0.27-0.162,0.389-0.298c0.12-0.136,0.263-0.37,0.426-0.704c0.248-0.503,0.472-1.014,0.669-1.536
			c-0.151-0.421-0.331-0.896-0.544-1.42l-1.12-2.771c-0.332-0.825-0.605-1.458-0.816-1.895c-0.084-0.173-0.174-0.289-0.271-0.349
			c-0.098-0.058-0.313-0.105-0.646-0.143v-0.401c0.582,0.033,1.157,0.05,1.726,0.05c0.555,0,1.088-0.017,1.6-0.05v0.401
			c-0.483,0.032-0.76,0.062-0.83,0.092c-0.122,0.046-0.184,0.131-0.184,0.251c0,0.074,0.041,0.228,0.12,0.46
			c0.183,0.579,0.357,1.071,0.522,1.479l0.443,1.101c0.268,0.657,0.493,1.191,0.678,1.601l0.371-0.832
			c0.146-0.329,0.401-0.954,0.768-1.876c0.364-0.92,0.578-1.488,0.639-1.705c0.02-0.074,0.028-0.141,0.028-0.197
			c0-0.09-0.037-0.16-0.109-0.208c-0.072-0.049-0.355-0.097-0.847-0.144v-0.423c0.544,0.033,1.026,0.05,1.443,0.05
			c0.422,0,0.839-0.017,1.253-0.05l-0.069,0.423c-0.241,0.011-0.426,0.062-0.556,0.154c-0.132,0.096-0.329,0.41-0.595,0.948
			s-0.757,1.594-1.475,3.171l-1.63,3.802c-0.262,0.615-0.489,1.054-0.681,1.316c-0.192,0.262-0.423,0.464-0.689,0.598
			c-0.268,0.137-0.562,0.206-0.882,0.206c-0.155,0-0.294-0.02-0.419-0.055S403.211,70.306,403.056,70.221z"/>
		<path fill="#004B72" d="M212.453,85.193l-0.24,0.574c-0.48,0.241-0.953,0.417-1.411,0.526c-0.459,0.108-0.961,0.164-1.503,0.164
			c-0.637,0-1.228-0.081-1.774-0.241c-0.546-0.161-1.022-0.39-1.433-0.688c-0.408-0.299-0.741-0.632-0.999-1
			c-0.259-0.371-0.456-0.772-0.591-1.206c-0.135-0.435-0.205-0.91-0.205-1.428c0-1.31,0.458-2.396,1.371-3.256
			c0.913-0.86,2.161-1.293,3.741-1.293c0.373,0,0.72,0.021,1.038,0.065c0.319,0.042,0.705,0.125,1.163,0.246
			c0.459,0.121,0.739,0.192,0.841,0.211c-0.09,0.226-0.158,0.447-0.202,0.665c-0.067,0.349-0.111,0.753-0.136,1.213h-0.389
			l-0.006-0.728c-0.042-0.4-0.264-0.701-0.668-0.899c-0.405-0.197-0.997-0.296-1.778-0.296c-0.582,0.01-1.076,0.084-1.483,0.226
			c-0.406,0.141-0.766,0.366-1.075,0.671c-0.31,0.306-0.563,0.693-0.761,1.164c-0.197,0.471-0.299,1.062-0.302,1.771
			c0,1.244,0.38,2.245,1.141,3.001c0.758,0.76,1.763,1.138,3.011,1.138c0.563,0,1.084-0.077,1.564-0.232
			c0.329-0.105,0.655-0.273,0.98-0.5L212.453,85.193z"/>
		<path fill="#004B72" d="M218.879,85.322l-0.197,0.444c-0.283,0.175-0.491,0.293-0.621,0.352c-0.193,0.087-0.414,0.159-0.663,0.218
			c-0.248,0.06-0.51,0.091-0.785,0.091c-0.542,0-1.032-0.112-1.471-0.338c-0.44-0.228-0.781-0.565-1.026-1.014
			c-0.244-0.45-0.365-0.977-0.365-1.581c0-0.471,0.062-0.896,0.193-1.277c0.129-0.38,0.277-0.659,0.439-0.841
			c0.12-0.132,0.305-0.282,0.554-0.452c0.25-0.171,0.5-0.306,0.746-0.403c0.324-0.135,0.674-0.205,1.053-0.205
			c0.459,0,0.876,0.105,1.248,0.315c0.371,0.21,0.645,0.495,0.816,0.855c0.172,0.362,0.259,0.771,0.259,1.226
			c0,0.114-0.011,0.254-0.032,0.419c-0.296,0.057-0.56,0.095-0.793,0.111c-0.442,0.031-0.885,0.05-1.329,0.05h-1.972
			c0.007,0.587,0.108,1.064,0.304,1.429c0.195,0.363,0.465,0.634,0.807,0.807c0.343,0.172,0.7,0.258,1.07,0.258
			c0.249,0,0.5-0.04,0.748-0.121c0.248-0.081,0.554-0.23,0.92-0.447L218.879,85.322z M214.932,82.804
			c0.114,0.013,0.332,0.023,0.653,0.037c0.611,0.02,1.031,0.03,1.262,0.03c0.545,0,0.906-0.011,1.078-0.03
			c0.003-0.099,0.005-0.175,0.005-0.228c0-0.65-0.132-1.126-0.395-1.429c-0.262-0.306-0.614-0.457-1.053-0.457
			c-0.464,0-0.837,0.167-1.12,0.499C215.08,81.559,214.936,82.085,214.932,82.804z"/>
		<path fill="#004B72" d="M220.396,86.277v-0.351c0.468-0.009,0.72-0.019,0.756-0.024c0.07-0.012,0.124-0.031,0.159-0.059
			c0.035-0.026,0.062-0.063,0.083-0.112c0.042-0.096,0.066-0.244,0.074-0.444c0.021-1.096,0.032-1.671,0.032-1.719v-0.732
			c0-0.327-0.007-0.683-0.019-1.059c-0.007-0.244-0.024-0.389-0.051-0.432c-0.028-0.046-0.074-0.079-0.143-0.102
			c-0.066-0.022-0.336-0.031-0.805-0.027v-0.352c0.831-0.116,1.437-0.266,1.818-0.45c0.083-0.041,0.137-0.061,0.166-0.061
			c0.03,0,0.053,0.012,0.068,0.031c0.016,0.02,0.024,0.053,0.024,0.094c0,0.027-0.002,0.06-0.007,0.097
			c-0.019,0.251-0.032,0.639-0.037,1.165c0.184-0.213,0.355-0.427,0.511-0.636c0.156-0.208,0.27-0.345,0.338-0.404
			c0.124-0.105,0.266-0.194,0.426-0.256c0.16-0.063,0.325-0.095,0.498-0.095s0.343,0.037,0.512,0.111l0.037,0.087
			c-0.062,0.544-0.097,1.025-0.105,1.441h-0.276c-0.095-0.197-0.205-0.342-0.329-0.433c-0.127-0.092-0.283-0.135-0.471-0.135
			c-0.317,0-0.585,0.132-0.807,0.392c-0.222,0.261-0.333,0.653-0.333,1.175v0.633c0,0.272,0.011,0.768,0.031,1.484
			c0.004,0.253,0.015,0.417,0.03,0.485c0.018,0.07,0.039,0.12,0.064,0.151c0.026,0.03,0.07,0.056,0.131,0.077
			c0.124,0.037,0.457,0.074,0.998,0.111v0.351c-0.722-0.027-1.337-0.042-1.848-0.042C221.399,86.235,220.889,86.248,220.396,86.277z
			"/>
		<path fill="#004B72" d="M226.004,81.448V81.19c0.395-0.154,0.709-0.295,0.941-0.419c0-0.977,0-1.601,0-1.872
			c0.428-0.147,0.774-0.307,1.042-0.473l0.148,0.124c-0.046,0.339-0.095,1.091-0.148,2.254c0.329,0.004,0.526,0.006,0.591,0.006
			c0.037,0,0.248-0.004,0.633-0.013c0.215-0.005,0.375-0.014,0.48-0.024l0.044,0.045l-0.13,0.572
			c-0.258-0.004-0.497-0.005-0.714-0.005c-0.216,0-0.519,0.001-0.905,0.005l-0.032,2.508c-0.012,0.61-0.007,0.977,0.013,1.096
			c0.021,0.118,0.06,0.222,0.118,0.311c0.056,0.09,0.131,0.16,0.224,0.213c0.092,0.054,0.248,0.093,0.469,0.123
			c0.167,0,0.303-0.007,0.408-0.021c0.104-0.015,0.236-0.052,0.396-0.107l0.072,0.24c-0.192,0.153-0.378,0.31-0.56,0.475
			c-0.155,0.055-0.301,0.094-0.436,0.112c-0.135,0.019-0.291,0.028-0.469,0.028c-0.216,0-0.391-0.024-0.519-0.074
			c-0.127-0.05-0.246-0.119-0.354-0.207c-0.108-0.088-0.195-0.2-0.266-0.336c-0.07-0.135-0.116-0.349-0.137-0.641
			c0.003-0.277,0.013-0.583,0.024-0.916c0.003-0.067,0.006-0.138,0.006-0.217v-2.556h-0.252
			C226.487,81.419,226.259,81.429,226.004,81.448z"/>
		<path fill="#004B72" d="M230.743,81.208v-0.351c0.795-0.091,1.466-0.263,2.008-0.518l0.135,0.099
			c-0.033,0.875-0.049,1.545-0.049,2.008v1.12c0.019,1.069,0.031,1.646,0.037,1.732c0.003,0.206,0.026,0.357,0.066,0.448
			c0.021,0.036,0.048,0.068,0.081,0.095c0.031,0.027,0.081,0.049,0.147,0.064c0.025,0.005,0.252,0.011,0.684,0.02v0.35
			c-0.625-0.028-1.123-0.042-1.496-0.042c-0.329,0-0.867,0.014-1.613,0.042v-0.35l0.587-0.008c0.089-0.003,0.155-0.02,0.203-0.047
			c0.048-0.026,0.083-0.059,0.107-0.101c0.045-0.081,0.075-0.228,0.088-0.437c0-0.055,0.009-0.643,0.03-1.769v-1.084
			c0-0.61-0.021-0.975-0.061-1.089c-0.024-0.062-0.069-0.109-0.132-0.14C231.501,81.224,231.227,81.208,230.743,81.208z
			 M232.246,77.605c0.192,0,0.356,0.068,0.489,0.205c0.133,0.136,0.201,0.299,0.201,0.493c0,0.188-0.069,0.35-0.205,0.485
			c-0.136,0.135-0.297,0.205-0.486,0.205c-0.193,0-0.356-0.069-0.493-0.205c-0.136-0.136-0.205-0.298-0.205-0.485
			c0-0.194,0.069-0.357,0.205-0.493C231.889,77.673,232.052,77.605,232.246,77.605z"/>
		<path fill="#004B72" d="M235.235,81.46v-0.25c0.32-0.133,0.604-0.276,0.85-0.428v-0.369c0-0.533,0.033-0.91,0.1-1.13
			c0.068-0.22,0.164-0.415,0.286-0.588c0.185-0.255,0.477-0.579,0.875-0.973c0.268-0.259,0.465-0.421,0.591-0.487
			c0.169-0.087,0.366-0.129,0.591-0.129c0.16,0,0.323,0.026,0.493,0.079l0.024,1.022l-0.141,0.057
			c-0.129-0.107-0.253-0.185-0.38-0.236c-0.125-0.049-0.271-0.073-0.44-0.073c-0.222,0-0.402,0.045-0.542,0.135
			c-0.139,0.09-0.242,0.22-0.304,0.388c-0.063,0.17-0.095,0.511-0.095,1.031v1.273h0.653c0.327,0,0.649-0.016,0.965-0.042
			l0.062,0.037l-0.124,0.641c-0.356-0.02-0.62-0.024-0.788-0.024c-0.172,0-0.43,0.007-0.77,0.024v2.199
			c0,0.273,0.009,0.768,0.029,1.483c0.004,0.256,0.015,0.417,0.032,0.487c0.017,0.069,0.037,0.12,0.063,0.15
			c0.028,0.031,0.072,0.055,0.133,0.077c0.123,0.037,0.456,0.074,0.997,0.11v0.351c-0.957-0.028-1.54-0.042-1.749-0.042
			c-0.19,0-0.718,0.014-1.584,0.042v-0.351l0.589-0.007c0.086-0.003,0.153-0.02,0.201-0.047c0.048-0.026,0.085-0.059,0.109-0.101
			c0.046-0.081,0.074-0.228,0.087-0.437c0-0.053,0.01-0.641,0.031-1.765v-2.152L235.235,81.46z"/>
		<path fill="#004B72" d="M239.876,81.208v-0.351c0.795-0.091,1.466-0.263,2.008-0.518l0.135,0.099
			c-0.033,0.875-0.05,1.545-0.05,2.008v1.12c0.019,1.069,0.032,1.646,0.037,1.732c0.003,0.206,0.026,0.357,0.067,0.448
			c0.021,0.036,0.047,0.068,0.081,0.095c0.032,0.027,0.081,0.049,0.148,0.064c0.024,0.005,0.251,0.011,0.683,0.02v0.35
			c-0.625-0.028-1.123-0.042-1.496-0.042c-0.328,0-0.867,0.014-1.613,0.042v-0.35l0.587-0.008c0.088-0.003,0.155-0.02,0.203-0.047
			c0.047-0.026,0.083-0.059,0.107-0.101c0.046-0.081,0.076-0.228,0.088-0.437c0-0.055,0.009-0.643,0.03-1.769v-1.084
			c0-0.61-0.021-0.975-0.062-1.089c-0.024-0.062-0.068-0.109-0.131-0.14C240.635,81.224,240.36,81.208,239.876,81.208z
			 M241.379,77.605c0.192,0,0.356,0.068,0.489,0.205c0.133,0.136,0.201,0.299,0.201,0.493c0,0.188-0.068,0.35-0.205,0.485
			c-0.136,0.135-0.297,0.205-0.485,0.205c-0.194,0-0.356-0.069-0.493-0.205c-0.136-0.136-0.204-0.298-0.204-0.485
			c0-0.194,0.068-0.357,0.204-0.493C241.022,77.673,241.185,77.605,241.379,77.605z"/>
		<path fill="#004B72" d="M249.343,85.322l-0.197,0.444c-0.283,0.175-0.489,0.293-0.621,0.352c-0.194,0.087-0.414,0.159-0.661,0.218
			c-0.249,0.06-0.51,0.091-0.787,0.091c-0.543,0-1.032-0.112-1.471-0.338c-0.44-0.228-0.781-0.565-1.027-1.014
			c-0.244-0.45-0.365-0.977-0.365-1.581c0-0.471,0.065-0.896,0.194-1.277c0.131-0.38,0.277-0.659,0.439-0.841
			c0.121-0.132,0.305-0.282,0.554-0.452c0.251-0.171,0.5-0.306,0.746-0.403c0.324-0.135,0.676-0.205,1.052-0.205
			c0.461,0,0.876,0.105,1.248,0.315c0.372,0.21,0.645,0.495,0.816,0.855c0.173,0.362,0.259,0.771,0.259,1.226
			c0,0.114-0.01,0.254-0.032,0.419c-0.293,0.057-0.56,0.095-0.792,0.111c-0.443,0.031-0.887,0.05-1.329,0.05h-1.975
			c0.009,0.587,0.109,1.064,0.305,1.429c0.195,0.363,0.465,0.634,0.808,0.807c0.341,0.172,0.699,0.258,1.068,0.258
			c0.25,0,0.5-0.04,0.748-0.121s0.556-0.23,0.92-0.447L249.343,85.322z M245.396,82.804c0.114,0.013,0.333,0.023,0.653,0.037
			c0.613,0.02,1.033,0.03,1.262,0.03c0.547,0,0.906-0.011,1.079-0.03c0.004-0.099,0.005-0.175,0.005-0.228
			c0-0.65-0.13-1.126-0.394-1.429c-0.262-0.306-0.612-0.457-1.052-0.457c-0.465,0-0.838,0.167-1.121,0.499
			S245.399,82.085,245.396,82.804z"/>
		<path fill="#004B72" d="M254.754,77.912v-0.35c0.456-0.05,0.841-0.109,1.154-0.176c0.315-0.068,0.62-0.151,0.919-0.249
			l0.081,0.055c-0.017,0.349-0.035,1.022-0.056,2.021l-0.024,0.985v3.855c0,0.419,0.007,0.781,0.022,1.086
			c0.014,0.306,0.039,0.489,0.076,0.547c0.037,0.06,0.098,0.107,0.185,0.145c0.086,0.037,0.343,0.074,0.77,0.111v0.332
			c-0.502-0.028-0.854-0.043-1.061-0.043c-0.175,0-0.539,0.015-1.083,0.043c0.012-0.281,0.022-0.665,0.029-1.145
			c-0.164,0.12-0.383,0.298-0.661,0.537c-0.277,0.237-0.493,0.431-0.65,0.582c-0.328,0.085-0.618,0.125-0.87,0.125
			c-0.462,0-0.889-0.114-1.281-0.345c-0.389-0.23-0.69-0.563-0.901-1.001c-0.213-0.437-0.318-0.928-0.318-1.476
			c0-0.409,0.065-0.8,0.195-1.166c0.128-0.368,0.292-0.653,0.489-0.854c0.111-0.114,0.362-0.289,0.757-0.522
			c0.395-0.234,0.714-0.405,0.959-0.509c0.243-0.104,0.51-0.156,0.797-0.156c0.259,0,0.512,0.031,0.76,0.095
			c0.249,0.062,0.489,0.162,0.723,0.29v-1.619c0-0.571-0.023-0.919-0.074-1.04c-0.016-0.045-0.045-0.077-0.091-0.098
			C255.521,77.938,255.238,77.918,254.754,77.912z M255.77,81.786c-0.279-0.309-0.572-0.532-0.876-0.674
			c-0.307-0.141-0.608-0.211-0.903-0.211c-0.335,0-0.648,0.087-0.93,0.259c-0.283,0.17-0.5,0.431-0.65,0.779
			c-0.149,0.351-0.225,0.768-0.225,1.258c0,0.748,0.187,1.334,0.562,1.757c0.373,0.423,0.822,0.634,1.348,0.634
			c0.275,0,0.521-0.057,0.738-0.172c0.216-0.114,0.408-0.281,0.573-0.504c0.167-0.222,0.271-0.47,0.316-0.738
			c0.033-0.18,0.049-0.625,0.049-1.332V81.786z"/>
		<path fill="#004B72" d="M263.025,77.926v-0.396c0.825,0.03,1.478,0.044,1.958,0.044c0.32,0,0.66-0.005,1.022-0.014l0.966-0.035
			c0.107-0.004,0.206-0.007,0.296-0.007c0.652,0,1.167,0.072,1.54,0.216c0.373,0.142,0.665,0.37,0.874,0.687
			c0.21,0.313,0.315,0.672,0.315,1.075c0,0.359-0.088,0.72-0.263,1.075c-0.172,0.357-0.428,0.659-0.76,0.908
			c-0.333,0.249-0.68,0.43-1.042,0.535c-0.245,0.073-0.526,0.11-0.837,0.11c-0.262,0-0.545-0.028-0.849-0.088l-0.129-0.456
			c0.364,0.087,0.654,0.133,0.862,0.133c0.308,0,0.6-0.076,0.876-0.226c0.278-0.151,0.493-0.377,0.648-0.681
			c0.153-0.303,0.23-0.636,0.23-1.002c0-0.355-0.074-0.672-0.226-0.959c-0.149-0.284-0.376-0.501-0.683-0.651
			c-0.307-0.147-0.677-0.222-1.112-0.222c-0.391,0-0.809,0.071-1.256,0.21c-0.037,0.433-0.055,1.113-0.055,2.043v3.103
			c0,0.556,0.005,1.102,0.019,1.631c0.012,0.389,0.042,0.621,0.09,0.695s0.124,0.128,0.227,0.163
			c0.106,0.034,0.401,0.056,0.891,0.063v0.395c-0.761-0.028-1.318-0.042-1.674-0.042c-0.139,0-0.781,0.014-1.928,0.042v-0.395
			c0.482-0.009,0.775-0.029,0.882-0.063c0.105-0.035,0.18-0.084,0.22-0.146c0.049-0.081,0.081-0.28,0.093-0.597
			c0.005-0.086,0.014-0.669,0.03-1.746v-2.85c0-0.558-0.005-1.105-0.019-1.637c-0.012-0.391-0.042-0.62-0.09-0.692
			c-0.048-0.072-0.124-0.126-0.229-0.161C263.81,77.955,263.512,77.934,263.025,77.926z"/>
		<path fill="#004B72" d="M278.227,85.926v0.351c-0.538-0.028-0.944-0.042-1.219-0.042c-0.307,0-0.614,0.014-0.924,0.042
			c0.024-0.333,0.044-0.706,0.055-1.121c-0.245,0.198-0.54,0.468-0.881,0.808c-0.078,0.078-0.154,0.134-0.229,0.171
			c-0.177,0.098-0.354,0.17-0.529,0.21c-0.175,0.045-0.388,0.065-0.634,0.065c-0.331,0-0.61-0.045-0.834-0.135
			s-0.415-0.227-0.576-0.411c-0.12-0.134-0.21-0.312-0.276-0.528c-0.063-0.215-0.095-0.476-0.095-0.777
			c0-0.143,0.006-0.281,0.015-0.405c0.012-0.13,0.017-0.253,0.017-0.377v-1.054c0-0.105-0.005-0.377-0.019-0.807
			c-0.009-0.271-0.027-0.447-0.056-0.53c-0.018-0.04-0.043-0.073-0.079-0.098c-0.061-0.041-0.169-0.062-0.328-0.062
			c-0.225,0-0.402-0.001-0.534-0.006v-0.352c0.881-0.099,1.521-0.257,1.921-0.474c0.065-0.037,0.116-0.056,0.153-0.056
			c0.028,0,0.055,0.012,0.07,0.032c0.02,0.019,0.028,0.052,0.028,0.092c0,0.034-0.002,0.074-0.007,0.125
			c-0.018,0.131-0.03,0.384-0.044,0.759c-0.023,0.685-0.037,1.145-0.037,1.38v1.2c0,0.501,0.033,0.852,0.102,1.056
			c0.067,0.204,0.199,0.364,0.396,0.487c0.195,0.121,0.436,0.18,0.724,0.18c0.197,0,0.393-0.032,0.586-0.101
			c0.196-0.067,0.37-0.167,0.526-0.292c0.115-0.095,0.233-0.222,0.354-0.382c0.09-0.12,0.149-0.211,0.179-0.276
			c0.027-0.062,0.046-0.157,0.056-0.281c0.021-0.359,0.031-0.72,0.031-1.075v-0.516c0-0.107-0.007-0.377-0.019-0.809
			c-0.009-0.271-0.026-0.446-0.057-0.529c-0.018-0.04-0.044-0.074-0.081-0.099c-0.06-0.04-0.169-0.061-0.323-0.061
			c-0.228,0-0.405-0.002-0.539-0.005v-0.354c0.882-0.098,1.521-0.257,1.917-0.472c0.064-0.037,0.117-0.057,0.153-0.057
			c0.029,0,0.054,0.011,0.069,0.03c0.02,0.019,0.028,0.053,0.028,0.093c0,0.033-0.002,0.074-0.005,0.125
			c-0.015,0.131-0.024,0.393-0.042,0.783c-0.021,0.667-0.032,1.119-0.032,1.354v0.843l0.013,0.857
			c0.016,0.496,0.024,0.788,0.029,0.875c0.004,0.204,0.025,0.355,0.065,0.448c0.021,0.037,0.05,0.068,0.083,0.095
			c0.029,0.026,0.081,0.05,0.145,0.063C277.572,85.912,277.8,85.918,278.227,85.926z"/>
		<path fill="#004B72" d="M279.978,86.301c0.05-0.518,0.078-0.845,0.081-0.979c0.023-0.89,0.037-1.413,0.037-1.569v-2.738
			c0-0.685-0.012-1.394-0.031-2.124c-0.018-0.49-0.039-0.767-0.067-0.823c-0.021-0.042-0.055-0.069-0.1-0.086
			c-0.061-0.03-0.347-0.044-0.854-0.044v-0.363c0.927-0.116,1.571-0.258,1.933-0.431c0.057-0.024,0.095-0.037,0.123-0.037
			c0.03,0,0.055,0.009,0.068,0.026c0.018,0.019,0.025,0.046,0.025,0.077c0,0.026-0.004,0.07-0.015,0.124l-0.007,0.202
			c-0.019,0.735-0.031,1.361-0.037,1.876l-0.012,0.961v1.217l0.85-0.832c0.11-0.093,0.292-0.187,0.547-0.276
			c0.256-0.093,0.526-0.136,0.813-0.136c0.452,0,0.852,0.106,1.2,0.318c0.35,0.21,0.617,0.509,0.804,0.895
			c0.187,0.388,0.282,0.812,0.282,1.282c0,0.361-0.055,0.703-0.162,1.029c-0.104,0.323-0.243,0.615-0.411,0.868
			c-0.124,0.193-0.229,0.325-0.315,0.396l-0.899,0.647c-0.364,0.271-0.649,0.443-0.855,0.519c-0.206,0.078-0.468,0.114-0.788,0.114
			c-0.274,0-0.53-0.036-0.764-0.11c-0.234-0.074-0.482-0.204-0.746-0.387l-0.498,0.468L279.978,86.301z M281.123,82.329v2.308
			c0,0.207,0.013,0.338,0.036,0.396c0.021,0.058,0.091,0.134,0.205,0.229c0.173,0.143,0.373,0.259,0.601,0.345
			c0.23,0.088,0.47,0.13,0.725,0.13c0.597,0,1.055-0.229,1.373-0.69c0.32-0.46,0.48-1.028,0.48-1.705
			c0-0.48-0.076-0.884-0.229-1.208c-0.151-0.325-0.36-0.568-0.628-0.731c-0.266-0.163-0.566-0.244-0.899-0.244
			c-0.389,0-0.737,0.111-1.047,0.335C281.432,81.72,281.228,81.997,281.123,82.329z"/>
		<path fill="#004B72" d="M287.102,86.277v-0.351l0.58-0.007c0.09-0.003,0.158-0.02,0.206-0.047s0.083-0.059,0.107-0.101
			c0.046-0.081,0.072-0.228,0.081-0.437c0.004-0.053,0.02-0.643,0.042-1.767v-2.554c0-0.685-0.009-1.394-0.028-2.124
			c-0.019-0.49-0.038-0.767-0.068-0.823c-0.021-0.042-0.055-0.069-0.099-0.086c-0.062-0.03-0.347-0.044-0.854-0.044v-0.363
			c0.927-0.116,1.572-0.258,1.934-0.431c0.053-0.024,0.093-0.037,0.123-0.037s0.051,0.009,0.066,0.026
			c0.018,0.018,0.025,0.046,0.025,0.077c0,0.028-0.006,0.069-0.015,0.124l-0.005,0.204c-0.021,0.733-0.033,1.36-0.037,1.875
			l-0.013,0.961v3.194c0.018,1.066,0.025,1.644,0.028,1.729c0.007,0.207,0.03,0.356,0.078,0.449c0.016,0.036,0.04,0.068,0.071,0.097
			c0.034,0.024,0.085,0.047,0.148,0.062c0.029,0.005,0.259,0.012,0.689,0.02v0.351c-0.558-0.028-1.049-0.043-1.471-0.043
			C288.287,86.235,287.758,86.248,287.102,86.277z"/>
		<path fill="#004B72" d="M291.365,81.208v-0.351c0.797-0.091,1.466-0.263,2.008-0.518l0.136,0.099
			c-0.034,0.875-0.05,1.545-0.05,2.008v1.12c0.02,1.069,0.032,1.646,0.037,1.732c0.004,0.206,0.024,0.357,0.066,0.448
			c0.02,0.036,0.048,0.068,0.081,0.095c0.032,0.027,0.083,0.049,0.146,0.064c0.024,0.005,0.253,0.011,0.687,0.02v0.35
			c-0.625-0.028-1.125-0.042-1.498-0.042c-0.329,0-0.865,0.014-1.613,0.042v-0.35l0.59-0.008c0.086-0.003,0.152-0.02,0.2-0.047
			s0.084-0.059,0.109-0.101c0.046-0.081,0.073-0.228,0.086-0.437c0-0.055,0.011-0.643,0.031-1.769v-1.084
			c0-0.61-0.021-0.975-0.062-1.089c-0.022-0.062-0.068-0.109-0.132-0.14C292.123,81.224,291.849,81.208,291.365,81.208z
			 M292.868,77.605c0.193,0,0.356,0.068,0.489,0.205c0.132,0.136,0.2,0.299,0.2,0.493c0,0.188-0.066,0.35-0.202,0.485
			c-0.137,0.135-0.299,0.205-0.487,0.205c-0.194,0-0.357-0.069-0.493-0.205c-0.137-0.136-0.204-0.298-0.204-0.485
			c0-0.194,0.067-0.357,0.204-0.493C292.511,77.673,292.674,77.605,292.868,77.605z"/>
		<path fill="#004B72" d="M300.735,85.574l-0.244,0.414c-0.283,0.15-0.563,0.262-0.843,0.332c-0.276,0.068-0.588,0.104-0.938,0.104
			c-0.86,0-1.55-0.258-2.059-0.779c-0.513-0.519-0.77-1.233-0.77-2.142c0-0.482,0.069-0.899,0.207-1.255
			c0.138-0.356,0.308-0.63,0.507-0.823c0.136-0.136,0.396-0.312,0.772-0.528c0.38-0.214,0.646-0.355,0.799-0.415
			c0.278-0.119,0.612-0.18,1.003-0.18c0.37,0,0.701,0.039,0.996,0.118c0.188,0.05,0.379,0.131,0.566,0.246
			c-0.047,0.315-0.08,0.553-0.098,0.717c-0.021,0.163-0.047,0.457-0.078,0.883h-0.354c-0.022-0.397-0.049-0.647-0.074-0.746
			c-0.016-0.06-0.053-0.116-0.11-0.166c-0.147-0.116-0.338-0.214-0.57-0.298c-0.234-0.086-0.487-0.128-0.764-0.128
			c-0.345,0-0.644,0.072-0.897,0.212c-0.253,0.143-0.448,0.368-0.59,0.676c-0.137,0.309-0.207,0.69-0.207,1.147
			c0,0.558,0.097,1.064,0.295,1.517c0.197,0.452,0.465,0.781,0.805,0.99c0.338,0.207,0.718,0.312,1.137,0.312
			c0.209,0,0.414-0.024,0.614-0.078c0.198-0.051,0.454-0.147,0.768-0.291L300.735,85.574z"/>
		<path fill="#004B72" d="M305.15,86.277v-0.419c0.324-0.003,0.528-0.018,0.607-0.04c0.081-0.021,0.154-0.065,0.222-0.131
			c0.068-0.062,0.167-0.229,0.294-0.496c0.074-0.151,0.342-0.729,0.801-1.729l1.543-3.472c0.169-0.384,0.528-1.232,1.079-2.55h0.395
			l2.635,6.175c0.426,1.002,0.711,1.633,0.848,1.885c0.081,0.144,0.166,0.24,0.257,0.282c0.094,0.047,0.301,0.07,0.625,0.073v0.42
			c-0.641-0.041-1.089-0.062-1.345-0.062l-1.984,0.062v-0.417c0.463-0.007,0.739-0.022,0.839-0.042
			c0.097-0.021,0.166-0.053,0.201-0.092c0.035-0.038,0.053-0.088,0.053-0.143c0-0.093-0.028-0.207-0.086-0.354l-0.757-1.886h-3.567
			l-0.669,1.585c-0.119,0.282-0.179,0.491-0.179,0.62c0,0.058,0.018,0.105,0.051,0.143c0.046,0.053,0.116,0.09,0.207,0.11
			c0.153,0.031,0.419,0.052,0.801,0.055v0.42c-0.693-0.037-1.214-0.056-1.557-0.056C306.061,86.223,305.624,86.24,305.15,86.277z
			 M308.019,82.823h3.106l-1.534-3.708L308.019,82.823z"/>
		<path fill="#004B72" d="M320.729,85.574l-0.246,0.414c-0.282,0.15-0.563,0.262-0.842,0.332c-0.276,0.068-0.589,0.104-0.939,0.104
			c-0.862,0-1.549-0.258-2.059-0.779c-0.511-0.519-0.768-1.233-0.768-2.142c0-0.482,0.068-0.899,0.206-1.255
			c0.138-0.356,0.308-0.63,0.509-0.823c0.134-0.136,0.393-0.312,0.771-0.528c0.38-0.214,0.647-0.355,0.799-0.415
			c0.28-0.119,0.614-0.18,1.003-0.18c0.37,0,0.702,0.039,0.998,0.118c0.188,0.05,0.378,0.131,0.566,0.246
			c-0.048,0.315-0.081,0.553-0.102,0.717c-0.019,0.163-0.046,0.457-0.078,0.883h-0.35c-0.024-0.397-0.05-0.647-0.074-0.746
			c-0.02-0.06-0.057-0.116-0.11-0.166c-0.15-0.116-0.34-0.214-0.572-0.298c-0.232-0.086-0.485-0.128-0.764-0.128
			c-0.345,0-0.645,0.072-0.897,0.212c-0.252,0.143-0.447,0.368-0.588,0.676c-0.139,0.309-0.209,0.69-0.209,1.147
			c0,0.558,0.099,1.064,0.295,1.517c0.197,0.452,0.467,0.781,0.807,0.99c0.338,0.207,0.716,0.312,1.135,0.312
			c0.207,0,0.413-0.024,0.614-0.078c0.198-0.051,0.454-0.147,0.767-0.291L320.729,85.574z"/>
		<path fill="#004B72" d="M326.959,85.574l-0.246,0.414c-0.282,0.15-0.565,0.262-0.842,0.332c-0.277,0.068-0.591,0.104-0.939,0.104
			c-0.862,0-1.549-0.258-2.061-0.779c-0.511-0.519-0.766-1.233-0.766-2.142c0-0.482,0.068-0.899,0.206-1.255
			c0.138-0.356,0.306-0.63,0.509-0.823c0.134-0.136,0.392-0.312,0.771-0.528c0.38-0.214,0.646-0.355,0.799-0.415
			c0.279-0.119,0.614-0.18,1.003-0.18c0.369,0,0.702,0.039,0.998,0.118c0.188,0.05,0.376,0.131,0.566,0.246
			c-0.048,0.315-0.083,0.553-0.102,0.717c-0.019,0.163-0.046,0.457-0.078,0.883h-0.35c-0.025-0.397-0.052-0.647-0.074-0.746
			c-0.02-0.06-0.057-0.116-0.112-0.166c-0.148-0.116-0.338-0.214-0.57-0.298c-0.234-0.086-0.486-0.128-0.764-0.128
			c-0.345,0-0.646,0.072-0.897,0.212c-0.252,0.143-0.451,0.368-0.588,0.676c-0.141,0.309-0.21,0.69-0.21,1.147
			c0,0.558,0.099,1.064,0.296,1.517s0.465,0.781,0.803,0.99c0.341,0.207,0.72,0.312,1.139,0.312c0.207,0,0.413-0.024,0.612-0.078
			c0.2-0.051,0.456-0.147,0.767-0.291L326.959,85.574z"/>
		<path fill="#004B72" d="M328.261,83.443c0-0.921,0.291-1.671,0.877-2.254c0.586-0.582,1.335-0.874,2.252-0.874
			c0.862,0,1.564,0.271,2.106,0.814c0.544,0.542,0.812,1.242,0.812,2.102c0,0.6-0.141,1.149-0.418,1.646
			c-0.282,0.497-0.674,0.886-1.183,1.169c-0.509,0.28-1.07,0.422-1.683,0.422c-0.475,0-0.88-0.08-1.211-0.24
			c-0.329-0.16-0.598-0.361-0.802-0.604c-0.207-0.244-0.363-0.49-0.47-0.746C328.354,84.429,328.261,83.95,328.261,83.443z
			 M329.424,82.985c0,0.507,0.085,1.021,0.252,1.542c0.169,0.521,0.412,0.904,0.73,1.144c0.318,0.242,0.665,0.361,1.036,0.361
			c0.478,0,0.876-0.188,1.195-0.567c0.32-0.379,0.48-0.96,0.48-1.746c0-0.653-0.094-1.218-0.287-1.692
			c-0.19-0.474-0.432-0.81-0.729-1.005c-0.298-0.195-0.623-0.293-0.98-0.293c-0.507,0-0.917,0.184-1.229,0.55
			C329.581,81.644,329.424,82.212,329.424,82.985z"/>
		<path fill="#004B72" d="M342.645,85.926v0.351c-0.54-0.028-0.944-0.042-1.22-0.042c-0.305,0-0.612,0.014-0.923,0.042
			c0.023-0.333,0.043-0.706,0.055-1.121c-0.244,0.198-0.54,0.468-0.88,0.808c-0.079,0.078-0.154,0.134-0.229,0.171
			c-0.176,0.098-0.354,0.17-0.529,0.21c-0.177,0.045-0.39,0.065-0.634,0.065c-0.333,0-0.612-0.045-0.836-0.135
			c-0.223-0.091-0.415-0.227-0.575-0.411c-0.12-0.134-0.211-0.312-0.274-0.528c-0.065-0.215-0.097-0.476-0.097-0.777
			c0-0.143,0.005-0.281,0.018-0.405c0.011-0.13,0.016-0.253,0.016-0.377v-1.054c0-0.105-0.007-0.377-0.019-0.807
			c-0.011-0.271-0.026-0.447-0.057-0.53c-0.018-0.04-0.044-0.073-0.081-0.098c-0.062-0.041-0.17-0.062-0.325-0.062
			c-0.227,0-0.403-0.001-0.537-0.006v-0.352c0.884-0.099,1.524-0.257,1.922-0.474c0.065-0.037,0.118-0.056,0.155-0.056
			c0.028,0,0.053,0.012,0.07,0.032c0.02,0.019,0.028,0.052,0.028,0.092c0,0.034-0.004,0.074-0.008,0.125
			c-0.018,0.131-0.029,0.384-0.042,0.759c-0.024,0.685-0.037,1.145-0.037,1.38v1.2c0,0.501,0.034,0.852,0.099,1.056
			c0.069,0.204,0.201,0.364,0.396,0.487c0.195,0.121,0.435,0.18,0.723,0.18c0.197,0,0.396-0.032,0.588-0.101
			c0.195-0.067,0.372-0.167,0.528-0.292c0.114-0.095,0.232-0.222,0.35-0.382c0.094-0.12,0.151-0.211,0.18-0.276
			c0.028-0.064,0.048-0.157,0.056-0.281c0.02-0.359,0.03-0.72,0.03-1.075v-0.516c0-0.107-0.006-0.377-0.018-0.809
			c-0.011-0.271-0.028-0.446-0.057-0.529c-0.016-0.04-0.042-0.074-0.079-0.099c-0.06-0.04-0.169-0.061-0.327-0.061
			c-0.226,0-0.403-0.002-0.535-0.005v-0.354c0.882-0.098,1.521-0.257,1.916-0.472c0.065-0.037,0.116-0.057,0.153-0.057
			c0.028,0,0.053,0.011,0.07,0.03c0.02,0.019,0.028,0.053,0.028,0.093c0,0.033-0.002,0.074-0.007,0.125
			c-0.013,0.131-0.023,0.393-0.039,0.783c-0.022,0.667-0.035,1.119-0.035,1.354v0.843l0.013,0.857
			c0.018,0.496,0.026,0.788,0.031,0.875c0.004,0.204,0.026,0.355,0.067,0.448c0.019,0.037,0.047,0.068,0.079,0.095
			c0.033,0.026,0.08,0.05,0.147,0.063C341.988,85.912,342.216,85.918,342.645,85.926z"/>
		<path fill="#004B72" d="M343.768,86.277v-0.351l0.586-0.007c0.09-0.003,0.156-0.02,0.204-0.047s0.083-0.059,0.109-0.101
			c0.044-0.081,0.073-0.228,0.086-0.437c0-0.055,0.011-0.643,0.03-1.769v-0.732c0-0.328-0.006-0.683-0.02-1.059
			c-0.013-0.243-0.032-0.388-0.057-0.432c-0.028-0.046-0.073-0.079-0.139-0.102c-0.065-0.023-0.333-0.032-0.801-0.028v-0.351
			c0.829-0.116,1.435-0.266,1.816-0.45c0.082-0.04,0.139-0.062,0.169-0.062c0.026,0,0.051,0.012,0.064,0.031
			c0.02,0.02,0.024,0.052,0.024,0.093c0,0.029-0.001,0.061-0.005,0.098c-0.013,0.147-0.024,0.462-0.037,0.937l1.145-0.979
			c0.337-0.123,0.657-0.186,0.956-0.186c0.332,0,0.647,0.067,0.946,0.204c0.298,0.134,0.521,0.306,0.671,0.511
			s0.25,0.464,0.299,0.776c0.028,0.185,0.042,0.7,0.042,1.545v1.091c0,0.533,0.017,0.897,0.044,1.089
			c0.021,0.124,0.055,0.21,0.096,0.256c0.044,0.047,0.11,0.077,0.2,0.09l0.658,0.019v0.351c-0.401-0.028-0.735-0.042-1.003-0.042
			c-0.23,0-0.612,0.014-1.146,0.042c0.058-1.014,0.088-1.654,0.088-1.922v-1.034c0-0.645-0.024-1.066-0.074-1.269
			c-0.07-0.275-0.229-0.497-0.475-0.665c-0.245-0.168-0.544-0.25-0.893-0.25c-0.308,0-0.588,0.071-0.845,0.217
			c-0.253,0.146-0.437,0.314-0.544,0.506c-0.109,0.192-0.164,0.512-0.164,0.965v0.743c0.02,1.069,0.03,1.646,0.03,1.732
			c0.009,0.206,0.033,0.357,0.075,0.448c0.016,0.036,0.041,0.068,0.074,0.095c0.033,0.027,0.084,0.049,0.154,0.064
			c0.023,0.005,0.252,0.011,0.682,0.019v0.351c-0.5-0.028-0.954-0.042-1.36-0.042C345.11,86.235,344.547,86.248,343.768,86.277z"/>
		<path fill="#004B72" d="M351.85,81.448V81.19c0.396-0.154,0.709-0.295,0.943-0.419c0-0.977,0-1.601,0-1.872
			c0.43-0.147,0.774-0.307,1.04-0.473l0.147,0.124c-0.044,0.339-0.094,1.091-0.147,2.254c0.329,0.004,0.526,0.006,0.592,0.006
			c0.036,0,0.248-0.004,0.635-0.013c0.211-0.005,0.371-0.014,0.479-0.024l0.042,0.045l-0.128,0.572
			c-0.259-0.004-0.496-0.005-0.715-0.005c-0.218,0-0.519,0.001-0.906,0.005l-0.029,2.508c-0.013,0.61-0.009,0.977,0.012,1.096
			c0.02,0.118,0.061,0.222,0.116,0.311c0.059,0.09,0.132,0.16,0.224,0.213c0.095,0.054,0.25,0.093,0.47,0.123
			c0.167,0,0.305-0.007,0.408-0.021c0.103-0.014,0.236-0.052,0.395-0.107l0.074,0.24c-0.194,0.153-0.381,0.31-0.56,0.475
			c-0.157,0.055-0.303,0.094-0.436,0.112c-0.135,0.019-0.292,0.028-0.47,0.028c-0.218,0-0.391-0.024-0.521-0.074
			c-0.129-0.05-0.245-0.119-0.352-0.207c-0.107-0.088-0.197-0.2-0.268-0.336c-0.07-0.135-0.116-0.349-0.138-0.641
			c0.006-0.277,0.015-0.583,0.024-0.916c0.006-0.067,0.008-0.138,0.008-0.217v-2.556h-0.254
			C352.336,81.419,352.105,81.429,351.85,81.448z"/>
		<path fill="#004B72" d="M357.648,82.059l-0.324-0.088c0.004-0.094,0.006-0.222,0.006-0.39c0-0.17-0.002-0.311-0.006-0.411
			c0.521-0.343,0.948-0.573,1.283-0.691c0.255-0.087,0.54-0.131,0.856-0.131c0.469,0,0.864,0.089,1.183,0.266
			c0.32,0.177,0.56,0.431,0.717,0.757c0.105,0.231,0.161,0.545,0.161,0.944l-0.031,1.126v1.835c0,0.197,0.016,0.34,0.049,0.427
			c0.025,0.061,0.063,0.105,0.118,0.135c0.041,0.024,0.129,0.041,0.259,0.05l0.399,0.037v0.351
			c-0.336-0.028-0.632-0.043-0.887-0.043c-0.245,0-0.575,0.015-0.985,0.043l0.031-1.084c-0.839,0.634-1.335,0.991-1.49,1.07
			c-0.156,0.081-0.354,0.121-0.591,0.121c-0.498,0-0.884-0.134-1.162-0.397c-0.277-0.266-0.415-0.618-0.415-1.056
			c0-0.282,0.05-0.542,0.145-0.775c0.097-0.234,0.213-0.422,0.35-0.558c0.135-0.138,0.273-0.24,0.41-0.305
			c0.239-0.111,0.625-0.231,1.161-0.357c0.537-0.129,1.068-0.222,1.595-0.281c0.004-0.393-0.044-0.695-0.143-0.913
			c-0.099-0.219-0.264-0.395-0.498-0.538c-0.233-0.138-0.521-0.208-0.856-0.208c-0.243,0-0.454,0.033-0.638,0.098
			c-0.183,0.066-0.295,0.122-0.336,0.168l-0.11,0.222C357.783,81.726,357.701,81.918,357.648,82.059z M360.476,83.026
			c-0.534,0.092-0.992,0.191-1.368,0.303c-0.379,0.11-0.646,0.225-0.801,0.345c-0.096,0.068-0.178,0.174-0.247,0.314
			c-0.105,0.206-0.16,0.432-0.16,0.685c0,0.303,0.083,0.542,0.252,0.711c0.168,0.17,0.403,0.255,0.702,0.255
			c0.274,0,0.546-0.08,0.814-0.238c0.27-0.157,0.539-0.396,0.807-0.711L360.476,83.026L360.476,83.026z"/>
		<path fill="#004B72" d="M363.422,86.277v-0.351l0.59-0.007c0.086-0.003,0.152-0.02,0.2-0.047c0.049-0.026,0.086-0.059,0.109-0.101
			c0.046-0.081,0.073-0.228,0.088-0.437c0-0.055,0.011-0.643,0.029-1.769v-0.732c0-0.328-0.007-0.683-0.019-1.059
			c-0.013-0.243-0.031-0.388-0.058-0.432c-0.024-0.046-0.074-0.079-0.138-0.102c-0.064-0.023-0.332-0.032-0.802-0.028v-0.351
			c0.829-0.116,1.438-0.266,1.819-0.45c0.081-0.04,0.136-0.062,0.165-0.062c0.03,0,0.054,0.012,0.069,0.031s0.024,0.052,0.024,0.093
			c0,0.029-0.005,0.061-0.009,0.098c-0.013,0.147-0.023,0.462-0.037,0.937l1.146-0.979c0.336-0.123,0.654-0.186,0.956-0.186
			c0.332,0,0.648,0.067,0.946,0.204c0.297,0.135,0.521,0.306,0.669,0.511c0.152,0.205,0.25,0.464,0.299,0.776
			c0.028,0.185,0.046,0.7,0.046,1.545v1.091c0,0.533,0.014,0.897,0.042,1.089c0.02,0.124,0.053,0.21,0.094,0.256
			c0.044,0.047,0.11,0.077,0.202,0.09l0.658,0.019v0.351c-0.403-0.028-0.736-0.042-1.005-0.042c-0.23,0-0.612,0.014-1.145,0.042
			c0.056-1.014,0.086-1.654,0.086-1.922v-1.034c0-0.645-0.022-1.066-0.074-1.269c-0.07-0.275-0.227-0.497-0.471-0.665
			c-0.247-0.168-0.546-0.25-0.895-0.25c-0.308,0-0.59,0.071-0.845,0.217c-0.253,0.146-0.435,0.314-0.544,0.506
			c-0.108,0.192-0.165,0.512-0.165,0.965v0.743c0.021,1.069,0.031,1.646,0.031,1.732c0.009,0.206,0.032,0.357,0.074,0.448
			c0.018,0.036,0.041,0.068,0.074,0.095c0.033,0.027,0.085,0.049,0.154,0.064c0.025,0.005,0.252,0.011,0.685,0.019v0.351
			c-0.503-0.028-0.957-0.042-1.363-0.042C364.765,86.235,364.201,86.248,363.422,86.277z"/>
		<path fill="#004B72" d="M371.506,81.448V81.19c0.395-0.154,0.707-0.295,0.941-0.419c0-0.977,0-1.601,0-1.872
			c0.428-0.147,0.772-0.307,1.04-0.473l0.147,0.124c-0.045,0.339-0.093,1.091-0.147,2.254c0.327,0.004,0.524,0.006,0.591,0.006
			c0.037,0,0.249-0.004,0.634-0.013c0.213-0.005,0.373-0.014,0.48-0.024l0.044,0.045l-0.13,0.572
			c-0.259-0.004-0.498-0.005-0.715-0.005c-0.218,0-0.519,0.001-0.906,0.005l-0.029,2.508c-0.015,0.61-0.011,0.977,0.012,1.096
			c0.02,0.118,0.06,0.222,0.116,0.311c0.059,0.09,0.132,0.16,0.226,0.213c0.091,0.054,0.248,0.093,0.47,0.123
			c0.169,0,0.305-0.007,0.406-0.021c0.105-0.015,0.239-0.052,0.396-0.107l0.073,0.24c-0.191,0.153-0.378,0.31-0.56,0.475
			c-0.156,0.055-0.301,0.094-0.437,0.112c-0.134,0.019-0.29,0.028-0.468,0.028c-0.217,0-0.393-0.024-0.52-0.074
			c-0.13-0.05-0.248-0.119-0.354-0.207c-0.107-0.088-0.197-0.2-0.266-0.336c-0.072-0.135-0.119-0.349-0.137-0.641
			c0.003-0.277,0.012-0.583,0.024-0.916c0.003-0.067,0.005-0.138,0.005-0.217v-2.556h-0.251
			C371.99,81.419,371.76,81.429,371.506,81.448z"/>
		<path fill="#004B72" d="M376.533,84.417h0.368c0.003,0.239,0.018,0.428,0.037,0.567c0.021,0.14,0.056,0.275,0.104,0.409
			c0.051,0.133,0.127,0.246,0.229,0.338c0.104,0.094,0.215,0.166,0.336,0.216c0.122,0.051,0.247,0.085,0.372,0.103
			c0.125,0.017,0.314,0.024,0.569,0.024c0.421,0,0.768-0.111,1.035-0.333s0.401-0.526,0.401-0.911c0-0.173-0.042-0.326-0.127-0.458
			c-0.083-0.131-0.204-0.233-0.362-0.308c-0.157-0.074-0.5-0.169-1.022-0.289c-0.522-0.119-0.858-0.206-1.012-0.258
			c-0.23-0.089-0.414-0.19-0.548-0.315c-0.135-0.124-0.244-0.28-0.323-0.469c-0.079-0.19-0.12-0.396-0.12-0.617
			c0-0.324,0.085-0.622,0.256-0.897c0.169-0.272,0.438-0.494,0.806-0.664c0.366-0.17,0.764-0.255,1.196-0.255
			c0.259,0,0.56,0.037,0.901,0.107c0.341,0.071,0.617,0.162,0.832,0.269c-0.028,0.457-0.049,0.92-0.06,1.394h-0.354
			c-0.019-0.302-0.044-0.499-0.07-0.592c-0.025-0.093-0.062-0.178-0.107-0.252c-0.046-0.073-0.125-0.152-0.236-0.239
			c-0.11-0.083-0.253-0.159-0.428-0.223c-0.176-0.065-0.392-0.098-0.647-0.098c-0.36,0-0.652,0.105-0.873,0.319
			c-0.222,0.212-0.33,0.464-0.33,0.751c0,0.161,0.031,0.298,0.095,0.412c0.063,0.116,0.149,0.208,0.257,0.281
			c0.105,0.072,0.257,0.136,0.45,0.195l1.024,0.252c0.518,0.131,0.875,0.243,1.071,0.339c0.195,0.094,0.352,0.241,0.47,0.438
			c0.117,0.198,0.18,0.438,0.18,0.718c0,0.555-0.229,1.036-0.688,1.45c-0.459,0.411-1.071,0.62-1.841,0.62
			c-0.355,0-0.825-0.056-1.413-0.161c-0.323-0.061-0.5-0.105-0.524-0.132c-0.017-0.013-0.024-0.031-0.024-0.061
			c0-0.028,0.005-0.062,0.014-0.104c0.037-0.176,0.061-0.351,0.074-0.516C376.514,85.302,376.524,84.951,376.533,84.417z"/>
	</g>
	<rect x="191.062" y="24.97" fill="#556973" width="0.45" height="67.696"/>
	<g>
		<rect x="132.932" y="36.552" fill="#004B72" width="44.714" height="44.657"/>
		<rect x="82.105" y="36.552" fill="#556973" width="44.716" height="44.657"/>
		<rect x="31.281" y="36.552" fill="#AEA870" width="44.716" height="44.657"/>
		<path fill="#00304F" d="M168.203,67.513l-0.315,3.012v-0.003c-0.077,0.725-0.179,1.306-0.299,1.745
			c-0.116,0.437-0.261,0.726-0.375,0.85c-0.133,0.151-0.315,0.276-0.556,0.379c-0.24,0.099-0.537,0.169-0.892,0.208
			c-1.318,0.111-4.146,0.166-8.454,0.166h-9.756l11.514-15.243l7.616-10.048l0,0c0.936-1.185,2.207-2.688,3.812-4.5l0.08-0.09
			v-1.922l-0.346,0.028c-1.325,0.108-2.999,0.164-5.013,0.164l-18.711-0.188l-3.297,0.025l0.019,0.335
			c0.093,1.679,0.14,2.986,0.14,3.91c0,0.945-0.047,2.282-0.142,4.01l-0.018,0.337h2.18l0.268-3.111v-0.002
			c0.046-0.587,0.113-1.053,0.193-1.385c0.041-0.166,0.085-0.3,0.127-0.393c0.042-0.095,0.085-0.149,0.104-0.168
			c0.013-0.015,0.081-0.058,0.195-0.1c0.174-0.065,0.447-0.132,0.807-0.19c0.358-0.056,0.806-0.106,1.337-0.147l0,0
			c3.273-0.224,6.342-0.332,9.198-0.332c1.536,0,3.34,0.045,5.397,0.137c-1.264,1.765-3.237,4.418-5.912,7.966l-10.827,14.326l0,0
			c-2.339,3.113-4.354,5.614-6.051,7.495l-0.082,0.093v1.867l0.333-0.017c2.43-0.111,5.875-0.166,10.333-0.166
			c2.722,0,5.649,0.027,8.788,0.083c2.946,0.055,4.857,0.085,5.738,0.085c1.051,0,2.533,0,4.446,0h0.319v-1.634
			c0-2.327,0.159-4.734,0.475-7.224l0.046-0.359L168.203,67.513L168.203,67.513z"/>
		<path fill="#3B4C54" d="M118.285,46.158c-3.203-3.041-7.623-4.547-13.191-4.545c-5.686-0.002-10.284,1.627-13.727,4.891
			c-3.447,3.263-5.174,7.588-5.17,12.896c0,3.514,0.737,6.653,2.216,9.395c1.475,2.738,3.497,4.836,6.052,6.269
			c2.561,1.434,5.598,2.145,9.098,2.145c5.602,0.001,10.282-1.815,13.972-5.443c3.694-3.623,5.552-8.162,5.548-13.539
			C123.085,53.24,121.484,49.189,118.285,46.158z M111.6,72.865c-1.795,1.099-3.891,1.649-6.316,1.649
			c-2.608,0-4.909-0.649-6.928-1.946c-2.014-1.292-3.628-3.236-4.848-5.861c-1.211-2.619-1.823-5.704-1.823-9.27
			c0-2.666,0.517-4.998,1.545-7.009c1.028-2.015,2.432-3.528,4.227-4.565c1.795-1.035,3.933-1.557,6.442-1.559
			c2.746,0.002,5.096,0.595,7.083,1.773c1.985,1.177,3.546,2.925,4.695,5.277c1.144,2.341,1.724,5.179,1.724,8.52
			c0,3.184-0.526,5.867-1.559,8.062C114.802,70.137,113.391,71.771,111.6,72.865z"/>
		<path fill="#888558" d="M69.151,50.629c-0.96-2.079-2.368-3.812-4.209-5.19c-1.837-1.371-3.89-2.289-6.15-2.745
			c-2.084-0.419-4.125-0.628-6.115-0.628c-0.142,0-0.285,0-0.428,0.004l-5.23,0.095l-6.424,0.046c-0.901,0-2.67-0.039-5.295-0.116
			l-0.329-0.011v2.108l2.186,0.327h0.002c0.558,0.079,0.995,0.162,1.302,0.243c0.155,0.041,0.277,0.081,0.358,0.118
			c0.042,0.019,0.074,0.035,0.095,0.05l0.022,0.015l0.007,0.005c0.005,0.006,0.039,0.062,0.07,0.155
			c0.05,0.139,0.103,0.36,0.151,0.651c0.048,0.29,0.094,0.651,0.134,1.081v0.002c0.188,2.043,0.283,4.477,0.283,7.304v6.928
			c0,6.03-0.124,10.289-0.364,12.76l-2.24,1.325v1.679l0.351-0.033c1.983-0.19,3.616-0.285,4.892-0.285
			c0.751,0,2.576,0.055,5.459,0.168h0.001l2.946,0.069h0.003c5.908,0.003,10.74-1.785,14.427-5.371
			c3.687-3.573,5.537-8.129,5.535-13.584C70.591,55.103,70.113,52.708,69.151,50.629z M60.546,70.703l-0.002,0.002
			c-2.396,2.225-5.766,3.354-10.172,3.356c-1.558,0-3.356-0.146-5.388-0.438c-0.177-2.436-0.27-5.041-0.27-7.821V50.174
			c0-1.827,0.087-3.472,0.257-4.925c2.179-0.31,4.069-0.467,5.661-0.467c2.362,0,4.429,0.303,6.204,0.897
			c1.774,0.597,3.253,1.484,4.455,2.668c1.204,1.182,2.104,2.633,2.71,4.364c0.605,1.729,0.912,3.744,0.912,6.041
			c0,2.64-0.369,4.951-1.098,6.939c-0.731,1.988-1.818,3.654-3.27,5.012L60.546,70.703z"/>
		<path fill="#FFFFFF" d="M39.52,74.032c0.255-2.471,0.382-6.785,0.382-12.949v-6.931c0-2.834-0.094-5.277-0.285-7.336
			c-0.112-1.193-0.258-1.885-0.443-2.076c-0.183-0.192-0.84-0.366-1.971-0.528l-1.913-0.285v-1.504
			c2.629,0.079,4.398,0.117,5.306,0.117l6.428-0.047l5.232-0.095c2.103-0.032,4.262,0.176,6.475,0.621
			c2.215,0.444,4.222,1.341,6.022,2.686c1.8,1.347,3.172,3.036,4.11,5.066c0.938,2.031,1.409,4.378,1.409,7.038
			c0,5.383-1.813,9.837-5.436,13.357c-3.625,3.518-8.36,5.277-14.205,5.277l-2.938-0.07c-2.884-0.113-4.708-0.169-5.471-0.169
			c-1.292,0-2.932,0.095-4.924,0.285v-1.146L39.52,74.032z M44.681,73.913c2.151,0.318,4.045,0.475,5.688,0.475
			c4.458,0,7.923-1.145,10.391-3.438c2.978-2.787,4.468-6.851,4.468-12.186c0-4.649-1.237-8.195-3.716-10.633
			c-2.476-2.437-6.104-3.656-10.882-3.656c-1.671,0-3.655,0.169-5.95,0.503c-0.192,1.529-0.287,3.268-0.287,5.209v15.626
			C44.395,68.698,44.489,71.398,44.681,73.913z"/>
		<path fill="#FFFFFF" d="M86.517,59.412c0-5.242,1.689-9.463,5.068-12.666c3.378-3.201,7.882-4.802,13.509-4.802
			c5.513,0,9.838,1.484,12.97,4.457c3.131,2.969,4.699,6.914,4.699,11.836c0,5.307-1.82,9.741-5.452,13.311
			c-3.636,3.568-8.218,5.35-13.751,5.35c-3.458,0-6.438-0.699-8.941-2.104c-2.5-1.403-4.478-3.448-5.929-6.138
			C87.242,65.964,86.517,62.883,86.517,59.412z M91.367,57.449c0,3.6,0.618,6.734,1.853,9.404c1.237,2.668,2.891,4.668,4.964,5.994
			c2.071,1.333,4.44,1.998,7.101,1.998c2.472,0,4.632-0.564,6.482-1.697c1.848-1.131,3.303-2.818,4.364-5.063
			c1.06-2.249,1.589-4.979,1.589-8.197c0-3.379-0.586-6.265-1.756-8.658c-1.172-2.399-2.777-4.204-4.819-5.414
			c-2.043-1.211-4.457-1.818-7.246-1.818c-2.554,0-4.749,0.533-6.601,1.602c-1.852,1.066-3.303,2.635-4.354,4.697
			C91.893,52.359,91.367,54.742,91.367,57.449z"/>
		<path fill="#FFFFFF" d="M146.916,74.198h10.396c4.313,0,7.141-0.054,8.48-0.165c0.764-0.081,1.318-0.31,1.659-0.693
			c0.343-0.386,0.593-1.306,0.755-2.771l0.285-2.724h1.769c-0.319,2.502-0.477,4.922-0.477,7.263v1.316c-1.913,0-3.395,0-4.446,0
			c-0.876,0-2.787-0.03-5.732-0.085c-3.141-0.055-6.069-0.085-8.793-0.085c-4.461,0-7.908,0.057-10.347,0.17v-1.41
			c1.708-1.893,3.728-4.402,6.069-7.519l10.824-14.327c2.93-3.884,5.019-6.697,6.259-8.45c-2.308-0.11-4.309-0.167-5.997-0.167
			c-2.866,0-5.94,0.111-9.222,0.335c-1.432,0.112-2.276,0.285-2.533,0.524c-0.255,0.239-0.431,0.955-0.524,2.151l-0.241,2.819h-1.55
			c0.094-1.729,0.14-3.072,0.14-4.026c0-0.936-0.047-2.247-0.14-3.929l2.958-0.025l18.711,0.19c2.022,0,3.702-0.055,5.042-0.165
			v1.455c-1.608,1.814-2.884,3.32-3.824,4.512l-7.62,10.053L146.916,74.198z"/>
	</g>
</g>
</svg>
