<?xml version="1.0" encoding="utf-8"?>
<!-- Generator: Adobe Illustrator 16.0.0, SVG Export Plug-In . SVG Version: 6.00 Build 0)  -->
<!DOCTYPE svg PUBLIC "-//W3C//DTD SVG 1.1//EN" "http://www.w3.org/Graphics/SVG/1.1/DTD/svg11.dtd">
<svg version="1.1" id="Layer_1" xmlns="http://www.w3.org/2000/svg" xmlns:xlink="http://www.w3.org/1999/xlink" x="0px" y="0px"
	 width="534.668px" height="75.137px" viewBox="25.885 24.97 534.668 75.137" enable-background="new 25.885 24.97 534.668 75.137"
	 xml:space="preserve">
<g>
	<g>
		<path fill="#004B72" d="M224.184,46.015v-0.492c0.053-0.033,0.148-0.088,0.283-0.164c0.258-0.143,0.494-0.293,0.711-0.451
			c0.074-0.916,0.113-2.402,0.113-4.461v-1.682c0-0.902-0.018-2.225-0.053-3.967c-0.02-0.965-0.064-1.58-0.131-1.846
			c-0.021-0.062-0.049-0.109-0.082-0.145c-0.055-0.055-0.141-0.096-0.256-0.123c-0.115-0.027-0.543-0.088-1.283-0.184v-0.832
			l3.719,0.072c0.438,0,1.26-0.021,2.471-0.057c0.873-0.023,1.574-0.035,2.1-0.035c1.209,0,2.178,0.074,2.904,0.221
			c0.729,0.146,1.361,0.383,1.902,0.707c0.539,0.324,0.996,0.709,1.367,1.154c0.373,0.443,0.654,0.922,0.846,1.436
			c0.32,0.861,0.482,1.805,0.482,2.83c0,1.305-0.24,2.471-0.719,3.496c-0.477,1.025-1.135,1.883-1.973,2.574
			c-0.836,0.689-1.742,1.188-2.719,1.492c-0.979,0.303-2.156,0.455-3.537,0.455l-3.043-0.072L224.184,46.015z M228.273,44.753
			c0.637,0.104,1.244,0.154,1.826,0.154c0.908,0,1.715-0.096,2.42-0.287c0.52-0.143,0.975-0.352,1.363-0.625
			c0.391-0.273,0.764-0.678,1.123-1.211c0.359-0.533,0.637-1.168,0.836-1.906c0.197-0.738,0.297-1.535,0.297-2.389
			c0-0.779-0.1-1.533-0.297-2.262c-0.199-0.729-0.523-1.365-0.975-1.912c-0.452-0.547-1.021-0.943-1.713-1.189
			c-0.689-0.246-1.736-0.369-3.137-0.369c-0.527,0-1.107,0.045-1.744,0.133c-0.068,0.971-0.102,2.797-0.102,5.482v2.355
			C228.172,42.763,228.205,44.105,228.273,44.753z"/>
		<path fill="#004B72" d="M251.391,45.246v0.77c-0.787-0.033-1.484-0.051-2.092-0.051c-0.574,0-1.131,0.018-1.672,0.051
			l-0.092-0.113l0.092-1.342c-0.246,0.156-0.971,0.697-2.174,1.619c-0.307,0.068-0.602,0.104-0.881,0.104
			c-0.746,0-1.328-0.219-1.748-0.656c-0.422-0.438-0.631-1.066-0.631-1.887c0-0.555,0.094-1.008,0.281-1.365
			c0.188-0.354,0.391-0.615,0.605-0.783s0.549-0.33,1-0.488c1.08-0.381,2.262-0.682,3.547-0.902
			c0.014-0.812-0.154-1.432-0.502-1.855c-0.355-0.424-0.896-0.635-1.621-0.635c-0.293,0-0.574,0.037-0.84,0.111
			c-0.117,0.035-0.254,0.104-0.41,0.205l-0.432,1.037l-0.697-0.154l0.062-1.322c0.506-0.342,0.988-0.639,1.445-0.893
			c0.459-0.252,0.779-0.406,0.965-0.461c0.252-0.076,0.607-0.113,1.066-0.113c0.744,0,1.357,0.107,1.84,0.322
			c0.482,0.217,0.838,0.471,1.066,0.764c0.229,0.295,0.387,0.609,0.473,0.943c0.084,0.336,0.127,0.76,0.127,1.271
			c0,0.221-0.018,0.791-0.051,1.713c-0.021,0.615-0.031,1.117-0.031,1.508c0,1.217,0.035,1.955,0.104,2.215
			c0.027,0.123,0.082,0.205,0.164,0.246C250.465,45.158,250.809,45.205,251.391,45.246z M247.627,41.062
			c-0.58,0.123-1.111,0.273-1.594,0.447c-0.483,0.174-0.816,0.389-1,0.646c-0.186,0.256-0.277,0.578-0.277,0.969
			c0,0.438,0.111,0.775,0.334,1.014c0.221,0.24,0.514,0.359,0.877,0.359c0.307,0,0.615-0.088,0.928-0.266
			c0.311-0.178,0.555-0.404,0.732-0.678V41.062z"/>
		<path fill="#004B72" d="M253.467,37.802v-0.779c0.588-0.035,1.182-0.113,1.777-0.238c0.595-0.125,1.361-0.346,2.293-0.664
			l0.143,0.113c-0.102,1.354-0.152,2.604-0.152,3.752v1.148c0,0.979,0.023,1.631,0.07,1.959c0.068,0.43,0.232,0.756,0.492,0.975
			c0.26,0.219,0.604,0.328,1.033,0.328c0.492,0,0.904-0.129,1.238-0.389c0.336-0.258,0.568-0.523,0.701-0.797
			c0.082-0.176,0.125-0.545,0.125-1.104v-1.748l-0.021-1.453c0-0.469-0.029-0.752-0.092-0.848c-0.033-0.061-0.102-0.109-0.205-0.143
			c-0.102-0.035-0.52-0.072-1.25-0.113v-0.779c1.059-0.139,1.779-0.248,2.162-0.332c0.383-0.082,1.033-0.273,1.949-0.57l0.195,0.113
			l-0.113,1.887c-0.055,1.34-0.082,2.088-0.082,2.244v2.104c0,1.25,0.031,2.023,0.092,2.316c0.027,0.123,0.078,0.209,0.154,0.256
			c0.129,0.07,0.551,0.121,1.262,0.154v0.82l-2.113-0.051l-1.938,0.051l-0.072-0.082l0.062-0.791c0.006-0.131,0.01-0.395,0.01-0.791
			c-0.268,0.213-0.5,0.408-0.699,0.586l-1.16,1.1c-0.473,0.17-0.947,0.256-1.428,0.256c-0.924,0-1.65-0.252-2.178-0.758
			c-0.528-0.506-0.791-1.178-0.791-2.018c0-0.102,0.014-0.48,0.039-1.137c0.008-0.348,0.014-0.799,0.014-1.352l-0.021-2.162
			c0-0.396-0.025-0.641-0.076-0.736c-0.053-0.096-0.135-0.168-0.252-0.215C254.52,37.867,254.129,37.83,253.467,37.802z"/>
		<path fill="#004B72" d="M267.17,32.552v-0.738c1.551-0.164,2.867-0.465,3.947-0.902c0.102,0.027,0.195,0.076,0.277,0.143
			c-0.068,2.838-0.104,4.482-0.104,4.934v1.928l1.24-1.025c0.363-0.295,0.693-0.496,0.99-0.605c0.297-0.109,0.676-0.164,1.133-0.164
			c1.17,0,2.109,0.363,2.82,1.086c0.711,0.727,1.066,1.699,1.066,2.924c0,0.738-0.131,1.453-0.391,2.148
			c-0.26,0.693-0.607,1.262-1.045,1.707c-0.062,0.061-0.559,0.416-1.492,1.066c-0.934,0.648-1.457,1-1.574,1.055
			c-0.396,0.178-0.906,0.268-1.527,0.268c-0.418,0-0.824-0.062-1.221-0.189s-0.844-0.34-1.344-0.641l-0.902,0.758l-0.471-0.174
			c0.137-2.084,0.205-4.58,0.205-7.486c0-2.871-0.041-4.688-0.123-5.455c-0.035-0.252-0.092-0.41-0.174-0.471
			C268.373,32.642,267.936,32.587,267.17,32.552z M271.291,39.011c-0.014,0.527-0.02,1.225-0.02,2.092
			c0,1.164,0.006,2.059,0.02,2.688c0.254,0.363,0.527,0.625,0.82,0.789c0.404,0.219,0.838,0.328,1.303,0.328
			c0.498,0,0.934-0.131,1.307-0.395c0.373-0.264,0.664-0.691,0.873-1.287c0.207-0.594,0.312-1.25,0.312-1.969
			c0-1.066-0.244-1.879-0.729-2.439c-0.486-0.561-1.094-0.842-1.826-0.842c-0.457,0-0.869,0.107-1.234,0.318
			C271.75,38.507,271.477,38.746,271.291,39.011z"/>
		<path fill="#004B72" d="M281.344,51.246c0.117-0.5,0.191-0.848,0.227-1.047l0.154-1.035l0.266-0.051
			c0.172,0.178,0.365,0.334,0.584,0.471c0.268,0.117,0.555,0.174,0.861,0.174c0.355,0,0.684-0.121,0.986-0.363
			c0.301-0.244,0.635-0.775,1.004-1.598l0.41-0.984l-3.322-8.527c-0.199-0.506-0.387-0.818-0.564-0.939
			c-0.178-0.119-0.516-0.176-1.016-0.168v-0.801c0.67,0.027,1.49,0.041,2.461,0.041c1.148,0,2.172-0.014,3.066-0.041v0.801h-0.236
			c-0.424-0.008-0.717,0.041-0.881,0.143c-0.104,0.068-0.154,0.158-0.154,0.268c0,0.123,0.035,0.273,0.104,0.451l0.502,1.385
			l1.498,3.902l0.906-2.127c0.879-2.105,1.318-3.324,1.318-3.652c0-0.068-0.018-0.123-0.053-0.164
			c-0.047-0.055-0.133-0.096-0.256-0.123c-0.246-0.049-0.574-0.076-0.984-0.082v-0.801c0.438,0.027,0.988,0.041,1.65,0.041
			c0.807,0,1.559-0.014,2.256-0.041v0.801h-0.164c-0.184-0.008-0.357,0.027-0.521,0.102c-0.104,0.041-0.193,0.109-0.271,0.205
			c-0.08,0.096-0.273,0.473-0.58,1.129c-0.404,0.863-0.729,1.574-0.975,2.135c-0.766,1.738-1.25,2.854-1.455,3.346l-1.652,4.033
			c-0.506,1.223-1.041,2.096-1.609,2.615c-0.566,0.527-1.258,0.791-2.07,0.791c-0.268,0-0.512-0.021-0.734-0.062
			C281.878,51.433,281.625,51.355,281.344,51.246z"/>
		<path fill="#004B72" d="M300.814,39.011c0-1.25,0.188-2.34,0.567-3.27c0.379-0.93,0.923-1.719,1.625-2.369
			c0.705-0.648,1.472-1.117,2.298-1.404c1.061-0.363,2.214-0.545,3.467-0.545c1.243,0,2.37,0.176,3.383,0.523
			c0.752,0.268,1.418,0.652,1.994,1.154c0.577,0.502,1.018,1.018,1.317,1.543c0.301,0.527,0.527,1.104,0.683,1.732
			c0.154,0.628,0.229,1.322,0.229,2.082c0,1.285-0.221,2.479-0.666,3.578c-0.328,0.82-0.809,1.549-1.44,2.184
			c-0.632,0.637-1.353,1.125-2.158,1.467c-1.107,0.459-2.371,0.688-3.793,0.688c-1.539,0-2.859-0.279-3.963-0.836
			c-1.105-0.557-1.972-1.379-2.601-2.467C301.129,41.986,300.814,40.632,300.814,39.011z M303.973,38.402
			c0,1.594,0.219,2.912,0.656,3.955c0.438,1.045,0.998,1.781,1.682,2.213c0.685,0.43,1.49,0.646,2.421,0.646
			c0.86,0,1.631-0.205,2.312-0.615c0.68-0.412,1.213-1.105,1.6-2.084c0.386-0.979,0.578-2.166,0.578-3.561
			c0-0.959-0.104-1.834-0.312-2.627c-0.209-0.795-0.508-1.471-0.896-2.027c-0.391-0.559-0.85-0.984-1.379-1.277
			c-0.53-0.295-1.231-0.441-2.106-0.441c-0.998,0-1.849,0.234-2.549,0.703c-0.701,0.469-1.209,1.16-1.527,2.078
			C304.131,36.281,303.973,37.292,303.973,38.402z"/>
		<path fill="#004B72" d="M318.824,37.187c0.026-0.082,0.121-0.293,0.281-0.637c0.157-0.34,0.245-0.535,0.26-0.584
			c0.188-0.525,0.36-1.037,0.514-1.533c0.152-0.494,0.264-0.916,0.336-1.26c0.07-0.346,0.123-0.707,0.158-1.082
			c0.096-0.021,0.352-0.072,0.77-0.154c0.539-0.109,0.877-0.182,1.015-0.215c0.268-0.068,0.596-0.168,0.983-0.299l0.3,0.277
			c-0.082,0.213-0.224,0.502-0.421,0.871c-0.743,1.375-1.225,2.25-1.442,2.625c-0.367,0.656-0.728,1.234-1.074,1.734l-1.381,0.562
			L318.824,37.187z"/>
		<path fill="#004B72" d="M339.768,44.16l-0.473,1.035c-0.854,0.451-1.621,0.762-2.303,0.928c-0.68,0.168-1.529,0.252-2.547,0.252
			c-1.449,0-2.73-0.229-3.847-0.688c-0.875-0.369-1.616-0.857-2.225-1.467c-0.609-0.607-1.076-1.268-1.404-1.979
			c-0.5-1.072-0.75-2.238-0.75-3.496c0-2.154,0.736-3.912,2.211-5.275c1.474-1.363,3.554-2.047,6.238-2.047
			c0.924,0,1.752,0.07,2.486,0.205c0.735,0.139,1.588,0.381,2.559,0.729l0.053,0.133c-0.108,0.322-0.194,0.727-0.258,1.211
			c-0.102,0.773-0.166,1.486-0.192,2.143h-0.802c-0.014-0.752-0.047-1.354-0.102-1.805c-0.459-0.479-0.973-0.836-1.545-1.07
			c-0.57-0.236-1.299-0.354-2.188-0.354c-1.606,0-2.893,0.508-3.854,1.523c-0.965,1.016-1.447,2.432-1.447,4.25
			c0,1.102,0.162,2.061,0.488,2.881c0.324,0.82,0.756,1.5,1.297,2.037c0.539,0.535,1.084,0.928,1.631,1.174
			c0.744,0.328,1.646,0.492,2.707,0.492c0.697,0,1.355-0.078,1.979-0.236c0.62-0.156,1.299-0.428,2.028-0.811L339.768,44.16z"/>
		<path fill="#004B72" d="M342.232,41.175c0-1.162,0.196-2.123,0.594-2.887c0.396-0.762,0.992-1.336,1.785-1.723
			c0.793-0.385,1.715-0.578,2.768-0.578c1.58,0,2.781,0.414,3.605,1.24c0.821,0.828,1.233,2.041,1.233,3.641
			c0,0.922-0.119,1.723-0.356,2.398c-0.24,0.678-0.562,1.223-0.965,1.637c-0.402,0.412-0.826,0.727-1.271,0.938
			c-0.758,0.355-1.613,0.533-2.562,0.533c-1.546,0-2.736-0.439-3.574-1.318C342.65,44.179,342.232,42.884,342.232,41.175z
			 M345.072,40.683c0,1.818,0.268,3.115,0.801,3.887c0.354,0.512,0.861,0.77,1.518,0.77c0.562,0,1.004-0.195,1.332-0.586
			c0.438-0.518,0.656-1.523,0.656-3.014c0-1.047-0.088-1.943-0.262-2.691s-0.43-1.27-0.771-1.564
			c-0.338-0.293-0.746-0.441-1.225-0.441c-0.41,0-0.771,0.109-1.076,0.324c-0.309,0.215-0.547,0.578-0.719,1.086
			C345.158,38.962,345.072,39.707,345.072,40.683z"/>
		<path fill="#004B72" d="M366.486,45.255v0.76c-0.933-0.047-1.691-0.072-2.281-0.072c-0.68,0-1.269,0.025-1.769,0.072l-0.186-0.184
			c0.014-0.145,0.059-0.734,0.133-1.775l0.051-1.682v-0.809c0-1.197-0.045-1.982-0.137-2.359c-0.094-0.375-0.283-0.678-0.57-0.906
			c-0.286-0.23-0.67-0.344-1.147-0.344c-0.479,0-0.875,0.113-1.189,0.344c-0.313,0.229-0.512,0.459-0.594,0.691
			c-0.049,0.137-0.068,0.682-0.062,1.639v1.719c0,0.498,0.018,1.109,0.051,1.832c0.008,0.322,0.035,0.533,0.082,0.635
			c0.035,0.076,0.078,0.131,0.133,0.164c0.082,0.055,0.24,0.105,0.479,0.154c0.082,0.014,0.367,0.041,0.855,0.082v0.799
			c-0.744-0.027-1.658-0.041-2.738-0.041c-1.25,0-2.221,0.014-2.912,0.041v-0.799c0.533,0,0.902-0.037,1.107-0.113
			c0.096-0.033,0.168-0.092,0.217-0.174c0.068-0.129,0.105-0.375,0.111-0.736l0.041-0.91c0.008-0.189,0.012-0.5,0.012-0.93v-1.34
			c0-0.607-0.018-1.344-0.053-2.209c-0.021-0.436-0.049-0.684-0.088-0.74c-0.037-0.059-0.099-0.102-0.181-0.129
			c-0.131-0.047-0.52-0.082-1.168-0.102v-0.801c1.244-0.211,2.062-0.369,2.451-0.471c0.392-0.104,0.83-0.268,1.322-0.492
			l0.277,0.123v1.652l1.866-1.5c0.226-0.088,0.414-0.148,0.568-0.178c0.154-0.031,0.367-0.047,0.641-0.047
			c0.732,0,1.279,0.082,1.646,0.246c0.365,0.166,0.674,0.396,0.928,0.695c0.252,0.299,0.43,0.611,0.533,0.936
			c0.102,0.326,0.154,0.836,0.154,1.529c0,0.781-0.009,1.279-0.021,1.49c-0.006,0.084-0.01,0.184-0.01,0.299l0.01,1.061
			c0.008,1.158,0.025,1.875,0.057,2.15c0.031,0.273,0.095,0.451,0.187,0.529c0.094,0.078,0.299,0.129,0.615,0.148
			C366.025,45.212,366.219,45.23,366.486,45.255z"/>
		<path fill="#004B72" d="M380.363,45.255v0.76c-0.933-0.047-1.691-0.072-2.281-0.072c-0.678,0-1.268,0.025-1.768,0.072
			l-0.187-0.184c0.014-0.145,0.059-0.734,0.133-1.775l0.054-1.682v-0.809c0-1.197-0.048-1.982-0.14-2.359
			c-0.094-0.375-0.283-0.678-0.569-0.906c-0.287-0.23-0.671-0.344-1.148-0.344c-0.479,0-0.875,0.113-1.189,0.344
			c-0.313,0.229-0.512,0.459-0.594,0.691c-0.049,0.137-0.067,0.682-0.062,1.639v1.719c0,0.498,0.018,1.109,0.053,1.832
			c0.006,0.322,0.033,0.533,0.08,0.635c0.035,0.076,0.078,0.131,0.133,0.164c0.082,0.055,0.242,0.105,0.479,0.154
			c0.082,0.014,0.366,0.041,0.854,0.082v0.799c-0.744-0.027-1.656-0.041-2.736-0.041c-1.252,0-2.223,0.014-2.911,0.041v-0.799
			c0.532,0,0.901-0.037,1.106-0.113c0.096-0.033,0.166-0.092,0.215-0.174c0.068-0.129,0.105-0.375,0.113-0.736l0.041-0.91
			c0.006-0.189,0.01-0.5,0.01-0.93v-1.34c0-0.607-0.018-1.344-0.051-2.209c-0.021-0.436-0.051-0.684-0.088-0.74
			c-0.039-0.059-0.101-0.102-0.183-0.129c-0.131-0.047-0.52-0.082-1.166-0.102v-0.801c1.244-0.211,2.062-0.369,2.449-0.471
			c0.392-0.104,0.832-0.268,1.324-0.492l0.275,0.123v1.652l1.866-1.5c0.226-0.088,0.414-0.148,0.568-0.178
			c0.154-0.031,0.367-0.047,0.641-0.047c0.732,0,1.281,0.082,1.646,0.246c0.365,0.166,0.676,0.396,0.928,0.695
			c0.254,0.299,0.433,0.611,0.533,0.936c0.104,0.326,0.154,0.836,0.154,1.529c0,0.781-0.008,1.279-0.021,1.49
			c-0.006,0.084-0.01,0.184-0.01,0.299l0.01,1.061c0.008,1.158,0.025,1.875,0.058,2.15c0.03,0.273,0.094,0.451,0.188,0.529
			c0.092,0.078,0.297,0.129,0.613,0.148C379.902,45.212,380.096,45.23,380.363,45.255z"/>
		<path fill="#004B72" d="M382.717,41.175c0-1.162,0.197-2.123,0.594-2.887c0.396-0.762,0.992-1.336,1.785-1.723
			c0.793-0.385,1.715-0.578,2.769-0.578c1.58,0,2.78,0.414,3.604,1.24c0.822,0.828,1.234,2.041,1.234,3.641
			c0,0.922-0.119,1.723-0.357,2.398c-0.239,0.678-0.561,1.223-0.965,1.637c-0.401,0.412-0.826,0.727-1.271,0.938
			c-0.759,0.355-1.613,0.533-2.562,0.533c-1.545,0-2.735-0.439-3.574-1.318C383.135,44.179,382.717,42.884,382.717,41.175z
			 M385.557,40.683c0,1.818,0.269,3.115,0.802,3.887c0.354,0.512,0.86,0.77,1.518,0.77c0.562,0,1.004-0.195,1.332-0.586
			c0.438-0.518,0.656-1.523,0.656-3.014c0-1.047-0.088-1.943-0.263-2.691c-0.174-0.748-0.43-1.27-0.77-1.564
			c-0.338-0.293-0.746-0.441-1.225-0.441c-0.41,0-0.771,0.109-1.076,0.324c-0.31,0.215-0.547,0.578-0.719,1.086
			C385.643,38.962,385.557,39.707,385.557,40.683z"/>
		<path fill="#004B72" d="M401.086,45.216v0.799c-0.773-0.033-1.635-0.051-2.584-0.051c-1.061,0-2.16,0.018-3.303,0.051v-0.799
			c0.533,0,0.901-0.037,1.106-0.113c0.097-0.033,0.168-0.092,0.215-0.174c0.068-0.129,0.107-0.375,0.113-0.736l0.041-0.91
			c0.008-0.189,0.01-0.5,0.01-0.93v-1.34c0-0.607-0.016-1.344-0.051-2.209c-0.02-0.436-0.049-0.684-0.088-0.74
			c-0.037-0.059-0.098-0.102-0.18-0.129c-0.131-0.047-0.521-0.082-1.168-0.102v-0.801c1.25-0.211,2.071-0.369,2.463-0.471
			c0.393-0.104,0.836-0.268,1.33-0.492l0.276,0.123l-0.02,2.07c0.441-0.457,0.781-0.836,1.02-1.139
			c0.354-0.422,0.617-0.693,0.795-0.809c0.244-0.164,0.566-0.246,0.97-0.246c0.25,0,0.479,0.041,0.682,0.123l-0.07,1.455
			c-0.018,0.793-0.03,1.248-0.041,1.363l-0.432,0.135c-0.17-0.227-0.334-0.383-0.492-0.473c-0.252-0.143-0.528-0.215-0.83-0.215
			c-0.403,0-0.75,0.125-1.041,0.375c-0.291,0.248-0.463,0.504-0.518,0.764c-0.027,0.15-0.041,0.728-0.041,1.729v1.023l0.02,1.393
			c0.009,0.525,0.027,0.848,0.058,0.967c0.031,0.121,0.102,0.215,0.211,0.281c0.109,0.068,0.346,0.117,0.707,0.145L401.086,45.216z"
			/>
		<path fill="#004B72" d="M426.965,43.412l0.297,0.666c-0.219,0.199-0.553,0.541-1,1.025c-0.446,0.486-0.768,0.852-0.959,1.098
			c-0.492,0.109-0.895,0.164-1.209,0.164c-0.588,0-1.133-0.09-1.631-0.268c-0.719-0.246-1.463-0.652-2.236-1.221
			c-0.629,0.5-1.293,0.875-1.993,1.123c-0.701,0.25-1.492,0.375-2.373,0.375c-1.572,0-2.767-0.426-3.578-1.277
			c-0.814-0.85-1.222-1.812-1.222-2.887c0-0.785,0.197-1.473,0.595-2.061c0.547-0.807,1.448-1.508,2.707-2.102
			c-0.261-0.58-0.439-1.084-0.543-1.508c-0.103-0.424-0.154-0.854-0.154-1.291c0-0.596,0.117-1.025,0.35-1.293l0.984-1.139
			c0.457-0.533,0.77-0.844,0.934-0.932c0.574-0.309,1.177-0.463,1.806-0.463c0.465,0,0.881,0.094,1.25,0.277
			c0.369,0.186,0.649,0.455,0.842,0.811c0.192,0.356,0.287,0.748,0.287,1.18c0,0.615-0.217,1.238-0.646,1.871
			c-0.432,0.633-1.33,1.375-2.696,2.23c0.629,0.949,1.334,1.857,2.116,2.723c0.783,0.863,1.537,1.57,2.263,2.117
			c0.231-0.383,0.399-0.73,0.502-1.041c0.104-0.311,0.153-0.623,0.153-0.939c0-0.246-0.034-0.51-0.104-0.793
			c-0.068-0.285-0.166-0.531-0.297-0.744h-1.847l-0.092-0.123c0.144-0.227,0.25-0.402,0.318-0.533l0.348-0.76
			c1.326,0.035,2.103,0.053,2.328,0.053c1.859,0,3.287-0.055,4.285-0.164l0.094,0.082c-0.149,0.416-0.246,0.711-0.283,0.881
			c-0.036,0.172-0.065,0.377-0.086,0.615l-0.094,0.113c-0.854-0.078-1.336-0.117-1.445-0.117c-0.272-0.016-0.793-0.031-1.559-0.047
			c0.068,0.33,0.104,0.619,0.104,0.865c0,0.516-0.103,1.014-0.304,1.494c-0.203,0.482-0.569,1.053-1.104,1.711
			c0.465,0.328,0.992,0.582,1.58,0.76c0.588,0.178,1.145,0.266,1.672,0.266c0.155,0,0.287-0.016,0.389-0.045
			c0.104-0.031,0.223-0.088,0.359-0.17L426.965,43.412z M414.771,38.919c-0.361,0.219-0.65,0.502-0.865,0.846
			c-0.215,0.346-0.324,0.744-0.324,1.195c0,0.67,0.184,1.32,0.549,1.953s0.834,1.121,1.406,1.467
			c0.57,0.346,1.156,0.518,1.758,0.518c0.689,0,1.373-0.219,2.051-0.656c-0.998-0.842-1.84-1.662-2.526-2.461
			C416.131,40.98,415.449,40.027,414.771,38.919z M416.33,36.931c0.664-0.465,1.15-0.918,1.463-1.359
			c0.311-0.441,0.465-0.908,0.465-1.4c0-0.436-0.123-0.787-0.369-1.051c-0.246-0.262-0.553-0.395-0.922-0.395
			c-0.391,0-0.717,0.141-0.979,0.42c-0.265,0.281-0.396,0.656-0.396,1.129C415.592,35.021,415.838,35.906,416.33,36.931z"/>
		<path fill="#004B72" d="M435.463,46.015v-0.82c0.328-0.402,0.82-1.053,1.478-1.947c1.106-1.531,1.887-2.625,2.338-3.281
			l1.918-2.779c0.614-0.895,1.092-1.604,1.436-2.123c0.847-1.277,1.318-1.984,1.414-2.123h-2.379
			c-0.875,0.01-1.75,0.033-2.625,0.072c-0.639,0.027-1.033,0.08-1.182,0.154c-0.056,0.027-0.093,0.064-0.113,0.113
			c-0.074,0.156-0.156,0.547-0.244,1.168c-0.041,0.246-0.074,0.449-0.102,0.605h-0.841c0.048-0.967,0.07-1.674,0.07-2.119
			c0-0.24-0.006-0.662-0.018-1.266c1.246,0.041,1.942,0.061,2.094,0.061c1.711,0.008,3.225,0.012,4.545,0.012
			c0.5,0,1.027-0.002,1.58-0.01l3.172-0.051v0.707c-1.279,1.701-2.322,3.141-3.129,4.316l-3.035,4.389
			c-0.197,0.287-0.455,0.674-0.772,1.158c-0.318,0.486-0.709,1.084-1.175,1.795c-0.172,0.254-0.317,0.479-0.44,0.678l1.908,0.02
			c1.934,0,3.336-0.031,4.202-0.092c0.638-0.047,0.998-0.113,1.089-0.195c0.129-0.123,0.266-0.547,0.409-1.271
			c0.082-0.402,0.144-0.689,0.185-0.861h0.83c-0.129,1.16-0.242,2.377-0.338,3.65h-0.39l-1.959,0.041l-1.321-0.031l-2.646-0.02
			l-2.697-0.031L435.463,46.015z"/>
		<path fill="#004B72" d="M460.004,45.246v0.77c-0.785-0.033-1.481-0.051-2.092-0.051c-0.574,0-1.131,0.018-1.672,0.051
			l-0.092-0.113l0.092-1.342c-0.246,0.156-0.972,0.697-2.174,1.619c-0.308,0.068-0.603,0.104-0.882,0.104
			c-0.745,0-1.327-0.219-1.748-0.656c-0.422-0.438-0.631-1.066-0.631-1.887c0-0.555,0.095-1.008,0.281-1.365
			c0.188-0.354,0.391-0.615,0.605-0.783c0.214-0.168,0.549-0.33,1-0.488c1.079-0.381,2.262-0.682,3.547-0.902
			c0.014-0.812-0.152-1.432-0.502-1.855c-0.355-0.424-0.896-0.635-1.619-0.635c-0.295,0-0.574,0.037-0.842,0.111
			c-0.115,0.035-0.252,0.104-0.41,0.205l-0.431,1.037l-0.696-0.154l0.061-1.322c0.506-0.342,0.988-0.639,1.445-0.893
			c0.459-0.252,0.779-0.406,0.965-0.461c0.252-0.076,0.607-0.113,1.066-0.113c0.743,0,1.356,0.107,1.84,0.322
			c0.481,0.217,0.838,0.471,1.065,0.764c0.229,0.295,0.388,0.609,0.474,0.943c0.084,0.336,0.127,0.76,0.127,1.271
			c0,0.221-0.017,0.791-0.051,1.713c-0.021,0.615-0.031,1.117-0.031,1.508c0,1.217,0.035,1.955,0.104,2.215
			c0.027,0.123,0.082,0.205,0.164,0.246C459.078,45.158,459.424,45.205,460.004,45.246z M456.24,41.062
			c-0.58,0.123-1.111,0.273-1.594,0.447c-0.483,0.174-0.814,0.389-1,0.646c-0.185,0.256-0.277,0.578-0.277,0.969
			c0,0.438,0.111,0.775,0.334,1.014c0.223,0.24,0.514,0.359,0.877,0.359c0.307,0,0.617-0.088,0.928-0.266
			c0.312-0.178,0.556-0.404,0.732-0.678V41.062L456.24,41.062z"/>
		<path fill="#004B72" d="M467.914,45.216v0.799c-0.854-0.047-1.746-0.072-2.676-0.072c-0.931,0-1.978,0.025-3.14,0.072v-0.799
			c0.654-0.021,1.052-0.049,1.188-0.082c0.104-0.027,0.182-0.066,0.231-0.119c0.052-0.051,0.089-0.131,0.107-0.24
			c0.049-0.205,0.082-0.852,0.1-1.939c0.017-1.088,0.025-2.053,0.025-2.895v-3.387c0-1.074-0.025-2.057-0.072-2.945
			c-0.026-0.479-0.062-0.762-0.104-0.852c-0.027-0.047-0.064-0.086-0.111-0.113c-0.082-0.055-0.213-0.096-0.391-0.123
			c-0.103-0.014-0.41-0.031-0.922-0.051v-0.76c0.85-0.088,1.526-0.186,2.034-0.291c0.507-0.105,1.188-0.293,2.046-0.559l0.215,0.123
			l-0.088,2.074c-0.035,1.164-0.06,2.59-0.064,4.281v2.629c0,0.992,0.004,1.736,0.016,2.229c0.023,1.225,0.041,1.967,0.056,2.223
			c0.016,0.258,0.039,0.42,0.071,0.488c0.021,0.049,0.058,0.09,0.104,0.123c0.062,0.049,0.17,0.086,0.32,0.113
			C466.924,45.158,467.273,45.181,467.914,45.216z"/>
		<path fill="#004B72" d="M479.096,44.437l-0.451,1.004c-0.561,0.342-1.139,0.596-1.733,0.76c-0.443,0.115-0.949,0.174-1.519,0.174
			c-0.676,0-1.272-0.078-1.789-0.236c-0.516-0.156-0.956-0.371-1.321-0.646c-0.365-0.271-0.688-0.607-0.963-1.004
			c-0.277-0.396-0.479-0.854-0.603-1.375c-0.123-0.518-0.184-1.086-0.184-1.701c0-0.895,0.119-1.695,0.358-2.4
			c0.164-0.492,0.355-0.846,0.574-1.066c0.138-0.135,0.492-0.393,1.066-0.768c0.574-0.377,0.99-0.623,1.25-0.738
			c0.479-0.213,1.043-0.318,1.69-0.318c0.916,0,1.668,0.191,2.257,0.574c0.588,0.383,1.004,0.871,1.245,1.467
			c0.242,0.594,0.365,1.316,0.365,2.162c0,0.193-0.008,0.377-0.021,0.555c-0.17,0.055-0.431,0.117-0.779,0.184
			c-0.465,0.09-0.779,0.139-0.943,0.145c-0.512,0.041-1.188,0.064-2.028,0.072c-0.842,0.006-1.308,0.014-1.396,0.02
			c-0.09,0.008-0.188,0.01-0.299,0.01h-0.676c0.055,1.082,0.389,1.934,1.004,2.559c0.615,0.627,1.375,0.939,2.277,0.939
			c0.389,0,0.748-0.043,1.075-0.129c0.328-0.086,0.761-0.262,1.293-0.527L479.096,44.437z M476.654,40.181
			c0.026-1.082-0.119-1.842-0.441-2.279c-0.328-0.428-0.752-0.643-1.271-0.643c-0.533,0-0.974,0.225-1.322,0.674
			c-0.355,0.457-0.521,1.205-0.492,2.248c0.404,0.062,1.076,0.092,2.021,0.092C475.748,40.273,476.252,40.244,476.654,40.181z"/>
		<path fill="#004B72" d="M482.227,42.785h0.82c0.033,0.768,0.068,1.248,0.103,1.447c0.309,0.375,0.646,0.654,1.016,0.836
			c0.369,0.18,0.793,0.271,1.271,0.271c0.644,0,1.136-0.154,1.478-0.463c0.342-0.307,0.514-0.68,0.514-1.119
			c0-0.287-0.057-0.525-0.17-0.713s-0.34-0.361-0.682-0.52c-0.269-0.096-0.777-0.225-1.533-0.389
			c-0.756-0.164-1.328-0.346-1.717-0.545c-0.392-0.197-0.695-0.492-0.914-0.885s-0.328-0.854-0.328-1.379
			c0-0.943,0.354-1.727,1.066-2.352c0.711-0.625,1.733-0.938,3.065-0.938c0.555,0,1.062,0.049,1.527,0.143
			c0.465,0.098,0.887,0.24,1.262,0.432l0.031,0.102c-0.041,0.24-0.072,0.482-0.092,0.729c-0.021,0.246-0.054,0.828-0.095,1.744
			l-0.799-0.012c-0.008-0.074-0.018-0.201-0.031-0.381c-0.02-0.309-0.061-0.607-0.123-0.896c-0.211-0.273-0.471-0.48-0.78-0.617
			c-0.312-0.139-0.674-0.207-1.09-0.207c-0.58,0-1.027,0.131-1.345,0.391c-0.317,0.26-0.477,0.572-0.477,0.934
			c0,0.371,0.072,0.645,0.215,0.822c0.146,0.178,0.355,0.312,0.637,0.4c0.279,0.088,0.797,0.203,1.554,0.344
			c0.756,0.141,1.264,0.258,1.522,0.354c0.375,0.145,0.676,0.326,0.902,0.545c0.225,0.219,0.397,0.49,0.518,0.816
			c0.119,0.324,0.181,0.682,0.181,1.072c0,1.02-0.396,1.879-1.185,2.576c-0.791,0.697-1.899,1.047-3.328,1.047
			c-0.479,0-0.942-0.043-1.395-0.129c-0.451-0.084-1.002-0.24-1.65-0.467l-0.112-0.152c0.055-0.527,0.088-0.898,0.102-1.119
			L482.227,42.785z"/>
		<path fill="#004B72" d="M504.113,45.195v0.82c-0.287-0.02-0.886-0.031-1.793-0.031c-0.951,0-1.545,0.012-1.783,0.031
			c-0.357-0.602-1.08-1.521-2.17-2.764c-1.092-1.24-1.709-1.914-1.854-2.025c-0.047-0.041-0.123-0.064-0.225-0.07v1.004
			c0,0.5,0.018,1.174,0.051,2.02c0.021,0.385,0.049,0.615,0.082,0.697c0.021,0.057,0.06,0.1,0.115,0.135
			c0.074,0.055,0.205,0.096,0.391,0.123c0.084,0.014,0.406,0.033,0.972,0.061v0.82c-0.834-0.047-1.746-0.072-2.738-0.072
			c-1.06,0-2.043,0.025-2.953,0.072v-0.82c0.604-0.027,0.963-0.053,1.068-0.076c0.106-0.023,0.188-0.062,0.243-0.113
			c0.056-0.051,0.093-0.117,0.113-0.199c0.055-0.205,0.088-0.762,0.101-1.672c0.022-1.236,0.032-2.303,0.032-3.199v-3.322
			c0-1.1-0.026-2.098-0.082-2.994c-0.02-0.457-0.051-0.729-0.092-0.811c-0.027-0.047-0.063-0.084-0.113-0.113
			c-0.082-0.047-0.207-0.084-0.379-0.111c-0.114-0.021-0.414-0.041-0.893-0.062v-0.758c0.965-0.117,1.664-0.223,2.098-0.318
			c0.435-0.095,1.06-0.273,1.871-0.533l0.228,0.123l-0.072,2.225c-0.027,1.23-0.041,2.469-0.041,3.713v3.732
			c0.219-0.164,0.473-0.377,0.76-0.637c0.603-0.547,1.103-1.012,1.498-1.395c0.146-0.15,0.396-0.402,0.76-0.758
			c0.364-0.356,0.668-0.678,0.914-0.965v-0.574c0.613,0.014,1.236,0.018,1.863,0.01c0.273,0,0.73-0.002,1.373-0.01v0.801
			l-1.078,0.07c-0.115,0.016-0.229,0.049-0.338,0.104c-0.205,0.102-0.523,0.324-0.953,0.666c-0.6,0.479-0.961,0.773-1.084,0.891
			c-0.123,0.115-0.219,0.205-0.287,0.266l-0.869,0.756c0.601,0.713,1.617,1.883,3.051,3.512c0.808,0.924,1.337,1.457,1.589,1.6
			C503.631,45.123,503.84,45.175,504.113,45.195z"/>
		<path fill="#004B72" d="M506.086,46.015v-0.758c0.766-0.055,1.203-0.115,1.312-0.18c0.108-0.066,0.178-0.188,0.204-0.365
			c0.068-0.377,0.103-1.344,0.103-2.906c0-2.143-0.031-3.359-0.092-3.654c-0.027-0.137-0.072-0.227-0.133-0.268
			c-0.138-0.088-0.603-0.137-1.396-0.145V36.96c1.031-0.107,1.812-0.223,2.338-0.344c0.525-0.121,1.101-0.307,1.724-0.559
			l0.245,0.135c-0.082,1.066-0.123,2.068-0.123,3.004v3.486c0,1.189,0.027,1.895,0.082,2.111c0.027,0.123,0.082,0.205,0.164,0.246
			c0.185,0.09,0.632,0.148,1.343,0.176v0.799c-0.972-0.027-2.025-0.041-3.168-0.041C507.705,45.974,506.838,45.988,506.086,46.015z
			 M508.9,31.167c0.436,0,0.805,0.154,1.106,0.461c0.305,0.309,0.455,0.678,0.455,1.107c0,0.439-0.15,0.811-0.455,1.119
			c-0.303,0.307-0.672,0.461-1.106,0.461c-0.431,0-0.798-0.154-1.104-0.461c-0.307-0.309-0.461-0.68-0.461-1.119
			c0-0.43,0.152-0.799,0.455-1.107C508.094,31.322,508.463,31.167,508.9,31.167z"/>
		<path fill="#004B72" d="M513.422,48.785c0.416-0.797,0.738-1.564,0.971-2.299c0.23-0.734,0.4-1.525,0.507-2.369
			c0.891-0.182,1.366-0.281,1.432-0.299c0.258-0.07,0.572-0.182,0.94-0.334l0.316,0.299c-0.234,0.557-0.623,1.318-1.166,2.285
			c-0.541,0.967-1.035,1.764-1.479,2.391l-1.257,0.545L513.422,48.785z"/>
		<path fill="#004B72" d="M525.426,46.015v-0.451c0.152-0.064,0.365-0.178,0.642-0.342c0.123-0.07,0.202-0.129,0.237-0.176
			c0.023-0.029,0.037-0.062,0.043-0.098c0.029-0.146,0.058-0.67,0.08-1.568c0.023-0.898,0.035-1.979,0.035-3.238
			c0-1.85-0.006-2.992-0.016-3.426c-0.021-1.102-0.056-1.73-0.109-1.889c-0.022-0.07-0.065-0.123-0.133-0.158
			c-0.135-0.088-0.586-0.146-1.352-0.176V33.72c0.743,0.041,1.594,0.062,2.549,0.062c1.065,0,2.078-0.021,3.033-0.062v0.773
			c-0.662,0.029-1.066,0.082-1.214,0.158c-0.063,0.035-0.11,0.092-0.141,0.17c-0.029,0.08-0.059,0.441-0.084,1.086
			c-0.027,0.643-0.039,1.457-0.039,2.441c0,0.105,0.002,0.951,0.008,2.537c0.006,0.838,0.011,1.668,0.015,2.49
			c0.002,0.822,0.008,1.32,0.014,1.496c0.809,0.041,1.359,0.062,1.652,0.062c0.891,0,1.666-0.053,2.327-0.158
			c0.24-0.035,0.386-0.074,0.433-0.115s0.096-0.148,0.147-0.324c0.117-0.445,0.232-0.955,0.345-1.529h0.729
			c-0.018,0.164-0.025,0.26-0.025,0.289l-0.221,1.775c-0.047,0.557-0.072,0.891-0.078,1.002c-0.17,0.047-0.34,0.08-0.51,0.098
			c-0.357,0.029-0.912,0.043-1.662,0.043c-0.104,0-0.793-0.014-2.063-0.043c-0.968-0.023-1.642-0.035-2.021-0.035
			C527.471,45.937,526.598,45.962,525.426,46.015z"/>
		<path fill="#004B72" d="M537.32,46.015v-0.451c0.151-0.064,0.364-0.178,0.641-0.342c0.123-0.07,0.203-0.129,0.238-0.176
			c0.022-0.029,0.037-0.062,0.043-0.098c0.029-0.146,0.057-0.67,0.08-1.568c0.022-0.898,0.035-1.979,0.035-3.238
			c0-1.85-0.007-2.992-0.017-3.426c-0.02-1.102-0.055-1.73-0.106-1.889c-0.023-0.07-0.068-0.123-0.134-0.158
			c-0.137-0.088-0.586-0.146-1.354-0.176V33.72c0.744,0.041,1.594,0.062,2.549,0.062c1.066,0,2.078-0.021,3.033-0.062v0.773
			c-0.662,0.029-1.066,0.082-1.213,0.158c-0.064,0.035-0.111,0.092-0.142,0.17c-0.028,0.08-0.057,0.441-0.084,1.086
			c-0.024,0.643-0.039,1.457-0.039,2.441c0,0.105,0.003,0.951,0.009,2.537c0.006,0.838,0.012,1.668,0.014,2.49
			c0.004,0.822,0.008,1.32,0.014,1.496c0.81,0.041,1.359,0.062,1.652,0.062c0.891,0,1.666-0.053,2.328-0.158
			c0.24-0.035,0.385-0.074,0.432-0.115s0.097-0.148,0.148-0.324c0.117-0.445,0.231-0.955,0.344-1.529h0.729
			c-0.019,0.164-0.025,0.26-0.025,0.289l-0.221,1.775c-0.048,0.557-0.072,0.891-0.078,1.002c-0.17,0.047-0.34,0.08-0.511,0.098
			c-0.356,0.029-0.911,0.043-1.661,0.043c-0.105,0-0.793-0.014-2.064-0.043c-0.967-0.023-1.641-0.035-2.021-0.035
			C539.365,45.937,538.492,45.962,537.32,46.015z"/>
		<path fill="#004B72" d="M560.553,44.425l-0.403,0.887c-0.732,0.387-1.392,0.652-1.974,0.795c-0.584,0.145-1.311,0.217-2.184,0.217
			c-1.242,0-2.342-0.197-3.297-0.59c-0.75-0.316-1.386-0.734-1.906-1.256c-0.521-0.522-0.924-1.088-1.205-1.697
			c-0.428-0.92-0.641-1.918-0.641-2.996c0-1.846,0.631-3.354,1.893-4.523c1.264-1.168,3.047-1.752,5.35-1.752
			c0.791,0,1.5,0.059,2.131,0.176c0.63,0.117,1.361,0.324,2.193,0.623l0.043,0.115c-0.094,0.275-0.166,0.621-0.219,1.037
			c-0.088,0.662-0.146,1.273-0.168,1.836h-0.687c-0.012-0.645-0.041-1.16-0.088-1.547c-0.393-0.41-0.834-0.717-1.321-0.918
			c-0.49-0.203-1.115-0.303-1.877-0.303c-1.378,0-2.479,0.434-3.306,1.305c-0.826,0.869-1.237,2.084-1.237,3.643
			c0,0.943,0.139,1.768,0.416,2.471c0.278,0.703,0.649,1.285,1.112,1.744c0.463,0.461,0.928,0.795,1.396,1.006
			c0.639,0.281,1.412,0.422,2.319,0.422c0.599,0,1.164-0.066,1.697-0.201c0.533-0.135,1.113-0.367,1.74-0.695L560.553,44.425z"/>
		<path fill="#004B72" d="M223.096,71.015v-0.531c0.412-0.004,0.668-0.021,0.77-0.051c0.102-0.027,0.195-0.082,0.281-0.164
			c0.086-0.08,0.211-0.289,0.373-0.629c0.094-0.191,0.432-0.924,1.016-2.195l1.957-4.406c0.213-0.483,0.67-1.562,1.369-3.233h0.5
			l3.34,7.836c0.543,1.271,0.902,2.067,1.08,2.392c0.1,0.184,0.207,0.303,0.324,0.358c0.117,0.06,0.383,0.09,0.795,0.094v0.531
			c-0.814-0.052-1.383-0.078-1.707-0.078l-2.518,0.078v-0.531c0.584-0.01,0.938-0.026,1.062-0.055
			c0.125-0.024,0.211-0.062,0.254-0.113c0.045-0.049,0.066-0.108,0.066-0.185c0-0.112-0.035-0.262-0.109-0.444l-0.959-2.392h-4.525
			l-0.848,2.009c-0.152,0.358-0.227,0.622-0.227,0.788c0,0.074,0.02,0.134,0.062,0.181c0.057,0.067,0.146,0.115,0.266,0.142
			c0.193,0.043,0.531,0.065,1.016,0.069v0.531c-0.881-0.048-1.541-0.07-1.979-0.07C224.248,70.945,223.695,70.968,223.096,71.015z
			 M226.734,66.632h3.939l-1.945-4.701L226.734,66.632z"/>
		<path fill="#004B72" d="M240.992,71.015v-0.406c0.32-0.15,0.523-0.27,0.611-0.359c0.051-0.047,0.088-0.104,0.107-0.18
			c0.047-0.145,0.078-0.457,0.094-0.936c0.025-0.713,0.039-1.137,0.039-1.273v-4.199c0-0.707-0.008-1.399-0.023-2.076
			c-0.016-0.494-0.055-0.787-0.113-0.879c-0.061-0.092-0.156-0.158-0.289-0.203c-0.133-0.043-0.51-0.07-1.129-0.082v-0.5
			c1.27,0.037,2.057,0.055,2.359,0.055c0.332,0,1.08-0.018,2.242-0.055v0.5c-0.621,0.012-0.996,0.039-1.129,0.082
			c-0.133,0.045-0.227,0.105-0.277,0.184c-0.062,0.104-0.102,0.357-0.117,0.758c-0.008,0.104-0.02,0.842-0.039,2.218v5.246
			c0,0.547,0.012,0.989,0.039,1.334c0.594,0.037,1.182,0.055,1.766,0.055c1.469,0,2.496-0.094,3.086-0.281
			c0.066-0.156,0.127-0.336,0.18-0.539l0.312-1.297h0.523c-0.115,0.777-0.227,1.688-0.336,2.734
			c-0.215,0.043-0.383,0.067-0.508,0.078c-0.271,0.016-0.688,0.022-1.25,0.022l-4.625-0.056
			C242.016,70.96,241.508,70.98,240.992,71.015z"/>
		<path fill="#004B72" d="M250.924,64.585V64.14c1.012-0.113,1.859-0.332,2.547-0.656l0.172,0.125
			c-0.041,1.109-0.062,1.959-0.062,2.547v1.422c0.027,1.355,0.043,2.086,0.047,2.195c0.006,0.262,0.035,0.451,0.086,0.57
			c0.027,0.047,0.061,0.088,0.102,0.121c0.043,0.035,0.105,0.062,0.188,0.082c0.031,0.006,0.32,0.014,0.867,0.022v0.445
			c-0.791-0.035-1.424-0.056-1.898-0.056c-0.416,0-1.098,0.021-2.047,0.056V70.57l0.748-0.008c0.109-0.004,0.195-0.023,0.256-0.059
			c0.059-0.033,0.105-0.076,0.137-0.129c0.057-0.104,0.094-0.289,0.109-0.556c0-0.065,0.014-0.813,0.039-2.241v-1.375
			c0-0.775-0.025-1.236-0.078-1.384c-0.031-0.077-0.086-0.137-0.168-0.176C251.887,64.605,251.539,64.585,250.924,64.585z
			 M252.83,60.015c0.246,0,0.453,0.086,0.621,0.258c0.17,0.172,0.254,0.381,0.254,0.625c0,0.24-0.086,0.445-0.258,0.617
			c-0.172,0.172-0.377,0.258-0.617,0.258c-0.244,0-0.453-0.086-0.625-0.258c-0.172-0.172-0.258-0.377-0.258-0.617
			c0-0.244,0.086-0.453,0.258-0.625S252.586,60.015,252.83,60.015z"/>
		<path fill="#004B72" d="M256.357,71.015V70.57l0.748-0.008c0.109-0.004,0.193-0.023,0.254-0.059
			c0.061-0.033,0.107-0.076,0.139-0.129c0.057-0.104,0.094-0.289,0.109-0.556c0-0.065,0.014-0.813,0.039-2.241v-0.931
			c0-0.416-0.008-0.862-0.023-1.345c-0.016-0.307-0.041-0.487-0.074-0.547c-0.033-0.057-0.092-0.1-0.176-0.129
			c-0.084-0.026-0.422-0.039-1.016-0.035v-0.444c1.053-0.146,1.82-0.336,2.305-0.569c0.104-0.052,0.174-0.078,0.211-0.078
			s0.064,0.014,0.086,0.039c0.021,0.026,0.031,0.065,0.031,0.117c0,0.036-0.002,0.077-0.008,0.125
			c-0.021,0.25-0.037,0.622-0.047,1.116l1.021-0.938c0.129-0.112,0.211-0.18,0.242-0.194c0.119-0.065,0.289-0.13,0.514-0.188
			c0.223-0.057,0.455-0.086,0.699-0.086c0.498,0,0.943,0.123,1.332,0.367c0.389,0.246,0.688,0.607,0.895,1.086l0.863-0.797
			c0.193-0.176,0.326-0.285,0.398-0.328c0.137-0.078,0.328-0.15,0.58-0.219c0.25-0.066,0.496-0.102,0.742-0.102
			c0.594,0,1.092,0.158,1.494,0.473c0.4,0.316,0.658,0.674,0.773,1.074c0.072,0.266,0.109,0.84,0.109,1.719v0.812l0.02,1.086
			c0.014,0.631,0.02,1,0.02,1.108c0.012,0.263,0.043,0.451,0.094,0.569c0.021,0.048,0.055,0.088,0.1,0.121
			c0.045,0.035,0.107,0.062,0.191,0.082c0.031,0.006,0.32,0.015,0.865,0.023v0.445c-0.654-0.035-1.102-0.055-1.34-0.055
			c-0.229,0-0.688,0.02-1.379,0.055l0.064-2.156l0.021-0.844v-0.672c0-0.875-0.045-1.473-0.133-1.793
			c-0.09-0.32-0.275-0.578-0.561-0.777c-0.285-0.197-0.615-0.297-0.99-0.297c-0.434,0-0.826,0.125-1.176,0.375
			c-0.258,0.193-0.428,0.42-0.51,0.68c-0.082,0.262-0.123,0.77-0.123,1.523v0.523l0.02,1.086c0.01,0.631,0.016,1,0.02,1.108
			c0.012,0.263,0.043,0.45,0.094,0.569c0.021,0.047,0.053,0.088,0.096,0.121c0.041,0.035,0.104,0.062,0.188,0.082
			c0.037,0.006,0.328,0.015,0.873,0.023v0.445c-0.766-0.035-1.381-0.055-1.844-0.055c-0.375,0-1.057,0.02-2.047,0.055V70.57
			l0.748-0.008c0.115-0.004,0.201-0.023,0.262-0.059c0.061-0.033,0.107-0.076,0.139-0.129c0.057-0.104,0.092-0.289,0.102-0.556
			c0.004-0.065,0.018-0.813,0.039-2.241v-0.609c0-0.672-0.051-1.162-0.156-1.473c-0.104-0.31-0.285-0.558-0.545-0.742
			c-0.26-0.185-0.57-0.277-0.934-0.277c-0.312,0-0.605,0.066-0.885,0.199c-0.277,0.133-0.492,0.299-0.643,0.496
			c-0.152,0.199-0.244,0.41-0.275,0.633c-0.053,0.359-0.078,0.793-0.078,1.297v0.477c0.025,1.355,0.039,2.086,0.039,2.195
			c0.012,0.262,0.043,0.451,0.094,0.57c0.021,0.047,0.053,0.088,0.096,0.121c0.041,0.035,0.107,0.062,0.195,0.082
			c0.031,0.006,0.32,0.014,0.865,0.022v0.445c-0.719-0.035-1.33-0.056-1.836-0.056C257.941,70.96,257.264,70.98,256.357,71.015z"/>
		<path fill="#004B72" d="M271.307,64.585V64.14c1.01-0.113,1.859-0.332,2.547-0.656l0.172,0.125
			c-0.043,1.109-0.062,1.959-0.062,2.547v1.422c0.025,1.355,0.041,2.086,0.047,2.195c0.004,0.262,0.033,0.451,0.086,0.57
			c0.025,0.047,0.059,0.088,0.102,0.121c0.041,0.035,0.104,0.062,0.188,0.082c0.031,0.006,0.32,0.014,0.867,0.022v0.445
			c-0.793-0.035-1.426-0.056-1.898-0.056c-0.418,0-1.1,0.021-2.047,0.056V70.57l0.746-0.008c0.109-0.004,0.195-0.023,0.256-0.059
			c0.061-0.033,0.105-0.076,0.137-0.129c0.059-0.104,0.096-0.289,0.111-0.556c0-0.065,0.012-0.813,0.039-2.241v-1.375
			c0-0.775-0.027-1.236-0.078-1.384c-0.031-0.077-0.088-0.137-0.168-0.176C272.268,64.605,271.92,64.585,271.307,64.585z
			 M273.213,60.015c0.244,0,0.451,0.086,0.621,0.258c0.168,0.172,0.254,0.381,0.254,0.625c0,0.24-0.086,0.445-0.258,0.617
			c-0.172,0.172-0.379,0.258-0.617,0.258c-0.246,0-0.453-0.086-0.625-0.258c-0.172-0.172-0.258-0.377-0.258-0.617
			c0-0.244,0.086-0.453,0.258-0.625S272.967,60.015,273.213,60.015z"/>
		<path fill="#004B72" d="M276.77,64.89v-0.328c0.502-0.197,0.9-0.375,1.195-0.531c0-1.238,0-2.031,0-2.375
			c0.541-0.188,0.982-0.387,1.32-0.602l0.188,0.156c-0.057,0.434-0.119,1.387-0.188,2.859c0.416,0.007,0.666,0.009,0.75,0.009
			c0.047,0,0.314-0.004,0.805-0.017c0.271-0.004,0.475-0.017,0.609-0.03l0.055,0.055l-0.164,0.727
			c-0.328-0.004-0.631-0.008-0.906-0.008s-0.658,0.004-1.148,0.008l-0.039,3.18c-0.016,0.777-0.01,1.24,0.016,1.391
			c0.025,0.152,0.076,0.283,0.148,0.396c0.072,0.113,0.168,0.203,0.283,0.271c0.117,0.068,0.316,0.121,0.596,0.156
			c0.213,0,0.387-0.009,0.518-0.027c0.133-0.018,0.301-0.062,0.502-0.137l0.094,0.305c-0.244,0.193-0.48,0.395-0.709,0.602
			c-0.199,0.074-0.383,0.121-0.555,0.145c-0.172,0.025-0.369,0.035-0.594,0.035c-0.275,0-0.494-0.03-0.658-0.094
			c-0.164-0.062-0.314-0.148-0.449-0.262c-0.135-0.111-0.248-0.254-0.338-0.426c-0.09-0.172-0.146-0.441-0.174-0.812
			c0.006-0.354,0.016-0.742,0.031-1.164c0.006-0.082,0.008-0.174,0.008-0.273v-3.241h-0.32
			C277.385,64.851,277.092,64.865,276.77,64.89z"/>
		<path fill="#004B72" d="M289.336,69.802l-0.25,0.562c-0.359,0.225-0.623,0.372-0.789,0.446c-0.246,0.108-0.525,0.2-0.84,0.276
			c-0.316,0.076-0.648,0.113-0.996,0.113c-0.688,0-1.311-0.143-1.867-0.43c-0.559-0.285-0.992-0.715-1.301-1.285
			c-0.311-0.57-0.465-1.238-0.465-2.004c0-0.598,0.082-1.139,0.246-1.621c0.164-0.48,0.35-0.836,0.559-1.066
			c0.15-0.166,0.385-0.356,0.703-0.573c0.316-0.216,0.633-0.388,0.945-0.513c0.41-0.172,0.855-0.258,1.336-0.258
			c0.582,0,1.109,0.133,1.582,0.398c0.471,0.266,0.816,0.629,1.035,1.086c0.219,0.459,0.328,0.977,0.328,1.555
			c0,0.146-0.014,0.324-0.039,0.531c-0.375,0.074-0.711,0.121-1.006,0.141c-0.562,0.043-1.125,0.062-1.686,0.062h-2.504
			c0.01,0.748,0.139,1.352,0.387,1.814c0.246,0.461,0.588,0.803,1.023,1.021c0.434,0.219,0.887,0.327,1.355,0.327
			c0.316,0,0.633-0.051,0.949-0.153c0.314-0.104,0.703-0.291,1.168-0.565L289.336,69.802z M284.328,66.609
			c0.145,0.016,0.422,0.031,0.828,0.047c0.775,0.027,1.309,0.039,1.602,0.039c0.691,0,1.148-0.012,1.367-0.039
			c0.004-0.125,0.008-0.221,0.008-0.289c0-0.822-0.168-1.426-0.5-1.812c-0.334-0.386-0.779-0.578-1.336-0.578
			c-0.59,0-1.062,0.211-1.422,0.633C284.515,65.033,284.332,65.699,284.328,66.609z"/>
		<path fill="#004B72" d="M296.197,60.406V59.96c0.578-0.062,1.066-0.137,1.465-0.223c0.398-0.086,0.789-0.191,1.168-0.316
			l0.102,0.07c-0.02,0.443-0.043,1.297-0.07,2.562l-0.03,1.25v4.892c0,0.531,0.01,0.992,0.026,1.38
			c0.021,0.389,0.052,0.62,0.099,0.694c0.047,0.075,0.125,0.138,0.233,0.185c0.109,0.047,0.437,0.094,0.978,0.141v0.422
			c-0.636-0.035-1.082-0.055-1.345-0.055c-0.223,0-0.682,0.02-1.375,0.055c0.017-0.359,0.029-0.844,0.039-1.453
			c-0.207,0.152-0.487,0.379-0.84,0.68c-0.352,0.303-0.625,0.551-0.824,0.742c-0.415,0.105-0.782,0.156-1.101,0.156
			c-0.588,0-1.129-0.145-1.625-0.438c-0.494-0.291-0.875-0.716-1.145-1.271c-0.268-0.556-0.402-1.179-0.402-1.871
			c0-0.521,0.082-1.015,0.246-1.479s0.371-0.826,0.621-1.082c0.141-0.146,0.461-0.367,0.961-0.664s0.906-0.512,1.215-0.646
			c0.311-0.133,0.648-0.198,1.012-0.198c0.328,0,0.65,0.041,0.965,0.12c0.316,0.082,0.621,0.205,0.918,0.371v-2.055
			c0-0.723-0.03-1.164-0.094-1.32c-0.02-0.057-0.059-0.098-0.117-0.125C297.172,60.437,296.812,60.412,296.197,60.406z
			 M297.486,65.318c-0.354-0.389-0.726-0.674-1.113-0.854c-0.387-0.18-0.77-0.271-1.145-0.271c-0.427,0-0.82,0.108-1.181,0.328
			c-0.36,0.22-0.633,0.55-0.824,0.99c-0.189,0.442-0.285,0.973-0.285,1.592c0,0.953,0.238,1.694,0.711,2.231
			c0.475,0.535,1.045,0.804,1.711,0.804c0.348,0,0.66-0.072,0.938-0.22c0.275-0.145,0.518-0.356,0.727-0.639
			c0.209-0.281,0.343-0.594,0.398-0.938c0.043-0.229,0.062-0.793,0.062-1.691V65.318z"/>
		<path fill="#004B72" d="M307.26,71.015v-0.406c0.318-0.15,0.523-0.27,0.611-0.359c0.051-0.047,0.088-0.104,0.106-0.18
			c0.048-0.145,0.078-0.457,0.095-0.936c0.024-0.713,0.039-1.137,0.039-1.273v-4.199c0-0.707-0.009-1.399-0.023-2.076
			c-0.016-0.494-0.055-0.787-0.113-0.879c-0.061-0.092-0.155-0.158-0.289-0.203c-0.133-0.043-0.51-0.07-1.129-0.082v-0.5
			c1.271,0.037,2.058,0.055,2.359,0.055c0.332,0,1.08-0.018,2.242-0.055v0.5c-0.621,0.012-0.996,0.039-1.129,0.082
			c-0.133,0.045-0.228,0.105-0.277,0.184c-0.062,0.104-0.102,0.357-0.117,0.758c-0.008,0.104-0.02,0.842-0.039,2.218v5.246
			c0,0.547,0.013,0.989,0.039,1.334c0.594,0.037,1.183,0.055,1.767,0.055c1.469,0,2.495-0.094,3.086-0.281
			c0.065-0.156,0.127-0.336,0.18-0.539l0.312-1.297h0.523c-0.115,0.777-0.227,1.688-0.336,2.734
			c-0.215,0.043-0.383,0.067-0.508,0.078c-0.271,0.016-0.688,0.022-1.25,0.022l-4.625-0.056
			C308.283,70.96,307.775,70.98,307.26,71.015z"/>
		<path fill="#004B72" d="M317.191,64.585V64.14c1.01-0.113,1.858-0.332,2.547-0.656l0.172,0.125
			c-0.041,1.109-0.062,1.959-0.062,2.547v1.422c0.025,1.355,0.041,2.086,0.047,2.195c0.007,0.262,0.033,0.451,0.087,0.57
			c0.024,0.047,0.061,0.088,0.102,0.121c0.041,0.035,0.104,0.062,0.188,0.082c0.031,0.006,0.32,0.014,0.867,0.022v0.445
			c-0.791-0.035-1.424-0.056-1.897-0.056c-0.416,0-1.101,0.021-2.047,0.056V70.57l0.748-0.008c0.108-0.004,0.192-0.023,0.254-0.059
			c0.061-0.033,0.106-0.076,0.139-0.129c0.057-0.104,0.094-0.289,0.109-0.556c0-0.065,0.014-0.813,0.039-2.241v-1.375
			c0-0.775-0.025-1.236-0.078-1.384c-0.031-0.077-0.088-0.137-0.168-0.176S317.807,64.585,317.191,64.585z M319.098,60.015
			c0.244,0,0.451,0.086,0.621,0.258s0.254,0.381,0.254,0.625c0,0.24-0.086,0.445-0.258,0.617c-0.172,0.172-0.377,0.258-0.617,0.258
			c-0.244,0-0.453-0.086-0.625-0.258c-0.172-0.172-0.258-0.377-0.258-0.617c0-0.244,0.086-0.453,0.258-0.625
			S318.854,60.015,319.098,60.015z"/>
		<path fill="#004B72" d="M323.992,65.664l-0.414-0.108c0.004-0.119,0.008-0.283,0.008-0.492c0-0.22-0.004-0.394-0.008-0.522
			c0.662-0.433,1.205-0.724,1.627-0.875c0.324-0.109,0.686-0.164,1.088-0.164c0.594,0,1.096,0.113,1.502,0.336
			c0.406,0.225,0.709,0.545,0.908,0.961c0.135,0.293,0.203,0.691,0.203,1.195l-0.039,1.43v2.328c0,0.25,0.02,0.43,0.062,0.539
			c0.031,0.078,0.08,0.137,0.148,0.172c0.051,0.031,0.16,0.053,0.328,0.062l0.508,0.047v0.445c-0.428-0.035-0.803-0.056-1.125-0.056
			c-0.312,0-0.73,0.021-1.25,0.056l0.039-1.375c-1.062,0.803-1.693,1.254-1.891,1.354c-0.199,0.103-0.449,0.152-0.75,0.152
			c-0.632,0-1.121-0.168-1.474-0.504c-0.352-0.336-0.526-0.781-0.526-1.34c0-0.359,0.061-0.688,0.184-0.984
			c0.121-0.297,0.27-0.531,0.441-0.707c0.172-0.174,0.346-0.303,0.522-0.387c0.301-0.141,0.793-0.291,1.473-0.453
			c0.681-0.16,1.353-0.281,2.021-0.359c0.004-0.494-0.055-0.879-0.18-1.156c-0.125-0.274-0.336-0.502-0.634-0.68
			c-0.297-0.176-0.659-0.266-1.086-0.266c-0.309,0-0.578,0.043-0.809,0.125c-0.232,0.084-0.375,0.154-0.426,0.211l-0.142,0.281
			C324.164,65.242,324.059,65.488,323.992,65.664z M327.578,66.89c-0.678,0.115-1.256,0.242-1.734,0.383
			c-0.479,0.141-0.817,0.287-1.016,0.438c-0.121,0.09-0.226,0.224-0.312,0.398c-0.137,0.262-0.203,0.551-0.203,0.867
			c0,0.387,0.105,0.688,0.32,0.902c0.213,0.217,0.51,0.324,0.892,0.324c0.348,0,0.692-0.101,1.034-0.302
			c0.341-0.198,0.681-0.5,1.021-0.901L327.578,66.89L327.578,66.89z"/>
		<path fill="#004B72" d="M332.111,71.046c0.062-0.656,0.098-1.068,0.102-1.24c0.031-1.131,0.047-1.793,0.047-1.992v-3.473
			c0-0.869-0.012-1.768-0.039-2.693c-0.02-0.625-0.049-0.975-0.086-1.047c-0.024-0.051-0.067-0.088-0.125-0.109
			c-0.08-0.035-0.44-0.055-1.086-0.055v-0.461c1.178-0.145,1.996-0.328,2.453-0.547c0.068-0.031,0.121-0.047,0.156-0.047
			c0.037,0,0.065,0.012,0.086,0.035s0.031,0.057,0.031,0.098c0,0.037-0.004,0.088-0.017,0.156l-0.008,0.258
			c-0.025,0.932-0.041,1.725-0.047,2.379l-0.016,1.217v1.545l1.077-1.055c0.142-0.119,0.373-0.236,0.695-0.352
			c0.324-0.113,0.668-0.172,1.031-0.172c0.574,0,1.082,0.135,1.522,0.401c0.443,0.271,0.783,0.647,1.021,1.138
			c0.238,0.489,0.354,1.03,0.354,1.625c0,0.459-0.065,0.895-0.202,1.305c-0.136,0.412-0.31,0.779-0.523,1.102
			c-0.156,0.246-0.289,0.412-0.398,0.5L337,70.382c-0.463,0.344-0.824,0.563-1.086,0.66c-0.26,0.098-0.594,0.145-1,0.145
			c-0.348,0-0.672-0.047-0.969-0.141s-0.611-0.258-0.945-0.492l-0.633,0.594L332.111,71.046z M333.564,66.007v2.93
			c0,0.262,0.016,0.428,0.043,0.5c0.028,0.074,0.116,0.17,0.262,0.289c0.219,0.184,0.473,0.328,0.762,0.438
			c0.289,0.11,0.596,0.164,0.918,0.164c0.756,0,1.336-0.291,1.742-0.875c0.406-0.582,0.609-1.305,0.609-2.164
			c0-0.608-0.097-1.119-0.289-1.531c-0.191-0.409-0.457-0.719-0.797-0.926c-0.339-0.205-0.72-0.309-1.142-0.309
			c-0.494,0-0.938,0.143-1.328,0.426C333.955,65.234,333.695,65.585,333.564,66.007z"/>
		<path fill="#004B72" d="M341.1,64.585V64.14c1.011-0.113,1.859-0.332,2.548-0.656l0.172,0.125
			c-0.041,1.109-0.062,1.959-0.062,2.547v1.422c0.025,1.355,0.041,2.086,0.047,2.195c0.006,0.262,0.033,0.451,0.086,0.57
			c0.025,0.047,0.062,0.088,0.103,0.121c0.041,0.035,0.104,0.062,0.188,0.082c0.031,0.006,0.32,0.014,0.867,0.022v0.445
			c-0.791-0.035-1.424-0.056-1.897-0.056c-0.416,0-1.101,0.021-2.048,0.056V70.57l0.748-0.008c0.109-0.004,0.193-0.023,0.254-0.059
			c0.062-0.033,0.107-0.076,0.14-0.129c0.057-0.104,0.094-0.289,0.108-0.556c0-0.065,0.015-0.813,0.039-2.241v-1.375
			c0-0.775-0.024-1.236-0.078-1.384c-0.03-0.077-0.088-0.137-0.168-0.176C342.065,64.604,341.715,64.585,341.1,64.585z
			 M343.006,60.015c0.244,0,0.451,0.086,0.621,0.258s0.254,0.381,0.254,0.625c0,0.24-0.086,0.445-0.258,0.617
			c-0.172,0.172-0.377,0.258-0.617,0.258c-0.244,0-0.453-0.086-0.625-0.258c-0.172-0.172-0.258-0.377-0.258-0.617
			c0-0.244,0.086-0.453,0.258-0.625S342.762,60.015,343.006,60.015z"/>
		<path fill="#004B72" d="M346.604,71.015V70.57l0.734-0.008c0.113-0.004,0.201-0.023,0.262-0.059
			c0.06-0.033,0.105-0.076,0.138-0.129c0.057-0.104,0.09-0.289,0.102-0.554c0.004-0.067,0.023-0.813,0.055-2.241v-3.238
			c0-0.869-0.014-1.768-0.038-2.693c-0.021-0.625-0.052-0.975-0.089-1.047c-0.024-0.051-0.065-0.088-0.125-0.109
			c-0.077-0.035-0.438-0.055-1.084-0.055v-0.461c1.177-0.145,1.994-0.328,2.453-0.547c0.066-0.031,0.119-0.047,0.156-0.047
			c0.035,0,0.063,0.012,0.086,0.035c0.021,0.023,0.031,0.057,0.031,0.098c0,0.037-0.006,0.088-0.017,0.156l-0.008,0.258
			c-0.026,0.932-0.043,1.725-0.047,2.381l-0.016,1.219v4.051c0.021,1.354,0.033,2.086,0.039,2.195
			c0.004,0.26,0.035,0.449,0.094,0.568c0.021,0.047,0.053,0.088,0.094,0.121c0.043,0.035,0.105,0.062,0.189,0.082
			c0.037,0.006,0.328,0.014,0.873,0.022v0.445c-0.709-0.035-1.332-0.056-1.867-0.056C348.107,70.96,347.436,70.98,346.604,71.015z"
			/>
		<path fill="#004B72" d="M352.012,64.585V64.14c1.011-0.113,1.859-0.332,2.547-0.656l0.173,0.125
			c-0.041,1.109-0.062,1.959-0.062,2.547v1.422c0.025,1.355,0.041,2.086,0.047,2.195c0.006,0.262,0.033,0.451,0.086,0.57
			c0.025,0.047,0.062,0.088,0.103,0.121c0.041,0.035,0.104,0.062,0.188,0.082c0.031,0.006,0.32,0.014,0.867,0.022v0.445
			c-0.791-0.035-1.424-0.056-1.898-0.056c-0.416,0-1.1,0.021-2.047,0.056V70.57l0.748-0.008c0.109-0.004,0.193-0.023,0.254-0.059
			c0.062-0.033,0.107-0.076,0.14-0.129c0.057-0.104,0.094-0.289,0.108-0.556c0-0.065,0.015-0.813,0.039-2.241v-1.375
			c0-0.775-0.024-1.236-0.078-1.384c-0.03-0.077-0.088-0.137-0.168-0.176S352.627,64.585,352.012,64.585z M353.918,60.015
			c0.244,0,0.451,0.086,0.621,0.258s0.254,0.381,0.254,0.625c0,0.24-0.086,0.445-0.258,0.617c-0.172,0.172-0.377,0.258-0.617,0.258
			c-0.244,0-0.453-0.086-0.625-0.258c-0.172-0.172-0.258-0.377-0.258-0.617c0-0.244,0.086-0.453,0.258-0.625
			S353.674,60.015,353.918,60.015z"/>
		<path fill="#004B72" d="M357.477,64.89v-0.328c0.5-0.197,0.898-0.375,1.195-0.531c0-1.238,0-2.031,0-2.375
			c0.541-0.188,0.98-0.387,1.32-0.602l0.188,0.156c-0.059,0.434-0.121,1.387-0.188,2.859c0.416,0.007,0.666,0.009,0.75,0.009
			c0.047,0,0.313-0.004,0.805-0.017c0.271-0.004,0.473-0.017,0.609-0.03l0.055,0.055l-0.164,0.727
			c-0.328-0.004-0.631-0.008-0.906-0.008c-0.276,0-0.659,0.004-1.147,0.008l-0.039,3.18c-0.017,0.777-0.012,1.24,0.016,1.391
			c0.025,0.152,0.074,0.283,0.148,0.396c0.072,0.113,0.166,0.203,0.283,0.271c0.116,0.068,0.313,0.121,0.596,0.156
			c0.213,0,0.385-0.009,0.518-0.027c0.134-0.018,0.3-0.062,0.502-0.137l0.095,0.305c-0.244,0.193-0.482,0.395-0.711,0.602
			c-0.197,0.074-0.384,0.121-0.554,0.145c-0.172,0.023-0.369,0.035-0.594,0.035c-0.275,0-0.496-0.03-0.66-0.094
			c-0.162-0.062-0.312-0.148-0.446-0.262c-0.138-0.111-0.248-0.254-0.339-0.426c-0.09-0.172-0.147-0.441-0.174-0.812
			c0.004-0.354,0.017-0.742,0.031-1.164c0.004-0.082,0.008-0.174,0.008-0.273v-3.241h-0.32
			C358.09,64.851,357.799,64.865,357.477,64.89z"/>
		<path fill="#004B72" d="M363.486,75.195l0.397-1.203h0.188c0.1,0.084,0.184,0.15,0.254,0.199c0.07,0.051,0.146,0.088,0.227,0.113
			c0.082,0.027,0.199,0.039,0.355,0.039c0.162,0,0.319-0.035,0.473-0.105c0.154-0.07,0.297-0.18,0.43-0.332
			c0.134-0.15,0.291-0.41,0.474-0.781c0.276-0.557,0.522-1.125,0.742-1.705c-0.166-0.467-0.367-0.994-0.603-1.576l-1.244-3.075
			c-0.371-0.916-0.674-1.619-0.907-2.104c-0.095-0.191-0.193-0.32-0.302-0.386c-0.107-0.065-0.346-0.118-0.715-0.159v-0.445
			c0.646,0.037,1.285,0.055,1.916,0.055c0.615,0,1.207-0.018,1.775-0.055v0.445c-0.535,0.036-0.845,0.069-0.922,0.102
			c-0.136,0.051-0.203,0.145-0.203,0.279c0,0.082,0.045,0.252,0.133,0.51c0.203,0.643,0.396,1.189,0.58,1.643l0.492,1.221
			c0.297,0.73,0.549,1.322,0.752,1.777l0.412-0.924c0.161-0.365,0.444-1.059,0.852-2.082c0.404-1.021,0.643-1.652,0.709-1.893
			c0.021-0.082,0.031-0.156,0.031-0.219c0-0.099-0.039-0.177-0.121-0.23c-0.08-0.055-0.396-0.107-0.941-0.16v-0.469
			c0.605,0.037,1.14,0.055,1.603,0.055c0.469,0,0.934-0.018,1.391-0.055l-0.078,0.469c-0.266,0.012-0.471,0.068-0.617,0.172
			c-0.145,0.105-0.364,0.455-0.659,1.051c-0.293,0.598-0.841,1.77-1.638,3.52l-1.805,4.22c-0.291,0.683-0.545,1.17-0.758,1.461
			s-0.469,0.515-0.767,0.664c-0.297,0.151-0.621,0.228-0.977,0.228c-0.172,0-0.326-0.021-0.465-0.06
			C363.814,75.355,363.658,75.289,363.486,75.195z"/>
		<path fill="#004B72" d="M388.533,69.64l-0.306,0.727c-0.608,0.309-1.206,0.531-1.788,0.668c-0.584,0.139-1.22,0.207-1.906,0.207
			c-0.81,0-1.56-0.102-2.25-0.305c-0.693-0.203-1.299-0.494-1.816-0.871c-0.52-0.379-0.94-0.801-1.27-1.271
			c-0.328-0.469-0.578-0.979-0.75-1.526c-0.172-0.552-0.258-1.153-0.258-1.812c0-1.662,0.577-3.039,1.737-4.13
			c1.158-1.092,2.74-1.639,4.746-1.639c0.474,0,0.912,0.027,1.316,0.082c0.401,0.055,0.895,0.16,1.477,0.312
			c0.58,0.154,0.937,0.244,1.066,0.27c-0.115,0.287-0.201,0.568-0.258,0.844c-0.084,0.443-0.142,0.957-0.173,1.539h-0.491
			l-0.009-0.922c-0.053-0.51-0.336-0.891-0.848-1.141c-0.514-0.25-1.266-0.375-2.254-0.375c-0.74,0.012-1.367,0.105-1.883,0.285
			c-0.517,0.18-0.971,0.465-1.363,0.852c-0.395,0.389-0.715,0.881-0.965,1.477c-0.25,0.597-0.379,1.345-0.383,2.246
			c0,1.578,0.479,2.848,1.444,3.809c0.964,0.961,2.236,1.441,3.82,1.441c0.713,0,1.375-0.098,1.984-0.295
			c0.416-0.133,0.83-0.346,1.242-0.635L388.533,69.64z"/>
		<path fill="#004B72" d="M390.309,67.417c0-1.168,0.371-2.119,1.113-2.857s1.693-1.107,2.855-1.107
			c1.094,0,1.983,0.344,2.672,1.033c0.688,0.688,1.031,1.576,1.031,2.666c0,0.762-0.179,1.457-0.531,2.088
			c-0.354,0.631-0.854,1.125-1.5,1.482c-0.646,0.357-1.357,0.535-2.133,0.535c-0.604,0-1.115-0.102-1.535-0.305
			s-0.76-0.459-1.021-0.767c-0.26-0.31-0.459-0.623-0.594-0.946C390.428,68.671,390.309,68.064,390.309,67.417z M391.785,66.839
			c0,0.641,0.106,1.293,0.32,1.955c0.213,0.662,0.521,1.146,0.926,1.451c0.404,0.305,0.842,0.457,1.315,0.457
			c0.604,0,1.109-0.24,1.517-0.72c0.405-0.479,0.608-1.219,0.608-2.215c0-0.828-0.121-1.543-0.362-2.146
			c-0.242-0.603-0.552-1.027-0.927-1.275c-0.375-0.246-0.789-0.371-1.241-0.371c-0.642,0-1.16,0.232-1.56,0.697
			C391.984,65.136,391.785,65.859,391.785,66.839z"/>
		<path fill="#004B72" d="M399.641,71.015V70.57l0.746-0.008c0.111-0.004,0.195-0.023,0.256-0.059
			c0.062-0.033,0.105-0.076,0.138-0.129c0.059-0.104,0.096-0.289,0.11-0.556c0-0.065,0.013-0.813,0.039-2.241v-0.931
			c0-0.416-0.008-0.862-0.022-1.345c-0.017-0.307-0.041-0.487-0.074-0.547c-0.035-0.057-0.094-0.1-0.176-0.129
			c-0.084-0.026-0.422-0.039-1.017-0.035v-0.444c1.052-0.146,1.82-0.336,2.306-0.569c0.104-0.052,0.174-0.078,0.211-0.078
			c0.035,0,0.063,0.014,0.086,0.039c0.02,0.026,0.031,0.065,0.031,0.117c0,0.036-0.005,0.077-0.009,0.125
			c-0.021,0.25-0.037,0.622-0.047,1.116l1.021-0.938c0.129-0.112,0.209-0.18,0.24-0.194c0.118-0.065,0.29-0.13,0.514-0.188
			c0.225-0.057,0.457-0.086,0.701-0.086c0.498,0,0.94,0.123,1.33,0.367c0.391,0.246,0.688,0.607,0.896,1.086l0.863-0.797
			c0.19-0.176,0.326-0.285,0.397-0.328c0.136-0.078,0.328-0.15,0.578-0.219c0.25-0.066,0.498-0.102,0.744-0.102
			c0.594,0,1.092,0.158,1.492,0.473c0.402,0.316,0.66,0.674,0.774,1.074c0.072,0.266,0.109,0.84,0.109,1.719v0.812l0.021,1.086
			c0.012,0.631,0.02,1,0.02,1.108c0.01,0.263,0.041,0.451,0.094,0.569c0.021,0.048,0.056,0.088,0.099,0.121
			c0.045,0.035,0.108,0.062,0.192,0.082c0.031,0.006,0.32,0.015,0.865,0.023v0.445c-0.654-0.035-1.102-0.055-1.34-0.055
			c-0.229,0-0.689,0.02-1.379,0.055l0.063-2.156l0.021-0.844v-0.672c0-0.875-0.045-1.473-0.133-1.793
			c-0.091-0.32-0.275-0.578-0.562-0.777c-0.285-0.197-0.615-0.297-0.99-0.297c-0.434,0-0.825,0.125-1.176,0.375
			c-0.258,0.193-0.428,0.42-0.51,0.68c-0.082,0.262-0.123,0.77-0.123,1.523v0.523l0.02,1.086c0.009,0.631,0.017,1,0.021,1.108
			c0.01,0.263,0.041,0.45,0.094,0.569c0.021,0.047,0.053,0.088,0.094,0.121c0.043,0.035,0.105,0.062,0.189,0.082
			c0.037,0.006,0.328,0.015,0.873,0.023v0.445c-0.767-0.035-1.381-0.055-1.844-0.055c-0.375,0-1.06,0.02-2.048,0.055V70.57
			l0.746-0.008c0.115-0.004,0.203-0.023,0.265-0.059c0.061-0.033,0.104-0.076,0.139-0.129c0.057-0.104,0.09-0.289,0.103-0.556
			c0.004-0.065,0.018-0.813,0.038-2.241v-0.609c0-0.672-0.053-1.162-0.155-1.473c-0.104-0.31-0.285-0.558-0.545-0.742
			c-0.261-0.185-0.57-0.277-0.935-0.277c-0.312,0-0.606,0.066-0.885,0.199s-0.492,0.299-0.646,0.496
			c-0.149,0.199-0.241,0.41-0.272,0.633c-0.053,0.359-0.078,0.793-0.078,1.297v0.477c0.025,1.355,0.039,2.086,0.039,2.195
			c0.01,0.262,0.041,0.451,0.094,0.57c0.021,0.047,0.054,0.088,0.095,0.121c0.043,0.035,0.106,0.062,0.196,0.082
			c0.031,0.006,0.32,0.014,0.865,0.022v0.445c-0.719-0.035-1.332-0.056-1.836-0.056C401.223,70.96,400.547,70.98,399.641,71.015z"/>
		<path fill="#004B72" d="M414.518,64.578v-0.445c0.095,0,0.293-0.021,0.595-0.065c0.303-0.043,0.639-0.118,1.008-0.228
			c0.371-0.104,0.647-0.209,0.836-0.309c0.059-0.031,0.104-0.047,0.141-0.047c0.037,0,0.066,0.014,0.09,0.039
			c0.023,0.027,0.035,0.07,0.035,0.133c0,0.027-0.002,0.09-0.008,0.188c-0.01,0.152-0.016,0.289-0.016,0.414v0.828
			c0.881-0.815,1.43-1.276,1.647-1.383c0.287-0.141,0.715-0.211,1.281-0.211c0.662,0,1.232,0.15,1.711,0.449
			c0.48,0.301,0.828,0.688,1.043,1.164c0.217,0.477,0.324,0.986,0.324,1.527c0,0.328-0.037,0.639-0.113,0.93
			c-0.074,0.293-0.172,0.566-0.289,0.824s-0.246,0.496-0.391,0.711c-0.144,0.217-0.277,0.379-0.402,0.488
			c-0.071,0.067-0.262,0.225-0.565,0.469c-0.306,0.246-0.629,0.457-0.978,0.637c-0.346,0.18-0.586,0.291-0.723,0.332
			c-0.297,0.094-0.611,0.141-0.945,0.141c-0.26,0-0.514-0.031-0.762-0.094c-0.246-0.062-0.527-0.168-0.84-0.32v1.242
			c0.021,1.318,0.035,2.045,0.039,2.18c0.006,0.256,0.037,0.443,0.096,0.562c0.02,0.059,0.053,0.104,0.098,0.137
			c0.045,0.035,0.109,0.06,0.193,0.074c0.047,0.012,0.357,0.021,0.934,0.031v0.445c-0.649-0.025-1.512-0.039-2.586-0.039
			c-0.594,0-1.049,0.014-1.367,0.039v-0.445l0.748-0.008c0.109-0.004,0.195-0.023,0.257-0.059c0.059-0.033,0.104-0.076,0.137-0.129
			c0.057-0.105,0.094-0.289,0.108-0.556c0.007-0.067,0.019-0.812,0.039-2.235v-2.775c0-0.902-0.01-1.826-0.03-2.775
			s-0.043-1.467-0.066-1.553c-0.022-0.086-0.061-0.15-0.113-0.195c-0.051-0.043-0.118-0.074-0.202-0.09L414.518,64.578z
			 M417.197,69.406c0.276,0.281,0.592,0.504,0.944,0.664c0.355,0.162,0.728,0.242,1.117,0.242c0.476,0,0.906-0.117,1.293-0.355
			c0.39-0.235,0.695-0.604,0.922-1.104c0.228-0.5,0.341-1.043,0.341-1.634c0-0.565-0.107-1.061-0.324-1.479
			c-0.215-0.419-0.521-0.734-0.918-0.945c-0.396-0.211-0.793-0.316-1.195-0.316c-0.297,0-0.59,0.059-0.879,0.176
			s-0.551,0.289-0.785,0.512c-0.234,0.226-0.391,0.438-0.469,0.642c-0.031,0.101-0.047,0.289-0.047,0.569V69.406z"/>
		<path fill="#004B72" d="M426.35,65.664l-0.414-0.108c0.007-0.119,0.009-0.283,0.009-0.492c0-0.22-0.002-0.394-0.009-0.522
			c0.662-0.433,1.205-0.724,1.628-0.875c0.323-0.109,0.688-0.164,1.088-0.164c0.596,0,1.096,0.113,1.502,0.336
			c0.407,0.225,0.711,0.545,0.907,0.961c0.136,0.293,0.203,0.691,0.203,1.195l-0.039,1.43v2.328c0,0.25,0.021,0.43,0.062,0.539
			c0.031,0.078,0.08,0.137,0.148,0.172c0.053,0.031,0.161,0.053,0.327,0.062l0.509,0.047v0.445
			c-0.429-0.035-0.804-0.056-1.125-0.056c-0.312,0-0.729,0.021-1.25,0.056l0.039-1.375c-1.062,0.803-1.693,1.254-1.892,1.354
			c-0.198,0.102-0.447,0.152-0.75,0.152c-0.631,0-1.121-0.168-1.473-0.504c-0.353-0.336-0.527-0.781-0.527-1.34
			c0-0.359,0.062-0.688,0.185-0.984c0.122-0.296,0.27-0.531,0.44-0.707c0.172-0.174,0.346-0.303,0.523-0.387
			c0.303-0.141,0.793-0.291,1.473-0.453c0.68-0.16,1.354-0.281,2.021-0.359c0.006-0.494-0.056-0.879-0.181-1.156
			c-0.125-0.274-0.336-0.502-0.633-0.68c-0.297-0.176-0.658-0.266-1.086-0.266c-0.307,0-0.576,0.043-0.809,0.125
			c-0.232,0.084-0.373,0.154-0.427,0.211l-0.141,0.281C426.521,65.242,426.418,65.488,426.35,65.664z M429.936,66.89
			c-0.678,0.115-1.256,0.242-1.733,0.383c-0.479,0.141-0.818,0.287-1.017,0.438c-0.118,0.09-0.225,0.224-0.312,0.398
			c-0.135,0.262-0.203,0.551-0.203,0.867c0,0.387,0.107,0.688,0.32,0.902c0.213,0.217,0.51,0.324,0.891,0.324
			c0.351,0,0.693-0.101,1.035-0.302c0.342-0.198,0.682-0.5,1.02-0.901L429.936,66.89L429.936,66.89z"/>
		<path fill="#004B72" d="M433.674,71.015V70.57l0.746-0.008c0.109-0.004,0.195-0.023,0.256-0.059
			c0.062-0.033,0.105-0.076,0.138-0.129c0.059-0.104,0.096-0.289,0.11-0.556c0-0.065,0.012-0.813,0.039-2.241v-0.931
			c0-0.416-0.008-0.862-0.022-1.345c-0.017-0.307-0.041-0.487-0.074-0.547c-0.035-0.057-0.094-0.1-0.176-0.129
			c-0.084-0.026-0.423-0.039-1.017-0.035v-0.444c1.051-0.146,1.82-0.336,2.305-0.569c0.104-0.052,0.175-0.078,0.212-0.078
			c0.034,0,0.063,0.014,0.086,0.039c0.02,0.026,0.03,0.065,0.03,0.117c0,0.036-0.004,0.077-0.008,0.125
			c-0.016,0.188-0.031,0.584-0.047,1.188l1.453-1.242c0.426-0.156,0.83-0.234,1.211-0.234c0.422,0,0.82,0.086,1.199,0.258
			c0.377,0.172,0.66,0.39,0.852,0.648c0.189,0.262,0.316,0.59,0.379,0.984c0.035,0.234,0.056,0.889,0.056,1.961v1.383
			c0,0.678,0.018,1.139,0.055,1.383c0.025,0.156,0.066,0.266,0.121,0.324c0.055,0.061,0.139,0.098,0.254,0.113l0.836,0.022v0.445
			c-0.512-0.035-0.936-0.056-1.273-0.056c-0.293,0-0.776,0.021-1.452,0.056c0.071-1.285,0.108-2.099,0.108-2.438v-1.312
			c0-0.815-0.031-1.354-0.094-1.608c-0.09-0.349-0.289-0.63-0.603-0.845c-0.312-0.213-0.69-0.319-1.133-0.319
			c-0.391,0-0.748,0.094-1.069,0.276c-0.324,0.187-0.556,0.397-0.691,0.642c-0.139,0.241-0.207,0.649-0.207,1.223v0.945
			c0.025,1.354,0.039,2.086,0.039,2.194c0.01,0.263,0.041,0.451,0.094,0.569c0.021,0.048,0.054,0.089,0.095,0.121
			c0.043,0.035,0.106,0.062,0.196,0.082c0.031,0.006,0.32,0.015,0.865,0.023v0.445c-0.637-0.035-1.211-0.055-1.727-0.055
			C435.377,70.96,434.662,70.98,433.674,71.015z"/>
		<path fill="#004B72" d="M443.918,75.195l0.398-1.203h0.188c0.1,0.084,0.184,0.15,0.254,0.199c0.07,0.051,0.146,0.088,0.228,0.113
			c0.08,0.027,0.198,0.039,0.354,0.039c0.162,0,0.318-0.035,0.473-0.105c0.155-0.07,0.298-0.18,0.431-0.332
			c0.133-0.15,0.291-0.41,0.473-0.781c0.275-0.557,0.523-1.125,0.742-1.705c-0.168-0.467-0.367-0.994-0.604-1.576l-1.243-3.075
			c-0.369-0.916-0.673-1.619-0.906-2.104c-0.094-0.191-0.193-0.32-0.301-0.386c-0.108-0.065-0.347-0.118-0.716-0.159v-0.445
			c0.646,0.037,1.285,0.055,1.916,0.055c0.615,0,1.207-0.018,1.775-0.055v0.445c-0.537,0.036-0.844,0.069-0.922,0.102
			c-0.135,0.051-0.203,0.145-0.203,0.279c0,0.082,0.045,0.252,0.133,0.51c0.203,0.643,0.396,1.189,0.58,1.643l0.492,1.221
			c0.297,0.73,0.547,1.322,0.752,1.777l0.412-0.924c0.162-0.365,0.445-1.059,0.852-2.082c0.404-1.021,0.642-1.652,0.709-1.893
			c0.021-0.082,0.031-0.156,0.031-0.219c0-0.099-0.041-0.177-0.121-0.23c-0.08-0.055-0.395-0.107-0.94-0.16v-0.469
			c0.604,0.037,1.139,0.055,1.602,0.055c0.469,0,0.932-0.018,1.391-0.055l-0.077,0.469c-0.267,0.012-0.472,0.068-0.617,0.172
			c-0.146,0.105-0.365,0.455-0.66,1.051c-0.295,0.598-0.84,1.77-1.637,3.52l-1.808,4.22c-0.291,0.683-0.543,1.17-0.756,1.461
			s-0.469,0.515-0.766,0.664c-0.297,0.151-0.623,0.228-0.978,0.228c-0.172,0-0.326-0.021-0.465-0.06S444.09,75.289,443.918,75.195z"
			/>
		<path fill="#004B72" d="M232.365,91.812l-0.266,0.637c-0.533,0.268-1.057,0.463-1.566,0.584c-0.509,0.121-1.066,0.182-1.668,0.182
			c-0.707,0-1.363-0.09-1.969-0.268s-1.135-0.432-1.59-0.762c-0.453-0.332-0.822-0.701-1.109-1.111
			c-0.287-0.412-0.506-0.857-0.656-1.338c-0.15-0.482-0.227-1.01-0.227-1.584c0-1.455,0.508-2.66,1.521-3.615
			s2.398-1.434,4.152-1.434c0.414,0,0.799,0.023,1.152,0.072c0.354,0.047,0.783,0.139,1.291,0.273
			c0.51,0.135,0.82,0.213,0.934,0.235c-0.1,0.25-0.176,0.496-0.225,0.737c-0.074,0.388-0.123,0.836-0.15,1.347h-0.432l-0.006-0.808
			c-0.047-0.444-0.293-0.778-0.742-0.998c-0.449-0.219-1.107-0.328-1.973-0.328c-0.646,0.011-1.195,0.093-1.646,0.25
			c-0.451,0.156-0.85,0.406-1.193,0.744c-0.344,0.34-0.625,0.771-0.844,1.293c-0.219,0.522-0.332,1.179-0.336,1.966
			c0,1.381,0.422,2.491,1.266,3.331c0.842,0.843,1.957,1.263,3.342,1.263c0.625,0,1.203-0.086,1.736-0.258
			c0.365-0.117,0.727-0.304,1.088-0.556L232.365,91.812z"/>
		<path fill="#004B72" d="M239.498,91.955l-0.219,0.492c-0.314,0.195-0.545,0.326-0.689,0.391c-0.215,0.097-0.459,0.177-0.736,0.242
			c-0.275,0.066-0.566,0.101-0.871,0.101c-0.602,0-1.146-0.125-1.633-0.375c-0.488-0.253-0.867-0.628-1.139-1.125
			c-0.271-0.5-0.406-1.084-0.406-1.755c0-0.522,0.07-0.995,0.215-1.418c0.143-0.422,0.307-0.731,0.488-0.934
			c0.133-0.145,0.338-0.312,0.615-0.502c0.277-0.189,0.555-0.338,0.828-0.447c0.359-0.149,0.748-0.227,1.168-0.227
			c0.51,0,0.973,0.117,1.385,0.35c0.412,0.233,0.715,0.549,0.906,0.949c0.191,0.402,0.287,0.855,0.287,1.361
			c0,0.127-0.012,0.281-0.035,0.465c-0.328,0.062-0.621,0.104-0.881,0.123c-0.49,0.035-0.982,0.055-1.475,0.055h-2.189
			c0.008,0.652,0.121,1.182,0.338,1.586c0.217,0.404,0.516,0.703,0.895,0.896c0.381,0.19,0.777,0.286,1.188,0.286
			c0.277,0,0.555-0.045,0.83-0.135c0.275-0.09,0.615-0.256,1.021-0.496L239.498,91.955z M235.117,89.16
			c0.127,0.014,0.369,0.027,0.725,0.041c0.678,0.023,1.145,0.035,1.4,0.035c0.605,0,1.006-0.012,1.197-0.035
			c0.004-0.109,0.006-0.193,0.006-0.252c0-0.721-0.146-1.25-0.438-1.586c-0.291-0.338-0.682-0.506-1.168-0.506
			c-0.516,0-0.93,0.184-1.244,0.553C235.281,87.779,235.121,88.363,235.117,89.16z"/>
		<path fill="#004B72" d="M241.182,93.015v-0.389c0.52-0.01,0.799-0.021,0.84-0.027c0.078-0.014,0.137-0.035,0.176-0.066
			c0.039-0.029,0.068-0.07,0.092-0.125c0.047-0.105,0.074-0.27,0.082-0.492c0.023-1.217,0.035-1.854,0.035-1.908v-0.812
			c0-0.364-0.008-0.758-0.021-1.176c-0.008-0.271-0.027-0.431-0.057-0.479c-0.031-0.051-0.082-0.088-0.158-0.113
			c-0.074-0.024-0.373-0.034-0.893-0.03v-0.39c0.922-0.129,1.594-0.295,2.018-0.5c0.092-0.045,0.152-0.067,0.184-0.067
			c0.033,0,0.059,0.013,0.076,0.035c0.018,0.021,0.027,0.058,0.027,0.103c0,0.032-0.002,0.067-0.008,0.108
			c-0.021,0.278-0.035,0.709-0.041,1.293c0.205-0.237,0.395-0.474,0.568-0.705s0.299-0.383,0.375-0.45
			c0.137-0.117,0.295-0.214,0.473-0.283c0.178-0.07,0.361-0.105,0.553-0.105s0.381,0.041,0.568,0.123l0.041,0.096
			c-0.068,0.605-0.107,1.139-0.117,1.6h-0.307c-0.105-0.219-0.227-0.379-0.365-0.479c-0.141-0.102-0.314-0.15-0.523-0.15
			c-0.352,0-0.65,0.146-0.896,0.435c-0.246,0.289-0.369,0.724-0.369,1.303v0.703c0,0.302,0.012,0.851,0.035,1.647
			c0.004,0.281,0.016,0.463,0.033,0.539c0.02,0.078,0.043,0.133,0.072,0.168c0.029,0.033,0.078,0.062,0.146,0.086
			c0.137,0.041,0.506,0.082,1.107,0.123v0.39c-0.801-0.031-1.484-0.047-2.051-0.047C242.295,92.968,241.729,92.984,241.182,93.015z"
			/>
		<path fill="#004B72" d="M247.406,87.656v-0.287c0.438-0.172,0.787-0.328,1.045-0.465c0-1.084,0-1.777,0-2.078
			c0.475-0.164,0.859-0.34,1.156-0.525l0.164,0.138c-0.051,0.377-0.105,1.211-0.164,2.502c0.365,0.004,0.584,0.006,0.656,0.006
			c0.041,0,0.275-0.004,0.703-0.014c0.238-0.005,0.416-0.015,0.533-0.027l0.049,0.05l-0.145,0.635
			c-0.287-0.004-0.551-0.006-0.793-0.006c-0.24,0-0.576,0.002-1.004,0.006l-0.035,2.783c-0.014,0.678-0.008,1.084,0.014,1.217
			c0.023,0.131,0.066,0.246,0.131,0.344c0.062,0.1,0.146,0.178,0.248,0.236c0.102,0.061,0.275,0.104,0.521,0.137
			c0.186,0,0.336-0.008,0.453-0.023c0.115-0.016,0.262-0.057,0.439-0.119l0.08,0.267c-0.213,0.17-0.42,0.344-0.621,0.526
			c-0.172,0.062-0.334,0.105-0.484,0.125c-0.15,0.021-0.322,0.031-0.52,0.031c-0.24,0-0.434-0.027-0.576-0.082
			c-0.142-0.055-0.273-0.131-0.393-0.229c-0.12-0.098-0.217-0.223-0.295-0.373c-0.078-0.15-0.129-0.387-0.152-0.711
			c0.004-0.309,0.014-0.648,0.027-1.018c0.004-0.074,0.006-0.152,0.006-0.24v-2.836h-0.279
			C247.943,87.623,247.689,87.634,247.406,87.656z"/>
		<path fill="#004B72" d="M252.666,87.39V87c0.883-0.1,1.627-0.291,2.229-0.574l0.15,0.109c-0.037,0.971-0.055,1.715-0.055,2.229
			v1.243c0.021,1.187,0.035,1.826,0.041,1.923c0.004,0.228,0.029,0.396,0.074,0.497c0.023,0.041,0.053,0.076,0.09,0.105
			c0.035,0.031,0.09,0.055,0.164,0.072c0.027,0.006,0.279,0.012,0.758,0.021v0.389c-0.693-0.031-1.246-0.047-1.66-0.047
			c-0.365,0-0.963,0.016-1.791,0.047v-0.389l0.652-0.008c0.098-0.004,0.172-0.021,0.225-0.052c0.053-0.03,0.092-0.065,0.119-0.112
			c0.051-0.09,0.084-0.252,0.098-0.484c0-0.061,0.01-0.713,0.033-1.963v-1.203c0-0.678-0.023-1.082-0.068-1.209
			c-0.027-0.068-0.076-0.121-0.146-0.154C253.508,87.406,253.203,87.39,252.666,87.39z M254.334,83.39
			c0.213,0,0.395,0.076,0.543,0.227c0.148,0.151,0.223,0.332,0.223,0.547c0,0.209-0.076,0.389-0.227,0.539s-0.33,0.228-0.539,0.228
			c-0.215,0-0.396-0.076-0.547-0.228c-0.151-0.15-0.227-0.33-0.227-0.539c0-0.215,0.076-0.396,0.227-0.547
			C253.938,83.466,254.119,83.39,254.334,83.39z"/>
		<path fill="#004B72" d="M257.652,87.669v-0.277c0.355-0.148,0.67-0.307,0.943-0.475v-0.41c0-0.592,0.037-1.01,0.111-1.254
			c0.076-0.244,0.182-0.461,0.318-0.652c0.205-0.283,0.529-0.643,0.971-1.08c0.297-0.287,0.516-0.467,0.656-0.541
			c0.188-0.096,0.406-0.143,0.656-0.143c0.178,0,0.359,0.029,0.547,0.088l0.027,1.135l-0.156,0.062
			c-0.143-0.119-0.281-0.205-0.422-0.261c-0.139-0.055-0.301-0.082-0.488-0.082c-0.246,0-0.447,0.05-0.602,0.15
			c-0.154,0.1-0.268,0.243-0.338,0.43c-0.07,0.188-0.105,0.567-0.105,1.144v1.414h0.725c0.363,0,0.721-0.017,1.072-0.047
			l0.068,0.041l-0.137,0.711c-0.396-0.021-0.688-0.027-0.875-0.027c-0.191,0-0.477,0.008-0.854,0.027v2.442
			c0,0.302,0.01,0.851,0.033,1.646c0.004,0.283,0.016,0.463,0.035,0.541c0.018,0.076,0.041,0.133,0.07,0.166
			c0.031,0.035,0.08,0.062,0.148,0.086c0.137,0.041,0.506,0.082,1.107,0.123v0.389c-1.062-0.031-1.709-0.047-1.941-0.047
			c-0.211,0-0.797,0.016-1.758,0.047v-0.389l0.654-0.008c0.096-0.004,0.17-0.021,0.223-0.052c0.053-0.03,0.094-0.065,0.121-0.112
			c0.051-0.09,0.082-0.252,0.096-0.484c0-0.059,0.012-0.711,0.035-1.959v-2.389L257.652,87.669z"/>
		<path fill="#004B72" d="M262.803,87.39V87c0.883-0.1,1.627-0.291,2.229-0.574l0.15,0.109c-0.037,0.971-0.055,1.715-0.055,2.229
			v1.243c0.021,1.187,0.035,1.826,0.041,1.923c0.004,0.228,0.029,0.396,0.074,0.497c0.023,0.041,0.053,0.076,0.09,0.105
			c0.035,0.031,0.09,0.055,0.164,0.072c0.027,0.006,0.279,0.012,0.758,0.021v0.389c-0.693-0.031-1.246-0.047-1.66-0.047
			c-0.365,0-0.963,0.016-1.791,0.047v-0.389l0.652-0.008c0.098-0.004,0.172-0.021,0.225-0.052c0.053-0.03,0.092-0.065,0.119-0.112
			c0.051-0.09,0.084-0.252,0.098-0.484c0-0.061,0.01-0.713,0.033-1.963v-1.203c0-0.678-0.023-1.082-0.068-1.209
			c-0.027-0.068-0.076-0.121-0.146-0.154C263.645,87.406,263.34,87.39,262.803,87.39z M264.471,83.39
			c0.213,0,0.395,0.076,0.543,0.227c0.148,0.151,0.223,0.332,0.223,0.547c0,0.209-0.076,0.389-0.227,0.539
			c-0.151,0.15-0.33,0.228-0.539,0.228c-0.215,0-0.396-0.076-0.547-0.228c-0.151-0.15-0.227-0.33-0.227-0.539
			c0-0.215,0.076-0.396,0.227-0.547C264.075,83.466,264.256,83.39,264.471,83.39z"/>
		<path fill="#004B72" d="M273.311,91.955l-0.219,0.492c-0.314,0.195-0.543,0.326-0.689,0.391c-0.215,0.097-0.459,0.177-0.734,0.242
			c-0.277,0.066-0.566,0.101-0.873,0.101c-0.602,0-1.145-0.125-1.633-0.375c-0.488-0.253-0.867-0.628-1.139-1.125
			c-0.271-0.5-0.406-1.084-0.406-1.755c0-0.522,0.072-0.995,0.215-1.418c0.145-0.422,0.307-0.731,0.488-0.934
			c0.133-0.145,0.338-0.312,0.615-0.502c0.279-0.189,0.555-0.338,0.828-0.447c0.359-0.149,0.75-0.227,1.168-0.227
			c0.512,0,0.973,0.117,1.385,0.35c0.412,0.233,0.715,0.549,0.906,0.949c0.191,0.402,0.287,0.855,0.287,1.361
			c0,0.127-0.012,0.281-0.035,0.465c-0.326,0.062-0.621,0.104-0.879,0.123c-0.492,0.035-0.984,0.055-1.475,0.055h-2.191
			c0.01,0.652,0.121,1.182,0.338,1.586c0.217,0.404,0.516,0.703,0.896,0.896c0.379,0.19,0.775,0.286,1.186,0.286
			c0.277,0,0.555-0.045,0.83-0.135c0.275-0.09,0.617-0.256,1.021-0.496L273.311,91.955z M268.93,89.16
			c0.127,0.014,0.369,0.027,0.725,0.041c0.68,0.023,1.146,0.035,1.4,0.035c0.607,0,1.006-0.012,1.197-0.035
			c0.004-0.109,0.006-0.193,0.006-0.252c0-0.721-0.145-1.25-0.438-1.586c-0.291-0.338-0.68-0.506-1.168-0.506
			c-0.516,0-0.93,0.184-1.244,0.553S268.934,88.363,268.93,89.16z"/>
		<path fill="#004B72" d="M279.316,83.732v-0.389c0.506-0.055,0.934-0.121,1.281-0.195c0.35-0.076,0.689-0.168,1.021-0.277
			l0.09,0.062c-0.018,0.387-0.039,1.135-0.062,2.242l-0.027,1.094v4.279c0,0.465,0.008,0.867,0.025,1.205
			c0.016,0.34,0.043,0.543,0.084,0.608s0.109,0.119,0.205,0.16c0.096,0.041,0.381,0.082,0.855,0.123v0.369
			c-0.557-0.031-0.947-0.048-1.176-0.048c-0.195,0-0.598,0.017-1.203,0.048c0.014-0.313,0.025-0.738,0.033-1.271
			c-0.182,0.133-0.426,0.33-0.734,0.596c-0.307,0.264-0.547,0.479-0.721,0.647c-0.365,0.093-0.686,0.138-0.965,0.138
			c-0.514,0-0.988-0.127-1.422-0.383c-0.432-0.255-0.766-0.625-1-1.111c-0.236-0.484-0.354-1.029-0.354-1.637
			c0-0.455,0.072-0.888,0.217-1.295c0.143-0.408,0.324-0.724,0.543-0.947c0.123-0.127,0.402-0.32,0.84-0.58s0.793-0.449,1.064-0.564
			c0.27-0.117,0.566-0.174,0.885-0.174c0.287,0,0.568,0.035,0.844,0.105c0.276,0.069,0.543,0.18,0.803,0.323v-1.797
			c0-0.635-0.027-1.021-0.082-1.155c-0.018-0.05-0.051-0.086-0.102-0.109C280.168,83.759,279.854,83.738,279.316,83.732z
			 M280.443,88.031c-0.309-0.342-0.635-0.59-0.973-0.748c-0.34-0.156-0.674-0.234-1.002-0.234c-0.373,0-0.719,0.097-1.033,0.287
			c-0.314,0.189-0.555,0.479-0.721,0.865c-0.166,0.389-0.25,0.852-0.25,1.396c0,0.831,0.207,1.481,0.623,1.95
			c0.414,0.47,0.912,0.703,1.496,0.703c0.305,0,0.578-0.062,0.82-0.19c0.24-0.127,0.453-0.312,0.635-0.56
			c0.184-0.246,0.301-0.52,0.35-0.819c0.037-0.199,0.055-0.693,0.055-1.479V88.031z"/>
		<path fill="#004B72" d="M288.496,83.746v-0.438c0.916,0.033,1.641,0.049,2.174,0.049c0.355,0,0.732-0.006,1.135-0.016l1.072-0.039
			c0.119-0.004,0.229-0.008,0.328-0.008c0.725,0,1.295,0.08,1.709,0.24c0.414,0.157,0.738,0.411,0.971,0.762
			c0.232,0.348,0.35,0.746,0.35,1.193c0,0.399-0.098,0.799-0.291,1.194c-0.192,0.396-0.475,0.731-0.844,1.008
			c-0.369,0.276-0.755,0.476-1.156,0.593c-0.273,0.082-0.584,0.123-0.93,0.123c-0.291,0-0.605-0.031-0.943-0.097l-0.143-0.506
			c0.404,0.096,0.725,0.146,0.957,0.146c0.342,0,0.666-0.084,0.973-0.25c0.309-0.168,0.547-0.418,0.719-0.755
			c0.17-0.336,0.256-0.706,0.256-1.112c0-0.394-0.082-0.746-0.25-1.064c-0.166-0.316-0.418-0.557-0.758-0.723
			c-0.34-0.164-0.752-0.246-1.234-0.246c-0.434,0-0.898,0.078-1.395,0.232c-0.041,0.481-0.061,1.237-0.061,2.268v3.443
			c0,0.618,0.006,1.223,0.02,1.811c0.014,0.432,0.047,0.689,0.1,0.771c0.053,0.082,0.137,0.143,0.252,0.182
			c0.117,0.037,0.445,0.062,0.988,0.07v0.438c-0.844-0.031-1.463-0.047-1.859-0.047c-0.154,0-0.867,0.016-2.139,0.047v-0.438
			c0.535-0.009,0.861-0.033,0.979-0.07c0.117-0.039,0.199-0.094,0.244-0.162c0.055-0.09,0.09-0.311,0.104-0.662
			c0.006-0.096,0.016-0.742,0.033-1.939v-3.162c0-0.619-0.006-1.227-0.02-1.817c-0.014-0.433-0.047-0.688-0.1-0.769
			c-0.053-0.08-0.137-0.139-0.254-0.178C289.367,83.779,289.037,83.755,288.496,83.746z"/>
		<path fill="#004B72" d="M305.369,92.626v0.389c-0.598-0.031-1.049-0.047-1.354-0.047c-0.339,0-0.681,0.016-1.025,0.047
			c0.027-0.369,0.049-0.783,0.062-1.244c-0.272,0.219-0.6,0.518-0.979,0.896c-0.087,0.086-0.171,0.149-0.253,0.19
			c-0.196,0.108-0.393,0.188-0.588,0.233c-0.194,0.05-0.43,0.072-0.703,0.072c-0.368,0-0.678-0.049-0.926-0.149
			s-0.461-0.252-0.639-0.457c-0.133-0.149-0.234-0.347-0.307-0.586c-0.07-0.238-0.105-0.527-0.105-0.863
			c0-0.159,0.006-0.312,0.016-0.45c0.013-0.144,0.019-0.281,0.019-0.418v-1.169c0-0.118-0.006-0.418-0.021-0.896
			c-0.01-0.301-0.03-0.496-0.062-0.588c-0.019-0.045-0.047-0.082-0.088-0.109c-0.067-0.045-0.188-0.068-0.363-0.068
			c-0.25,0-0.448-0.002-0.594-0.006v-0.391c0.979-0.109,1.688-0.285,2.133-0.525c0.072-0.041,0.129-0.062,0.17-0.062
			c0.031,0,0.06,0.013,0.078,0.035c0.021,0.021,0.031,0.058,0.031,0.103c0,0.037-0.002,0.082-0.007,0.138
			c-0.02,0.146-0.034,0.426-0.049,0.842c-0.026,0.76-0.041,1.271-0.041,1.531v1.332c0,0.557,0.037,0.946,0.113,1.172
			c0.074,0.227,0.221,0.405,0.438,0.541c0.217,0.135,0.483,0.2,0.803,0.2c0.22,0,0.437-0.036,0.651-0.112
			c0.218-0.074,0.41-0.185,0.585-0.324c0.127-0.105,0.258-0.246,0.391-0.424c0.101-0.133,0.166-0.234,0.199-0.306
			c0.03-0.069,0.051-0.174,0.062-0.312c0.022-0.399,0.034-0.799,0.034-1.194v-0.573c0-0.119-0.008-0.418-0.021-0.896
			c-0.01-0.301-0.029-0.496-0.062-0.588c-0.02-0.045-0.049-0.082-0.09-0.109c-0.067-0.045-0.188-0.068-0.36-0.068
			c-0.252,0-0.449-0.002-0.597-0.006v-0.391c0.978-0.109,1.687-0.285,2.127-0.525c0.072-0.041,0.13-0.062,0.171-0.062
			c0.032,0,0.059,0.012,0.077,0.034c0.021,0.021,0.031,0.058,0.031,0.103c0,0.037-0.002,0.082-0.006,0.138
			c-0.015,0.146-0.027,0.436-0.046,0.869c-0.024,0.741-0.036,1.243-0.036,1.504v0.936l0.014,0.951
			c0.017,0.551,0.027,0.875,0.033,0.971c0.004,0.227,0.028,0.395,0.073,0.498c0.023,0.041,0.054,0.076,0.091,0.105
			c0.034,0.03,0.09,0.055,0.161,0.071C304.643,92.611,304.895,92.617,305.369,92.626z"/>
		<path fill="#004B72" d="M307.312,93.042c0.055-0.574,0.086-0.937,0.09-1.086c0.026-0.988,0.041-1.568,0.041-1.742v-3.039
			c0-0.76-0.013-1.547-0.035-2.357c-0.019-0.545-0.043-0.852-0.074-0.914c-0.023-0.047-0.061-0.078-0.111-0.096
			c-0.067-0.033-0.385-0.049-0.948-0.049v-0.402c1.03-0.129,1.745-0.287,2.146-0.479c0.062-0.027,0.105-0.041,0.137-0.041
			c0.033,0,0.06,0.01,0.076,0.029c0.019,0.021,0.027,0.051,0.027,0.086c0,0.03-0.004,0.078-0.015,0.137l-0.008,0.225
			c-0.021,0.816-0.035,1.51-0.041,2.082l-0.014,1.066v1.352l0.943-0.924c0.123-0.104,0.325-0.207,0.608-0.307
			c0.283-0.103,0.584-0.15,0.902-0.15c0.502,0,0.945,0.117,1.332,0.352c0.389,0.234,0.686,0.566,0.893,0.994
			c0.207,0.43,0.312,0.902,0.312,1.422c0,0.402-0.06,0.781-0.179,1.143c-0.116,0.359-0.27,0.683-0.457,0.964
			c-0.137,0.215-0.254,0.36-0.35,0.438l-0.998,0.719c-0.404,0.301-0.721,0.492-0.949,0.576c-0.229,0.086-0.52,0.127-0.875,0.127
			c-0.305,0-0.588-0.041-0.848-0.123s-0.535-0.226-0.828-0.43l-0.553,0.52L307.312,93.042z M308.584,88.634v2.562
			c0,0.229,0.014,0.375,0.039,0.438c0.023,0.064,0.102,0.148,0.229,0.254c0.191,0.158,0.414,0.287,0.666,0.383
			c0.255,0.096,0.521,0.143,0.804,0.143c0.662,0,1.17-0.254,1.524-0.766c0.355-0.51,0.533-1.141,0.533-1.893
			c0-0.533-0.084-0.98-0.254-1.34c-0.168-0.361-0.4-0.631-0.697-0.812c-0.295-0.181-0.629-0.271-0.998-0.271
			c-0.432,0-0.819,0.123-1.162,0.371C308.926,87.957,308.699,88.265,308.584,88.634z"/>
		<path fill="#004B72" d="M315.219,93.015v-0.389l0.644-0.008c0.1-0.004,0.176-0.021,0.229-0.052s0.092-0.065,0.119-0.112
			c0.051-0.09,0.08-0.252,0.09-0.484c0.004-0.059,0.021-0.713,0.047-1.961v-2.834c0-0.76-0.01-1.547-0.032-2.357
			c-0.021-0.545-0.043-0.852-0.076-0.914c-0.023-0.047-0.06-0.078-0.109-0.096c-0.068-0.033-0.385-0.049-0.949-0.049v-0.402
			c1.029-0.129,1.746-0.287,2.146-0.479c0.059-0.027,0.104-0.041,0.137-0.041s0.057,0.01,0.074,0.029
			c0.02,0.02,0.027,0.051,0.027,0.086c0,0.032-0.005,0.077-0.015,0.137l-0.006,0.227c-0.023,0.814-0.037,1.51-0.041,2.082
			l-0.014,1.066v3.545c0.02,1.184,0.028,1.824,0.032,1.92c0.007,0.229,0.033,0.395,0.085,0.498c0.018,0.041,0.045,0.076,0.081,0.107
			c0.037,0.028,0.093,0.053,0.164,0.069c0.033,0.006,0.287,0.013,0.765,0.021v0.39c-0.619-0.031-1.164-0.048-1.633-0.048
			C316.535,92.968,315.947,92.984,315.219,93.015z"/>
		<path fill="#004B72" d="M319.951,87.39V87c0.885-0.1,1.627-0.291,2.229-0.574l0.15,0.109c-0.037,0.971-0.055,1.715-0.055,2.229
			v1.243c0.022,1.187,0.036,1.826,0.041,1.923c0.004,0.228,0.028,0.396,0.075,0.497c0.021,0.041,0.052,0.076,0.089,0.105
			c0.036,0.031,0.092,0.055,0.163,0.072c0.027,0.006,0.281,0.012,0.761,0.021v0.389c-0.693-0.031-1.248-0.047-1.662-0.047
			c-0.365,0-0.961,0.016-1.791,0.047v-0.389l0.654-0.008c0.096-0.004,0.17-0.021,0.223-0.052s0.094-0.065,0.121-0.112
			c0.051-0.09,0.082-0.252,0.096-0.484c0-0.061,0.012-0.713,0.035-1.963v-1.203c0-0.678-0.023-1.082-0.068-1.209
			c-0.026-0.068-0.076-0.121-0.147-0.154C320.793,87.406,320.488,87.39,319.951,87.39z M321.619,83.39
			c0.215,0,0.396,0.076,0.543,0.227s0.223,0.332,0.223,0.547c0,0.209-0.074,0.389-0.225,0.539c-0.151,0.15-0.332,0.228-0.541,0.228
			c-0.215,0-0.396-0.076-0.547-0.228c-0.151-0.15-0.226-0.33-0.226-0.539c0-0.215,0.074-0.396,0.226-0.547
			C321.223,83.466,321.404,83.39,321.619,83.39z"/>
		<path fill="#004B72" d="M330.352,92.236l-0.272,0.459c-0.314,0.168-0.625,0.291-0.935,0.369c-0.307,0.076-0.653,0.115-1.041,0.115
			c-0.956,0-1.721-0.287-2.286-0.865c-0.568-0.576-0.853-1.369-0.853-2.377c0-0.535,0.076-0.998,0.229-1.393
			c0.153-0.396,0.342-0.699,0.563-0.914c0.15-0.15,0.438-0.346,0.857-0.586c0.422-0.238,0.717-0.394,0.887-0.461
			c0.309-0.133,0.68-0.199,1.113-0.199c0.41,0,0.778,0.043,1.106,0.131c0.209,0.055,0.42,0.145,0.629,0.273
			c-0.053,0.35-0.09,0.614-0.11,0.795c-0.023,0.182-0.051,0.508-0.086,0.981h-0.392c-0.026-0.442-0.055-0.719-0.082-0.828
			c-0.018-0.067-0.059-0.129-0.123-0.185c-0.163-0.129-0.375-0.237-0.633-0.331c-0.26-0.095-0.541-0.142-0.848-0.142
			c-0.383,0-0.715,0.08-0.996,0.236c-0.281,0.158-0.498,0.408-0.654,0.75c-0.153,0.342-0.231,0.766-0.231,1.273
			c0,0.619,0.108,1.182,0.328,1.684c0.219,0.502,0.516,0.867,0.893,1.098c0.375,0.23,0.797,0.346,1.262,0.346
			c0.232,0,0.459-0.026,0.681-0.086c0.221-0.057,0.504-0.164,0.852-0.323L330.352,92.236z"/>
		<path fill="#004B72" d="M335.252,93.015V92.55c0.359-0.004,0.586-0.02,0.674-0.045c0.09-0.023,0.172-0.072,0.246-0.144
			c0.076-0.069,0.185-0.254,0.326-0.551c0.082-0.168,0.379-0.81,0.889-1.92l1.713-3.854c0.187-0.425,0.586-1.367,1.197-2.83h0.438
			l2.924,6.854c0.473,1.112,0.789,1.812,0.942,2.092c0.089,0.16,0.183,0.267,0.285,0.313c0.103,0.052,0.334,0.078,0.693,0.082v0.466
			c-0.711-0.046-1.209-0.068-1.492-0.068l-2.203,0.068V92.55c0.513-0.008,0.82-0.025,0.931-0.047
			c0.108-0.023,0.184-0.058,0.223-0.101s0.059-0.098,0.059-0.159c0-0.103-0.032-0.23-0.096-0.392l-0.84-2.093h-3.959l-0.742,1.759
			c-0.133,0.313-0.199,0.545-0.199,0.688c0,0.064,0.019,0.117,0.056,0.158c0.051,0.059,0.129,0.1,0.231,0.123
			c0.17,0.035,0.465,0.057,0.889,0.061v0.466c-0.77-0.041-1.348-0.062-1.729-0.062C336.262,92.955,335.777,92.974,335.252,93.015z
			 M338.436,89.181h3.447l-1.703-4.115L338.436,89.181z"/>
		<path fill="#004B72" d="M352.543,92.236l-0.273,0.459c-0.313,0.168-0.625,0.291-0.934,0.369c-0.307,0.076-0.654,0.115-1.043,0.115
			c-0.957,0-1.719-0.287-2.285-0.865c-0.567-0.576-0.852-1.369-0.852-2.377c0-0.535,0.076-0.998,0.229-1.393
			c0.153-0.396,0.342-0.699,0.564-0.914c0.149-0.15,0.436-0.346,0.856-0.586c0.422-0.238,0.718-0.394,0.886-0.461
			c0.311-0.133,0.682-0.199,1.114-0.199c0.41,0,0.779,0.043,1.107,0.131c0.209,0.055,0.42,0.145,0.629,0.273
			c-0.053,0.35-0.09,0.614-0.113,0.795c-0.021,0.182-0.051,0.508-0.086,0.981h-0.389c-0.027-0.442-0.055-0.719-0.082-0.828
			c-0.021-0.067-0.062-0.129-0.123-0.185c-0.166-0.129-0.377-0.237-0.635-0.331c-0.258-0.095-0.539-0.142-0.847-0.142
			c-0.383,0-0.715,0.08-0.996,0.236c-0.28,0.158-0.497,0.408-0.653,0.75c-0.154,0.342-0.232,0.766-0.232,1.273
			c0,0.619,0.109,1.182,0.328,1.684s0.517,0.867,0.894,1.098c0.375,0.23,0.795,0.346,1.26,0.346c0.231,0,0.459-0.026,0.682-0.086
			c0.221-0.057,0.504-0.164,0.851-0.323L352.543,92.236z"/>
		<path fill="#004B72" d="M359.457,92.236l-0.273,0.459c-0.313,0.168-0.627,0.291-0.934,0.369c-0.309,0.076-0.656,0.115-1.043,0.115
			c-0.957,0-1.719-0.287-2.287-0.865c-0.566-0.576-0.85-1.369-0.85-2.377c0-0.535,0.076-0.998,0.229-1.393
			c0.153-0.396,0.34-0.699,0.564-0.914c0.149-0.15,0.436-0.346,0.856-0.586c0.422-0.238,0.718-0.394,0.886-0.461
			c0.311-0.133,0.682-0.199,1.114-0.199c0.41,0,0.779,0.043,1.107,0.131c0.209,0.055,0.418,0.145,0.629,0.273
			c-0.053,0.35-0.092,0.614-0.113,0.795c-0.021,0.182-0.051,0.508-0.086,0.981h-0.389c-0.027-0.442-0.056-0.719-0.082-0.828
			c-0.021-0.067-0.062-0.129-0.125-0.185c-0.164-0.129-0.375-0.237-0.633-0.331c-0.259-0.095-0.539-0.142-0.847-0.142
			c-0.383,0-0.717,0.08-0.996,0.236c-0.28,0.158-0.5,0.408-0.653,0.75c-0.156,0.342-0.232,0.766-0.232,1.273
			c0,0.619,0.109,1.182,0.328,1.684s0.516,0.867,0.891,1.098c0.378,0.23,0.798,0.346,1.263,0.346c0.231,0,0.459-0.026,0.68-0.086
			c0.223-0.057,0.506-0.164,0.852-0.323L359.457,92.236z"/>
		<path fill="#004B72" d="M360.902,89.869c0-1.022,0.323-1.854,0.973-2.502c0.65-0.645,1.482-0.969,2.5-0.969
			c0.957,0,1.736,0.301,2.338,0.904c0.603,0.602,0.902,1.379,0.902,2.332c0,0.666-0.156,1.275-0.465,1.828
			c-0.312,0.551-0.748,0.983-1.312,1.297c-0.565,0.312-1.188,0.469-1.867,0.469c-0.528,0-0.977-0.09-1.344-0.268
			c-0.365-0.178-0.664-0.4-0.891-0.67c-0.229-0.271-0.402-0.545-0.521-0.828C361.006,90.964,360.902,90.433,360.902,89.869z
			 M362.193,89.361c0,0.562,0.094,1.133,0.28,1.711c0.187,0.58,0.457,1.004,0.81,1.27c0.354,0.269,0.738,0.4,1.151,0.4
			c0.529,0,0.972-0.209,1.326-0.629c0.355-0.42,0.533-1.066,0.533-1.938c0-0.725-0.104-1.352-0.318-1.879
			c-0.211-0.525-0.479-0.898-0.809-1.115s-0.691-0.324-1.088-0.324c-0.562,0-1.017,0.203-1.363,0.609
			C362.367,87.873,362.193,88.503,362.193,89.361z"/>
		<path fill="#004B72" d="M376.867,92.626v0.389c-0.599-0.031-1.049-0.047-1.354-0.047c-0.338,0-0.68,0.016-1.024,0.047
			c0.026-0.369,0.047-0.783,0.061-1.244c-0.272,0.219-0.6,0.518-0.977,0.896c-0.088,0.086-0.172,0.149-0.254,0.19
			c-0.195,0.108-0.392,0.188-0.588,0.233c-0.195,0.05-0.431,0.072-0.703,0.072c-0.369,0-0.679-0.049-0.927-0.149
			c-0.247-0.101-0.461-0.252-0.639-0.457c-0.133-0.149-0.234-0.347-0.305-0.586c-0.072-0.238-0.107-0.527-0.107-0.863
			c0-0.159,0.006-0.312,0.019-0.45c0.012-0.144,0.018-0.281,0.018-0.418v-1.169c0-0.118-0.008-0.418-0.021-0.896
			c-0.011-0.301-0.029-0.496-0.062-0.588c-0.02-0.045-0.049-0.082-0.09-0.109c-0.068-0.045-0.189-0.068-0.361-0.068
			c-0.252,0-0.448-0.002-0.596-0.006v-0.391c0.98-0.109,1.691-0.285,2.133-0.525c0.072-0.041,0.131-0.062,0.172-0.062
			c0.031,0,0.058,0.013,0.078,0.035c0.021,0.021,0.031,0.058,0.031,0.103c0,0.037-0.004,0.082-0.008,0.138
			c-0.019,0.146-0.033,0.426-0.047,0.842c-0.027,0.76-0.041,1.271-0.041,1.531v1.332c0,0.557,0.037,0.946,0.11,1.172
			c0.076,0.227,0.222,0.405,0.438,0.541c0.217,0.135,0.483,0.2,0.803,0.2c0.219,0,0.438-0.036,0.652-0.112
			c0.217-0.074,0.412-0.185,0.586-0.324c0.127-0.105,0.258-0.246,0.389-0.424c0.103-0.133,0.168-0.234,0.199-0.306
			s0.053-0.174,0.062-0.312c0.021-0.399,0.033-0.799,0.033-1.194v-0.573c0-0.119-0.006-0.418-0.02-0.896
			c-0.011-0.301-0.031-0.496-0.062-0.588c-0.018-0.045-0.047-0.082-0.088-0.109c-0.067-0.045-0.188-0.068-0.363-0.068
			c-0.25,0-0.448-0.002-0.594-0.006v-0.391c0.978-0.109,1.687-0.285,2.127-0.525c0.072-0.041,0.129-0.062,0.17-0.062
			c0.031,0,0.058,0.012,0.078,0.034c0.021,0.021,0.031,0.058,0.031,0.103c0,0.037-0.002,0.082-0.008,0.138
			c-0.013,0.146-0.025,0.436-0.043,0.869c-0.025,0.741-0.039,1.243-0.039,1.504v0.936l0.014,0.951
			c0.019,0.551,0.029,0.875,0.035,0.971c0.004,0.227,0.029,0.395,0.074,0.498c0.022,0.041,0.053,0.076,0.088,0.105
			c0.037,0.03,0.09,0.055,0.164,0.071C376.139,92.611,376.391,92.617,376.867,92.626z"/>
		<path fill="#004B72" d="M378.113,93.015v-0.389l0.651-0.008c0.099-0.004,0.173-0.021,0.226-0.052s0.092-0.065,0.121-0.112
			c0.049-0.09,0.082-0.252,0.096-0.484c0-0.061,0.012-0.713,0.033-1.963v-0.812c0-0.365-0.006-0.758-0.021-1.176
			c-0.014-0.27-0.035-0.43-0.063-0.479c-0.031-0.051-0.082-0.088-0.154-0.113s-0.369-0.035-0.889-0.031v-0.389
			c0.92-0.129,1.592-0.295,2.016-0.5c0.092-0.045,0.154-0.068,0.187-0.068c0.031,0,0.057,0.012,0.073,0.035
			c0.021,0.021,0.027,0.057,0.027,0.102c0,0.033-0.002,0.068-0.006,0.109c-0.014,0.164-0.027,0.512-0.041,1.039l1.271-1.086
			c0.373-0.137,0.728-0.205,1.06-0.205c0.369,0,0.719,0.074,1.051,0.225c0.33,0.15,0.578,0.34,0.744,0.568
			c0.166,0.227,0.277,0.514,0.332,0.861c0.031,0.205,0.047,0.777,0.047,1.715v1.211c0,0.592,0.018,0.996,0.049,1.209
			c0.023,0.137,0.06,0.232,0.105,0.283c0.049,0.053,0.123,0.086,0.223,0.1l0.73,0.021v0.389c-0.445-0.031-0.816-0.047-1.113-0.047
			c-0.256,0-0.68,0.016-1.271,0.047c0.064-1.125,0.097-1.836,0.097-2.133v-1.148c0-0.715-0.027-1.184-0.082-1.408
			c-0.078-0.305-0.254-0.551-0.527-0.738c-0.273-0.186-0.604-0.278-0.99-0.278c-0.342,0-0.653,0.08-0.938,0.241
			c-0.281,0.162-0.484,0.349-0.604,0.562c-0.121,0.212-0.182,0.568-0.182,1.07v0.825c0.022,1.187,0.033,1.826,0.033,1.923
			c0.01,0.228,0.037,0.396,0.084,0.497c0.018,0.041,0.045,0.076,0.082,0.105c0.037,0.031,0.094,0.055,0.172,0.072
			c0.026,0.006,0.279,0.012,0.756,0.021v0.389c-0.555-0.031-1.059-0.047-1.51-0.047C379.604,92.968,378.979,92.984,378.113,93.015z"
			/>
		<path fill="#004B72" d="M387.084,87.656v-0.287c0.439-0.172,0.787-0.328,1.047-0.465c0-1.084,0-1.777,0-2.078
			c0.476-0.164,0.859-0.34,1.154-0.525l0.164,0.138c-0.049,0.377-0.104,1.211-0.164,2.502c0.365,0.004,0.584,0.006,0.656,0.006
			c0.041,0,0.276-0.004,0.705-0.014c0.235-0.005,0.413-0.015,0.532-0.027l0.047,0.05l-0.143,0.635
			c-0.287-0.004-0.551-0.006-0.793-0.006s-0.576,0.002-1.006,0.006l-0.033,2.783c-0.014,0.678-0.01,1.084,0.014,1.217
			c0.021,0.131,0.066,0.246,0.129,0.344c0.064,0.1,0.146,0.178,0.248,0.236c0.104,0.061,0.277,0.104,0.521,0.137
			c0.186,0,0.338-0.008,0.453-0.023c0.114-0.015,0.262-0.057,0.438-0.119l0.082,0.267c-0.215,0.17-0.422,0.344-0.621,0.526
			c-0.174,0.062-0.336,0.105-0.483,0.125c-0.15,0.021-0.324,0.031-0.521,0.031c-0.242,0-0.434-0.027-0.578-0.082
			c-0.143-0.055-0.272-0.131-0.391-0.229c-0.119-0.098-0.219-0.223-0.297-0.373s-0.129-0.387-0.152-0.711
			c0.006-0.309,0.015-0.648,0.027-1.018c0.006-0.074,0.008-0.152,0.008-0.24v-2.836h-0.281
			C387.623,87.623,387.367,87.634,387.084,87.656z"/>
		<path fill="#004B72" d="M393.52,88.333l-0.36-0.097c0.004-0.104,0.006-0.247,0.006-0.432c0-0.19-0.002-0.345-0.006-0.457
			c0.578-0.38,1.053-0.636,1.424-0.767c0.283-0.096,0.6-0.145,0.951-0.145c0.52,0,0.959,0.098,1.313,0.295
			c0.355,0.195,0.621,0.477,0.795,0.84c0.117,0.256,0.179,0.604,0.179,1.047l-0.035,1.25v2.037c0,0.219,0.018,0.377,0.055,0.473
			c0.027,0.068,0.07,0.117,0.131,0.15c0.045,0.027,0.142,0.045,0.287,0.055l0.443,0.041v0.39c-0.373-0.031-0.701-0.048-0.984-0.048
			c-0.272,0-0.639,0.017-1.094,0.048l0.035-1.203c-0.931,0.703-1.482,1.099-1.654,1.187c-0.174,0.09-0.393,0.135-0.656,0.135
			c-0.553,0-0.981-0.148-1.289-0.441c-0.309-0.295-0.461-0.686-0.461-1.172c0-0.314,0.054-0.602,0.16-0.861
			c0.107-0.259,0.236-0.467,0.388-0.619c0.15-0.152,0.303-0.266,0.456-0.338c0.265-0.123,0.693-0.256,1.289-0.396
			c0.595-0.144,1.185-0.246,1.769-0.313c0.004-0.435-0.049-0.771-0.158-1.013c-0.109-0.242-0.293-0.438-0.553-0.597
			c-0.26-0.153-0.578-0.231-0.951-0.231c-0.27,0-0.504,0.037-0.707,0.108c-0.203,0.074-0.328,0.136-0.373,0.187l-0.123,0.246
			C393.67,87.964,393.578,88.177,393.52,88.333z M396.658,89.406c-0.594,0.102-1.101,0.213-1.519,0.336
			c-0.42,0.123-0.717,0.25-0.889,0.383c-0.105,0.076-0.197,0.193-0.273,0.349c-0.118,0.229-0.178,0.479-0.178,0.76
			c0,0.336,0.092,0.601,0.279,0.789c0.187,0.188,0.447,0.283,0.779,0.283c0.305,0,0.606-0.089,0.905-0.265
			c0.299-0.174,0.597-0.438,0.894-0.789L396.658,89.406L396.658,89.406z"/>
		<path fill="#004B72" d="M399.928,93.015v-0.389l0.654-0.008c0.096-0.004,0.17-0.021,0.223-0.052
			c0.054-0.03,0.095-0.065,0.121-0.112c0.051-0.09,0.082-0.252,0.097-0.484c0-0.061,0.012-0.713,0.034-1.963v-0.812
			c0-0.365-0.008-0.758-0.021-1.176c-0.014-0.27-0.035-0.43-0.064-0.479c-0.028-0.051-0.082-0.088-0.153-0.113
			c-0.072-0.025-0.369-0.035-0.89-0.031v-0.389c0.92-0.129,1.595-0.295,2.019-0.5c0.09-0.045,0.151-0.068,0.184-0.068
			s0.058,0.012,0.076,0.035c0.018,0.021,0.027,0.057,0.027,0.102c0,0.033-0.004,0.068-0.009,0.109
			c-0.014,0.164-0.026,0.512-0.041,1.039l1.271-1.086c0.373-0.137,0.727-0.205,1.061-0.205c0.369,0,0.72,0.074,1.05,0.225
			c0.33,0.151,0.578,0.34,0.743,0.568c0.169,0.227,0.277,0.514,0.332,0.861c0.031,0.205,0.05,0.777,0.05,1.715v1.211
			c0,0.592,0.016,0.996,0.047,1.209c0.022,0.137,0.059,0.232,0.104,0.283c0.049,0.053,0.123,0.086,0.224,0.1l0.731,0.021v0.389
			c-0.447-0.031-0.817-0.047-1.115-0.047c-0.256,0-0.68,0.016-1.271,0.047c0.063-1.125,0.096-1.836,0.096-2.133v-1.148
			c0-0.715-0.026-1.184-0.082-1.408c-0.078-0.305-0.252-0.551-0.524-0.738c-0.273-0.186-0.605-0.278-0.992-0.278
			c-0.342,0-0.654,0.08-0.937,0.241c-0.282,0.162-0.483,0.349-0.604,0.562c-0.121,0.212-0.183,0.568-0.183,1.07v0.825
			c0.023,1.187,0.035,1.826,0.035,1.923c0.009,0.228,0.035,0.396,0.082,0.497c0.019,0.041,0.045,0.076,0.082,0.105
			c0.037,0.031,0.095,0.055,0.172,0.072c0.027,0.006,0.279,0.012,0.759,0.021v0.389c-0.558-0.031-1.062-0.047-1.513-0.047
			C401.418,92.968,400.793,92.984,399.928,93.015z"/>
		<path fill="#004B72" d="M408.9,87.656v-0.287c0.438-0.172,0.786-0.328,1.045-0.465c0-1.084,0-1.777,0-2.078
			c0.475-0.164,0.858-0.34,1.155-0.525l0.164,0.138c-0.051,0.377-0.104,1.211-0.164,2.502c0.363,0.004,0.582,0.006,0.656,0.006
			c0.041,0,0.275-0.004,0.703-0.014c0.236-0.005,0.414-0.015,0.533-0.027l0.049,0.05l-0.145,0.635
			c-0.287-0.004-0.552-0.006-0.793-0.006c-0.242,0-0.576,0.002-1.005,0.006l-0.034,2.783c-0.015,0.678-0.011,1.084,0.014,1.217
			c0.022,0.131,0.066,0.246,0.129,0.344c0.064,0.1,0.146,0.178,0.25,0.236c0.102,0.061,0.275,0.104,0.521,0.137
			c0.188,0,0.338-0.008,0.452-0.023c0.117-0.016,0.265-0.057,0.439-0.119l0.082,0.267c-0.213,0.17-0.42,0.344-0.621,0.526
			c-0.174,0.062-0.334,0.105-0.484,0.125c-0.149,0.021-0.323,0.031-0.52,0.031c-0.24,0-0.435-0.027-0.576-0.082
			c-0.145-0.055-0.275-0.131-0.393-0.229c-0.119-0.098-0.218-0.223-0.295-0.373c-0.08-0.15-0.132-0.387-0.152-0.711
			c0.004-0.309,0.014-0.648,0.027-1.018c0.004-0.074,0.006-0.152,0.006-0.24v-2.836h-0.279
			C409.438,87.623,409.182,87.634,408.9,87.656z"/>
		<path fill="#004B72" d="M414.48,90.951h0.409c0.004,0.266,0.019,0.475,0.041,0.629c0.023,0.156,0.062,0.307,0.115,0.455
			c0.057,0.148,0.141,0.273,0.254,0.375c0.115,0.104,0.238,0.184,0.373,0.24s0.273,0.094,0.412,0.113
			c0.139,0.018,0.35,0.027,0.633,0.027c0.467,0,0.851-0.123,1.148-0.369s0.446-0.584,0.446-1.012c0-0.191-0.047-0.361-0.141-0.507
			c-0.092-0.146-0.227-0.26-0.402-0.342c-0.175-0.082-0.555-0.188-1.135-0.321c-0.58-0.132-0.953-0.229-1.123-0.287
			c-0.256-0.097-0.459-0.211-0.608-0.349c-0.15-0.138-0.271-0.312-0.359-0.521c-0.088-0.211-0.133-0.438-0.133-0.684
			c0-0.361,0.094-0.691,0.283-0.996c0.188-0.303,0.487-0.549,0.895-0.738c0.406-0.188,0.848-0.283,1.328-0.283
			c0.287,0,0.621,0.041,1,0.119c0.379,0.08,0.686,0.181,0.924,0.299c-0.031,0.507-0.055,1.021-0.067,1.546h-0.392
			c-0.021-0.334-0.049-0.554-0.078-0.656c-0.028-0.104-0.069-0.198-0.119-0.28c-0.051-0.082-0.139-0.17-0.262-0.265
			c-0.123-0.093-0.281-0.177-0.475-0.248c-0.195-0.073-0.435-0.108-0.718-0.108c-0.401,0-0.725,0.117-0.969,0.354
			c-0.246,0.235-0.367,0.515-0.367,0.834c0,0.179,0.035,0.33,0.105,0.457c0.07,0.129,0.166,0.231,0.285,0.312
			c0.117,0.08,0.285,0.151,0.5,0.217l1.137,0.279c0.574,0.146,0.971,0.271,1.188,0.377c0.217,0.104,0.391,0.268,0.522,0.487
			s0.199,0.485,0.199,0.797c0,0.615-0.254,1.149-0.764,1.609c-0.509,0.456-1.189,0.688-2.043,0.688
			c-0.394,0-0.916-0.062-1.568-0.179c-0.359-0.067-0.555-0.116-0.582-0.146c-0.018-0.014-0.027-0.035-0.027-0.067
			c0-0.031,0.006-0.069,0.015-0.115c0.041-0.196,0.067-0.389,0.082-0.573C414.459,91.933,414.471,91.544,414.48,90.951z"/>
	</g>
	<rect x="208.623" y="24.97" fill="#556973" width="0.5" height="75.137"/>
	<g>
		<rect x="144.104" y="37.824" fill="#004B72" width="49.629" height="49.566"/>
		<rect x="87.691" y="37.824" fill="#556973" width="49.631" height="49.566"/>
		<rect x="31.281" y="37.824" fill="#AEA870" width="49.631" height="49.566"/>
		<path fill="#00304F" d="M183.252,72.189l-0.35,3.342v-0.002c-0.086,0.803-0.199,1.449-0.332,1.936
			c-0.129,0.484-0.289,0.806-0.416,0.943c-0.148,0.168-0.35,0.307-0.617,0.42c-0.266,0.111-0.596,0.189-0.99,0.232
			c-1.463,0.123-4.602,0.184-9.383,0.184h-10.828l12.779-16.919l8.453-11.152l0,0c1.039-1.314,2.449-2.982,4.232-4.994l0.088-0.1
			v-2.133l-0.383,0.031c-1.471,0.121-3.328,0.182-5.564,0.182l-20.768-0.209l-3.66,0.029l0.021,0.371
			c0.104,1.863,0.156,3.314,0.156,4.34c0,1.049-0.053,2.533-0.158,4.451l-0.02,0.373h2.42l0.297-3.453v-0.002
			c0.051-0.652,0.125-1.168,0.215-1.537c0.045-0.184,0.094-0.332,0.141-0.436c0.047-0.105,0.094-0.166,0.115-0.186
			c0.014-0.016,0.09-0.064,0.217-0.111c0.193-0.072,0.496-0.146,0.895-0.211c0.398-0.062,0.895-0.119,1.484-0.164l0,0
			c3.633-0.248,7.039-0.369,10.209-0.369c1.705,0,3.707,0.051,5.99,0.152c-1.402,1.959-3.592,4.904-6.562,8.842L158.917,71.94l0,0
			c-2.596,3.455-4.832,6.231-6.717,8.319l-0.09,0.103v2.072l0.369-0.019c2.697-0.123,6.52-0.184,11.469-0.184
			c3.021,0,6.27,0.031,9.754,0.092c3.27,0.061,5.391,0.094,6.369,0.094c1.166,0,2.811,0,4.934,0h0.354v-1.813
			c0-2.582,0.176-5.254,0.527-8.017l0.051-0.399L183.252,72.189L183.252,72.189z"/>
		<path fill="#3B4C54" d="M127.848,48.488c-3.555-3.375-8.461-5.047-14.641-5.045c-6.311-0.002-11.414,1.805-15.236,5.428
			c-3.826,3.621-5.742,8.422-5.738,14.314c0,3.9,0.818,7.385,2.459,10.428c1.637,3.039,3.881,5.367,6.717,6.957
			c2.842,1.59,6.213,2.379,10.098,2.379c6.217,0.002,11.412-2.014,15.508-6.041c4.1-4.021,6.162-9.059,6.158-15.027
			C133.176,56.347,131.398,51.851,127.848,48.488z M120.428,78.13c-1.992,1.219-4.318,1.83-7.01,1.83
			c-2.895,0-5.449-0.721-7.689-2.16c-2.236-1.434-4.027-3.592-5.381-6.506c-1.344-2.906-2.023-6.33-2.023-10.288
			c0-2.959,0.574-5.547,1.715-7.779c1.141-2.236,2.699-3.916,4.691-5.068c1.992-1.148,4.365-1.727,7.15-1.729
			c3.047,0.002,5.656,0.66,7.861,1.969c2.203,1.305,3.936,3.246,5.211,5.857c1.27,2.598,1.914,5.748,1.914,9.456
			c0,3.533-0.584,6.512-1.73,8.947C123.982,75.101,122.416,76.914,120.428,78.13z"/>
		<path fill="#888558" d="M73.314,53.449c-1.066-2.307-2.629-4.23-4.672-5.76c-2.039-1.523-4.318-2.541-6.826-3.047
			c-2.314-0.465-4.578-0.697-6.787-0.697c-0.158,0-0.316,0-0.475,0.004l-5.805,0.105l-7.131,0.051c-1,0-2.963-0.043-5.877-0.129
			l-0.365-0.012v2.34l2.426,0.363h0.002c0.619,0.088,1.104,0.18,1.445,0.271c0.172,0.045,0.307,0.09,0.398,0.131
			c0.047,0.02,0.082,0.039,0.105,0.055l0.025,0.016l0.008,0.006c0.006,0.006,0.043,0.068,0.078,0.172
			c0.055,0.154,0.113,0.4,0.168,0.723c0.053,0.322,0.104,0.723,0.148,1.199v0.002c0.209,2.268,0.314,4.969,0.314,8.107v7.689
			c0,6.694-0.137,11.42-0.404,14.162l-2.486,1.471v1.863l0.389-0.037c2.201-0.211,4.014-0.316,5.43-0.316
			c0.834,0,2.859,0.061,6.059,0.186h0.002l3.27,0.078h0.004c6.557,0.002,11.92-1.982,16.012-5.961
			c4.092-3.967,6.145-9.023,6.143-15.078C74.912,58.414,74.381,55.757,73.314,53.449z M63.762,75.73l-0.002,0.002
			c-2.66,2.469-6.4,3.723-11.291,3.725c-1.729,0-3.725-0.162-5.98-0.485c-0.197-2.703-0.299-5.595-0.299-8.681V52.945
			c0-2.029,0.096-3.854,0.285-5.467c2.418-0.344,4.516-0.518,6.283-0.518c2.621,0,4.916,0.336,6.885,0.996
			c1.969,0.662,3.611,1.648,4.945,2.961c1.336,1.312,2.336,2.922,3.008,4.844c0.672,1.92,1.012,4.156,1.012,6.705
			c0,2.93-0.41,5.495-1.219,7.702c-0.811,2.207-2.018,4.057-3.629,5.563L63.762,75.73z"/>
		<path fill="#FFFFFF" d="M40.426,79.425c0.283-2.742,0.424-7.531,0.424-14.373v-7.691c0-3.146-0.105-5.859-0.316-8.143
			c-0.125-1.324-0.287-2.092-0.492-2.305c-0.203-0.213-0.932-0.406-2.188-0.586l-2.123-0.316v-1.67
			c2.918,0.088,4.881,0.131,5.889,0.131l7.135-0.053l5.807-0.105c2.334-0.035,4.73,0.195,7.186,0.689
			c2.459,0.494,4.686,1.488,6.684,2.982c1.998,1.494,3.52,3.369,4.562,5.623c1.041,2.254,1.564,4.859,1.564,7.811
			c0,5.975-2.012,10.918-6.033,14.825c-4.023,3.905-9.279,5.858-15.766,5.858l-3.262-0.078c-3.201-0.125-5.225-0.187-6.072-0.187
			c-1.434,0-3.254,0.105-5.465,0.316v-1.271L40.426,79.425z M46.154,79.292c2.387,0.354,4.49,0.528,6.314,0.528
			c4.947,0,8.793-1.271,11.533-3.817c3.305-3.094,4.959-7.603,4.959-13.525c0-5.16-1.373-9.096-4.125-11.801
			c-2.748-2.705-6.775-4.059-12.078-4.059c-1.855,0-4.057,0.188-6.604,0.559c-0.213,1.697-0.318,3.627-0.318,5.781v17.344
			C45.836,73.503,45.941,76.5,46.154,79.292z"/>
		<path fill="#FFFFFF" d="M92.588,63.197c0-5.818,1.875-10.502,5.625-14.057c3.75-3.553,8.748-5.33,14.994-5.33
			c6.119,0,10.92,1.648,14.396,4.947c3.475,3.295,5.215,7.674,5.215,13.137c0,5.889-2.02,10.812-6.051,14.773
			c-4.035,3.961-9.121,5.938-15.262,5.938c-3.838,0-7.145-0.776-9.924-2.334c-2.775-1.558-4.969-3.828-6.58-6.813
			C93.393,70.47,92.588,67.05,92.588,63.197z M97.971,61.019c0,3.996,0.686,7.475,2.057,10.438c1.373,2.961,3.209,5.181,5.51,6.654
			c2.299,1.479,4.928,2.217,7.881,2.217c2.744,0,5.141-0.627,7.195-1.883c2.051-1.256,3.666-3.129,4.844-5.621
			c1.176-2.496,1.764-5.527,1.764-9.098c0-3.75-0.65-6.953-1.949-9.611c-1.301-2.662-3.082-4.666-5.348-6.008
			c-2.268-1.344-4.947-2.018-8.043-2.018c-2.834,0-5.271,0.592-7.326,1.777c-2.055,1.184-3.666,2.924-4.832,5.213
			C98.555,55.369,97.971,58.015,97.971,61.019z"/>
		<path fill="#FFFFFF" d="M159.625,79.609h11.539c4.787,0,7.926-0.061,9.412-0.184c0.848-0.09,1.463-0.344,1.842-0.77
			c0.381-0.427,0.658-1.449,0.838-3.076l0.316-3.023h1.963c-0.354,2.777-0.529,5.463-0.529,8.061v1.461c-2.123,0-3.768,0-4.934,0
			c-0.973,0-3.094-0.033-6.363-0.094c-3.486-0.061-6.736-0.094-9.76-0.094c-4.951,0-8.777,0.062-11.484,0.188v-1.565
			c1.895-2.101,4.137-4.886,6.736-8.345l12.014-15.901c3.252-4.311,5.57-7.434,6.947-9.379c-2.562-0.123-4.783-0.186-6.656-0.186
			c-3.182,0-6.594,0.123-10.236,0.371c-1.59,0.125-2.527,0.318-2.811,0.582c-0.283,0.266-0.479,1.061-0.582,2.389l-0.268,3.129
			h-1.721c0.104-1.92,0.156-3.41,0.156-4.469c0-1.039-0.053-2.494-0.156-4.361l3.283-0.027l20.768,0.211
			c2.244,0,4.109-0.061,5.596-0.184v1.615c-1.785,2.014-3.201,3.686-4.244,5.008l-8.457,11.158L159.625,79.609z"/>
	</g>
</g>
</svg>
