<?xml version="1.0" encoding="utf-8"?>
<!-- Generator: Adobe Illustrator 15.1.0, SVG Export Plug-In . SVG Version: 6.00 Build 0)  -->
<!DOCTYPE svg PUBLIC "-//W3C//DTD SVG 1.1//EN" "http://www.w3.org/Graphics/SVG/1.1/DTD/svg11.dtd">
<svg version="1.1" id="Layer_1" xmlns="http://www.w3.org/2000/svg" xmlns:xlink="http://www.w3.org/1999/xlink" x="0px" y="0px"
	 width="540px" height="227px" viewBox="0 0 540 227" enable-background="new 0 0 540 227" xml:space="preserve">
<g>
	<linearGradient id="SVGID_1_" gradientUnits="userSpaceOnUse" x1="429.3145" y1="203.4043" x2="429.3145" y2="114.7357">
		<stop  offset="0" style="stop-color:#00314F"/>
		<stop  offset="1" style="stop-color:#00466F"/>
	</linearGradient>
	<rect x="359.234" y="43.505" fill="url(#SVGID_1_)" width="140.16" height="139.989"/>
	<linearGradient id="SVGID_2_" gradientUnits="userSpaceOnUse" x1="270" y1="203.1387" x2="270" y2="113.9408">
		<stop  offset="0" style="stop-color:#445259"/>
		<stop  offset="1" style="stop-color:#5D6E78"/>
	</linearGradient>
	<rect x="199.916" y="43.505" fill="url(#SVGID_2_)" width="140.168" height="139.989"/>
	<linearGradient id="SVGID_3_" gradientUnits="userSpaceOnUse" x1="110.688" y1="202.877" x2="110.688" y2="113.3019">
		<stop  offset="0" style="stop-color:#958F5C"/>
		<stop  offset="1" style="stop-color:#BAB172"/>
	</linearGradient>
	<rect x="40.605" y="43.505" fill="url(#SVGID_3_)" width="140.166" height="139.985"/>
	<path fill="#00314F" d="M469.801,140.564l-0.986,9.434v-0.004c-0.248,2.264-0.566,4.092-0.939,5.463
		c-0.367,1.369-0.816,2.277-1.176,2.668c-0.422,0.473-0.988,0.869-1.744,1.184c-0.75,0.314-1.684,0.539-2.799,0.658
		c-4.127,0.344-12.992,0.518-26.498,0.518H405.08l36.094-47.785l23.871-31.495l0,0c2.93-3.713,6.916-8.42,11.949-14.102l0.252-0.285
		v-6.023l-1.082,0.09c-4.152,0.344-9.396,0.516-15.715,0.516l-58.652-0.596l-10.338,0.086l0.061,1.047
		c0.295,5.262,0.441,9.357,0.441,12.258c0,2.959-0.146,7.154-0.443,12.568l-0.057,1.055h6.836l0.834-9.754v-0.006
		c0.145-1.842,0.354-3.299,0.607-4.338c0.127-0.52,0.266-0.936,0.4-1.23c0.131-0.299,0.264-0.469,0.322-0.521
		c0.041-0.045,0.254-0.186,0.615-0.318c0.541-0.205,1.398-0.414,2.525-0.594s2.527-0.338,4.191-0.467l0,0
		c10.262-0.699,19.877-1.043,28.834-1.043c4.814,0,10.465,0.145,16.918,0.436c-3.965,5.529-10.145,13.848-18.537,24.971
		l-33.932,44.907l-0.002,0.002c-7.328,9.758-13.648,17.602-18.967,23.5l-0.258,0.285v5.852l1.045-0.049
		c7.617-0.346,18.414-0.521,32.389-0.521c8.531,0,17.707,0.088,27.547,0.264c9.234,0.172,15.225,0.26,17.988,0.26
		c3.293,0,7.936,0,13.932,0h1v-5.121c0-7.295,0.496-14.836,1.488-22.641l0.143-1.125H469.801z"/>
	<path fill="#445259" d="M313.326,73.626c-10.039-9.531-23.895-14.254-41.35-14.248c-17.819-0.008-32.235,5.096-43.03,15.328
		c-10.804,10.225-16.214,23.785-16.203,40.425c-0.001,11.019,2.307,20.857,6.941,29.455c4.624,8.582,10.965,15.154,18.973,19.643
		c8.022,4.494,17.545,6.719,28.52,6.719c17.553,0.01,32.227-5.688,43.797-17.061c11.574-11.354,17.398-25.578,17.389-42.435
		C328.373,95.82,323.354,83.123,313.326,73.626z M292.371,157.338c-5.629,3.443-12.199,5.172-19.797,5.174
		c-8.177-0.004-15.387-2.037-21.718-6.1c-6.314-4.053-11.373-10.148-15.192-18.375c-3.799-8.207-5.716-17.88-5.716-29.052
		c0.001-8.358,1.622-15.669,4.841-21.972c3.22-6.318,7.626-11.062,13.253-14.311c5.626-3.244,12.327-4.883,20.19-4.885
		c8.604,0.002,15.977,1.865,22.204,5.557c6.219,3.688,11.113,9.172,14.717,16.545c3.586,7.34,5.406,16.233,5.406,26.706
		c0,9.978-1.648,18.388-4.889,25.263C302.412,148.787,297.984,153.906,292.371,157.338z"/>
	<path fill="#958F5C" d="M159.312,87.634c-3.011-6.512-7.422-11.947-13.193-16.264c-5.755-4.303-12.193-7.178-19.276-8.604
		c-6.535-1.314-12.927-1.973-19.17-1.973c-0.446,0-0.892,0.004-1.337,0.01l-16.393,0.299l-20.144,0.145
		c-2.823,0-8.366-0.119-16.598-0.367l-1.03-0.029v6.605l6.852,1.025h0.003c1.748,0.248,3.12,0.508,4.086,0.768
		c0.482,0.129,0.863,0.258,1.125,0.373c0.131,0.057,0.231,0.109,0.297,0.15l0.072,0.049l0.019,0.016
		c0.019,0.018,0.125,0.191,0.224,0.482c0.155,0.439,0.321,1.133,0.472,2.043c0.152,0.912,0.292,2.043,0.42,3.389l0,0.002
		c0.59,6.404,0.889,14.035,0.889,22.898v21.718c0,18.906-0.385,32.248-1.145,39.994l-7.019,4.152v5.262l1.095-0.105
		c6.219-0.596,11.334-0.893,15.333-0.893c2.357,0,8.08,0.17,17.114,0.521h0.006l9.234,0.225h0.012
		c18.513,0.008,33.664-5.602,45.217-16.832c11.554-11.207,17.356-25.484,17.345-42.583
		C163.824,101.658,162.324,94.154,159.312,87.634z M132.335,150.564l-0.003,0.004c-7.512,6.975-18.08,10.51-31.893,10.516
		c-4.88,0-10.515-0.457-16.887-1.371c-0.557-7.633-0.843-15.797-0.843-24.514V86.214c0-5.732,0.271-10.883,0.803-15.441
		c6.833-0.969,12.757-1.459,17.75-1.459c7.402,0,13.88,0.945,19.439,2.812c5.561,1.869,10.202,4.654,13.97,8.361
		c3.769,3.707,6.597,8.252,8.494,13.678c1.896,5.426,2.855,11.737,2.855,18.938c0,8.271-1.155,15.519-3.441,21.75
		c-2.287,6.234-5.698,11.455-10.249,15.717L132.335,150.564z"/>
	<path fill="#FFFFFF" d="M66.432,161c0.798-7.744,1.198-21.271,1.198-40.595V98.687c0-8.889-0.299-16.549-0.894-22.996
		c-0.355-3.744-0.814-5.912-1.39-6.51c-0.574-0.6-2.634-1.15-6.179-1.654l-5.996-0.896v-4.715c8.239,0.248,13.784,0.367,16.63,0.367
		l20.151-0.145l16.398-0.299c6.59-0.1,13.357,0.547,20.294,1.943c6.942,1.398,13.233,4.209,18.874,8.424
		c5.645,4.223,9.939,9.516,12.885,15.883c2.942,6.367,4.42,13.721,4.42,22.056c0,16.876-5.681,30.833-17.042,41.867
		c-11.36,11.033-26.202,16.549-44.521,16.549l-9.213-0.223c-9.042-0.352-14.758-0.523-17.153-0.523
		c-4.048,0-9.189,0.301-15.429,0.898v-3.592L66.432,161z M82.607,160.625c6.742,0.998,12.683,1.494,17.832,1.494
		c13.975,0,24.833-3.594,32.573-10.783c9.337-8.738,14.007-21.467,14.007-38.197c0-14.579-3.88-25.692-11.647-33.329
		c-7.765-7.641-19.138-11.461-34.11-11.461c-5.246,0-11.461,0.527-18.654,1.574c-0.599,4.793-0.898,10.242-0.898,16.326v48.985
		C81.709,144.275,82.008,152.738,82.607,160.625z"/>
	<path fill="#FFFFFF" d="M213.744,115.167c0-16.431,5.297-29.659,15.891-39.698c10.591-10.033,24.706-15.055,42.342-15.055
		c17.285,0,30.84,4.654,40.66,13.973c9.816,9.309,14.727,21.676,14.727,37.101c0,16.628-5.701,30.537-17.09,41.722
		c-11.393,11.186-25.756,16.773-43.096,16.773c-10.842,0-20.182-2.195-28.03-6.59c-7.84-4.396-14.035-10.811-18.582-19.246
		C216.018,135.709,213.744,126.049,213.744,115.167z M228.948,109.02c0,11.285,1.937,21.107,5.809,29.474
		c3.88,8.359,9.062,14.627,15.56,18.795c6.495,4.17,13.916,6.258,22.258,6.258c7.748,0,14.52-1.771,20.318-5.32
		c5.797-3.541,10.359-8.834,13.682-15.875c3.32-7.043,4.984-15.605,4.984-25.691c0-10.588-1.84-19.638-5.508-27.146
		c-3.672-7.518-8.707-13.174-15.105-16.965c-6.398-3.797-13.967-5.697-22.713-5.697c-8,0-14.89,1.672-20.689,5.018
		c-5.801,3.346-10.352,8.256-13.645,14.723C230.597,93.056,228.948,100.533,228.948,109.02z"/>
	<path fill="#FFFFFF" d="M403.072,161.52h32.586c13.523,0,22.385-0.172,26.584-0.52c2.393-0.254,4.133-0.973,5.203-2.174
		c1.072-1.203,1.859-4.092,2.363-8.688l0.893-8.539h5.545c-0.998,7.842-1.496,15.426-1.496,22.766v4.121c-5.996,0-10.639,0-13.932,0
		c-2.746,0-8.738-0.088-17.971-0.26c-9.846-0.176-19.025-0.264-27.564-0.264c-13.984,0-24.789,0.176-32.434,0.523v-4.42
		c5.35-5.932,11.684-13.795,19.025-23.568l33.93-44.909c9.186-12.17,15.729-20.996,19.621-26.488
		c-7.238-0.348-13.51-0.52-18.799-0.52c-8.984,0-18.625,0.344-28.912,1.045c-4.486,0.352-7.137,0.898-7.936,1.646
		c-0.799,0.746-1.35,2.992-1.645,6.742l-0.756,8.838h-4.861c0.295-5.426,0.443-9.633,0.443-12.623c0-2.934-0.148-7.041-0.443-12.314
		l9.277-0.076l58.648,0.596c6.338,0,11.607-0.172,15.803-0.52v4.559c-5.041,5.691-9.037,10.41-11.986,14.146l-23.885,31.513
		L403.072,161.52z"/>
</g>
</svg>
