<?xml version="1.0" encoding="utf-8"?>
<!-- Generator: Adobe Illustrator 16.0.0, SVG Export Plug-In . SVG Version: 6.00 Build 0)  -->
<!DOCTYPE svg PUBLIC "-//W3C//DTD SVG 1.1//EN" "http://www.w3.org/Graphics/SVG/1.1/DTD/svg11.dtd">
<svg version="1.1" id="Layer_1" xmlns="http://www.w3.org/2000/svg" xmlns:xlink="http://www.w3.org/1999/xlink" x="0px" y="0px"
	 width="260px" height="41.333px" viewBox="0 0 260 41.333" enable-background="new 0 0 260 41.333" xml:space="preserve">
<g>
	<path fill="#FFFFFF" d="M22.632,16.302v-0.325c0.035-0.021,0.097-0.058,0.187-0.108c0.17-0.094,0.326-0.194,0.469-0.297
		c0.049-0.604,0.074-1.584,0.074-2.942v-1.11c0-0.595-0.012-1.467-0.035-2.616c-0.013-0.637-0.042-1.042-0.086-1.218
		c-0.014-0.041-0.032-0.072-0.054-0.096c-0.036-0.036-0.093-0.063-0.169-0.081c-0.076-0.018-0.358-0.058-0.846-0.121V6.84
		l2.453,0.048c0.289,0,0.831-0.015,1.629-0.038c0.576-0.015,1.039-0.023,1.385-0.023c0.797,0,1.437,0.049,1.916,0.146
		c0.481,0.096,0.897,0.252,1.255,0.466c0.355,0.213,0.656,0.468,0.901,0.761c0.246,0.292,0.431,0.607,0.558,0.947
		c0.211,0.567,0.317,1.19,0.317,1.867c0,0.86-0.158,1.63-0.474,2.306c-0.315,0.675-0.749,1.242-1.302,1.697
		C30.26,15.472,29.662,15.8,29.018,16c-0.646,0.2-1.422,0.3-2.333,0.3l-2.007-0.048L22.632,16.302z M25.329,15.47
		c0.42,0.068,0.82,0.102,1.204,0.102c0.599,0,1.131-0.064,1.596-0.189c0.343-0.095,0.643-0.232,0.899-0.412
		c0.258-0.18,0.504-0.447,0.741-0.798c0.237-0.352,0.42-0.771,0.551-1.257c0.13-0.487,0.196-1.013,0.196-1.576
		c0-0.514-0.065-1.011-0.196-1.493c-0.131-0.48-0.345-0.9-0.643-1.261c-0.298-0.361-0.673-0.622-1.13-0.784
		c-0.454-0.162-1.145-0.243-2.069-0.243c-0.347,0-0.73,0.03-1.15,0.087c-0.044,0.64-0.067,1.845-0.067,3.616v1.553
		C25.262,14.158,25.284,15.042,25.329,15.47z"/>
	<path fill="#FFFFFF" d="M40.577,15.795v0.507c-0.519-0.022-0.979-0.033-1.38-0.033c-0.378,0-0.746,0.011-1.102,0.033l-0.061-0.075
		l0.061-0.885c-0.163,0.104-0.641,0.46-1.434,1.068c-0.203,0.045-0.397,0.069-0.581,0.069c-0.492,0-0.876-0.145-1.153-0.433
		c-0.279-0.289-0.417-0.703-0.417-1.244c0-0.367,0.062-0.666,0.186-0.901c0.124-0.234,0.258-0.406,0.399-0.517
		s0.362-0.217,0.66-0.321c0.712-0.251,1.492-0.45,2.339-0.595c0.009-0.536-0.102-0.944-0.331-1.223
		c-0.234-0.28-0.591-0.419-1.069-0.419c-0.193,0-0.378,0.024-0.554,0.074c-0.078,0.022-0.167,0.068-0.271,0.134l-0.285,0.684
		l-0.459-0.101l0.041-0.872c0.333-0.226,0.651-0.421,0.953-0.588c0.303-0.167,0.514-0.268,0.637-0.305
		c0.166-0.05,0.4-0.074,0.703-0.074c0.491,0,0.895,0.07,1.213,0.212c0.318,0.144,0.553,0.311,0.703,0.504
		c0.151,0.194,0.255,0.401,0.312,0.622c0.056,0.222,0.084,0.501,0.084,0.838c0,0.146-0.012,0.521-0.034,1.13
		c-0.014,0.405-0.021,0.736-0.021,0.995c0,0.802,0.023,1.29,0.069,1.46c0.017,0.082,0.054,0.135,0.108,0.162
		C39.966,15.737,40.193,15.768,40.577,15.795z M38.094,13.035c-0.383,0.082-0.733,0.181-1.051,0.295
		c-0.319,0.114-0.539,0.256-0.66,0.426c-0.123,0.169-0.183,0.381-0.183,0.639c0,0.289,0.073,0.511,0.22,0.668
		c0.146,0.159,0.339,0.237,0.579,0.237c0.203,0,0.406-0.058,0.612-0.176c0.205-0.117,0.366-0.266,0.483-0.447V13.035z"/>
	<path fill="#FFFFFF" d="M41.945,10.886v-0.514c0.388-0.023,0.78-0.074,1.173-0.157c0.392-0.083,0.897-0.229,1.512-0.438
		l0.094,0.074c-0.067,0.893-0.101,1.717-0.101,2.474v0.758c0,0.646,0.015,1.076,0.046,1.292c0.045,0.284,0.153,0.499,0.325,0.643
		c0.171,0.145,0.398,0.217,0.681,0.217c0.325,0,0.596-0.085,0.816-0.256c0.222-0.17,0.375-0.345,0.462-0.526
		c0.054-0.116,0.082-0.359,0.082-0.729v-1.152l-0.013-0.959c0-0.309-0.02-0.496-0.061-0.559c-0.021-0.04-0.067-0.072-0.135-0.094
		c-0.067-0.023-0.343-0.047-0.825-0.075v-0.514c0.698-0.091,1.173-0.164,1.426-0.219c0.252-0.054,0.681-0.18,1.286-0.375
		l0.128,0.074l-0.074,1.245c-0.037,0.884-0.054,1.377-0.054,1.48v1.387c0,0.825,0.021,1.334,0.061,1.528
		c0.018,0.081,0.051,0.138,0.102,0.169c0.085,0.045,0.363,0.08,0.833,0.101v0.541l-1.394-0.033l-1.278,0.033l-0.047-0.054
		l0.041-0.521c0.004-0.086,0.006-0.26,0.006-0.522c-0.176,0.14-0.329,0.269-0.461,0.386l-0.765,0.726
		c-0.312,0.112-0.625,0.169-0.942,0.169c-0.61,0-1.088-0.167-1.437-0.5c-0.348-0.334-0.522-0.778-0.522-1.332
		c0-0.066,0.009-0.316,0.026-0.75c0.005-0.229,0.009-0.527,0.009-0.892l-0.013-1.425c0-0.262-0.017-0.423-0.05-0.486
		c-0.035-0.063-0.089-0.111-0.167-0.142C42.64,10.928,42.382,10.904,41.945,10.886z"/>
	<path fill="#FFFFFF" d="M50.983,7.422V6.936c1.023-0.108,1.892-0.307,2.604-0.594c0.067,0.018,0.129,0.05,0.183,0.094
		c-0.045,1.872-0.069,2.956-0.069,3.254v1.271l0.817-0.676c0.24-0.195,0.458-0.327,0.653-0.399s0.446-0.108,0.748-0.108
		c0.772,0,1.391,0.239,1.86,0.716c0.469,0.479,0.703,1.121,0.703,1.928c0,0.488-0.086,0.959-0.257,1.418
		c-0.171,0.456-0.401,0.832-0.689,1.125c-0.042,0.04-0.37,0.274-0.984,0.703c-0.616,0.428-0.961,0.66-1.039,0.696
		c-0.261,0.118-0.598,0.177-1.007,0.177c-0.275,0-0.543-0.041-0.805-0.125c-0.262-0.084-0.557-0.224-0.887-0.423l-0.595,0.5
		l-0.31-0.115c0.09-1.374,0.135-3.021,0.135-4.938c0-1.894-0.027-3.092-0.082-3.598c-0.023-0.166-0.06-0.271-0.115-0.311
		C51.777,7.482,51.489,7.446,50.983,7.422z M53.702,11.683c-0.009,0.348-0.013,0.808-0.013,1.38c0,0.768,0.004,1.358,0.013,1.773
		c0.167,0.239,0.348,0.412,0.541,0.52c0.267,0.145,0.553,0.217,0.859,0.217c0.329,0,0.615-0.086,0.862-0.261
		c0.246-0.174,0.438-0.456,0.576-0.849c0.137-0.392,0.206-0.824,0.206-1.299c0-0.703-0.161-1.239-0.481-1.609
		C55.944,11.186,55.543,11,55.061,11c-0.301,0-0.573,0.071-0.814,0.21C54.004,11.351,53.824,11.508,53.702,11.683z"/>
	<path fill="#FFFFFF" d="M60.332,19.753c0.077-0.33,0.126-0.56,0.149-0.69l0.102-0.683l0.176-0.035
		c0.113,0.118,0.24,0.221,0.385,0.311c0.177,0.077,0.366,0.114,0.567,0.114c0.234,0,0.452-0.079,0.65-0.239
		c0.199-0.161,0.419-0.51,0.663-1.054l0.27-0.649l-2.191-5.624c-0.131-0.333-0.255-0.54-0.372-0.619
		c-0.118-0.079-0.341-0.116-0.67-0.111V9.946c0.442,0.018,0.982,0.027,1.623,0.027c0.757,0,1.433-0.009,2.022-0.027v0.528h-0.156
		c-0.279-0.005-0.473,0.027-0.581,0.095c-0.068,0.044-0.102,0.104-0.102,0.176c0,0.081,0.023,0.18,0.068,0.297l0.332,0.914
		l0.988,2.573l0.598-1.402c0.58-1.389,0.869-2.192,0.869-2.409c0-0.045-0.012-0.082-0.035-0.108
		c-0.031-0.036-0.087-0.063-0.168-0.081c-0.163-0.032-0.379-0.05-0.649-0.054V9.947c0.289,0.018,0.652,0.027,1.088,0.027
		c0.532,0,1.028-0.009,1.488-0.027v0.528h-0.108c-0.121-0.005-0.235,0.018-0.344,0.067c-0.068,0.027-0.127,0.072-0.179,0.135
		c-0.052,0.064-0.18,0.312-0.382,0.745c-0.267,0.569-0.481,1.038-0.644,1.408c-0.506,1.146-0.825,1.882-0.959,2.206l-1.089,2.66
		c-0.334,0.807-0.687,1.383-1.062,1.725c-0.374,0.348-0.83,0.522-1.365,0.522c-0.176,0-0.337-0.014-0.484-0.042
		C60.684,19.876,60.517,19.824,60.332,19.753z"/>
	<path fill="#FFFFFF" d="M73.173,11.683c0-0.824,0.125-1.543,0.375-2.156c0.249-0.614,0.609-1.134,1.071-1.562
		c0.466-0.428,0.972-0.737,1.517-0.926c0.699-0.24,1.46-0.359,2.286-0.359c0.819,0,1.563,0.116,2.23,0.344
		c0.496,0.177,0.937,0.431,1.315,0.762c0.38,0.331,0.672,0.672,0.869,1.018c0.198,0.348,0.348,0.729,0.451,1.143
		c0.102,0.414,0.15,0.872,0.15,1.374c0,0.847-0.144,1.634-0.439,2.36c-0.216,0.54-0.533,1.021-0.949,1.44
		c-0.417,0.42-0.892,0.742-1.422,0.967c-0.731,0.303-1.564,0.455-2.502,0.455c-1.015,0-1.886-0.185-2.614-0.552
		c-0.729-0.368-1.301-0.91-1.715-1.627C73.381,13.645,73.173,12.752,73.173,11.683z M75.256,11.281c0,1.052,0.145,1.921,0.434,2.609
		c0.289,0.689,0.657,1.174,1.109,1.459c0.452,0.284,0.982,0.426,1.597,0.426c0.566,0,1.075-0.135,1.524-0.406
		c0.449-0.271,0.801-0.729,1.055-1.374c0.256-0.646,0.382-1.429,0.382-2.348c0-0.633-0.069-1.21-0.206-1.733
		c-0.137-0.524-0.334-0.971-0.59-1.337C80.302,8.208,80,7.928,79.651,7.734c-0.35-0.194-0.812-0.291-1.39-0.291
		c-0.658,0-1.219,0.154-1.681,0.464c-0.462,0.309-0.796,0.765-1.007,1.371C75.361,9.882,75.256,10.549,75.256,11.281z"/>
	<path fill="#FFFFFF" d="M85.052,10.479c0.017-0.054,0.08-0.193,0.186-0.42c0.103-0.224,0.162-0.353,0.171-0.385
		c0.123-0.347,0.237-0.684,0.339-1.011c0.1-0.326,0.173-0.604,0.222-0.831c0.046-0.228,0.082-0.466,0.104-0.713
		c0.063-0.014,0.231-0.048,0.507-0.102c0.355-0.072,0.578-0.12,0.669-0.142c0.177-0.045,0.393-0.111,0.647-0.197l0.199,0.183
		c-0.054,0.141-0.147,0.331-0.277,0.574c-0.49,0.907-0.808,1.484-0.951,1.731c-0.243,0.433-0.48,0.814-0.709,1.144l-0.911,0.371
		L85.052,10.479z"/>
	<path fill="#FFFFFF" d="M98.865,15.079l-0.312,0.682c-0.562,0.297-1.068,0.503-1.519,0.612c-0.447,0.111-1.008,0.166-1.68,0.166
		c-0.955,0-1.8-0.151-2.538-0.454c-0.576-0.243-1.065-0.564-1.467-0.967c-0.402-0.4-0.709-0.835-0.927-1.305
		c-0.329-0.708-0.495-1.476-0.495-2.306c0-1.421,0.486-2.58,1.458-3.479c0.974-0.899,2.345-1.35,4.115-1.35
		c0.609,0,1.155,0.046,1.64,0.135c0.485,0.091,1.046,0.251,1.687,0.48l0.036,0.088c-0.071,0.212-0.128,0.479-0.17,0.798
		c-0.067,0.51-0.11,0.98-0.127,1.414h-0.529c-0.009-0.496-0.032-0.893-0.067-1.19c-0.303-0.316-0.642-0.552-1.019-0.706
		c-0.376-0.156-0.856-0.233-1.443-0.233c-1.06,0-1.907,0.335-2.542,1.004c-0.636,0.67-0.954,1.604-0.954,2.803
		c0,0.727,0.105,1.359,0.321,1.9c0.213,0.541,0.499,0.989,0.855,1.344c0.356,0.353,0.715,0.612,1.075,0.774
		c0.492,0.216,1.087,0.324,1.786,0.324c0.46,0,0.895-0.051,1.305-0.156c0.409-0.103,0.858-0.282,1.338-0.535L98.865,15.079z"/>
	<path fill="#FFFFFF" d="M100.491,13.11c0-0.767,0.13-1.4,0.392-1.904c0.262-0.503,0.655-0.881,1.178-1.137
		c0.523-0.254,1.131-0.381,1.826-0.381c1.041,0,1.833,0.273,2.378,0.818c0.541,0.546,0.812,1.346,0.812,2.402
		c0,0.608-0.079,1.136-0.234,1.582c-0.159,0.447-0.371,0.807-0.636,1.08c-0.265,0.271-0.545,0.479-0.838,0.619
		c-0.5,0.233-1.065,0.352-1.69,0.352c-1.021,0-1.805-0.29-2.358-0.87C100.767,15.091,100.491,14.237,100.491,13.11z M102.364,12.786
		c0,1.199,0.177,2.055,0.529,2.563c0.233,0.338,0.568,0.508,1.001,0.508c0.37,0,0.662-0.129,0.878-0.386
		c0.29-0.342,0.433-1.005,0.433-1.988c0-0.691-0.057-1.282-0.173-1.775c-0.115-0.494-0.283-0.838-0.509-1.032
		c-0.222-0.194-0.492-0.291-0.806-0.291c-0.272,0-0.509,0.072-0.711,0.214c-0.203,0.142-0.36,0.38-0.473,0.716
		C102.421,11.65,102.364,12.142,102.364,12.786z"/>
	<path fill="#FFFFFF" d="M116.488,15.801v0.501c-0.616-0.031-1.117-0.048-1.505-0.048c-0.448,0-0.836,0.017-1.167,0.048
		l-0.121-0.121c0.008-0.096,0.039-0.484,0.087-1.171l0.033-1.109v-0.534c0-0.789-0.03-1.307-0.09-1.555
		c-0.062-0.247-0.186-0.448-0.376-0.598c-0.188-0.152-0.442-0.227-0.756-0.227c-0.316,0-0.576,0.075-0.785,0.227
		c-0.206,0.15-0.337,0.303-0.39,0.456c-0.033,0.09-0.046,0.45-0.042,1.081v1.134c0,0.328,0.011,0.731,0.034,1.208
		c0.004,0.212,0.023,0.352,0.053,0.419c0.024,0.05,0.053,0.086,0.088,0.108c0.054,0.036,0.159,0.069,0.314,0.102
		c0.055,0.009,0.243,0.027,0.565,0.054v0.527c-0.49-0.017-1.094-0.027-1.806-0.027c-0.825,0-1.464,0.01-1.92,0.027v-0.527
		c0.352,0,0.595-0.024,0.729-0.075c0.064-0.021,0.111-0.06,0.143-0.114c0.046-0.085,0.07-0.248,0.075-0.485l0.027-0.6
		c0.004-0.125,0.007-0.33,0.007-0.614v-0.884c0-0.399-0.012-0.886-0.034-1.457c-0.015-0.287-0.033-0.451-0.059-0.488
		c-0.024-0.039-0.066-0.067-0.12-0.084c-0.086-0.031-0.342-0.054-0.77-0.067v-0.528c0.821-0.14,1.36-0.244,1.616-0.312
		c0.26-0.068,0.548-0.176,0.872-0.324l0.183,0.081v1.09l1.231-0.989c0.149-0.058,0.273-0.098,0.375-0.118
		c0.102-0.02,0.242-0.03,0.422-0.03c0.483,0,0.845,0.054,1.087,0.162c0.24,0.109,0.444,0.261,0.612,0.458
		c0.166,0.197,0.283,0.403,0.352,0.618c0.067,0.215,0.102,0.551,0.102,1.008c0,0.516-0.006,0.844-0.014,0.983
		c-0.004,0.055-0.006,0.122-0.006,0.197l0.006,0.7c0.006,0.764,0.017,1.236,0.037,1.417c0.021,0.18,0.063,0.297,0.125,0.349
		c0.062,0.052,0.197,0.085,0.406,0.098C116.184,15.772,116.311,15.785,116.488,15.801z"/>
	<path fill="#FFFFFF" d="M125.641,15.801v0.501c-0.617-0.031-1.115-0.048-1.504-0.048c-0.447,0-0.836,0.017-1.167,0.048
		l-0.123-0.121c0.008-0.096,0.039-0.484,0.087-1.171l0.036-1.109v-0.534c0-0.789-0.032-1.307-0.092-1.555
		c-0.063-0.247-0.187-0.448-0.376-0.598c-0.188-0.152-0.443-0.227-0.756-0.227c-0.317,0-0.578,0.075-0.785,0.227
		c-0.206,0.15-0.338,0.303-0.392,0.456c-0.033,0.09-0.044,0.45-0.04,1.081v1.134c0,0.328,0.012,0.731,0.035,1.208
		c0.004,0.212,0.021,0.352,0.053,0.419c0.023,0.05,0.051,0.086,0.087,0.108c0.055,0.036,0.16,0.069,0.316,0.102
		c0.054,0.009,0.241,0.027,0.563,0.054v0.527c-0.49-0.017-1.092-0.027-1.804-0.027c-0.827,0-1.465,0.01-1.92,0.027v-0.527
		c0.351,0,0.595-0.024,0.729-0.075c0.063-0.021,0.11-0.06,0.142-0.114c0.045-0.085,0.07-0.248,0.076-0.485l0.027-0.6
		c0.003-0.125,0.006-0.33,0.006-0.614v-0.884c0-0.399-0.011-0.886-0.033-1.457c-0.014-0.287-0.034-0.451-0.059-0.488
		c-0.026-0.039-0.067-0.067-0.122-0.084c-0.086-0.031-0.342-0.054-0.768-0.067v-0.528c0.819-0.14,1.36-0.244,1.614-0.312
		c0.259-0.068,0.549-0.176,0.874-0.324l0.181,0.081v1.09l1.231-0.989c0.148-0.058,0.273-0.098,0.375-0.118
		c0.102-0.02,0.242-0.03,0.422-0.03c0.483,0,0.845,0.054,1.086,0.162c0.24,0.109,0.446,0.261,0.612,0.458
		c0.167,0.197,0.286,0.403,0.352,0.618c0.068,0.215,0.101,0.551,0.101,1.008c0,0.516-0.005,0.844-0.014,0.983
		c-0.004,0.055-0.006,0.122-0.006,0.197l0.006,0.7c0.006,0.764,0.017,1.236,0.039,1.417c0.02,0.18,0.062,0.297,0.125,0.349
		c0.06,0.052,0.196,0.085,0.405,0.098C125.337,15.772,125.464,15.785,125.641,15.801z"/>
	<path fill="#FFFFFF" d="M127.193,13.11c0-0.767,0.13-1.4,0.392-1.904c0.262-0.503,0.653-0.881,1.177-1.137
		c0.523-0.254,1.131-0.381,1.827-0.381c1.042,0,1.833,0.273,2.376,0.818c0.542,0.546,0.813,1.346,0.813,2.402
		c0,0.608-0.077,1.136-0.234,1.582c-0.157,0.447-0.37,0.807-0.636,1.08c-0.265,0.271-0.547,0.479-0.84,0.619
		c-0.5,0.233-1.063,0.352-1.69,0.352c-1.018,0-1.803-0.29-2.356-0.87C127.469,15.091,127.193,14.237,127.193,13.11z M129.066,12.786
		c0,1.199,0.177,2.055,0.529,2.563c0.233,0.338,0.567,0.508,1.001,0.508c0.372,0,0.662-0.129,0.879-0.386
		c0.288-0.342,0.432-1.005,0.432-1.988c0-0.691-0.058-1.282-0.173-1.775c-0.114-0.494-0.283-0.838-0.508-1.032
		c-0.223-0.194-0.492-0.291-0.808-0.291c-0.27,0-0.509,0.072-0.71,0.214c-0.205,0.142-0.36,0.38-0.473,0.716
		C129.122,11.65,129.066,12.142,129.066,12.786z"/>
	<path fill="#FFFFFF" d="M139.308,15.775v0.527c-0.509-0.022-1.078-0.034-1.704-0.034c-0.699,0-1.424,0.012-2.178,0.034v-0.527
		c0.352,0,0.594-0.024,0.729-0.075c0.064-0.021,0.109-0.06,0.142-0.114c0.045-0.085,0.071-0.248,0.074-0.485l0.027-0.6
		c0.005-0.125,0.007-0.33,0.007-0.614v-0.884c0-0.399-0.012-0.886-0.034-1.457c-0.013-0.287-0.031-0.451-0.058-0.488
		c-0.024-0.039-0.064-0.067-0.118-0.084c-0.088-0.031-0.345-0.054-0.771-0.067v-0.528c0.824-0.14,1.365-0.244,1.624-0.312
		s0.552-0.176,0.878-0.324l0.182,0.081l-0.014,1.365c0.291-0.301,0.516-0.551,0.673-0.751c0.234-0.278,0.407-0.457,0.524-0.534
		c0.16-0.108,0.373-0.163,0.641-0.163c0.164,0,0.314,0.027,0.449,0.081l-0.046,0.96c-0.014,0.523-0.021,0.823-0.027,0.899
		l-0.285,0.089c-0.112-0.15-0.221-0.253-0.325-0.312c-0.166-0.095-0.348-0.142-0.547-0.142c-0.266,0-0.494,0.083-0.688,0.248
		c-0.191,0.164-0.305,0.332-0.34,0.503c-0.019,0.1-0.027,0.48-0.027,1.141v0.674l0.013,0.919c0.006,0.345,0.018,0.559,0.039,0.638
		c0.02,0.08,0.066,0.142,0.139,0.185c0.071,0.045,0.227,0.077,0.466,0.096L139.308,15.775z"/>
	<path fill="#FFFFFF" d="M156.376,14.586l0.196,0.439c-0.145,0.131-0.364,0.357-0.659,0.675c-0.293,0.321-0.506,0.562-0.632,0.725
		c-0.325,0.071-0.591,0.108-0.798,0.108c-0.388,0-0.748-0.06-1.075-0.177c-0.475-0.162-0.965-0.43-1.476-0.806
		c-0.415,0.331-0.853,0.578-1.314,0.741c-0.461,0.165-0.983,0.248-1.565,0.248c-1.036,0-1.824-0.281-2.359-0.843
		c-0.537-0.561-0.806-1.195-0.806-1.904c0-0.519,0.13-0.972,0.393-1.36c0.36-0.532,0.954-0.995,1.785-1.386
		c-0.172-0.382-0.289-0.715-0.357-0.994c-0.069-0.28-0.102-0.564-0.102-0.852c0-0.394,0.077-0.677,0.229-0.853l0.649-0.751
		c0.302-0.351,0.508-0.557,0.616-0.614c0.379-0.204,0.776-0.306,1.191-0.306c0.307,0,0.58,0.062,0.824,0.183
		c0.243,0.123,0.428,0.3,0.555,0.535c0.128,0.235,0.189,0.493,0.189,0.778c0,0.406-0.144,0.817-0.427,1.234
		c-0.284,0.417-0.876,0.907-1.776,1.471c0.414,0.626,0.879,1.225,1.395,1.796c0.517,0.569,1.015,1.036,1.493,1.396
		c0.151-0.252,0.263-0.482,0.33-0.687c0.068-0.206,0.102-0.411,0.102-0.62c0-0.163-0.022-0.336-0.068-0.523s-0.11-0.35-0.196-0.49
		h-1.218l-0.062-0.081c0.096-0.15,0.166-0.266,0.21-0.352l0.23-0.501c0.873,0.022,1.387,0.035,1.535,0.035
		c1.226,0,2.168-0.037,2.825-0.108l0.063,0.055c-0.099,0.274-0.163,0.469-0.188,0.581c-0.022,0.113-0.043,0.249-0.058,0.406
		l-0.062,0.074c-0.562-0.051-0.88-0.077-0.953-0.077c-0.179-0.011-0.523-0.021-1.028-0.031c0.046,0.217,0.069,0.408,0.069,0.57
		c0,0.341-0.067,0.669-0.2,0.986c-0.135,0.318-0.375,0.694-0.729,1.128c0.307,0.217,0.655,0.384,1.043,0.501
		c0.387,0.118,0.755,0.176,1.102,0.176c0.104,0,0.189-0.011,0.257-0.029c0.068-0.021,0.146-0.058,0.237-0.112L156.376,14.586z
		 M148.335,11.622c-0.238,0.145-0.429,0.331-0.571,0.558c-0.142,0.228-0.214,0.49-0.214,0.789c0,0.442,0.122,0.871,0.362,1.288
		c0.241,0.417,0.551,0.739,0.928,0.967c0.376,0.228,0.762,0.341,1.159,0.341c0.455,0,0.905-0.144,1.353-0.432
		c-0.658-0.556-1.214-1.097-1.665-1.624C149.231,12.981,148.781,12.353,148.335,11.622z M149.363,10.311
		c0.438-0.306,0.758-0.605,0.964-0.896c0.206-0.292,0.308-0.599,0.308-0.924c0-0.288-0.082-0.519-0.243-0.693
		c-0.163-0.173-0.365-0.261-0.609-0.261c-0.258,0-0.472,0.093-0.645,0.277c-0.176,0.186-0.262,0.433-0.262,0.745
		C148.876,9.051,149.039,9.635,149.363,10.311z"/>
	<path fill="#FFFFFF" d="M161.982,16.302v-0.541c0.216-0.265,0.54-0.694,0.976-1.283c0.728-1.01,1.243-1.731,1.541-2.165
		l1.266-1.833c0.404-0.59,0.719-1.058,0.946-1.4c0.559-0.842,0.869-1.308,0.932-1.4h-1.568c-0.577,0.007-1.153,0.022-1.731,0.048
		c-0.422,0.018-0.682,0.052-0.779,0.102c-0.037,0.018-0.062,0.042-0.074,0.075c-0.05,0.103-0.103,0.361-0.161,0.771
		c-0.027,0.162-0.049,0.295-0.067,0.398h-0.555c0.031-0.638,0.046-1.104,0.046-1.397c0-0.159-0.003-0.437-0.012-0.835
		c0.822,0.027,1.281,0.04,1.381,0.04c1.128,0.005,2.128,0.008,2.998,0.008c0.329,0,0.677-0.001,1.041-0.007l2.094-0.034v0.466
		c-0.844,1.122-1.533,2.072-2.064,2.847l-2.002,2.895c-0.13,0.189-0.301,0.445-0.509,0.765c-0.211,0.319-0.468,0.715-0.775,1.184
		c-0.113,0.167-0.209,0.315-0.29,0.447l1.258,0.014c1.275,0,2.201-0.021,2.772-0.062c0.421-0.031,0.658-0.074,0.718-0.128
		c0.086-0.082,0.176-0.361,0.269-0.838c0.055-0.265,0.097-0.454,0.123-0.568h0.548c-0.084,0.765-0.16,1.568-0.223,2.407h-0.258
		l-1.292,0.027l-0.871-0.021l-1.746-0.013l-1.778-0.021L161.982,16.302z"/>
	<path fill="#FFFFFF" d="M178.168,15.795v0.507c-0.518-0.022-0.977-0.033-1.38-0.033c-0.379,0-0.745,0.011-1.103,0.033l-0.061-0.075
		l0.061-0.885c-0.162,0.104-0.643,0.46-1.435,1.068c-0.203,0.045-0.397,0.069-0.582,0.069c-0.49,0-0.875-0.145-1.152-0.433
		c-0.278-0.289-0.416-0.703-0.416-1.244c0-0.367,0.063-0.666,0.185-0.901c0.125-0.234,0.259-0.406,0.4-0.517
		c0.141-0.111,0.362-0.217,0.659-0.321c0.711-0.251,1.491-0.45,2.339-0.595c0.009-0.536-0.1-0.944-0.33-1.223
		c-0.234-0.28-0.592-0.419-1.067-0.419c-0.195,0-0.379,0.024-0.557,0.074c-0.076,0.022-0.166,0.068-0.271,0.134l-0.284,0.684
		l-0.459-0.101l0.04-0.872c0.335-0.226,0.652-0.421,0.953-0.588c0.304-0.167,0.514-0.268,0.637-0.305
		c0.166-0.05,0.4-0.074,0.703-0.074c0.489,0,0.894,0.07,1.214,0.212c0.316,0.144,0.552,0.311,0.702,0.504
		c0.151,0.194,0.256,0.401,0.313,0.622c0.054,0.222,0.083,0.501,0.083,0.838c0,0.146-0.012,0.521-0.033,1.13
		c-0.015,0.405-0.021,0.736-0.021,0.995c0,0.802,0.024,1.29,0.068,1.46c0.019,0.082,0.055,0.135,0.109,0.162
		C177.557,15.737,177.786,15.768,178.168,15.795z M175.686,13.035c-0.384,0.082-0.733,0.181-1.051,0.295
		c-0.319,0.114-0.538,0.256-0.659,0.426c-0.123,0.169-0.184,0.381-0.184,0.639c0,0.289,0.073,0.511,0.221,0.668
		c0.146,0.159,0.339,0.237,0.577,0.237c0.203,0,0.408-0.058,0.612-0.176c0.206-0.117,0.367-0.266,0.483-0.447V13.035L175.686,13.035
		z"/>
	<path fill="#FFFFFF" d="M183.385,15.775v0.527c-0.563-0.031-1.151-0.048-1.765-0.048c-0.614,0-1.305,0.017-2.071,0.048v-0.527
		c0.432-0.014,0.694-0.032,0.783-0.054c0.068-0.018,0.12-0.044,0.153-0.079c0.034-0.033,0.059-0.086,0.07-0.158
		c0.032-0.135,0.054-0.562,0.065-1.279c0.012-0.717,0.017-1.354,0.017-1.91v-2.233c0-0.708-0.017-1.357-0.047-1.943
		c-0.017-0.315-0.041-0.502-0.068-0.562c-0.019-0.031-0.043-0.057-0.074-0.075c-0.053-0.036-0.141-0.063-0.258-0.081
		c-0.068-0.009-0.271-0.02-0.607-0.034V6.868c0.561-0.058,1.007-0.123,1.341-0.192c0.335-0.069,0.784-0.193,1.35-0.369l0.142,0.081
		l-0.059,1.368c-0.022,0.768-0.038,1.708-0.041,2.824v1.733c0,0.655,0.003,1.146,0.01,1.47c0.016,0.809,0.027,1.298,0.037,1.467
		c0.01,0.17,0.026,0.276,0.047,0.322c0.015,0.032,0.039,0.059,0.069,0.082c0.04,0.032,0.111,0.056,0.211,0.073
		C182.731,15.737,182.963,15.752,183.385,15.775z"/>
	<path fill="#FFFFFF" d="M190.76,15.261l-0.298,0.662c-0.368,0.226-0.75,0.394-1.143,0.502c-0.293,0.075-0.626,0.114-1.002,0.114
		c-0.446,0-0.839-0.051-1.18-0.156c-0.34-0.103-0.63-0.245-0.87-0.425c-0.242-0.18-0.455-0.401-0.637-0.662
		c-0.182-0.262-0.315-0.564-0.397-0.907c-0.081-0.342-0.121-0.717-0.121-1.122c0-0.591,0.078-1.118,0.235-1.583
		c0.108-0.325,0.234-0.558,0.379-0.703c0.092-0.089,0.325-0.26,0.703-0.507c0.379-0.249,0.654-0.411,0.825-0.487
		c0.314-0.141,0.688-0.209,1.114-0.209c0.604,0,1.1,0.125,1.488,0.379c0.389,0.252,0.663,0.574,0.82,0.967
		c0.16,0.392,0.242,0.867,0.242,1.426c0,0.127-0.006,0.249-0.013,0.366c-0.113,0.036-0.286,0.077-0.515,0.121
		c-0.307,0.06-0.514,0.092-0.622,0.096c-0.338,0.027-0.784,0.042-1.337,0.048c-0.557,0.003-0.864,0.008-0.923,0.013
		c-0.059,0.005-0.123,0.006-0.195,0.006h-0.446c0.036,0.713,0.256,1.276,0.662,1.688c0.406,0.414,0.906,0.619,1.501,0.619
		c0.258,0,0.493-0.028,0.709-0.085c0.216-0.057,0.502-0.172,0.853-0.348L190.76,15.261z M189.149,12.455
		c0.018-0.714-0.078-1.215-0.291-1.504c-0.217-0.282-0.495-0.423-0.838-0.423c-0.353,0-0.643,0.148-0.873,0.444
		c-0.234,0.301-0.343,0.795-0.324,1.483c0.268,0.041,0.711,0.06,1.334,0.06C188.552,12.515,188.884,12.496,189.149,12.455z"/>
	<path fill="#FFFFFF" d="M192.825,14.172h0.541c0.021,0.507,0.044,0.824,0.068,0.954c0.203,0.248,0.425,0.431,0.669,0.551
		c0.243,0.12,0.523,0.18,0.838,0.18c0.427,0,0.751-0.103,0.976-0.306c0.226-0.202,0.339-0.449,0.339-0.738
		c0-0.189-0.037-0.347-0.111-0.47c-0.075-0.125-0.225-0.238-0.451-0.343c-0.177-0.063-0.512-0.148-1.011-0.257
		c-0.499-0.108-0.876-0.228-1.132-0.358c-0.259-0.13-0.459-0.325-0.603-0.584c-0.145-0.259-0.217-0.563-0.217-0.909
		c0-0.622,0.234-1.139,0.703-1.551c0.469-0.413,1.143-0.619,2.021-0.619c0.366,0,0.701,0.032,1.007,0.094
		c0.308,0.064,0.585,0.158,0.832,0.285l0.021,0.067c-0.027,0.159-0.049,0.318-0.062,0.481c-0.015,0.162-0.035,0.546-0.062,1.15
		l-0.526-0.008c-0.006-0.049-0.012-0.132-0.021-0.251c-0.013-0.204-0.04-0.4-0.08-0.591c-0.141-0.18-0.312-0.316-0.515-0.407
		c-0.206-0.092-0.444-0.136-0.72-0.136c-0.381,0-0.678,0.086-0.886,0.258c-0.209,0.171-0.314,0.377-0.314,0.616
		c0,0.245,0.047,0.426,0.142,0.542c0.096,0.117,0.234,0.206,0.42,0.264c0.183,0.058,0.524,0.134,1.025,0.227
		c0.497,0.092,0.833,0.169,1.004,0.233c0.247,0.096,0.444,0.215,0.595,0.359c0.146,0.145,0.262,0.324,0.342,0.539
		c0.078,0.213,0.118,0.449,0.118,0.707c0,0.672-0.262,1.239-0.78,1.699c-0.522,0.459-1.253,0.69-2.196,0.69
		c-0.314,0-0.621-0.029-0.92-0.085c-0.297-0.056-0.66-0.159-1.088-0.309l-0.074-0.1c0.037-0.347,0.059-0.592,0.067-0.738
		L192.825,14.172z"/>
	<path fill="#FFFFFF" d="M207.261,15.761v0.541c-0.19-0.013-0.585-0.021-1.183-0.021c-0.628,0-1.02,0.009-1.177,0.021
		c-0.235-0.397-0.712-1.003-1.431-1.823c-0.72-0.817-1.127-1.262-1.223-1.335c-0.031-0.027-0.082-0.042-0.149-0.046v0.662
		c0,0.33,0.012,0.774,0.033,1.332c0.015,0.254,0.033,0.406,0.055,0.46c0.014,0.038,0.04,0.065,0.075,0.089
		c0.051,0.036,0.136,0.062,0.259,0.081c0.055,0.009,0.268,0.022,0.641,0.04v0.541c-0.55-0.031-1.15-0.048-1.806-0.048
		c-0.699,0-1.347,0.017-1.947,0.048v-0.541c0.397-0.017,0.635-0.035,0.705-0.049c0.068-0.016,0.123-0.042,0.158-0.075
		c0.039-0.033,0.063-0.077,0.076-0.131c0.036-0.135,0.058-0.502,0.067-1.103c0.013-0.815,0.02-1.519,0.02-2.11v-2.19
		c0-0.726-0.017-1.384-0.054-1.975c-0.014-0.301-0.033-0.481-0.061-0.535c-0.017-0.031-0.041-0.056-0.074-0.074
		c-0.055-0.032-0.138-0.056-0.25-0.073c-0.074-0.014-0.273-0.027-0.589-0.042v-0.5c0.636-0.077,1.098-0.147,1.384-0.209
		c0.287-0.063,0.699-0.18,1.233-0.352l0.15,0.081l-0.047,1.467c-0.019,0.812-0.027,1.628-0.027,2.449v2.462
		c0.145-0.108,0.312-0.249,0.5-0.42c0.399-0.361,0.729-0.667,0.988-0.92c0.098-0.099,0.262-0.266,0.502-0.5
		c0.24-0.235,0.44-0.447,0.604-0.636V9.947c0.404,0.009,0.814,0.012,1.228,0.006c0.181,0,0.482-0.001,0.907-0.006v0.528
		l-0.712,0.046c-0.076,0.01-0.15,0.032-0.224,0.068c-0.134,0.068-0.345,0.214-0.628,0.439c-0.396,0.316-0.635,0.51-0.715,0.588
		c-0.081,0.075-0.144,0.135-0.189,0.175l-0.573,0.499c0.397,0.47,1.066,1.242,2.013,2.316c0.533,0.609,0.882,0.96,1.048,1.055
		C206.941,15.714,207.08,15.748,207.261,15.761z"/>
	<path fill="#FFFFFF" d="M208.562,16.302v-0.5c0.505-0.037,0.794-0.076,0.865-0.119c0.071-0.043,0.117-0.124,0.135-0.241
		c0.044-0.249,0.068-0.886,0.068-1.917c0-1.414-0.021-2.215-0.062-2.41c-0.018-0.091-0.047-0.149-0.087-0.177
		c-0.092-0.058-0.397-0.09-0.921-0.095V10.33c0.681-0.071,1.195-0.147,1.541-0.227c0.348-0.08,0.728-0.203,1.138-0.369l0.162,0.089
		c-0.055,0.704-0.082,1.364-0.082,1.981v2.299c0,0.784,0.018,1.25,0.055,1.393c0.018,0.081,0.053,0.135,0.107,0.162
		c0.123,0.06,0.417,0.097,0.887,0.116v0.527c-0.643-0.018-1.336-0.027-2.089-0.027C209.63,16.275,209.058,16.284,208.562,16.302z
		 M210.418,6.509c0.287,0,0.53,0.101,0.729,0.304c0.202,0.204,0.301,0.447,0.301,0.729c0,0.29-0.099,0.536-0.301,0.738
		c-0.2,0.203-0.443,0.304-0.729,0.304s-0.526-0.101-0.729-0.304c-0.203-0.204-0.305-0.448-0.305-0.738
		c0-0.283,0.101-0.527,0.301-0.729C209.886,6.612,210.129,6.509,210.418,6.509z"/>
	<path fill="#FFFFFF" d="M213.4,18.129c0.274-0.526,0.485-1.032,0.641-1.517c0.151-0.483,0.263-1.005,0.334-1.562
		c0.588-0.12,0.901-0.185,0.943-0.197c0.171-0.045,0.378-0.12,0.621-0.22l0.209,0.197c-0.154,0.368-0.412,0.87-0.77,1.507
		s-0.684,1.164-0.976,1.577l-0.83,0.36L213.4,18.129z"/>
	<path fill="#FFFFFF" d="M221.316,16.302v-0.297c0.102-0.042,0.242-0.117,0.425-0.226c0.08-0.045,0.133-0.085,0.156-0.116
		c0.014-0.02,0.024-0.041,0.027-0.064c0.02-0.096,0.04-0.442,0.053-1.034c0.016-0.593,0.024-1.306,0.024-2.136
		c0-1.22-0.005-1.974-0.012-2.26c-0.013-0.727-0.037-1.141-0.071-1.246c-0.015-0.046-0.043-0.081-0.088-0.104
		c-0.088-0.058-0.387-0.097-0.892-0.116v-0.51c0.49,0.027,1.051,0.042,1.682,0.042c0.701,0,1.371-0.014,2-0.042v0.51
		c-0.437,0.019-0.703,0.054-0.801,0.104c-0.042,0.023-0.073,0.061-0.093,0.112c-0.021,0.053-0.039,0.291-0.056,0.717
		c-0.018,0.424-0.026,0.961-0.026,1.61c0,0.069,0.002,0.627,0.006,1.673c0.003,0.553,0.007,1.101,0.01,1.643
		c0.002,0.542,0.006,0.87,0.009,0.986c0.533,0.027,0.896,0.041,1.091,0.041c0.587,0,1.099-0.035,1.534-0.104
		c0.157-0.023,0.255-0.049,0.286-0.076c0.03-0.026,0.063-0.098,0.096-0.214c0.077-0.294,0.153-0.63,0.229-1.009h0.48
		c-0.011,0.109-0.017,0.172-0.017,0.191l-0.146,1.171c-0.029,0.368-0.047,0.588-0.051,0.661c-0.111,0.032-0.225,0.053-0.336,0.064
		c-0.236,0.019-0.603,0.028-1.097,0.028c-0.067,0-0.523-0.009-1.36-0.028c-0.639-0.014-1.083-0.023-1.334-0.023
		C222.666,16.251,222.09,16.267,221.316,16.302z"/>
	<path fill="#FFFFFF" d="M229.162,16.302v-0.297c0.1-0.042,0.24-0.117,0.423-0.226c0.08-0.045,0.133-0.085,0.157-0.116
		c0.013-0.02,0.024-0.041,0.027-0.064c0.021-0.096,0.039-0.442,0.053-1.034c0.015-0.593,0.024-1.306,0.024-2.136
		c0-1.22-0.006-1.974-0.013-2.26c-0.013-0.727-0.036-1.141-0.068-1.246c-0.016-0.046-0.046-0.081-0.089-0.104
		c-0.09-0.058-0.388-0.097-0.894-0.116v-0.51c0.491,0.027,1.051,0.042,1.682,0.042c0.703,0,1.371-0.014,2-0.042v0.51
		c-0.437,0.019-0.703,0.054-0.8,0.104c-0.043,0.023-0.074,0.061-0.094,0.112c-0.019,0.053-0.037,0.291-0.056,0.717
		c-0.016,0.424-0.026,0.961-0.026,1.61c0,0.069,0.003,0.627,0.008,1.673c0.003,0.553,0.007,1.101,0.008,1.643
		c0.003,0.542,0.006,0.87,0.009,0.986c0.535,0.027,0.896,0.041,1.091,0.041c0.587,0,1.099-0.035,1.536-0.104
		c0.157-0.023,0.253-0.049,0.284-0.076c0.03-0.026,0.063-0.098,0.098-0.214c0.077-0.294,0.151-0.63,0.227-1.009h0.48
		c-0.013,0.109-0.017,0.172-0.017,0.191l-0.146,1.171c-0.031,0.368-0.047,0.588-0.05,0.661c-0.112,0.032-0.226,0.053-0.337,0.064
		c-0.234,0.019-0.603,0.028-1.097,0.028c-0.069,0-0.523-0.009-1.361-0.028c-0.638-0.014-1.082-0.023-1.333-0.023
		C230.51,16.251,229.936,16.267,229.162,16.302z"/>
	<path fill="#FFFFFF" d="M244.484,15.253l-0.264,0.585c-0.483,0.256-0.92,0.43-1.303,0.524c-0.387,0.096-0.865,0.144-1.441,0.144
		c-0.819,0-1.544-0.13-2.173-0.39c-0.495-0.209-0.915-0.484-1.259-0.829c-0.343-0.344-0.609-0.718-0.795-1.119
		c-0.281-0.608-0.422-1.266-0.422-1.976c0-1.218,0.416-2.213,1.248-2.984c0.834-0.77,2.009-1.155,3.529-1.155
		c0.521,0,0.989,0.039,1.405,0.116c0.416,0.078,0.897,0.214,1.445,0.411l0.028,0.076c-0.061,0.182-0.108,0.41-0.144,0.684
		c-0.058,0.437-0.097,0.839-0.11,1.211h-0.453c-0.009-0.426-0.027-0.765-0.059-1.02c-0.259-0.271-0.551-0.473-0.871-0.605
		c-0.323-0.134-0.734-0.2-1.238-0.2c-0.909,0-1.636,0.286-2.181,0.861c-0.544,0.573-0.816,1.375-0.816,2.403
		c0,0.622,0.094,1.167,0.275,1.63c0.183,0.463,0.429,0.847,0.733,1.15c0.306,0.304,0.611,0.524,0.92,0.664
		c0.422,0.185,0.933,0.279,1.53,0.279c0.395,0,0.768-0.044,1.119-0.133c0.353-0.089,0.734-0.243,1.148-0.458L244.484,15.253z"/>
	<path fill="#FFFFFF" d="M51.709,34.742l-0.24,0.574c-0.48,0.241-0.953,0.417-1.411,0.526c-0.459,0.108-0.961,0.164-1.503,0.164
		c-0.637,0-1.228-0.081-1.774-0.241c-0.546-0.161-1.022-0.39-1.433-0.688c-0.408-0.299-0.741-0.632-0.999-1
		c-0.259-0.371-0.456-0.772-0.591-1.206c-0.135-0.435-0.205-0.91-0.205-1.428c0-1.31,0.458-2.396,1.371-3.256
		c0.913-0.86,2.161-1.293,3.741-1.293c0.373,0,0.72,0.021,1.038,0.065c0.319,0.042,0.705,0.125,1.163,0.246
		c0.459,0.121,0.739,0.192,0.841,0.211c-0.09,0.226-0.158,0.447-0.202,0.665c-0.067,0.349-0.111,0.753-0.136,1.213h-0.389
		l-0.006-0.728c-0.042-0.4-0.264-0.701-0.668-0.899c-0.405-0.197-0.997-0.296-1.778-0.296c-0.582,0.01-1.076,0.084-1.483,0.226
		c-0.406,0.141-0.766,0.366-1.075,0.671c-0.31,0.306-0.563,0.693-0.761,1.164c-0.197,0.471-0.299,1.062-0.302,1.771
		c0,1.244,0.38,2.245,1.141,3.001c0.758,0.76,1.763,1.138,3.011,1.138c0.563,0,1.084-0.077,1.564-0.232
		c0.329-0.105,0.655-0.273,0.98-0.5L51.709,34.742z"/>
	<path fill="#FFFFFF" d="M58.135,34.871l-0.197,0.444c-0.283,0.175-0.491,0.293-0.621,0.352c-0.193,0.087-0.414,0.159-0.663,0.218
		c-0.248,0.06-0.51,0.091-0.785,0.091c-0.542,0-1.032-0.112-1.471-0.338c-0.44-0.228-0.781-0.565-1.026-1.014
		c-0.244-0.45-0.365-0.977-0.365-1.581c0-0.471,0.062-0.896,0.193-1.277c0.129-0.38,0.277-0.659,0.439-0.841
		c0.12-0.132,0.305-0.282,0.554-0.452c0.25-0.171,0.5-0.306,0.746-0.403c0.324-0.135,0.674-0.205,1.053-0.205
		c0.459,0,0.876,0.105,1.248,0.315c0.371,0.21,0.645,0.495,0.816,0.855c0.172,0.362,0.259,0.771,0.259,1.226
		c0,0.114-0.011,0.254-0.032,0.419c-0.296,0.057-0.56,0.095-0.793,0.111c-0.442,0.031-0.885,0.05-1.329,0.05h-1.972
		c0.007,0.587,0.108,1.064,0.304,1.429c0.195,0.363,0.465,0.634,0.807,0.807c0.343,0.172,0.7,0.258,1.07,0.258
		c0.249,0,0.5-0.04,0.748-0.121c0.248-0.081,0.554-0.23,0.92-0.447L58.135,34.871z M54.188,32.354
		c0.114,0.013,0.332,0.023,0.653,0.037c0.611,0.02,1.031,0.03,1.262,0.03c0.545,0,0.906-0.011,1.078-0.03
		c0.003-0.099,0.005-0.175,0.005-0.228c0-0.65-0.132-1.126-0.395-1.429c-0.262-0.306-0.614-0.457-1.053-0.457
		c-0.464,0-0.837,0.167-1.12,0.499C54.336,31.108,54.192,31.635,54.188,32.354z"/>
	<path fill="#FFFFFF" d="M59.653,35.826v-0.351c0.468-0.009,0.72-0.019,0.756-0.024c0.07-0.012,0.124-0.031,0.159-0.059
		c0.035-0.026,0.062-0.063,0.083-0.112c0.042-0.096,0.066-0.244,0.074-0.444c0.021-1.096,0.032-1.671,0.032-1.719v-0.732
		c0-0.327-0.007-0.683-0.019-1.059c-0.007-0.244-0.024-0.389-0.051-0.432c-0.028-0.046-0.074-0.079-0.143-0.102
		c-0.066-0.022-0.336-0.031-0.805-0.027v-0.352c0.831-0.116,1.437-0.266,1.818-0.45c0.083-0.041,0.137-0.061,0.166-0.061
		c0.03,0,0.053,0.012,0.068,0.031c0.016,0.02,0.024,0.053,0.024,0.094c0,0.027-0.002,0.06-0.007,0.097
		c-0.019,0.251-0.032,0.639-0.037,1.165c0.184-0.213,0.355-0.427,0.511-0.636c0.156-0.208,0.27-0.345,0.338-0.404
		c0.124-0.105,0.266-0.194,0.426-0.256c0.16-0.063,0.325-0.095,0.498-0.095s0.343,0.037,0.512,0.111l0.037,0.087
		c-0.062,0.544-0.097,1.025-0.105,1.441h-0.276c-0.095-0.197-0.205-0.342-0.329-0.433c-0.127-0.092-0.283-0.135-0.471-0.135
		c-0.317,0-0.585,0.132-0.807,0.392c-0.222,0.261-0.333,0.653-0.333,1.175v0.633c0,0.272,0.011,0.768,0.031,1.484
		c0.004,0.253,0.015,0.417,0.03,0.485c0.018,0.07,0.039,0.12,0.064,0.151c0.026,0.03,0.07,0.056,0.131,0.077
		c0.124,0.037,0.457,0.074,0.998,0.111v0.351c-0.722-0.027-1.337-0.042-1.848-0.042C60.655,35.784,60.146,35.798,59.653,35.826z"/>
	<path fill="#FFFFFF" d="M65.26,30.998v-0.259c0.395-0.154,0.709-0.295,0.941-0.419c0-0.977,0-1.601,0-1.872
		c0.428-0.147,0.774-0.307,1.042-0.473l0.148,0.124c-0.046,0.339-0.095,1.091-0.148,2.254c0.329,0.004,0.526,0.006,0.591,0.006
		c0.037,0,0.248-0.004,0.633-0.013c0.215-0.005,0.375-0.014,0.48-0.024l0.044,0.045l-0.13,0.572
		c-0.258-0.004-0.497-0.005-0.714-0.005c-0.216,0-0.519,0.001-0.905,0.005l-0.032,2.508c-0.012,0.61-0.007,0.977,0.013,1.096
		c0.021,0.118,0.06,0.222,0.118,0.311c0.056,0.09,0.131,0.16,0.224,0.213c0.092,0.054,0.248,0.093,0.469,0.123
		c0.167,0,0.303-0.007,0.408-0.021c0.104-0.015,0.236-0.052,0.396-0.107l0.072,0.24c-0.192,0.153-0.378,0.31-0.56,0.475
		c-0.155,0.055-0.301,0.094-0.436,0.112c-0.135,0.019-0.291,0.028-0.469,0.028c-0.216,0-0.391-0.024-0.519-0.074
		c-0.127-0.05-0.246-0.119-0.354-0.207c-0.108-0.088-0.195-0.2-0.266-0.336c-0.07-0.135-0.116-0.349-0.137-0.641
		c0.003-0.277,0.013-0.583,0.024-0.916c0.003-0.067,0.006-0.138,0.006-0.217v-2.556h-0.252
		C65.744,30.969,65.515,30.979,65.26,30.998z"/>
	<path fill="#FFFFFF" d="M70,30.758v-0.351c0.795-0.091,1.466-0.263,2.008-0.518l0.135,0.099c-0.033,0.875-0.049,1.545-0.049,2.008
		v1.12c0.019,1.069,0.031,1.646,0.037,1.732c0.003,0.206,0.026,0.357,0.066,0.448c0.021,0.036,0.048,0.068,0.081,0.095
		c0.031,0.027,0.081,0.049,0.147,0.064c0.025,0.005,0.252,0.011,0.684,0.02v0.35c-0.625-0.028-1.123-0.042-1.496-0.042
		c-0.329,0-0.867,0.014-1.613,0.042v-0.35l0.587-0.008c0.089-0.003,0.155-0.02,0.203-0.047c0.048-0.026,0.083-0.059,0.107-0.101
		c0.045-0.081,0.075-0.228,0.088-0.437c0-0.055,0.009-0.643,0.03-1.769v-1.084c0-0.61-0.021-0.975-0.061-1.089
		c-0.024-0.062-0.069-0.109-0.132-0.14C70.758,30.773,70.483,30.758,70,30.758z M71.502,27.154c0.192,0,0.356,0.068,0.489,0.205
		c0.133,0.136,0.201,0.299,0.201,0.493c0,0.188-0.069,0.35-0.205,0.485c-0.136,0.135-0.297,0.205-0.486,0.205
		c-0.193,0-0.356-0.069-0.493-0.205c-0.136-0.136-0.205-0.298-0.205-0.485c0-0.194,0.069-0.357,0.205-0.493
		C71.146,27.223,71.309,27.154,71.502,27.154z"/>
	<path fill="#FFFFFF" d="M74.491,31.01v-0.25c0.32-0.133,0.604-0.276,0.85-0.428v-0.369c0-0.533,0.033-0.91,0.1-1.13
		c0.068-0.22,0.164-0.415,0.286-0.588c0.185-0.255,0.477-0.579,0.875-0.973c0.268-0.259,0.465-0.421,0.591-0.487
		c0.169-0.087,0.366-0.129,0.591-0.129c0.16,0,0.323,0.026,0.493,0.079l0.024,1.022l-0.141,0.057
		c-0.129-0.107-0.253-0.185-0.38-0.236c-0.125-0.049-0.271-0.073-0.44-0.073c-0.222,0-0.402,0.045-0.542,0.135
		c-0.139,0.09-0.242,0.22-0.304,0.388c-0.063,0.17-0.095,0.511-0.095,1.031v1.273h0.653c0.327,0,0.649-0.016,0.965-0.042
		l0.062,0.037l-0.124,0.641c-0.356-0.02-0.62-0.024-0.788-0.024c-0.172,0-0.43,0.007-0.77,0.024v2.199
		c0,0.273,0.009,0.768,0.029,1.483c0.004,0.256,0.015,0.417,0.032,0.487c0.017,0.069,0.037,0.12,0.063,0.15
		c0.028,0.031,0.072,0.055,0.133,0.077c0.123,0.037,0.456,0.074,0.997,0.11v0.351c-0.957-0.028-1.54-0.042-1.749-0.042
		c-0.19,0-0.718,0.014-1.584,0.042v-0.351l0.589-0.007c0.086-0.003,0.153-0.02,0.201-0.047c0.048-0.026,0.085-0.059,0.109-0.101
		c0.046-0.081,0.074-0.228,0.087-0.437c0-0.053,0.01-0.641,0.031-1.765v-2.152L74.491,31.01z"/>
	<path fill="#FFFFFF" d="M79.133,30.758v-0.351c0.795-0.091,1.466-0.263,2.008-0.518l0.135,0.099
		c-0.033,0.875-0.05,1.545-0.05,2.008v1.12c0.019,1.069,0.032,1.646,0.037,1.732c0.003,0.206,0.026,0.357,0.067,0.448
		c0.021,0.036,0.047,0.068,0.081,0.095c0.032,0.027,0.081,0.049,0.148,0.064c0.024,0.005,0.251,0.011,0.683,0.02v0.35
		c-0.625-0.028-1.123-0.042-1.496-0.042c-0.328,0-0.867,0.014-1.613,0.042v-0.35l0.587-0.008c0.088-0.003,0.155-0.02,0.203-0.047
		c0.047-0.026,0.083-0.059,0.107-0.101c0.046-0.081,0.076-0.228,0.088-0.437c0-0.055,0.009-0.643,0.03-1.769v-1.084
		c0-0.61-0.021-0.975-0.062-1.089c-0.024-0.062-0.068-0.109-0.131-0.14C79.891,30.773,79.616,30.758,79.133,30.758z M80.635,27.154
		c0.192,0,0.356,0.068,0.489,0.205c0.133,0.136,0.201,0.299,0.201,0.493c0,0.188-0.068,0.35-0.205,0.485
		c-0.136,0.135-0.297,0.205-0.485,0.205c-0.194,0-0.356-0.069-0.493-0.205c-0.136-0.136-0.204-0.298-0.204-0.485
		c0-0.194,0.068-0.357,0.204-0.493C80.279,27.223,80.441,27.154,80.635,27.154z"/>
	<path fill="#FFFFFF" d="M88.6,34.871l-0.197,0.444c-0.283,0.175-0.489,0.293-0.621,0.352c-0.194,0.087-0.414,0.159-0.661,0.218
		c-0.249,0.06-0.51,0.091-0.787,0.091c-0.543,0-1.032-0.112-1.471-0.338c-0.44-0.228-0.781-0.565-1.027-1.014
		c-0.244-0.45-0.365-0.977-0.365-1.581c0-0.471,0.065-0.896,0.194-1.277c0.131-0.38,0.277-0.659,0.439-0.841
		c0.121-0.132,0.305-0.282,0.554-0.452c0.251-0.171,0.5-0.306,0.746-0.403c0.324-0.135,0.676-0.205,1.052-0.205
		c0.461,0,0.876,0.105,1.248,0.315c0.372,0.21,0.645,0.495,0.816,0.855c0.173,0.362,0.259,0.771,0.259,1.226
		c0,0.114-0.01,0.254-0.032,0.419c-0.293,0.057-0.56,0.095-0.792,0.111c-0.443,0.031-0.887,0.05-1.329,0.05h-1.975
		c0.009,0.587,0.109,1.064,0.305,1.429c0.195,0.363,0.465,0.634,0.808,0.807c0.341,0.172,0.699,0.258,1.068,0.258
		c0.25,0,0.5-0.04,0.748-0.121s0.556-0.23,0.92-0.447L88.6,34.871z M84.652,32.354c0.114,0.013,0.333,0.023,0.653,0.037
		c0.613,0.02,1.033,0.03,1.262,0.03c0.547,0,0.906-0.011,1.079-0.03c0.004-0.099,0.005-0.175,0.005-0.228
		c0-0.65-0.13-1.126-0.394-1.429c-0.262-0.306-0.612-0.457-1.052-0.457c-0.465,0-0.838,0.167-1.121,0.499
		S84.656,31.635,84.652,32.354z"/>
	<path fill="#FFFFFF" d="M94.011,27.462v-0.35c0.456-0.05,0.841-0.109,1.154-0.176c0.315-0.068,0.62-0.151,0.919-0.249l0.081,0.055
		c-0.017,0.349-0.035,1.022-0.056,2.021l-0.024,0.985v3.855c0,0.419,0.007,0.781,0.022,1.086c0.014,0.306,0.039,0.489,0.076,0.547
		c0.037,0.06,0.098,0.107,0.185,0.145c0.086,0.037,0.343,0.074,0.77,0.111v0.332c-0.502-0.028-0.854-0.043-1.061-0.043
		c-0.175,0-0.539,0.015-1.083,0.043c0.012-0.281,0.022-0.665,0.029-1.145c-0.164,0.12-0.383,0.298-0.661,0.537
		c-0.277,0.237-0.493,0.431-0.65,0.582c-0.328,0.085-0.618,0.125-0.87,0.125c-0.462,0-0.889-0.114-1.281-0.345
		c-0.389-0.23-0.69-0.563-0.901-1.001c-0.213-0.437-0.318-0.928-0.318-1.476c0-0.409,0.065-0.8,0.195-1.166
		c0.128-0.368,0.292-0.653,0.489-0.854c0.111-0.114,0.362-0.289,0.757-0.522c0.395-0.234,0.714-0.405,0.959-0.509
		c0.243-0.104,0.51-0.156,0.797-0.156c0.259,0,0.512,0.031,0.76,0.095c0.249,0.062,0.489,0.162,0.723,0.29v-1.619
		c0-0.571-0.023-0.919-0.074-1.04c-0.016-0.045-0.045-0.077-0.091-0.098C94.778,27.487,94.495,27.468,94.011,27.462z M95.026,31.336
		c-0.279-0.309-0.572-0.532-0.876-0.674c-0.307-0.141-0.608-0.211-0.903-0.211c-0.335,0-0.648,0.087-0.93,0.259
		c-0.283,0.17-0.5,0.431-0.65,0.779c-0.149,0.351-0.225,0.768-0.225,1.258c0,0.748,0.187,1.334,0.562,1.757
		c0.373,0.423,0.822,0.634,1.348,0.634c0.275,0,0.521-0.057,0.738-0.172c0.216-0.114,0.408-0.281,0.573-0.504
		c0.167-0.222,0.271-0.47,0.316-0.738c0.033-0.18,0.049-0.625,0.049-1.332V31.336z"/>
	<path fill="#FFFFFF" d="M102.281,27.476V27.08c0.825,0.03,1.478,0.044,1.958,0.044c0.32,0,0.66-0.005,1.022-0.014l0.966-0.035
		c0.107-0.004,0.206-0.007,0.296-0.007c0.652,0,1.167,0.072,1.54,0.216c0.373,0.142,0.665,0.37,0.874,0.687
		c0.21,0.313,0.315,0.672,0.315,1.075c0,0.359-0.088,0.72-0.263,1.075c-0.172,0.357-0.428,0.659-0.76,0.908
		c-0.333,0.249-0.68,0.43-1.042,0.535c-0.245,0.073-0.526,0.11-0.837,0.11c-0.262,0-0.545-0.028-0.849-0.088l-0.129-0.456
		c0.364,0.087,0.654,0.133,0.862,0.133c0.308,0,0.6-0.076,0.876-0.226c0.278-0.151,0.493-0.377,0.648-0.681
		c0.153-0.303,0.23-0.636,0.23-1.002c0-0.355-0.074-0.672-0.226-0.959c-0.149-0.284-0.376-0.501-0.683-0.651
		c-0.307-0.147-0.677-0.222-1.112-0.222c-0.391,0-0.809,0.071-1.256,0.21c-0.037,0.433-0.055,1.113-0.055,2.043v3.103
		c0,0.556,0.005,1.102,0.019,1.631c0.012,0.389,0.042,0.621,0.09,0.695s0.124,0.128,0.227,0.163
		c0.106,0.034,0.401,0.056,0.891,0.063v0.395c-0.761-0.028-1.318-0.042-1.674-0.042c-0.139,0-0.781,0.014-1.928,0.042v-0.395
		c0.482-0.009,0.775-0.029,0.882-0.063c0.105-0.035,0.18-0.084,0.22-0.146c0.049-0.081,0.081-0.28,0.093-0.597
		c0.005-0.086,0.014-0.669,0.03-1.746v-2.85c0-0.558-0.005-1.105-0.019-1.637c-0.012-0.391-0.042-0.62-0.09-0.692
		c-0.048-0.072-0.124-0.126-0.229-0.161C103.066,27.505,102.769,27.483,102.281,27.476z"/>
	<path fill="#FFFFFF" d="M117.482,35.476v0.351c-0.537-0.028-0.943-0.042-1.219-0.042c-0.307,0-0.613,0.014-0.924,0.042
		c0.025-0.333,0.045-0.706,0.055-1.121c-0.244,0.198-0.539,0.468-0.881,0.808c-0.078,0.078-0.154,0.134-0.229,0.171
		c-0.176,0.098-0.354,0.17-0.529,0.21c-0.174,0.045-0.387,0.065-0.633,0.065c-0.332,0-0.611-0.045-0.834-0.135
		c-0.225-0.09-0.416-0.227-0.576-0.411c-0.121-0.134-0.211-0.312-0.277-0.528c-0.062-0.215-0.094-0.476-0.094-0.777
		c0-0.143,0.006-0.281,0.014-0.405c0.012-0.13,0.018-0.253,0.018-0.377v-1.054c0-0.105-0.006-0.377-0.02-0.807
		c-0.008-0.271-0.027-0.447-0.055-0.53c-0.018-0.04-0.043-0.073-0.08-0.098c-0.061-0.041-0.168-0.062-0.328-0.062
		c-0.225,0-0.402-0.001-0.533-0.006v-0.352c0.881-0.099,1.52-0.257,1.92-0.474c0.066-0.037,0.117-0.056,0.154-0.056
		c0.027,0,0.055,0.012,0.07,0.032c0.02,0.019,0.027,0.052,0.027,0.092c0,0.034-0.002,0.074-0.006,0.125
		c-0.018,0.131-0.031,0.384-0.045,0.759c-0.023,0.685-0.037,1.145-0.037,1.38v1.2c0,0.501,0.033,0.852,0.102,1.056
		s0.199,0.364,0.396,0.487c0.195,0.121,0.436,0.18,0.723,0.18c0.197,0,0.393-0.032,0.586-0.101c0.197-0.067,0.371-0.167,0.527-0.292
		c0.115-0.095,0.232-0.222,0.354-0.382c0.09-0.12,0.148-0.211,0.178-0.276c0.027-0.062,0.047-0.157,0.057-0.281
		c0.02-0.359,0.031-0.72,0.031-1.075v-0.516c0-0.107-0.008-0.377-0.02-0.809c-0.008-0.271-0.025-0.446-0.057-0.529
		c-0.018-0.04-0.043-0.074-0.08-0.099c-0.061-0.04-0.17-0.061-0.324-0.061c-0.227,0-0.404-0.002-0.539-0.005v-0.354
		c0.883-0.098,1.521-0.257,1.918-0.472c0.064-0.037,0.117-0.057,0.152-0.057c0.029,0,0.055,0.011,0.07,0.03
		c0.02,0.019,0.027,0.053,0.027,0.093c0,0.033-0.002,0.074-0.004,0.125c-0.016,0.131-0.025,0.393-0.043,0.783
		c-0.021,0.667-0.031,1.119-0.031,1.354v0.843l0.012,0.857c0.016,0.496,0.025,0.788,0.029,0.875
		c0.004,0.204,0.025,0.355,0.066,0.448c0.021,0.037,0.049,0.068,0.082,0.095c0.029,0.026,0.082,0.05,0.145,0.063
		C116.828,35.462,117.057,35.468,117.482,35.476z"/>
	<path fill="#FFFFFF" d="M119.234,35.851c0.049-0.518,0.078-0.845,0.08-0.979c0.023-0.89,0.037-1.413,0.037-1.569v-2.738
		c0-0.685-0.012-1.394-0.031-2.124c-0.018-0.49-0.039-0.767-0.066-0.823c-0.021-0.042-0.055-0.069-0.1-0.086
		c-0.061-0.03-0.348-0.044-0.854-0.044v-0.363c0.926-0.116,1.57-0.258,1.932-0.431c0.057-0.024,0.096-0.037,0.123-0.037
		c0.031,0,0.055,0.009,0.068,0.026c0.018,0.019,0.025,0.046,0.025,0.077c0,0.026-0.004,0.07-0.014,0.124l-0.008,0.202
		c-0.018,0.735-0.031,1.361-0.037,1.876l-0.012,0.961v1.217l0.85-0.832c0.111-0.093,0.293-0.187,0.547-0.276
		c0.256-0.093,0.527-0.136,0.814-0.136c0.451,0,0.852,0.106,1.199,0.318c0.35,0.21,0.617,0.509,0.805,0.895
		c0.186,0.388,0.281,0.812,0.281,1.282c0,0.361-0.055,0.703-0.162,1.029c-0.104,0.323-0.242,0.615-0.41,0.868
		c-0.125,0.193-0.23,0.325-0.316,0.396l-0.898,0.647c-0.365,0.271-0.65,0.443-0.855,0.519c-0.207,0.078-0.469,0.114-0.789,0.114
		c-0.273,0-0.529-0.036-0.764-0.11s-0.482-0.204-0.746-0.387l-0.498,0.468L119.234,35.851z M120.379,31.879v2.308
		c0,0.207,0.014,0.338,0.037,0.396c0.02,0.058,0.09,0.134,0.205,0.229c0.172,0.143,0.373,0.259,0.6,0.345
		c0.23,0.088,0.471,0.13,0.725,0.13c0.598,0,1.055-0.229,1.373-0.69c0.32-0.46,0.48-1.028,0.48-1.705
		c0-0.48-0.076-0.884-0.229-1.208c-0.152-0.325-0.361-0.568-0.629-0.731c-0.266-0.163-0.566-0.244-0.898-0.244
		c-0.389,0-0.738,0.111-1.047,0.335C120.688,31.27,120.484,31.547,120.379,31.879z"/>
	<path fill="#FFFFFF" d="M126.357,35.826v-0.351l0.58-0.007c0.09-0.003,0.158-0.02,0.207-0.047c0.047-0.027,0.082-0.059,0.107-0.101
		c0.045-0.081,0.072-0.228,0.08-0.437c0.004-0.053,0.02-0.643,0.043-1.767v-2.554c0-0.685-0.01-1.394-0.029-2.124
		c-0.018-0.49-0.037-0.767-0.068-0.823c-0.021-0.042-0.055-0.069-0.098-0.086c-0.062-0.03-0.348-0.044-0.855-0.044v-0.363
		c0.928-0.116,1.572-0.258,1.934-0.431c0.053-0.024,0.094-0.037,0.123-0.037c0.031,0,0.051,0.009,0.066,0.026
		c0.018,0.018,0.025,0.046,0.025,0.077c0,0.028-0.006,0.069-0.014,0.124l-0.006,0.204c-0.021,0.733-0.033,1.36-0.037,1.875
		l-0.012,0.961v3.194c0.018,1.066,0.025,1.644,0.027,1.729c0.008,0.207,0.031,0.356,0.078,0.449
		c0.016,0.036,0.041,0.068,0.072,0.097c0.033,0.024,0.084,0.047,0.148,0.062c0.029,0.005,0.258,0.012,0.689,0.02v0.351
		c-0.559-0.028-1.049-0.043-1.471-0.043C127.543,35.784,127.014,35.798,126.357,35.826z"/>
	<path fill="#FFFFFF" d="M130.621,30.758v-0.351c0.797-0.091,1.467-0.263,2.008-0.518l0.137,0.099
		c-0.035,0.875-0.051,1.545-0.051,2.008v1.12c0.02,1.069,0.033,1.646,0.037,1.732c0.004,0.206,0.025,0.357,0.066,0.448
		c0.02,0.036,0.049,0.068,0.082,0.095c0.031,0.027,0.082,0.049,0.146,0.064c0.023,0.005,0.252,0.011,0.686,0.02v0.35
		c-0.625-0.028-1.125-0.042-1.498-0.042c-0.328,0-0.865,0.014-1.613,0.042v-0.35l0.59-0.008c0.086-0.003,0.152-0.02,0.201-0.047
		c0.047-0.027,0.084-0.059,0.109-0.101c0.045-0.081,0.072-0.228,0.086-0.437c0-0.055,0.01-0.643,0.031-1.769v-1.084
		c0-0.61-0.021-0.975-0.062-1.089c-0.021-0.062-0.068-0.109-0.131-0.14C131.379,30.773,131.105,30.758,130.621,30.758z
		 M132.125,27.154c0.193,0,0.355,0.068,0.488,0.205c0.133,0.136,0.201,0.299,0.201,0.493c0,0.188-0.066,0.35-0.203,0.485
		c-0.137,0.135-0.299,0.205-0.486,0.205c-0.195,0-0.357-0.069-0.494-0.205s-0.203-0.298-0.203-0.485
		c0-0.194,0.066-0.357,0.203-0.493C131.768,27.223,131.93,27.154,132.125,27.154z"/>
	<path fill="#FFFFFF" d="M139.992,35.124l-0.244,0.414c-0.283,0.15-0.564,0.262-0.844,0.332c-0.275,0.068-0.588,0.104-0.938,0.104
		c-0.861,0-1.551-0.258-2.059-0.779c-0.514-0.519-0.77-1.233-0.77-2.142c0-0.482,0.068-0.899,0.207-1.255
		c0.137-0.356,0.307-0.63,0.506-0.823c0.137-0.136,0.396-0.312,0.773-0.528c0.379-0.214,0.645-0.355,0.799-0.415
		c0.277-0.119,0.611-0.18,1.002-0.18c0.371,0,0.701,0.039,0.996,0.118c0.189,0.05,0.379,0.131,0.566,0.246
		c-0.047,0.315-0.08,0.553-0.098,0.717c-0.021,0.163-0.047,0.457-0.078,0.883h-0.354c-0.021-0.397-0.049-0.647-0.074-0.746
		c-0.016-0.06-0.053-0.116-0.109-0.166c-0.148-0.116-0.338-0.214-0.57-0.298c-0.234-0.086-0.488-0.128-0.764-0.128
		c-0.346,0-0.645,0.072-0.898,0.212c-0.252,0.143-0.447,0.368-0.59,0.676c-0.137,0.309-0.207,0.69-0.207,1.147
		c0,0.558,0.098,1.064,0.295,1.517s0.465,0.781,0.805,0.99c0.338,0.207,0.719,0.312,1.137,0.312c0.209,0,0.414-0.024,0.615-0.078
		c0.197-0.051,0.453-0.147,0.768-0.291L139.992,35.124z"/>
	<path fill="#FFFFFF" d="M144.406,35.826v-0.419c0.324-0.003,0.529-0.018,0.607-0.04c0.082-0.021,0.154-0.065,0.223-0.131
		c0.068-0.062,0.166-0.229,0.293-0.496c0.074-0.151,0.342-0.729,0.801-1.729l1.543-3.472c0.17-0.384,0.529-1.232,1.08-2.55h0.395
		l2.635,6.175c0.426,1.002,0.711,1.633,0.848,1.885c0.08,0.144,0.166,0.24,0.256,0.282c0.094,0.047,0.301,0.07,0.625,0.073v0.42
		c-0.641-0.041-1.088-0.062-1.344-0.062l-1.984,0.062v-0.417c0.463-0.007,0.738-0.022,0.838-0.042
		c0.098-0.021,0.166-0.053,0.201-0.092c0.035-0.038,0.053-0.088,0.053-0.143c0-0.093-0.027-0.207-0.086-0.354l-0.756-1.886h-3.568
		l-0.668,1.585c-0.119,0.282-0.18,0.491-0.18,0.62c0,0.058,0.018,0.105,0.051,0.143c0.047,0.053,0.117,0.09,0.207,0.11
		c0.154,0.031,0.42,0.052,0.801,0.055v0.42c-0.693-0.037-1.213-0.056-1.557-0.056C145.316,35.772,144.881,35.789,144.406,35.826z
		 M147.275,32.372h3.105l-1.533-3.708L147.275,32.372z"/>
	<path fill="#FFFFFF" d="M159.986,35.124l-0.246,0.414c-0.283,0.15-0.564,0.262-0.842,0.332c-0.277,0.068-0.59,0.104-0.939,0.104
		c-0.863,0-1.549-0.258-2.059-0.779c-0.512-0.519-0.768-1.233-0.768-2.142c0-0.482,0.068-0.899,0.205-1.255
		c0.139-0.356,0.309-0.63,0.51-0.823c0.133-0.136,0.393-0.312,0.77-0.528c0.381-0.214,0.648-0.355,0.799-0.415
		c0.281-0.119,0.615-0.18,1.004-0.18c0.369,0,0.701,0.039,0.998,0.118c0.188,0.05,0.377,0.131,0.566,0.246
		c-0.049,0.315-0.082,0.553-0.102,0.717c-0.02,0.163-0.047,0.457-0.078,0.883h-0.35c-0.025-0.397-0.051-0.647-0.074-0.746
		c-0.02-0.06-0.057-0.116-0.111-0.166c-0.15-0.116-0.34-0.214-0.572-0.298c-0.232-0.086-0.484-0.128-0.764-0.128
		c-0.344,0-0.645,0.072-0.896,0.212c-0.252,0.143-0.447,0.368-0.588,0.676c-0.139,0.309-0.209,0.69-0.209,1.147
		c0,0.558,0.098,1.064,0.295,1.517s0.467,0.781,0.807,0.99c0.338,0.207,0.715,0.312,1.135,0.312c0.207,0,0.412-0.024,0.613-0.078
		c0.199-0.051,0.455-0.147,0.768-0.291L159.986,35.124z"/>
	<path fill="#FFFFFF" d="M166.215,35.124l-0.246,0.414c-0.281,0.15-0.564,0.262-0.842,0.332c-0.277,0.068-0.59,0.104-0.939,0.104
		c-0.861,0-1.549-0.258-2.061-0.779c-0.51-0.519-0.766-1.233-0.766-2.142c0-0.482,0.068-0.899,0.207-1.255
		c0.137-0.356,0.305-0.63,0.508-0.823c0.135-0.136,0.393-0.312,0.771-0.528c0.379-0.214,0.646-0.355,0.799-0.415
		c0.279-0.119,0.613-0.18,1.002-0.18c0.369,0,0.703,0.039,0.998,0.118c0.189,0.05,0.377,0.131,0.566,0.246
		c-0.047,0.315-0.082,0.553-0.102,0.717c-0.018,0.163-0.045,0.457-0.078,0.883h-0.35c-0.025-0.397-0.051-0.647-0.074-0.746
		c-0.02-0.06-0.057-0.116-0.111-0.166c-0.148-0.116-0.338-0.214-0.57-0.298c-0.234-0.086-0.486-0.128-0.764-0.128
		c-0.346,0-0.646,0.072-0.898,0.212c-0.252,0.143-0.451,0.368-0.588,0.676c-0.141,0.309-0.209,0.69-0.209,1.147
		c0,0.558,0.098,1.064,0.295,1.517s0.465,0.781,0.803,0.99c0.342,0.207,0.721,0.312,1.139,0.312c0.207,0,0.414-0.024,0.613-0.078
		c0.199-0.051,0.455-0.147,0.766-0.291L166.215,35.124z"/>
	<path fill="#FFFFFF" d="M167.518,32.992c0-0.921,0.291-1.671,0.877-2.254c0.586-0.582,1.334-0.874,2.252-0.874
		c0.861,0,1.564,0.271,2.105,0.814c0.545,0.542,0.812,1.242,0.812,2.102c0,0.6-0.141,1.149-0.418,1.646
		c-0.281,0.497-0.674,0.886-1.182,1.169c-0.51,0.28-1.07,0.422-1.684,0.422c-0.475,0-0.879-0.08-1.211-0.24
		c-0.328-0.16-0.598-0.361-0.801-0.604c-0.207-0.244-0.363-0.49-0.471-0.746C167.611,33.979,167.518,33.5,167.518,32.992z
		 M168.68,32.534c0,0.507,0.086,1.021,0.252,1.542c0.17,0.521,0.412,0.904,0.73,1.144c0.318,0.242,0.666,0.361,1.037,0.361
		c0.477,0,0.875-0.188,1.195-0.567s0.48-0.96,0.48-1.746c0-0.653-0.094-1.218-0.287-1.692c-0.191-0.474-0.432-0.81-0.729-1.005
		c-0.299-0.195-0.623-0.293-0.98-0.293c-0.508,0-0.918,0.184-1.229,0.55C168.838,31.193,168.68,31.762,168.68,32.534z"/>
	<path fill="#FFFFFF" d="M181.9,35.476v0.351c-0.539-0.028-0.943-0.042-1.219-0.042c-0.305,0-0.613,0.014-0.924,0.042
		c0.023-0.333,0.043-0.706,0.055-1.121c-0.244,0.198-0.539,0.468-0.879,0.808c-0.08,0.078-0.154,0.134-0.229,0.171
		c-0.176,0.098-0.354,0.17-0.529,0.21c-0.178,0.045-0.391,0.065-0.635,0.065c-0.332,0-0.611-0.045-0.836-0.135
		c-0.223-0.091-0.414-0.227-0.574-0.411c-0.121-0.134-0.211-0.312-0.275-0.528c-0.064-0.215-0.096-0.476-0.096-0.777
		c0-0.143,0.004-0.281,0.018-0.405c0.01-0.13,0.016-0.253,0.016-0.377v-1.054c0-0.105-0.008-0.377-0.02-0.807
		c-0.01-0.271-0.025-0.447-0.057-0.53c-0.018-0.04-0.043-0.073-0.08-0.098c-0.062-0.041-0.17-0.062-0.326-0.062
		c-0.227,0-0.402-0.001-0.537-0.006v-0.352c0.885-0.099,1.525-0.257,1.922-0.474c0.066-0.037,0.119-0.056,0.156-0.056
		c0.027,0,0.053,0.012,0.07,0.032c0.02,0.019,0.027,0.052,0.027,0.092c0,0.034-0.004,0.074-0.008,0.125
		c-0.018,0.131-0.029,0.384-0.041,0.759c-0.025,0.685-0.037,1.145-0.037,1.38v1.2c0,0.501,0.033,0.852,0.098,1.056
		c0.07,0.204,0.201,0.364,0.396,0.487c0.195,0.121,0.434,0.18,0.723,0.18c0.197,0,0.395-0.032,0.588-0.101
		c0.195-0.067,0.371-0.167,0.527-0.292c0.115-0.095,0.232-0.222,0.35-0.382c0.094-0.12,0.152-0.211,0.18-0.276
		c0.029-0.064,0.049-0.157,0.057-0.281c0.02-0.359,0.029-0.72,0.029-1.075v-0.516c0-0.107-0.006-0.377-0.018-0.809
		c-0.01-0.271-0.027-0.446-0.057-0.529c-0.016-0.04-0.041-0.074-0.078-0.099c-0.061-0.04-0.17-0.061-0.328-0.061
		c-0.225,0-0.402-0.002-0.535-0.005v-0.354c0.883-0.098,1.521-0.257,1.916-0.472c0.066-0.037,0.117-0.057,0.154-0.057
		c0.027,0,0.053,0.011,0.07,0.03c0.02,0.019,0.027,0.053,0.027,0.093c0,0.033-0.002,0.074-0.006,0.125
		c-0.014,0.131-0.023,0.393-0.039,0.783c-0.023,0.667-0.035,1.119-0.035,1.354v0.843l0.012,0.857
		c0.018,0.496,0.027,0.788,0.031,0.875c0.004,0.204,0.027,0.355,0.068,0.448c0.018,0.037,0.047,0.068,0.078,0.095
		c0.033,0.026,0.08,0.05,0.148,0.063C181.244,35.462,181.473,35.468,181.9,35.476z"/>
	<path fill="#FFFFFF" d="M183.023,35.826v-0.351l0.586-0.007c0.09-0.003,0.156-0.02,0.205-0.047
		c0.047-0.027,0.082-0.059,0.109-0.101c0.043-0.081,0.072-0.228,0.086-0.437c0-0.055,0.01-0.643,0.029-1.769v-0.732
		c0-0.328-0.006-0.683-0.02-1.059c-0.012-0.243-0.031-0.388-0.057-0.432c-0.027-0.046-0.072-0.079-0.139-0.102
		c-0.064-0.023-0.332-0.032-0.801-0.028v-0.351c0.83-0.116,1.436-0.266,1.816-0.45c0.082-0.04,0.139-0.062,0.17-0.062
		c0.025,0,0.051,0.012,0.064,0.031c0.02,0.02,0.023,0.052,0.023,0.093c0,0.029,0,0.061-0.004,0.098
		c-0.014,0.147-0.025,0.462-0.037,0.937l1.145-0.979c0.336-0.123,0.656-0.186,0.955-0.186c0.332,0,0.648,0.067,0.947,0.204
		c0.297,0.134,0.521,0.306,0.67,0.511c0.15,0.205,0.25,0.464,0.299,0.776c0.029,0.185,0.043,0.7,0.043,1.545v1.091
		c0,0.533,0.016,0.897,0.043,1.089c0.021,0.124,0.055,0.21,0.096,0.256c0.045,0.047,0.111,0.077,0.201,0.09l0.658,0.019v0.351
		c-0.402-0.028-0.736-0.042-1.004-0.042c-0.23,0-0.611,0.014-1.145,0.042c0.057-1.014,0.088-1.654,0.088-1.922V32.87
		c0-0.645-0.025-1.066-0.074-1.269c-0.07-0.275-0.229-0.497-0.475-0.665s-0.545-0.25-0.893-0.25c-0.309,0-0.588,0.071-0.846,0.217
		c-0.252,0.146-0.436,0.314-0.543,0.506c-0.109,0.192-0.164,0.512-0.164,0.965v0.743c0.02,1.069,0.029,1.646,0.029,1.732
		c0.01,0.206,0.033,0.357,0.076,0.448c0.016,0.036,0.041,0.068,0.074,0.095c0.033,0.027,0.084,0.049,0.154,0.064
		c0.023,0.005,0.252,0.011,0.682,0.019v0.351c-0.5-0.028-0.955-0.042-1.361-0.042C184.367,35.784,183.803,35.798,183.023,35.826z"/>
	<path fill="#FFFFFF" d="M191.105,30.998v-0.259c0.396-0.154,0.709-0.295,0.943-0.419c0-0.977,0-1.601,0-1.872
		c0.43-0.147,0.775-0.307,1.041-0.473l0.146,0.124c-0.043,0.339-0.094,1.091-0.146,2.254c0.328,0.004,0.525,0.006,0.592,0.006
		c0.035,0,0.248-0.004,0.635-0.013c0.211-0.005,0.371-0.014,0.479-0.024l0.041,0.045l-0.127,0.572
		c-0.26-0.004-0.496-0.005-0.715-0.005s-0.52,0.001-0.906,0.005l-0.029,2.508c-0.014,0.61-0.01,0.977,0.012,1.096
		c0.02,0.118,0.061,0.222,0.115,0.311c0.059,0.09,0.133,0.16,0.225,0.213c0.094,0.054,0.25,0.093,0.469,0.123
		c0.168,0,0.305-0.007,0.408-0.021s0.236-0.052,0.395-0.107l0.074,0.24c-0.193,0.153-0.381,0.31-0.559,0.475
		c-0.158,0.055-0.303,0.094-0.436,0.112c-0.135,0.019-0.293,0.028-0.471,0.028c-0.217,0-0.391-0.024-0.52-0.074
		s-0.246-0.119-0.352-0.207c-0.107-0.088-0.197-0.2-0.268-0.336c-0.07-0.135-0.117-0.349-0.139-0.641
		c0.006-0.277,0.016-0.583,0.025-0.916c0.006-0.067,0.008-0.138,0.008-0.217v-2.556h-0.254
		C191.592,30.969,191.361,30.979,191.105,30.998z"/>
	<path fill="#FFFFFF" d="M196.904,31.608l-0.324-0.088c0.004-0.094,0.006-0.222,0.006-0.39c0-0.17-0.002-0.311-0.006-0.411
		c0.521-0.343,0.949-0.573,1.283-0.691c0.256-0.087,0.541-0.131,0.857-0.131c0.469,0,0.863,0.089,1.182,0.266
		c0.32,0.177,0.561,0.431,0.717,0.757c0.105,0.231,0.162,0.545,0.162,0.944l-0.031,1.126v1.835c0,0.197,0.016,0.34,0.049,0.427
		c0.025,0.061,0.062,0.105,0.117,0.135c0.041,0.024,0.129,0.041,0.26,0.05l0.398,0.037v0.351c-0.336-0.028-0.631-0.043-0.887-0.043
		c-0.244,0-0.574,0.015-0.984,0.043l0.031-1.084c-0.84,0.634-1.336,0.991-1.49,1.07c-0.156,0.081-0.354,0.121-0.592,0.121
		c-0.498,0-0.883-0.134-1.162-0.397c-0.277-0.266-0.414-0.618-0.414-1.056c0-0.282,0.049-0.542,0.145-0.775
		c0.096-0.234,0.213-0.422,0.35-0.558c0.135-0.138,0.273-0.24,0.41-0.305c0.238-0.111,0.625-0.231,1.16-0.357
		c0.537-0.129,1.068-0.222,1.596-0.281c0.004-0.393-0.045-0.695-0.143-0.913c-0.1-0.219-0.264-0.395-0.498-0.538
		c-0.234-0.138-0.521-0.208-0.857-0.208c-0.242,0-0.453,0.033-0.637,0.098c-0.184,0.066-0.295,0.122-0.336,0.168l-0.111,0.222
		C197.039,31.275,196.957,31.468,196.904,31.608z M199.732,32.575c-0.535,0.092-0.992,0.191-1.369,0.303
		c-0.379,0.11-0.646,0.225-0.801,0.345c-0.096,0.068-0.178,0.174-0.246,0.314c-0.105,0.206-0.16,0.432-0.16,0.685
		c0,0.303,0.082,0.542,0.252,0.711c0.168,0.17,0.402,0.255,0.701,0.255c0.275,0,0.547-0.08,0.814-0.238
		c0.27-0.157,0.539-0.396,0.807-0.711L199.732,32.575L199.732,32.575z"/>
	<path fill="#FFFFFF" d="M202.678,35.826v-0.351l0.59-0.007c0.086-0.003,0.152-0.02,0.201-0.047
		c0.049-0.026,0.086-0.059,0.109-0.101c0.045-0.081,0.072-0.228,0.088-0.437c0-0.055,0.01-0.643,0.029-1.769v-0.732
		c0-0.328-0.008-0.683-0.02-1.059c-0.012-0.243-0.031-0.388-0.057-0.432c-0.025-0.046-0.074-0.079-0.139-0.102
		c-0.064-0.023-0.332-0.032-0.801-0.028v-0.351c0.828-0.116,1.438-0.266,1.818-0.45c0.082-0.04,0.137-0.062,0.166-0.062
		s0.053,0.012,0.068,0.031s0.025,0.052,0.025,0.093c0,0.029-0.006,0.061-0.01,0.098c-0.012,0.147-0.023,0.462-0.037,0.937
		l1.146-0.979c0.336-0.123,0.654-0.186,0.955-0.186c0.332,0,0.648,0.067,0.947,0.204c0.297,0.135,0.52,0.306,0.668,0.511
		c0.152,0.205,0.25,0.464,0.299,0.776c0.029,0.185,0.047,0.7,0.047,1.545v1.091c0,0.533,0.014,0.897,0.041,1.089
		c0.02,0.124,0.053,0.21,0.094,0.256c0.045,0.047,0.111,0.077,0.203,0.09l0.658,0.019v0.351c-0.404-0.028-0.736-0.042-1.006-0.042
		c-0.23,0-0.611,0.014-1.145,0.042c0.057-1.014,0.086-1.654,0.086-1.922V32.87c0-0.645-0.021-1.066-0.074-1.269
		c-0.07-0.275-0.227-0.497-0.471-0.665c-0.246-0.168-0.545-0.25-0.895-0.25c-0.307,0-0.59,0.071-0.844,0.217
		c-0.254,0.146-0.436,0.314-0.545,0.506c-0.107,0.192-0.164,0.512-0.164,0.965v0.743c0.021,1.069,0.031,1.646,0.031,1.732
		c0.008,0.206,0.031,0.357,0.074,0.448c0.018,0.036,0.041,0.068,0.074,0.095c0.033,0.027,0.084,0.049,0.154,0.064
		c0.025,0.005,0.252,0.011,0.684,0.019v0.351c-0.502-0.028-0.957-0.042-1.363-0.042C204.021,35.784,203.457,35.798,202.678,35.826z"
		/>
	<path fill="#FFFFFF" d="M210.762,30.998v-0.259c0.395-0.154,0.707-0.295,0.941-0.419c0-0.977,0-1.601,0-1.872
		c0.428-0.147,0.773-0.307,1.041-0.473l0.146,0.124c-0.045,0.339-0.092,1.091-0.146,2.254c0.326,0.004,0.523,0.006,0.59,0.006
		c0.037,0,0.25-0.004,0.635-0.013c0.213-0.005,0.373-0.014,0.48-0.024l0.043,0.045l-0.129,0.572
		c-0.26-0.004-0.498-0.005-0.715-0.005c-0.219,0-0.52,0.001-0.906,0.005l-0.029,2.508c-0.016,0.61-0.012,0.977,0.012,1.096
		c0.02,0.118,0.059,0.222,0.115,0.311c0.059,0.09,0.133,0.16,0.227,0.213c0.09,0.054,0.248,0.093,0.469,0.123
		c0.17,0,0.305-0.007,0.406-0.021c0.105-0.015,0.24-0.052,0.396-0.107l0.074,0.24c-0.191,0.153-0.379,0.31-0.561,0.475
		c-0.156,0.055-0.301,0.094-0.436,0.112s-0.291,0.028-0.469,0.028c-0.217,0-0.393-0.024-0.52-0.074
		c-0.129-0.05-0.248-0.119-0.354-0.207c-0.107-0.088-0.197-0.2-0.266-0.336c-0.072-0.135-0.119-0.349-0.137-0.641
		c0.004-0.277,0.012-0.583,0.025-0.916c0.002-0.067,0.004-0.138,0.004-0.217v-2.556h-0.25
		C211.246,30.969,211.016,30.979,210.762,30.998z"/>
	<path fill="#FFFFFF" d="M215.789,33.967h0.369c0.002,0.239,0.018,0.428,0.037,0.567s0.055,0.275,0.104,0.409
		c0.051,0.133,0.127,0.246,0.229,0.338c0.104,0.094,0.215,0.166,0.336,0.216c0.121,0.051,0.246,0.085,0.371,0.103
		c0.125,0.017,0.314,0.024,0.57,0.024c0.42,0,0.768-0.111,1.035-0.333s0.4-0.526,0.4-0.911c0-0.173-0.041-0.326-0.127-0.458
		c-0.082-0.131-0.203-0.233-0.361-0.308s-0.5-0.169-1.023-0.289c-0.521-0.119-0.857-0.206-1.012-0.258
		c-0.23-0.089-0.414-0.19-0.547-0.315c-0.135-0.124-0.244-0.28-0.324-0.469c-0.078-0.19-0.119-0.396-0.119-0.617
		c0-0.324,0.084-0.622,0.256-0.897c0.168-0.272,0.438-0.494,0.805-0.664s0.764-0.255,1.197-0.255c0.258,0,0.559,0.037,0.9,0.107
		c0.342,0.071,0.617,0.162,0.832,0.269c-0.027,0.457-0.049,0.92-0.059,1.394h-0.354c-0.02-0.302-0.045-0.499-0.07-0.592
		s-0.062-0.178-0.107-0.252c-0.047-0.073-0.125-0.152-0.236-0.239c-0.111-0.083-0.254-0.159-0.428-0.223
		c-0.176-0.065-0.393-0.098-0.648-0.098c-0.359,0-0.652,0.105-0.873,0.319c-0.221,0.212-0.33,0.464-0.33,0.751
		c0,0.161,0.031,0.298,0.096,0.412c0.062,0.116,0.148,0.208,0.256,0.281c0.105,0.072,0.258,0.136,0.451,0.195l1.023,0.252
		c0.518,0.131,0.875,0.243,1.072,0.339c0.195,0.094,0.352,0.241,0.469,0.438c0.117,0.198,0.18,0.438,0.18,0.718
		c0,0.555-0.229,1.036-0.688,1.45c-0.459,0.411-1.072,0.62-1.842,0.62c-0.355,0-0.824-0.056-1.412-0.161
		c-0.324-0.061-0.5-0.105-0.525-0.132c-0.016-0.013-0.023-0.031-0.023-0.061c0-0.028,0.004-0.062,0.014-0.104
		c0.037-0.176,0.061-0.351,0.074-0.516C215.77,34.852,215.781,34.501,215.789,33.967z"/>
</g>
</svg>
